<?xml version="1.0"?>
<svg width="1110" height="1162" version="1.1" xmlns="http://www.w3.org/2000/svg" >
<defs>
<style type="text/css"><![CDATA[
.m {stroke:rgb(255,0,0);stroke-width:1.452500;}
.v {stroke:rgb(0,0,255);stroke-width:1.452500;}
.b {stroke:rgb(0,0,0);stroke-width:2.905000;fill:white}
.n {stroke:rgb(128,128,128);stroke-width:1.452500}
.t {stroke:rgb(0,128,0);stroke-width:1.452500;}
.c {stroke:rgb(128,128,128);stroke-width:1.452500;stroke-dasharray:11.100000, 11.100000;}
]]></style>
</defs>
<path fill="none" style="stroke:black;stroke-width:2.905000;" d=" M 895.609 689.977 L 876.273 689.888 M 880.904 720.928 L 890.693 720.973 M 914.024 695.876 L 895.609 689.977 M 890.693 720.973 L 900.015 723.959 M 929.813 707.038 L 914.024 695.876 M 900.015 723.959 L 908.008 729.61 M 941.514 722.432 L 929.813 707.038 M 913.932 737.403 L 941.514 722.432 M 908.008 729.61 L 913.932 737.403 M 944.535 748.906 L 939.849 730.145 M 913.284 751.79 L 944.535 748.906 M 939.849 730.145 L 910.912 742.293 M 912.614 761.556 L 943.234 768.44 M 944.556 749.149 L 913.284 751.79 M 561.079 1011.16 L 542.726 1036.62 M 559.948 1045.41 L 569.797 1015.61 M 542.278 1036.38 L 554.155 1004.24 M 554.155 1004.24 L 542.528 1036.47 M 542.528 1036.47 L 561.079 1011.16 M 526.956 1021.65 L 548.984 995.406 M 549.7 995.524 L 528.708 1022.61 M 516.358 984.93 L 518.831 1004.11 M 548.984 995.406 L 547.733 985.698 M 519.766 965.896 L 516.358 984.93 M 547.733 985.698 L 549.458 976.062 M 528.74 948.768 L 519.766 965.896 M 549.458 976.062 L 554 967.392 M 542.448 935.131 L 528.74 948.768 M 554 967.392 L 560.94 960.488 M 569.634 955.991 L 559.623 926.247 M 630.88 923.213 L 620.141 893.724 M 603.19 903.027 L 622.298 927.923 M 715.661 869.15 L 701.475 841.155 M 685.757 852.418 L 707.704 874.851 M 772.028 781.297 L 797.337 799.855 M 828.58 721.493 L 861.574 730.745 M 812.941 788.413 L 785.701 767.624 M 841.218 706.858 L 870.188 725.161 M 869.903 725.604 L 841.218 706.858 M 857.805 695.618 L 880.904 720.928 M 870.188 725.161 L 879.64 722.617 M 879.64 722.617 L 857.514 696.45 M 879.149 633.286 L 910.659 656.554 M 877.6 686.913 L 896.898 685.708 M 896.898 685.708 L 871.138 656.202 M 934.862 625.757 L 906.456 625.453 M 910.659 656.554 L 929.994 656.761 M 961.995 634.173 L 934.862 625.757 M 929.994 656.761 L 948.462 662.489 M 985.587 649.998 L 961.995 634.173 M 948.462 662.489 L 964.521 673.261 M 1003.67 671.91 L 985.587 649.998 M 976.827 688.175 L 1003.67 671.91 M 964.521 673.261 L 976.827 688.175 M 943.234 768.44 L 973.905 775.089 M 975.848 746.747 L 944.556 749.149 M 542.726 1036.62 L 524.568 1062.21 M 549.871 1075.13 L 559.948 1045.41 M 519.493 1060.11 L 526.956 1021.65 M 528.708 1022.61 L 523.339 1061.41 M 523.339 1061.41 L 542.278 1036.38 M 485.368 1010.15 L 495.294 1036.77 M 495.294 1036.77 L 516.05 1003.55 M 518.831 1004.11 L 500.682 1038.82 M 483.47 981.807 L 485.368 1010.15 M 516.05 1003.55 L 514.757 984.258 M 489.758 954.104 L 483.47 981.807 M 514.757 984.258 L 519.038 965.401 M 503.707 929.357 L 489.758 954.104 M 519.038 965.401 L 528.532 948.556 M 524.151 909.633 L 503.707 929.357 M 528.532 948.556 L 542.448 935.131 M 559.623 926.247 L 549.383 896.58 M 620.141 893.724 L 609.176 864.318 M 584.272 877.986 L 603.19 903.027 M 701.475 841.155 L 687.074 813.271 M 663.982 829.817 L 685.757 852.418 M 785.701 767.624 L 766.949 742.459 M 746.862 762.546 L 772.028 781.297 M 802.112 704.628 L 828.58 721.493 M 820.68 683.128 L 857.805 695.618 M 857.514 696.45 L 820.68 683.128 M 844.476 666.008 L 877.6 686.913 M 876.273 689.888 L 844.271 667.302 M 866.712 602.765 L 907.874 621.079 M 906.456 625.453 L 866.549 604.543 M 938.018 587.596 L 901.344 590.382 M 907.874 621.079 L 936.201 618.927 M 974.124 594.605 L 938.018 587.596 M 936.201 618.927 L 964.088 624.341 M 1007.09 610.911 L 974.124 594.605 M 964.088 624.341 L 989.552 636.935 M 1034.58 635.352 L 1007.09 610.911 M 1010.78 655.813 L 1034.58 635.352 M 989.552 636.935 L 1010.78 655.813 M 1004.65 781.392 L 1007.16 744.698 M 973.905 775.089 L 1004.65 781.392 M 1007.16 744.698 L 975.848 746.747 M 524.568 1062.21 L 506.701 1088.02 M 539.46 1104.74 L 549.871 1075.13 M 475.145 1079.82 L 486.293 1036.17 M 500.682 1038.82 L 498.958 1083.84 M 498.958 1083.84 L 519.493 1060.11 M 448.227 1012.07 L 457.127 1047.75 M 486.293 1036.17 L 479.419 1008.6 M 449.079 975.297 L 448.227 1012.07 M 479.419 1008.6 L 480.077 980.202 M 459.621 940.06 L 449.079 975.297 M 480.077 980.202 L 488.22 952.986 M 479.105 908.865 L 459.621 940.06 M 488.22 952.986 L 503.268 928.892 M 506.142 883.93 L 479.105 908.865 M 503.268 928.892 L 524.151 909.633 M 549.383 896.58 L 538.81 867.031 M 609.176 864.318 L 597.881 835.037 M 565.638 852.733 L 584.272 877.986 M 687.074 813.271 L 672.361 785.55 M 642.464 806.972 L 663.982 829.817 M 766.949 742.459 L 747.916 717.505 M 721.909 743.513 L 746.862 762.546 M 775.836 687.467 L 802.112 704.628 M 799.876 659.631 L 844.476 666.008 M 844.271 667.302 L 799.876 659.631 M 835.134 623.671 L 879.149 633.286 M 871.138 656.202 L 829.811 638.261 M 852.66 572.416 L 902.337 584.439 M 901.344 590.382 L 852.705 574.681 M 893.37 547.039 L 941.254 564.913 M 902.337 584.439 L 938.525 577.864 M 938.525 577.864 L 893.094 554.447 M 979.828 531.382 L 935.661 534.031 M 941.254 564.913 L 977.968 562.71 M 1023.37 539.24 L 979.828 531.382 M 977.968 562.71 L 1014.16 569.242 M 1063.83 557.161 L 1023.37 539.24 M 1014.16 569.242 L 1047.79 584.139 M 1098.9 584.132 L 1063.83 557.161 M 1076.95 606.559 L 1098.9 584.132 M 1047.79 584.139 L 1076.95 606.559 M 506.701 1088.02 L 489.21 1114.07 M 528.62 1134.19 L 539.46 1104.74 M 411.432 1052.08 L 426.081 1093.83 M 426.081 1093.83 L 442.072 1045.28 M 457.127 1047.75 L 449.808 1098.34 M 449.808 1098.34 L 475.145 1079.82 M 407.061 1008.05 L 411.432 1052.08 M 442.072 1045.28 L 438.438 1008.68 M 413.214 964.231 L 407.061 1008.05 M 438.438 1008.68 L 443.553 972.261 M 429.543 923.108 L 413.214 964.231 M 443.553 972.261 L 457.127 938.078 M 455.124 887.006 L 429.543 923.108 M 457.127 938.078 L 478.391 908.068 M 488.509 857.969 L 455.124 887.006 M 478.391 908.068 L 506.142 883.93 M 538.81 867.031 L 527.809 837.639 M 597.881 835.037 L 586.162 805.924 M 547.373 827.212 L 565.638 852.733 M 672.361 785.55 L 657.246 758.046 M 621.279 783.817 L 642.464 806.972 M 747.916 717.505 L 728.522 692.832 M 697.235 724.118 L 721.909 743.513 M 749.813 669.925 L 775.836 687.467 M 784.453 630.284 L 835.134 623.671 M 829.811 638.261 L 778.733 636.438 M 815.74 598.997 L 866.712 602.765 M 866.549 604.543 L 815.74 598.997 M 836.765 542.491 L 893.37 547.039 M 893.094 554.447 L 837.067 545.18 M 878.386 500.333 L 934.863 506.269 M 935.661 534.031 L 881.144 518.135 M 917.388 446.786 L 973.993 451.334 M 934.863 506.269 L 977.46 494.303 M 977.46 494.303 L 923.35 477.073 M 1010.15 407.547 L 961.767 422.43 M 973.993 451.334 L 1016.28 438.326 M 1060.55 402.752 L 1010.15 407.547 M 1016.28 438.326 L 1060.33 434.135 M 1110.87 408.244 L 1060.55 402.752 M 1104.32 438.935 L 1110.87 408.244 M 1060.33 434.135 L 1104.32 438.935 M 327.732 1082.96 L 337.834 1132.57 M 337.834 1132.57 L 358.962 1079.85 M 489.21 1114.07 L 517.267 1163.45 M 517.267 1163.45 L 528.62 1134.19 M 327.866 1032.34 L 327.732 1082.96 M 358.962 1079.85 L 359.078 1035.61 M 338.229 982.787 L 327.866 1032.34 M 359.078 1035.61 L 368.137 992.299 M 358.395 936.353 L 338.229 982.787 M 368.137 992.299 L 385.762 951.715 M 387.531 894.955 L 358.395 936.353 M 385.762 951.715 L 411.228 915.532 M 424.434 860.301 L 387.531 894.955 M 411.228 915.532 L 443.482 885.243 M 481.193 862.099 L 467.58 833.821 M 443.482 885.243 L 481.193 862.099 M 527.809 837.639 L 516.296 808.443 M 471.332 831.703 L 488.509 857.969 M 586.162 805.924 L 573.936 777.02 M 529.557 801.376 L 547.373 827.212 M 657.246 758.046 L 641.652 730.81 M 600.503 760.296 L 621.279 783.817 M 728.522 692.832 L 708.7 668.5 M 672.904 704.296 L 697.235 724.118 M 778.733 636.438 L 757.188 613.619 M 724.1 651.932 L 749.813 669.925 M 760.121 610.462 L 784.453 630.284 M 795.918 574.666 L 852.66 572.416 M 852.705 574.681 L 795.918 574.666 M 817.051 507.073 L 878.386 500.333 M 881.144 518.135 L 819.467 516.305 M 856.237 455.03 L 917.388 446.786 M 923.35 477.073 L 861.736 473.73 M 881.757 375.623 L 941.484 360.13 M 961.767 422.43 L 900.09 420.6 M 887.726 278.939 L 944.131 253.923 M 941.484 360.13 L 982.634 330.644 M 982.634 330.644 L 921.181 336.199 M 865.28 169.006 L 915.463 133.103 M 944.131 253.923 L 979.928 218.127 M 979.928 218.127 L 920.2 233.619 M 821.075 65.8799 L 862.965 20.5748 M 862.965 20.5748 L 832.951 11.4057 M 915.463 133.103 L 943.284 90.8106 M 943.284 90.8106 L 887.922 118.057 M 41.7628 100.257 L 63.0221 123.343 M 76.0747 63.0359 L 41.7628 100.257 M 100.811 82.3501 L 76.0747 63.0359 M 280.041 1014.58 L 268.851 1069.2 M 300.008 1072.96 L 310.168 1023.37 M 268.851 1069.2 L 300.008 1072.96 M 299.979 962.513 L 280.041 1014.58 M 310.168 1023.37 L 328.272 976.095 M 328.135 914.391 L 299.979 962.513 M 328.272 976.095 L 353.837 932.401 M 363.755 871.499 L 328.135 914.391 M 353.837 932.401 L 386.179 893.456 M 405.887 834.984 L 363.755 871.499 M 386.179 893.456 L 424.434 860.301 M 467.58 833.821 L 453.405 805.821 M 516.296 808.443 L 504.203 779.483 M 454.683 805.1 L 471.332 831.703 M 573.936 777.02 L 561.135 748.365 M 512.259 775.19 L 529.557 801.376 M 641.652 730.81 L 625.519 703.891 M 580.199 736.364 L 600.503 760.296 M 708.7 668.5 L 688.396 644.569 M 648.972 683.993 L 672.904 704.296 M 757.188 613.619 L 735.192 591.233 M 698.75 633.429 L 724.1 651.932 M 736.19 590.159 L 760.121 610.462 M 775.614 550.735 L 836.765 542.491 M 837.067 545.18 L 775.614 550.735 M 793.333 473.63 L 856.237 455.03 M 861.736 473.73 L 796.811 483.089 M 821.527 401.608 L 881.757 375.623 M 900.09 420.6 L 835.414 431.549 M 832.535 314.39 L 887.726 278.939 M 921.181 336.199 L 858.277 354.799 M 818.393 214.882 L 865.28 169.006 M 920.2 233.619 L 861.167 262.22 M 784.43 120.286 L 821.075 65.8799 M 887.922 118.057 L 835.889 158 M 283.163 9.22114 L 218.218 0 M 218.218 0 L 227.401 30.0101 M 832.951 11.4057 L 790.066 61.0424 M 63.0221 123.343 L 84.7824 145.958 M 125.118 102.202 L 100.811 82.3501 M 0 233.516 L 27.6693 248.327 M 23.3214 182.875 L 0 233.516 M 52.5624 194.272 L 23.3214 182.875 M 262.845 935.488 L 232.19 986.496 M 260.009 1001.02 L 288.729 953.236 M 232.19 986.496 L 260.009 1001.02 M 299.377 888.509 L 262.845 935.488 M 288.729 953.236 L 322.954 909.224 M 341.262 846.234 L 299.377 888.509 M 322.954 909.224 L 362.194 869.617 M 387.899 809.267 L 341.262 846.234 M 362.194 869.617 L 405.887 834.984 M 453.405 805.821 L 438.62 778.138 M 504.203 779.483 L 491.478 750.795 M 438.62 778.138 L 454.683 805.1 M 561.135 748.365 L 547.71 719.998 M 495.539 748.63 L 512.259 775.19 M 625.519 703.891 L 608.8 677.331 M 560.425 711.994 L 580.199 736.364 M 688.396 644.569 L 667.573 621.089 M 625.492 663.169 L 648.972 683.993 M 735.192 591.233 L 712.71 569.335 M 673.813 614.375 L 698.75 633.429 M 712.71 569.335 L 736.19 590.159 M 753.71 524.124 L 817.051 507.073 M 819.467 516.305 L 754.791 527.255 M 761.635 434.409 L 821.527 401.608 M 835.414 431.549 L 770.346 452.264 M 778.787 356.511 L 832.535 314.39 M 858.277 354.799 L 796.151 383.142 M 774.27 266.998 L 818.393 214.882 M 861.167 262.22 L 804.489 300.305 M 751.752 180.246 L 784.43 120.286 M 835.889 158 L 788.08 206.757 M 712.164 99.8361 L 732.046 34.5091 M 732.046 34.5091 L 700.993 39.0505 M 790.066 61.0424 L 753.099 118.457 M 227.401 30.0101 L 237.283 59.7974 M 295.193 38.2077 L 283.163 9.22114 M 84.7824 145.958 L 107.065 168.058 M 148.955 122.617 L 125.118 102.202 M 27.6693 248.327 L 55.6771 262.487 M 81.529 206.35 L 52.5624 194.272 M 228.55 901.879 L 187.421 948.011 M 211.594 968.026 L 251.197 923.606 M 187.421 948.011 L 211.594 968.026 M 272.936 858.873 L 228.55 901.879 M 251.197 923.606 L 293.937 882.195 M 320.343 819.222 L 272.936 858.873 M 293.937 882.195 L 339.586 844.014 M 370.518 783.136 L 320.343 819.222 M 339.586 844.014 L 387.899 809.267 M 423.192 750.809 L 370.518 783.136 M 491.478 750.795 L 478.086 722.412 M 547.71 719.998 L 533.625 691.952 M 479.445 721.688 L 495.539 748.63 M 608.8 677.331 L 591.464 651.17 M 541.226 687.167 L 560.425 711.994 M 667.573 621.089 L 646.206 598.101 M 602.505 641.803 L 625.492 663.169 M 649.327 594.744 L 673.813 614.375 M 689.723 547.969 L 753.71 524.124 M 754.791 527.255 L 689.723 547.969 M 729.95 499.038 L 793.333 473.63 M 796.811 483.089 L 731.254 502.2 M 725.471 401.339 L 778.787 356.511 M 796.151 383.142 L 735.389 417.203 M 731.116 321.678 L 774.27 266.998 M 804.489 300.305 L 750.088 343.811 M 720.542 242.52 L 751.752 180.246 M 788.08 206.757 L 743.596 260.361 M 694.186 167.134 L 712.164 99.8361 M 753.099 118.457 L 720.37 179.947 M 617.517 87.3587 L 614.225 17.7787 M 614.225 17.7787 L 586.719 32.8894 M 700.993 39.0505 L 681.369 105.887 M 237.283 59.7974 L 247.885 89.3361 M 306.516 67.4773 L 295.193 38.2077 M 107.065 168.058 L 129.878 189.611 M 172.289 143.603 L 148.955 122.617 M 55.6771 262.487 L 84.0198 275.963 M 110.194 219.127 L 81.529 206.35 M 35.8807 368.155 L 66.9968 372.244 M 43.18 306.784 L 35.8807 368.155 M 74.387 310.108 L 43.18 306.784 M 246.164 817.423 L 193.672 851.484 M 211.077 877.599 L 262.922 843.958 M 193.672 851.484 L 211.077 877.599 M 299.476 784.662 L 246.164 817.423 M 262.922 843.958 L 315.578 811.6 M 353.576 753.219 L 299.476 784.662 M 315.578 811.6 L 369.012 780.544 M 408.432 723.113 L 353.576 753.219 M 369.012 780.544 L 423.192 750.809 M 478.086 722.412 L 464.009 694.363 M 533.625 691.952 L 518.865 664.257 M 464.009 694.363 L 479.445 721.688 M 591.464 651.17 L 573.499 625.437 M 522.635 661.883 L 541.226 687.167 M 646.206 598.101 L 624.289 575.639 M 580.043 619.886 L 602.505 641.803 M 625.325 574.524 L 649.327 594.744 M 666.224 527.166 L 729.95 499.038 M 731.254 502.2 L 666.224 527.166 M 701.728 469.952 L 761.635 434.409 M 770.346 452.264 L 705.948 478.819 M 750.088 343.811 L 696.772 388.639 M 686.633 375.282 L 731.116 321.678 M 743.596 260.361 L 700.442 315.042 M 687.813 304.01 L 720.542 242.52 M 720.37 179.947 L 689.16 242.221 M 674.562 233.97 L 694.186 167.134 M 681.369 105.887 L 663.391 173.185 M 619.101 156.998 L 617.517 87.3587 M 586.719 32.8894 L 590.011 102.469 M 450.941 90.7325 L 394.602 49.7687 M 394.602 49.7687 L 389.941 80.8042 M 317.118 97.0161 L 306.516 67.4773 M 247.885 89.3361 L 259.208 118.606 M 195.102 165.156 L 172.289 143.603 M 129.878 189.611 L 153.212 210.597 M 138.537 232.603 L 110.194 219.127 M 84.0198 275.963 L 112.685 288.74 M 105.503 314.196 L 74.387 310.108 M 66.9968 372.244 L 98.2038 375.567 M 179.572 824.225 L 237.7 801.062 M 168.313 794.931 L 179.572 824.225 M 225.726 772.052 L 168.313 794.931 M 237.7 801.062 L 295.243 776.479 M 282.56 747.772 L 225.726 772.052 M 295.243 776.479 L 352.165 750.49 M 338.781 722.104 L 282.56 747.772 M 352.165 750.49 L 408.432 723.113 M 394.355 695.063 L 338.781 722.104 M 449.249 666.667 L 394.355 695.063 M 518.865 664.257 L 503.429 636.932 M 504.67 636.15 L 522.635 661.883 M 573.499 625.437 L 554.908 600.153 M 558.125 597.423 L 580.043 619.886 M 624.289 575.639 L 601.827 553.722 M 601.827 553.722 L 625.325 574.524 M 705.948 478.819 L 642.222 506.947 M 640.966 504.013 L 701.728 469.952 M 735.389 417.203 L 675.481 452.746 M 671.07 444.845 L 725.471 401.339 M 700.442 315.042 L 656.319 367.158 M 650.846 361.424 L 687.813 304.01 M 689.16 242.221 L 656.483 302.18 M 649.964 297.672 L 674.562 233.97 M 663.391 173.185 L 643.508 238.512 M 614.995 225.16 L 619.101 156.998 M 590.011 102.469 L 590.891 170.749 M 576.784 168.85 L 564.673 101.647 M 564.673 101.647 L 540.509 121.672 M 444.772 121.504 L 450.941 90.7325 M 389.941 80.8042 L 386.034 111.944 M 327 126.803 L 317.118 97.0161 M 259.208 118.606 L 271.238 147.592 M 217.385 187.256 L 195.102 165.156 M 153.212 210.597 L 177.049 231.012 M 166.545 246.763 L 138.537 232.603 M 112.685 288.74 L 141.652 300.818 M 136.511 319.039 L 105.503 314.196 M 98.2038 375.567 L 129.482 378.133 M 102.848 542.116 L 143.685 588.506 M 127.146 522.253 L 102.848 542.116 M 143.685 588.506 L 166.468 566.923 M 215.313 744.01 L 275.762 731.144 M 209.905 713.096 L 215.313 744.01 M 268.112 700.707 L 209.905 713.096 M 275.762 731.144 L 335.111 713.899 M 325.26 684.101 L 268.112 700.707 M 335.111 713.899 L 393.043 692.368 M 381.043 663.37 L 325.26 684.101 M 393.043 692.368 L 449.249 666.667 M 435.164 638.621 L 381.043 663.37 M 503.429 636.932 L 487.335 609.989 M 487.335 609.989 L 504.67 636.15 M 554.908 600.153 L 535.709 575.326 M 536.759 574.436 L 558.125 597.423 M 642.222 506.947 L 578.84 532.355 M 578.84 532.355 L 640.966 504.013 M 675.481 452.746 L 615.59 485.547 M 614.392 482.931 L 671.07 444.845 M 696.772 388.639 L 643.025 430.761 M 638.824 424.039 L 686.633 375.282 M 656.483 302.18 L 619.838 356.587 M 617.998 354.953 L 649.964 297.672 M 643.508 238.512 L 618.617 299.202 M 601.919 289.441 L 614.995 225.16 M 590.891 170.749 L 585.591 236.131 M 579.263 234.399 L 576.784 168.85 M 540.509 121.672 L 550.804 186.456 M 526.803 183.965 L 503.478 122.656 M 503.478 122.656 L 484.499 147.65 M 437.885 152.123 L 444.772 121.504 M 386.034 111.944 L 382.855 143.166 M 336.183 156.814 L 327 126.803 M 271.238 147.592 L 283.942 176.29 M 239.145 209.871 L 217.385 187.256 M 177.049 231.012 L 201.356 250.864 M 194.214 261.573 L 166.545 246.763 M 141.652 300.818 L 170.892 312.215 M 167.397 324.604 L 136.511 319.039 M 129.482 378.133 L 160.813 379.968 M 151.902 502.964 L 127.146 522.253 M 166.468 566.923 L 188.742 544.813 M 204.067 686.054 L 263.562 684.701 M 205.233 654.692 L 204.067 686.054 M 260.972 653.424 L 205.233 654.692 M 263.562 684.701 L 322.47 676.247 M 316.16 645.504 L 260.972 653.424 M 322.47 676.247 L 379.945 660.813 M 370.007 631.045 L 316.16 645.504 M 379.945 660.813 L 435.164 638.621 M 421.739 610.254 L 370.007 631.045 M 470.615 583.43 L 421.739 610.254 M 535.709 575.326 L 515.935 550.956 M 515.935 550.956 L 536.759 574.436 M 615.59 485.547 L 555.359 511.532 M 555.359 511.532 L 614.392 482.931 M 643.025 430.761 L 587.833 466.212 M 586.791 463.982 L 638.824 424.039 M 656.319 367.158 L 609.433 413.033 M 607.961 411.061 L 650.846 361.424 M 618.617 299.202 L 586.75 352.04 M 578.002 346.321 L 601.919 289.441 M 585.591 236.131 L 571.261 296.148 M 569.459 295.319 L 579.263 234.399 M 550.804 186.456 L 551.056 248.159 M 537.009 244.819 L 526.803 183.965 M 484.499 147.65 L 504.483 206.028 M 499.417 206.345 L 473.486 150.355 M 473.486 150.355 L 457.793 177.533 M 430.328 182.583 L 437.885 152.123 M 382.855 143.166 L 380.363 174.451 M 344.706 187.018 L 336.183 156.814 M 283.942 176.29 L 297.272 204.702 M 260.404 232.957 L 239.145 209.871 M 201.356 250.864 L 226.092 270.178 M 221.551 276.987 L 194.214 261.573 M 170.892 312.215 L 200.376 322.969 M 198.154 330.846 L 167.397 324.604 M 160.813 379.968 L 192.175 381.115 M 177.075 484.222 L 151.902 502.964 M 188.742 544.813 L 210.525 522.221 M 201.574 618.814 L 256.254 629.701 M 210.198 588.638 L 201.574 618.814 M 259.846 598.524 L 210.198 588.638 M 256.254 629.701 L 311.977 631.535 M 310.442 600.189 L 259.846 598.524 M 311.977 631.535 L 367.255 624.265 M 360.633 593.588 L 310.442 600.189 M 367.255 624.265 L 420.61 608.085 M 409.078 578.897 L 360.633 593.588 M 420.61 608.085 L 470.615 583.43 M 454.482 556.51 L 409.078 578.897 M 495.632 527.025 L 454.482 556.51 M 587.833 466.212 L 531.428 491.228 M 531.428 491.228 L 586.791 463.982 M 609.433 413.033 L 559.249 448.936 M 559.249 448.936 L 607.961 411.061 M 619.838 356.587 L 577.947 401.892 M 577.947 401.892 L 617.998 354.953 M 571.261 296.148 L 546.634 347.318 M 546.634 347.318 L 569.459 295.319 M 551.056 248.159 L 539.214 303.698 M 532.025 301.388 L 537.009 244.819 M 504.483 206.028 L 511.037 262.436 M 509.566 262.218 L 499.417 206.345 M 457.793 177.533 L 479.026 230.202 M 465.313 230.817 L 436.249 182.03 M 436.249 182.03 L 425.498 211.515 M 422.166 212.886 L 430.328 182.583 M 380.363 174.451 L 378.494 205.779 M 352.625 217.386 L 344.706 187.018 M 297.272 204.702 L 311.166 232.842 M 281.199 256.462 L 260.404 232.957 M 226.092 270.178 L 251.209 288.995 M 248.576 292.943 L 221.551 276.987 M 200.376 322.969 L 230.069 333.132 M 228.78 337.699 L 198.154 330.846 M 192.175 381.115 L 223.554 381.636 M 202.617 465.986 L 177.075 484.222 M 210.525 522.221 L 231.853 499.198 M 210.687 547.862 L 256.578 569.235 M 226.759 520.906 L 210.687 547.862 M 266.869 539.586 L 226.759 520.906 M 256.578 569.235 L 305.841 580.89 M 309.926 549.773 L 266.869 539.586 M 305.841 580.89 L 356.443 582.346 M 354.154 551.046 L 309.926 549.773 M 356.443 582.346 L 406.295 573.544 M 397.727 543.352 L 354.154 551.046 M 406.295 573.544 L 453.339 554.846 M 438.844 527.01 L 397.727 543.352 M 453.339 554.846 L 495.632 527.025 M 531.413 434.441 L 507.097 471.406 M 547.756 393.323 L 531.413 434.441 M 586.75 352.04 L 547.756 393.323 M 543.54 391.456 L 578.002 346.321 M 539.214 303.698 L 515.289 348.863 M 512.127 348.466 L 532.025 301.388 M 511.037 262.436 L 502.822 312.882 M 502.822 312.882 L 509.566 262.218 M 479.026 230.202 L 484.441 281.025 M 476.729 280.636 L 465.313 230.817 M 425.498 211.515 L 448.36 257.228 M 447.355 257.359 L 422.166 212.886 M 378.494 205.779 L 413.475 243.043 M 406.101 245.472 L 367.142 212.388 M 367.142 212.388 L 369.364 243.693 M 360.012 247.888 L 352.625 217.386 M 311.166 232.842 L 325.549 260.736 M 301.58 280.328 L 281.199 256.462 M 251.209 288.995 L 276.651 307.37 M 275.319 309.368 L 248.576 292.943 M 230.069 333.132 L 259.934 342.776 M 259.282 345.086 L 228.78 337.699 M 223.554 381.636 L 254.938 381.609 M 228.473 448.199 L 202.617 465.986 M 252.776 475.806 L 228.473 448.199 M 231.853 499.198 L 268.106 524.564 M 282.912 496.892 L 252.776 475.806 M 268.106 524.564 L 309.326 540.648 M 317.175 510.261 L 282.912 496.892 M 309.326 540.648 L 353.178 546.54 M 353.628 515.159 L 317.175 510.261 M 353.178 546.54 L 397.181 541.906 M 390.205 511.308 L 353.628 515.159 M 397.181 541.906 L 438.844 527.01 M 475.81 502.693 L 424.838 498.925 M 425.001 497.147 L 475.81 502.693 M 507.097 471.406 L 530.108 433.614 M 530.108 433.614 L 543.54 391.456 M 512.717 385.553 L 501.551 420.597 M 515.289 348.863 L 512.717 385.553 M 473.79 324.801 L 480.976 352.285 M 484.441 281.025 L 473.79 324.801 M 470.057 325.193 L 476.729 280.636 M 448.36 257.228 L 453.705 301.963 M 453.705 301.963 L 447.355 257.359 M 413.475 243.043 L 431.392 284.38 M 427.417 285.163 L 406.101 245.472 M 369.364 243.693 L 400.415 276.336 M 399.85 276.541 L 367.586 245.096 M 367.586 245.096 L 371.444 276.242 M 366.955 278.494 L 360.012 247.888 M 325.549 260.736 L 340.337 288.417 M 321.611 304.487 L 301.58 280.328 M 276.651 307.37 L 302.357 325.374 M 301.819 326.18 L 275.319 309.368 M 259.934 342.776 L 289.936 351.984 M 289.673 352.917 L 259.282 345.086 M 254.938 381.609 L 286.318 381.126 M 236.928 435.5 L 256.973 466.338 M 265.288 422.059 L 236.928 435.5 M 280.77 445.878 L 265.288 422.059 M 256.973 466.338 L 284.457 490.78 M 301.998 464.755 L 280.77 445.878 M 284.457 490.78 L 317.425 507.085 M 327.462 477.349 L 301.998 464.755 M 317.425 507.085 L 353.531 514.094 M 355.349 482.763 L 327.462 477.349 M 353.531 514.094 L 390.205 511.308 M 383.675 480.611 L 355.349 482.763 M 424.838 498.925 L 383.675 480.611 M 385.094 476.238 L 425.001 497.147 M 456.416 478.019 L 412.401 468.404 M 412.699 467.128 L 456.416 478.019 M 482.423 452.012 L 457.47 432.979 M 458.034 432.261 L 482.423 452.012 M 501.551 420.597 L 511.693 385.243 M 480.641 380.69 L 472.808 407.997 M 511.693 385.243 L 512.127 348.466 M 480.976 352.285 L 480.641 380.69 M 479.081 352.129 L 470.057 325.193 M 442.052 339.359 L 448.195 357.693 M 430.922 323.547 L 442.052 339.359 M 431.392 284.38 L 430.922 323.547 M 429.35 324.285 L 427.417 285.163 M 400.415 276.336 L 413.457 313.271 M 413.457 313.271 L 399.85 276.541 M 371.444 276.242 L 394.988 307.546 M 393.106 308.207 L 367.901 278.225 M 367.901 278.225 L 373.788 309.051 M 373.553 309.176 L 366.955 278.494 M 340.337 288.417 L 355.435 315.931 M 341.37 328.87 L 321.611 304.487 M 302.357 325.374 L 328.264 343.087 M 328.129 343.29 L 301.819 326.18 M 289.936 351.984 L 320.04 360.853 M 319.974 361.088 L 289.673 352.917 M 286.318 381.126 L 317.691 380.289 M 276.825 403.613 L 287.883 429.781 M 307.196 395.704 L 276.825 403.613 M 314.722 413.515 L 307.196 395.704 M 287.883 429.781 L 305.963 451.692 M 327.029 428.43 L 314.722 413.515 M 305.963 451.692 L 329.555 467.517 M 343.087 439.201 L 327.029 428.43 M 329.555 467.517 L 356.688 475.934 M 361.556 444.93 L 343.087 439.201 M 356.688 475.934 L 385.094 476.238 M 380.891 445.137 L 361.556 444.93 M 412.401 468.404 L 380.891 445.137 M 382.431 442.266 L 412.699 467.128 M 437.382 453.066 L 401.268 437.9 M 401.619 437.091 L 437.382 453.066 M 457.47 432.979 L 432.304 414.227 M 433.868 412.237 L 458.034 432.261 M 472.808 407.997 L 480.025 380.521 M 480.025 380.521 L 479.081 352.129 M 448.195 357.693 L 448.837 377.019 M 447.898 357.705 L 441.196 339.568 M 413.755 354.797 L 417.148 363.979 M 441.196 339.568 L 429.35 324.285 M 407.759 347.061 L 413.755 354.797 M 399.713 341.485 L 407.759 347.061 M 394.988 307.546 L 399.713 341.485 M 399.147 341.937 L 393.106 308.207 M 373.788 309.051 L 389.691 339.404 M 389.691 339.404 L 373.553 309.176 M 355.435 315.931 L 379.915 339.908 M 379.915 339.908 L 355.249 316.122 M 355.249 316.122 L 370.77 343.399 M 360.941 353.404 L 341.37 328.87 M 328.264 343.087 L 354.306 360.601 M 354.306 360.601 L 328.129 343.29 M 320.04 360.853 L 350.212 369.492 M 350.212 369.492 L 319.974 361.088 M 317.691 380.289 L 349.056 379.212 M 314.553 386.419 L 319.739 405.048 M 345.715 382.7 L 314.553 386.419 M 348.341 392.13 L 345.715 382.7 M 319.739 405.048 L 330.286 421.254 M 353.68 400.334 L 348.341 392.13 M 330.286 421.254 L 345.218 433.54 M 361.239 406.553 L 353.68 400.334 M 345.218 433.54 L 363.153 440.767 M 370.318 410.212 L 361.239 406.553 M 363.153 440.767 L 382.431 442.266 M 380.078 410.971 L 370.318 410.212 M 401.268 437.9 L 380.078 410.971 M 381.462 409.38 L 401.619 437.091 M 418.631 427.9 L 391.075 407.532 M 391.391 407.111 L 418.631 427.9 M 432.304 414.227 L 406.995 395.67 M 409.857 392.028 L 433.868 412.237 M 443.925 395.721 L 414.948 383.667 M 415.137 383.224 L 443.925 395.721 M 448.837 377.019 L 447.898 357.705 M 417.148 363.979 L 417.623 373.756 M 889.174 723.995 L 879.412 723.278 M 898.241 727.685 L 889.174 723.995 M 905.73 733.989 L 898.241 727.685 M 910.912 742.293 L 905.73 733.989 M 882.022 754.553 L 912.614 761.556 M 569.797 1015.61 L 579.53 985.773 M 548.147 985.859 L 549.7 995.524 M 549.647 976.186 L 548.147 985.859 M 554.054 967.445 L 549.647 976.186 M 560.94 960.488 L 554.054 967.445 M 579.53 985.773 L 569.634 955.991 M 641.504 952.744 L 630.88 923.213 M 622.298 927.923 L 641.504 952.744 M 729.738 897.199 L 715.661 869.15 M 707.704 874.851 L 729.738 897.199 M 822.718 818.314 L 804.259 792.933 M 797.337 799.855 L 822.718 818.314 M 822.914 818.17 L 812.941 788.413 M 804.259 792.933 L 822.914 818.17 M 861.574 730.745 L 882.022 754.553 M 879.412 723.278 L 869.903 725.604 M 417.072 363.983 L 413.537 354.855 M 413.537 354.855 L 407.362 347.26 M 407.362 347.26 L 399.147 341.937 M 370.77 343.399 L 386.397 370.615 M 380.416 378.013 L 360.941 353.404 M 349.056 379.212 L 350.951 388.816 M 350.951 388.816 L 355.712 397.369 M 355.712 397.369 L 362.877 404.038 M 362.877 404.038 L 371.748 408.176 M 371.748 408.176 L 381.462 409.38 M 391.075 407.532 L 380.416 378.013 M 400.073 402.591 L 381.417 377.355 M 381.417 377.355 L 391.391 407.111 M 406.995 395.67 L 381.614 377.21 M 381.614 377.21 L 400.073 402.591 M 414.948 383.667 L 385.925 371.726 M 385.925 371.726 L 409.857 392.028 M 386.397 370.615 L 415.137 383.224 M 417.623 373.756 L 417.072 363.983" />
<path fill="none" class="c" d=" M 515.935 550.956 L 555.359 511.532 M 495.632 527.025 L 515.935 550.956 M 555.359 511.532 L 531.428 491.228 M 531.428 491.228 L 495.632 527.025 M 555.359 511.532 L 587.833 466.212 M 475.81 502.693 L 495.632 527.025 M 531.428 491.228 L 507.097 471.406 M 507.097 471.406 L 475.81 502.693 M 531.428 491.228 L 559.249 448.936 M 559.249 448.936 L 531.413 434.441 M 559.249 448.936 L 577.947 401.892 M 577.947 401.892 L 547.756 393.323 M 577.947 401.892 L 586.75 352.04 M 456.416 478.019 L 475.81 502.693 M 507.097 471.406 L 482.423 452.012 M 482.423 452.012 L 456.416 478.019 M 530.108 433.614 L 501.551 420.597 M 501.551 420.597 L 482.423 452.012 M 543.54 391.456 L 512.717 385.553 M 543.54 391.456 L 546.634 347.318 M 546.634 347.318 L 515.289 348.863 M 437.382 453.066 L 456.416 478.019 M 457.47 432.979 L 437.382 453.066 M 501.551 420.597 L 472.808 407.997 M 472.808 407.997 L 458.034 432.261 M 511.693 385.243 L 480.641 380.69 M 512.127 348.466 L 480.976 352.285 M 418.631 427.9 L 437.382 453.066 M 432.304 414.227 L 418.631 427.9 M 472.808 407.997 L 443.925 395.721 M 443.925 395.721 L 433.868 412.237 M 480.025 380.521 L 448.837 377.019 M 448.837 377.019 L 443.925 395.721 M 479.081 352.129 L 448.195 357.693 M 400.073 402.591 L 418.631 427.9 M 406.995 395.67 L 400.073 402.591 M 414.948 383.667 L 409.857 392.028 M 448.837 377.019 L 417.623 373.756 M 417.623 373.756 L 415.137 383.224 M 447.898 357.705 L 417.148 363.979 M 417.623 373.756 L 386.397 370.615 M 417.072 363.983 L 386.397 370.615 M 578.84 532.355 L 555.359 511.532 M 578.84 532.355 L 615.59 485.547 M 614.392 482.931 L 587.833 466.212 M 614.392 482.931 L 643.025 430.761 M 586.791 463.982 L 559.249 448.936 M 586.791 463.982 L 609.433 413.033 M 607.961 411.061 L 577.947 401.892 M 607.961 411.061 L 619.838 356.587 M 617.998 354.953 L 586.75 352.04 M 475.81 502.693 L 438.844 527.01 M 578.002 346.321 L 546.634 347.318 M 546.634 347.318 L 539.214 303.698 M 424.838 498.925 L 438.844 527.01 M 456.416 478.019 L 425.001 497.147 M 512.127 348.466 L 502.822 312.882 M 502.822 312.882 L 473.79 324.801 M 502.822 312.882 L 484.441 281.025 M 412.401 468.404 L 425.001 497.147 M 437.382 453.066 L 412.699 467.128 M 470.057 325.193 L 442.052 339.359 M 470.057 325.193 L 453.705 301.963 M 453.705 301.963 L 430.922 323.547 M 453.705 301.963 L 431.392 284.38 M 401.268 437.9 L 412.699 467.128 M 418.631 427.9 L 401.619 437.091 M 441.196 339.568 L 413.755 354.797 M 429.35 324.285 L 407.759 347.061 M 429.35 324.285 L 413.457 313.271 M 413.457 313.271 L 399.713 341.485 M 413.457 313.271 L 394.988 307.546 M 391.075 407.532 L 401.619 437.091 M 400.073 402.591 L 391.391 407.111 M 413.537 354.855 L 386.397 370.615 M 407.362 347.26 L 386.397 370.615 M 399.147 341.937 L 386.397 370.615 M 399.147 341.937 L 389.691 339.404 M 389.691 339.404 L 386.397 370.615 M 389.691 339.404 L 379.915 339.908 M 379.915 339.908 L 386.397 370.615 M 379.915 339.908 L 370.77 343.399 M 536.759 574.436 L 578.84 532.355 M 601.827 553.722 L 578.84 532.355 M 640.966 504.013 L 615.59 485.547 M 640.966 504.013 L 675.481 452.746 M 671.07 444.845 L 643.025 430.761 M 671.07 444.845 L 696.772 388.639 M 638.824 424.039 L 609.433 413.033 M 638.824 424.039 L 656.319 367.158 M 650.846 361.424 L 619.838 356.587 M 617.998 354.953 L 618.617 299.202 M 470.615 583.43 L 515.935 550.956 M 454.482 556.51 L 470.615 583.43 M 578.002 346.321 L 571.261 296.148 M 569.459 295.319 L 539.214 303.698 M 569.459 295.319 L 551.056 248.159 M 438.844 527.01 L 453.339 554.846 M 532.025 301.388 L 502.822 312.882 M 532.025 301.388 L 511.037 262.436 M 509.566 262.218 L 484.441 281.025 M 509.566 262.218 L 479.026 230.202 M 424.838 498.925 L 390.205 511.308 M 476.729 280.636 L 453.705 301.963 M 476.729 280.636 L 448.36 257.228 M 447.355 257.359 L 431.392 284.38 M 447.355 257.359 L 413.475 243.043 M 383.675 480.611 L 390.205 511.308 M 412.401 468.404 L 385.094 476.238 M 427.417 285.163 L 413.457 313.271 M 427.417 285.163 L 400.415 276.336 M 399.85 276.541 L 394.988 307.546 M 399.85 276.541 L 371.444 276.242 M 380.891 445.137 L 385.094 476.238 M 401.268 437.9 L 382.431 442.266 M 393.106 308.207 L 389.691 339.404 M 393.106 308.207 L 373.788 309.051 M 373.553 309.176 L 379.915 339.908 M 373.553 309.176 L 355.435 315.931 M 380.078 410.971 L 382.431 442.266 M 391.075 407.532 L 381.462 409.38 M 380.416 378.013 L 381.462 409.38 M 601.827 553.722 L 642.222 506.947 M 701.728 469.952 L 675.481 452.746 M 701.728 469.952 L 735.389 417.203 M 725.471 401.339 L 696.772 388.639 M 686.633 375.282 L 656.319 367.158 M 650.846 361.424 L 656.483 302.18 M 649.964 297.672 L 618.617 299.202 M 649.964 297.672 L 643.508 238.512 M 601.919 289.441 L 571.261 296.148 M 601.919 289.441 L 585.591 236.131 M 579.263 234.399 L 551.056 248.159 M 579.263 234.399 L 550.804 186.456 M 537.009 244.819 L 511.037 262.436 M 537.009 244.819 L 504.483 206.028 M 499.417 206.345 L 479.026 230.202 M 499.417 206.345 L 457.793 177.533 M 465.313 230.817 L 448.36 257.228 M 465.313 230.817 L 425.498 211.515 M 422.166 212.886 L 413.475 243.043 M 422.166 212.886 L 378.494 205.779 M 390.205 511.308 L 397.181 541.906 M 406.101 245.472 L 400.415 276.336 M 406.101 245.472 L 369.364 243.693 M 380.416 378.013 L 371.748 408.176 M 761.635 434.409 L 735.389 417.203 M 725.471 401.339 L 750.088 343.811 M 666.224 527.166 L 642.222 506.947 M 666.224 527.166 L 705.948 478.819 M 686.633 375.282 L 700.442 315.042 M 687.813 304.01 L 656.483 302.18 M 687.813 304.01 L 689.16 242.221 M 674.562 233.97 L 643.508 238.512 M 674.562 233.97 L 663.391 173.185 M 558.125 597.423 L 601.827 553.722 M 614.995 225.16 L 585.591 236.131 M 614.995 225.16 L 590.891 170.749 M 576.784 168.85 L 550.804 186.456 M 576.784 168.85 L 540.509 121.672 M 487.335 609.989 L 535.709 575.326 M 470.615 583.43 L 487.335 609.989 M 526.803 183.965 L 504.483 206.028 M 526.803 183.965 L 484.499 147.65 M 409.078 578.897 L 420.61 608.085 M 397.727 543.352 L 406.295 573.544 M 355.349 482.763 L 353.531 514.094 M 366.955 278.494 L 340.337 288.417 M 361.556 444.93 L 356.688 475.934 M 370.318 410.212 L 363.153 440.767 M 380.416 378.013 L 362.877 404.038 M 778.787 356.511 L 750.088 343.811 M 761.635 434.409 L 796.151 383.142 M 778.787 356.511 L 804.489 300.305 M 625.325 574.524 L 666.224 527.166 M 729.95 499.038 L 705.948 478.819 M 729.95 499.038 L 770.346 452.264 M 731.116 321.678 L 700.442 315.042 M 731.116 321.678 L 743.596 260.361 M 720.542 242.52 L 689.16 242.221 M 720.542 242.52 L 720.37 179.947 M 694.186 167.134 L 663.391 173.185 M 694.186 167.134 L 681.369 105.887 M 619.101 156.998 L 590.891 170.749 M 619.101 156.998 L 590.011 102.469 M 430.328 182.583 L 380.363 174.451 M 353.628 515.159 L 353.178 546.54 M 380.416 378.013 L 355.712 397.369 M 821.527 401.608 L 796.151 383.142 M 832.535 314.39 L 804.489 300.305 M 821.527 401.608 L 858.277 354.799 M 832.535 314.39 L 861.167 262.22 M 649.327 594.744 L 689.723 547.969 M 793.333 473.63 L 770.346 452.264 M 774.27 266.998 L 743.596 260.361 M 751.752 180.246 L 720.37 179.947 M 774.27 266.998 L 788.08 206.757 M 712.164 99.8361 L 681.369 105.887 M 751.752 180.246 L 753.099 118.457 M 712.164 99.8361 L 700.993 39.0505 M 689.723 547.969 L 666.224 527.166 M 689.723 547.969 L 731.254 502.2 M 617.517 87.3587 L 590.011 102.469 M 617.517 87.3587 L 586.719 32.8894 M 580.043 619.886 L 624.289 575.639 M 504.67 636.15 L 554.908 600.153 M 435.164 638.621 L 487.335 609.989 M 421.739 610.254 L 435.164 638.621 M 360.633 593.588 L 367.255 624.265 M 354.154 551.046 L 356.443 582.346 M 360.012 247.888 L 325.549 260.736 M 327.462 477.349 L 317.425 507.085 M 343.087 439.201 L 329.555 467.517 M 361.239 406.553 L 345.218 433.54 M 380.416 378.013 L 350.951 388.816 M 881.757 375.623 L 858.277 354.799 M 887.726 278.939 L 861.167 262.22 M 881.757 375.623 L 921.181 336.199 M 887.726 278.939 L 920.2 233.619 M 673.813 614.375 L 712.71 569.335 M 793.333 473.63 L 835.414 431.549 M 818.393 214.882 L 788.08 206.757 M 784.43 120.286 L 753.099 118.457 M 818.393 214.882 L 835.889 158 M 784.43 120.286 L 790.066 61.0424 M 712.71 569.335 L 689.723 547.969 M 753.71 524.124 L 731.254 502.2 M 712.71 569.335 L 754.791 527.255 M 753.71 524.124 L 796.811 483.089 M 602.505 641.803 L 646.206 598.101 M 437.885 152.123 L 382.855 143.166 M 317.175 510.261 L 309.326 540.648 M 380.416 378.013 L 349.056 379.212 M 941.484 360.13 L 921.181 336.199 M 944.131 253.923 L 920.2 233.619 M 698.75 633.429 L 735.192 591.233 M 856.237 455.03 L 835.414 431.549 M 856.237 455.03 L 900.09 420.6 M 865.28 169.006 L 835.889 158 M 821.075 65.8799 L 790.066 61.0424 M 865.28 169.006 L 887.922 118.057 M 821.075 65.8799 L 832.951 11.4057 M 775.614 550.735 L 754.791 527.255 M 736.19 590.159 L 775.614 550.735 M 817.051 507.073 L 796.811 483.089 M 775.614 550.735 L 819.467 516.305 M 625.492 663.169 L 667.573 621.089 M 522.635 661.883 L 573.499 625.437 M 449.249 666.667 L 503.429 636.932 M 435.164 638.621 L 449.249 666.667 M 370.007 631.045 L 379.945 660.813 M 310.442 600.189 L 311.977 631.535 M 309.926 549.773 L 305.841 580.89 M 352.625 217.386 L 311.166 232.842 M 301.998 464.755 L 284.457 490.78 M 327.029 428.43 L 305.963 451.692 M 353.68 400.334 L 330.286 421.254 M 350.212 369.492 L 349.056 379.212 M 380.416 378.013 L 350.212 369.492 M 724.1 651.932 L 757.188 613.619 M 917.388 446.786 L 900.09 420.6 M 917.388 446.786 L 961.767 422.43 M 915.463 133.103 L 887.922 118.057 M 795.918 574.666 L 775.614 550.735 M 760.121 610.462 L 795.918 574.666 M 836.765 542.491 L 819.467 516.305 M 795.918 574.666 L 837.067 545.18 M 817.051 507.073 L 861.736 473.73 M 648.972 683.993 L 688.396 644.569 M 541.226 687.167 L 591.464 651.17 M 444.772 121.504 L 386.034 111.944 M 282.912 496.892 L 268.106 524.564 M 354.306 360.601 L 350.212 369.492 M 380.416 378.013 L 354.306 360.601 M 749.813 669.925 L 778.733 636.438 M 973.993 451.334 L 961.767 422.43 M 815.74 598.997 L 795.918 574.666 M 784.453 630.284 L 815.74 598.997 M 852.66 572.416 L 837.067 545.18 M 815.74 598.997 L 852.705 574.681 M 878.386 500.333 L 861.736 473.73 M 836.765 542.491 L 881.144 518.135 M 878.386 500.333 L 923.35 477.073 M 672.904 704.296 L 708.7 668.5 M 560.425 711.994 L 608.8 677.331 M 464.009 694.363 L 518.865 664.257 M 449.249 666.667 L 464.009 694.363 M 381.043 663.37 L 393.043 692.368 M 316.16 645.504 L 322.47 676.247 M 259.846 598.524 L 256.254 629.701 M 344.706 187.018 L 297.272 204.702 M 266.869 539.586 L 256.578 569.235 M 280.77 445.878 L 256.973 466.338 M 314.722 413.515 L 287.883 429.781 M 319.974 361.088 L 317.691 380.289 M 348.341 392.13 L 319.739 405.048 M 360.941 353.404 L 354.306 360.601 M 775.836 687.467 L 799.876 659.631 M 820.68 683.128 L 799.876 659.631 M 799.876 659.631 L 778.733 636.438 M 835.134 623.671 L 815.74 598.997 M 799.876 659.631 L 829.811 638.261 M 866.712 602.765 L 852.705 574.681 M 835.134 623.671 L 866.549 604.543 M 893.37 547.039 L 881.144 518.135 M 852.66 572.416 L 893.094 554.447 M 934.863 506.269 L 923.35 477.073 M 893.37 547.039 L 935.661 534.031 M 1016.28 438.326 L 1010.15 407.547 M 697.235 724.118 L 728.522 692.832 M 580.199 736.364 L 625.519 703.891 M 479.445 721.688 L 533.625 691.952 M 450.941 90.7325 L 389.941 80.8042 M 252.776 475.806 L 231.853 499.198 M 328.129 343.29 L 320.04 360.853 M 820.68 683.128 L 844.271 667.302 M 857.805 695.618 L 844.271 667.302 M 802.112 704.628 L 820.68 683.128 M 844.476 666.008 L 829.811 638.261 M 879.149 633.286 L 866.549 604.543 M 844.476 666.008 L 871.138 656.202 M 902.337 584.439 L 893.094 554.447 M 866.712 602.765 L 901.344 590.382 M 941.254 564.913 L 935.661 534.031 M 721.909 743.513 L 747.916 717.505 M 1060.33 434.135 L 1060.55 402.752 M 600.503 760.296 L 641.652 730.81 M 495.539 748.63 L 547.71 719.998 M 408.432 723.113 L 464.009 694.363 M 394.355 695.063 L 408.432 723.113 M 325.26 684.101 L 335.111 713.899 M 260.972 653.424 L 263.562 684.701 M 336.183 156.814 L 283.942 176.29 M 289.673 352.917 L 286.318 381.126 M 341.37 328.87 L 328.264 343.087 M 857.805 695.618 L 876.273 689.888 M 841.218 706.858 L 820.68 683.128 M 828.58 721.493 L 841.218 706.858 M 841.218 706.858 L 857.514 696.45 M 877.6 686.913 L 871.138 656.202 M 907.874 621.079 L 901.344 590.382 M 879.149 633.286 L 906.456 625.453 M 746.862 762.546 L 766.949 742.459 M 977.968 562.71 L 979.828 531.382 M 621.279 783.817 L 657.246 758.046 M 512.259 775.19 L 561.135 748.365 M 423.192 750.809 L 478.086 722.412 M 408.432 723.113 L 423.192 750.809 M 202.617 465.986 L 231.853 499.198 M 301.819 326.18 L 289.936 351.984 M 880.904 720.928 L 876.273 689.888 M 861.574 730.745 L 841.218 706.858 M 870.188 725.161 L 857.514 696.45 M 861.574 730.745 L 869.903 725.604 M 910.659 656.554 L 906.456 625.453 M 772.028 781.297 L 785.701 767.624 M 936.201 618.927 L 938.018 587.596 M 1014.16 569.242 L 1023.37 539.24 M 642.464 806.972 L 672.361 785.55 M 529.557 801.376 L 573.936 777.02 M 438.62 778.138 L 491.478 750.795 M 423.192 750.809 L 438.62 778.138 M 353.576 753.219 L 369.012 780.544 M 338.781 722.104 L 352.165 750.49 M 268.112 700.707 L 275.762 731.144 M 327 126.803 L 271.238 147.592 M 259.282 345.086 L 254.938 381.609 M 321.611 304.487 L 302.357 325.374 M 882.022 754.553 L 869.903 725.604 M 882.022 754.553 L 879.412 723.278 M 890.693 720.973 L 895.609 689.977 M 804.259 792.933 L 785.701 767.624 M 797.337 799.855 L 804.259 792.933 M 804.259 792.933 L 812.941 788.413 M 929.994 656.761 L 934.862 625.757 M 964.088 624.341 L 974.124 594.605 M 663.982 829.817 L 687.074 813.271 M 1047.79 584.139 L 1063.83 557.161 M 547.373 827.212 L 586.162 805.924 M 454.683 805.1 L 504.203 779.483 M 387.899 809.267 L 438.62 778.138 M 370.518 783.136 L 387.899 809.267 M 299.476 784.662 L 315.578 811.6 M 177.075 484.222 L 210.525 522.221 M 275.319 309.368 L 259.934 342.776 M 882.022 754.553 L 889.174 723.995 M 882.022 754.553 L 898.241 727.685 M 882.022 754.553 L 905.73 733.989 M 882.022 754.553 L 910.912 742.293 M 913.284 751.79 L 910.912 742.293 M 882.022 754.553 L 913.284 751.79 M 912.614 761.556 L 913.284 751.79 M 900.015 723.959 L 914.024 695.876 M 948.462 662.489 L 961.995 634.173 M 685.757 852.418 L 701.475 841.155 M 989.552 636.935 L 1007.09 610.911 M 565.638 852.733 L 597.881 835.037 M 471.332 831.703 L 516.296 808.443 M 405.887 834.984 L 453.405 805.821 M 387.899 809.267 L 405.887 834.984 M 320.343 819.222 L 339.586 844.014 M 246.164 817.423 L 262.922 843.958 M 282.56 747.772 L 295.243 776.479 M 317.118 97.0161 L 259.208 118.606 M 228.78 337.699 L 223.554 381.636 M 301.58 280.328 L 276.651 307.37 M 908.008 729.61 L 929.813 707.038 M 943.234 768.44 L 944.556 749.149 M 707.704 874.851 L 715.661 869.15 M 964.521 673.261 L 985.587 649.998 M 584.272 877.986 L 609.176 864.318 M 488.509 857.969 L 527.809 837.639 M 424.434 860.301 L 467.58 833.821 M 405.887 834.984 L 424.434 860.301 M 341.262 846.234 L 362.194 869.617 M 272.936 858.873 L 293.937 882.195 M 151.902 502.964 L 188.742 544.813 M 248.576 292.943 L 230.069 333.132 M 973.905 775.089 L 975.848 746.747 M 603.19 903.027 L 620.141 893.724 M 506.142 883.93 L 538.81 867.031 M 488.509 857.969 L 506.142 883.93 M 424.434 860.301 L 443.482 885.243 M 363.755 871.499 L 386.179 893.456 M 299.377 888.509 L 322.954 909.224 M 228.55 901.879 L 251.197 923.606 M 306.516 67.4773 L 247.885 89.3361 M 225.726 772.052 L 237.7 801.062 M 198.154 330.846 L 192.175 381.115 M 281.199 256.462 L 251.209 288.995 M 622.298 927.923 L 630.88 923.213 M 524.151 909.633 L 549.383 896.58 M 506.142 883.93 L 524.151 909.633 M 455.124 887.006 L 478.391 908.068 M 387.531 894.955 L 411.228 915.532 M 328.135 914.391 L 353.837 932.401 M 262.845 935.488 L 288.729 953.236 M 295.193 38.2077 L 237.283 59.7974 M 127.146 522.253 L 166.468 566.923 M 221.551 276.987 L 200.376 322.969 M 542.448 935.131 L 559.623 926.247 M 524.151 909.633 L 542.448 935.131 M 479.105 908.865 L 503.268 928.892 M 429.543 923.108 L 457.127 938.078 M 358.395 936.353 L 385.762 951.715 M 299.979 962.513 L 328.272 976.095 M 283.163 9.22114 L 227.401 30.0101 M 167.397 324.604 L 160.813 379.968 M 260.404 232.957 L 226.092 270.178 M 542.448 935.131 L 560.94 960.488 M 560.94 960.488 L 569.634 955.991 M 503.707 929.357 L 528.532 948.556 M 459.621 940.06 L 488.22 952.986 M 413.214 964.231 L 443.553 972.261 M 338.229 982.787 L 368.137 992.299 M 280.041 1014.58 L 310.168 1023.37 M 194.214 261.573 L 170.892 312.215 M 560.94 960.488 L 579.53 985.773 M 528.74 948.768 L 554 967.392 M 489.758 954.104 L 519.038 965.401 M 449.079 975.297 L 480.077 980.202 M 407.061 1008.05 L 438.438 1008.68 M 327.866 1032.34 L 359.078 1035.61 M 136.511 319.039 L 129.482 378.133 M 239.145 209.871 L 201.356 250.864 M 554.054 967.445 L 579.53 985.773 M 519.766 965.896 L 549.458 976.062 M 483.47 981.807 L 514.757 984.258 M 448.227 1012.07 L 479.419 1008.6 M 411.432 1052.08 L 442.072 1045.28 M 327.732 1082.96 L 358.962 1079.85 M 166.545 246.763 L 141.652 300.818 M 549.647 976.186 L 579.53 985.773 M 516.358 984.93 L 547.733 985.698 M 485.368 1010.15 L 516.05 1003.55 M 457.127 1047.75 L 486.293 1036.17 M 105.503 314.196 L 98.2038 375.567 M 217.385 187.256 L 177.049 231.012 M 548.147 985.859 L 579.53 985.773 M 518.831 1004.11 L 548.984 995.406 M 457.127 1047.75 L 475.145 1079.82 M 138.537 232.603 L 112.685 288.74 M 549.7 995.524 L 579.53 985.773 M 518.831 1004.11 L 526.956 1021.65 M 500.682 1038.82 L 526.956 1021.65 M 74.387 310.108 L 66.9968 372.244 M 195.102 165.156 L 153.212 210.597 M 549.7 995.524 L 554.155 1004.24 M 554.155 1004.24 L 579.53 985.773 M 528.708 1022.61 L 554.155 1004.24 M 500.682 1038.82 L 519.493 1060.11 M 110.194 219.127 L 84.0198 275.963 M 554.155 1004.24 L 561.079 1011.16 M 561.079 1011.16 L 579.53 985.773 M 528.708 1022.61 L 542.278 1036.38 M 81.529 206.35 L 55.6771 262.487 M 172.289 143.603 L 129.878 189.611 M 561.079 1011.16 L 569.797 1015.61 M 52.5624 194.272 L 27.6693 248.327 M 148.955 122.617 L 107.065 168.058 M 542.726 1036.62 L 559.948 1045.41 M 125.118 102.202 L 84.7824 145.958 M 524.568 1062.21 L 549.871 1075.13 M 100.811 82.3501 L 63.0221 123.343 M 506.701 1088.02 L 539.46 1104.74 M 489.21 1114.07 L 528.62 1134.19" />
</svg>
