<?xml version="1.0"?>
<svg width="1201" height="1445" version="1.1" xmlns="http://www.w3.org/2000/svg" >
<defs>
<style type="text/css"><![CDATA[
.m {stroke:rgb(255,0,0);stroke-width:1.806250;}
.v {stroke:rgb(0,0,255);stroke-width:1.806250;}
.b {stroke:rgb(0,0,0);stroke-width:3.612500;fill:white}
.n {stroke:rgb(128,128,128);stroke-width:1.806250}
.t {stroke:rgb(0,128,0);stroke-width:1.806250;}
.c {stroke:rgb(128,128,128);stroke-width:1.806250;stroke-dasharray:12.010000, 12.010000;}
]]></style>
</defs>
<path fill="none" style="stroke:black;stroke-width:3.612500;" d=" M 1017.2 348.982 L 986.934 357.299 M 994.834 374.947 L 1021.19 357.917 M 896.002 176.887 L 870.603 195.321 M 884.209 209.06 L 902.89 183.842 M 488.491 27.7375 L 478.726 27.05 M 491.074 59.0147 L 488.491 27.7375 M 471.785 57.6565 L 469.096 23.4955 M 478.726 27.05 L 469.62 23.4583 M 469.62 23.4583 L 471.785 57.6565 M 438.484 38.8946 L 453.691 50.8381 M 469.096 23.4955 L 461.398 17.4492 M 427.572 22.9312 L 438.484 38.8946 M 461.398 17.4492 L 455.874 9.36805 M 421.965 4.42577 L 427.572 22.9312 M 453.035 0 L 421.965 4.42577 M 455.874 9.36805 L 453.035 0 M 911.731 128.718 L 901.873 98.923 M 884.653 107.718 L 903.014 133.171 M 921.396 127.168 L 921.198 95.7852 M 902.105 98.8473 L 911.731 128.718 M 931.069 128.671 L 940.549 98.7534 M 921.442 95.7846 L 921.396 127.168 M 1019.13 992.382 L 1003.59 961.843 M 939.808 133.081 L 940.781 98.828 M 940.781 98.828 L 931.069 128.671 M 997.324 993.785 L 993.265 959.759 M 994.163 959.199 L 999.804 992.998 M 993.265 959.759 L 985.33 954.027 M 951.752 960.864 L 963.296 976.376 M 985.33 954.027 L 979.486 946.175 M 945.406 942.598 L 951.752 960.864 M 979.486 946.175 L 976.274 936.928 M 944.846 923.27 L 945.406 942.598 M 976.274 936.928 L 975.99 927.143 M 950.124 904.668 L 944.846 923.27 M 975.99 927.143 L 978.662 917.726 M 984.041 909.548 L 960.751 888.513 M 1054.13 747.184 L 1025.63 734.042 M 1020.3 752.628 L 1051.43 756.593 M 1070.95 550.285 L 1039.7 547.451 M 1040.9 566.75 L 1071.56 560.055 M 986.934 357.299 L 956.737 365.847 M 968.344 391.775 L 994.834 374.947 M 870.603 195.321 L 845.346 213.949 M 865.335 234.134 L 884.209 209.06 M 493.417 90.3107 L 491.074 59.0147 M 328.11 100.164 L 297.47 75.763 M 453.691 50.8381 L 465.08 88.3154 M 300.536 106.997 L 277.437 75.3629 M 297.47 75.763 L 278.155 74.851 M 278.155 74.851 L 300.536 106.997 M 245.124 97.5013 L 272.137 106.296 M 277.437 75.3629 L 259.051 69.3768 M 221.756 81.3483 L 245.124 97.5013 M 243.144 58.382 L 221.756 81.3483 M 259.051 69.3768 L 243.144 58.382 M 901.873 98.923 L 891.787 69.2042 M 866.488 82.126 L 884.653 107.718 M 921.198 95.7852 L 920.758 64.4045 M 892.709 68.9034 L 902.105 98.8473 M 940.549 98.7534 L 949.799 68.7639 M 921.728 64.4022 L 921.442 95.7846 M 1020.25 1025.54 L 997.324 993.785 M 999.804 992.998 L 1024.65 1023.28 M 1024.65 1023.28 L 1019.13 992.382 M 991.286 1024.88 L 978.971 987.699 M 978.971 987.699 L 991.855 1024.69 M 958.761 1016.38 L 960.598 977.252 M 963.296 976.376 L 964.463 1015.53 M 921.545 974.241 L 937.076 998.027 M 960.598 977.252 L 950.027 961.061 M 913.466 947.006 L 921.545 974.241 M 950.027 961.061 L 944.528 942.523 M 913.515 918.598 L 913.466 947.006 M 944.528 942.523 L 944.562 923.187 M 921.687 891.391 L 913.515 918.598 M 944.562 923.187 L 950.124 904.668 M 960.751 888.513 L 937.299 867.657 M 1025.63 734.042 L 997.029 721.119 M 989.195 748.425 L 1020.3 752.628 M 1039.7 547.451 L 1008.42 544.858 M 1010.19 573.211 L 1040.9 566.75 M 956.737 365.847 L 926.638 374.734 M 941.665 408.304 L 968.344 391.775 M 845.346 213.949 L 820.3 232.86 M 846.18 258.994 L 865.335 234.134 M 465.08 88.3154 L 458.719 119.048 M 495.408 121.631 L 493.417 90.3107 M 339.654 129.348 L 328.11 100.164 M 193.853 184.675 L 149.752 175.463 M 272.137 106.296 L 303.953 138.194 M 127.355 214.554 L 162.614 204.089 M 149.752 175.463 L 122.518 183.545 M 90.5829 215.324 L 127.355 214.554 M 94.1166 184.14 L 90.5829 215.324 M 122.518 183.545 L 94.1166 184.14 M 891.787 69.2042 L 881.368 39.6009 M 848.613 56.3307 L 866.488 82.126 M 920.758 64.4045 L 919.966 33.031 M 883.65 38.8556 L 892.709 68.9034 M 1059.25 1048.11 L 1020.25 1025.54 M 949.799 68.7639 L 922.367 33.0251 M 922.367 33.0251 L 921.728 64.4022 M 1021.69 1058.13 L 991.286 1024.88 M 991.855 1024.69 L 1023.5 1056.76 M 975.223 1058.32 L 958.761 1016.38 M 964.463 1015.53 L 984.998 1055.63 M 930.857 1044.64 L 931.13 999.589 M 937.076 998.027 L 941.864 1042.83 M 931.13 999.589 L 917.8 974.502 M 880.313 949.512 L 888.369 985.399 M 917.8 974.502 L 911.578 946.784 M 882.031 912.772 L 880.313 949.512 M 911.578 946.784 L 912.905 918.407 M 893.402 877.794 L 882.031 912.772 M 912.905 918.407 L 921.687 891.391 M 937.299 867.657 L 913.615 847.067 M 997.029 721.119 L 968.286 708.519 M 958.144 743.873 L 989.195 748.425 M 1008.42 544.858 L 977.119 542.616 M 979.409 579.325 L 1010.19 573.211 M 926.638 374.734 L 896.671 384.059 M 914.75 424.444 L 941.665 408.304 M 820.3 232.86 L 795.532 252.134 M 826.666 283.573 L 846.18 258.994 M 458.719 119.048 L 452.806 149.869 M 496.943 152.977 L 495.408 121.631 M 303.953 138.194 L 307.824 169.338 M 350.771 158.696 L 339.654 129.348 M 213.472 209.171 L 193.853 184.675 M 98.4015 299.491 L 48.4522 310.325 M 162.614 204.089 L 127.674 215.575 M 127.674 215.575 L 175.892 232.526 M 34.1129 359.383 L 69.845 333.288 M 18.75 332.017 L 34.1129 359.383 M 48.4522 310.325 L 18.75 332.017 M 881.368 39.6009 L 870.519 10.1521 M 831.114 30.278 L 848.613 56.3307 M 1109.53 1057.24 L 1059.25 1048.11 M 919.966 33.031 L 875.029 8.67915 M 875.029 8.67915 L 883.65 38.8556 M 1066.91 1081.96 L 1021.69 1058.13 M 1023.5 1056.76 L 1070.2 1077.52 M 1008.88 1096.78 L 975.223 1058.32 M 984.998 1055.63 L 1023.3 1089.47 M 947.843 1092.85 L 930.857 1044.64 M 941.864 1042.83 L 965.485 1088.15 M 909.264 1068.86 L 905.627 1017.88 M 905.627 1017.88 L 910.745 1068.73 M 867.763 1034.53 L 882.065 985.457 M 888.369 985.399 L 879.861 1035.8 M 845.787 949.454 L 851.679 993.307 M 882.065 985.457 L 877.167 949.005 M 850.42 905.451 L 845.787 949.454 M 877.167 949.005 L 881.019 912.427 M 865.317 863.788 L 850.42 905.451 M 881.019 912.427 L 893.402 877.794 M 913.615 847.067 L 889.634 826.822 M 968.286 708.519 L 939.362 696.338 M 927.162 738.869 L 958.144 743.873 M 977.119 542.616 L 945.786 540.831 M 948.541 584.991 L 979.409 579.325 M 896.671 384.059 L 866.872 393.905 M 887.556 440.11 L 914.75 424.444 M 795.532 252.134 L 771.104 271.837 M 806.725 307.808 L 826.666 283.573 M 452.806 149.869 L 447.433 180.79 M 497.931 184.345 L 496.943 152.977 M 307.824 169.338 L 312.238 200.409 M 361.375 188.234 L 350.771 158.696 M 175.892 232.526 L 189.664 260.727 M 232.66 234.005 L 213.472 209.171 M 69.845 333.288 L 91.6354 355.874 M 124.308 317.205 L 98.4015 299.491 M 0 461.82 L 27.6888 476.594 M 16.755 420.869 L 0 461.82 M 46.8586 429.74 L 16.755 420.869 M 1166.05 1051.73 L 1109.53 1057.24 M 870.519 10.1521 L 814.074 3.92381 M 814.074 3.92381 L 831.114 30.278 M 1122.47 1093.69 L 1066.91 1081.96 M 1070.2 1077.52 L 1126.67 1083.54 M 1056.54 1127.65 L 1008.88 1096.78 M 1023.3 1089.47 L 1075.35 1112.19 M 980.647 1139.2 L 947.843 1092.85 M 965.485 1088.15 L 1005.92 1128.02 M 928.645 1122.24 L 909.264 1068.86 M 910.745 1068.73 L 933.501 1120.76 M 867.392 1091.31 L 867.763 1034.53 M 879.861 1035.8 L 888.052 1091.99 M 823.092 1046.05 L 842.554 992.706 M 851.679 993.307 L 839.836 1048.85 M 809.981 946.189 L 811.437 996.791 M 842.554 992.706 L 841.281 948.478 M 818.783 896.337 L 809.981 946.189 M 841.281 948.478 L 848.975 904.905 M 837.481 849.293 L 818.783 896.337 M 848.975 904.905 L 865.317 863.788 M 889.634 826.822 L 865.302 807 M 939.362 696.338 L 910.231 684.664 M 896.272 733.324 L 927.162 738.869 M 945.786 540.831 L 914.427 539.592 M 917.579 590.117 L 948.541 584.991 M 866.872 393.905 L 837.276 404.344 M 860.056 455.232 L 887.556 440.11 M 771.104 271.837 L 747.074 292.023 M 786.305 331.639 L 806.725 307.808 M 447.433 180.79 L 442.677 211.811 M 498.293 215.727 L 497.931 184.345 M 312.238 200.409 L 317.271 231.387 M 371.388 217.978 L 361.375 188.234 M 189.664 260.727 L 203.996 288.647 M 251.349 259.217 L 232.66 234.005 M 91.6354 355.874 L 113.872 378.02 M 149.855 335.433 L 124.308 317.205 M 27.6888 476.594 L 55.6668 490.812 M 76.7792 439.21 L 46.8586 429.74 M 1184.17 1093.32 L 1122.47 1093.69 M 1126.67 1083.54 L 1187.7 1074.45 M 1187.7 1074.45 L 1166.05 1051.73 M 1114.28 1149.43 L 1056.54 1127.65 M 1075.35 1112.19 L 1136.28 1121.87 M 1026.18 1180.84 L 980.647 1139.2 M 1005.92 1128.02 L 1059.33 1158.91 M 961.55 1174.44 L 928.645 1122.24 M 933.501 1120.76 L 971.642 1169.27 M 880.112 1151.69 L 867.392 1091.31 M 888.052 1091.99 L 912.013 1148.85 M 814.749 1107.19 L 823.092 1046.05 M 839.836 1048.85 L 842.549 1110.49 M 772.252 1050.28 L 799.581 994.96 M 811.437 996.791 L 793.245 1055.75 M 773.259 939.153 L 768.198 994.676 M 799.581 994.96 L 804.175 944.546 M 787.297 885.195 L 773.259 939.153 M 804.175 944.546 L 816.922 895.554 M 809.94 834.246 L 787.297 885.195 M 816.922 895.554 L 837.481 849.293 M 865.302 807 L 840.58 787.667 M 910.231 684.664 L 880.872 673.573 M 865.498 727.165 L 896.272 733.324 M 914.427 539.592 L 883.049 538.979 M 886.52 594.625 L 917.579 590.117 M 837.276 404.344 L 807.915 415.429 M 832.23 469.746 L 860.056 455.232 M 747.074 292.023 L 723.492 312.732 M 765.367 355.018 L 786.305 331.639 M 442.677 211.811 L 438.602 242.929 M 497.966 247.109 L 498.293 215.727 M 317.271 231.387 L 322.981 262.247 M 380.746 247.934 L 371.388 217.978 M 203.996 288.647 L 218.936 316.246 M 269.481 284.833 L 251.349 259.217 M 113.872 378.02 L 136.589 399.674 M 174.997 354.217 L 149.855 335.433 M 55.6668 490.812 L 83.9498 504.414 M 106.485 449.334 L 76.7792 439.21 M 1121.46 1179.98 L 1178.47 1162.92 M 1178.47 1162.92 L 1114.28 1149.43 M 1136.28 1121.87 L 1201.83 1119.26 M 1201.83 1119.26 L 1184.17 1093.32 M 1080.79 1217.19 L 1026.18 1180.84 M 1059.33 1158.91 L 1121.46 1179.98 M 1004.6 1223.93 L 961.55 1174.44 M 971.642 1169.27 L 1021.51 1211.88 M 903.289 1213.06 L 880.112 1151.69 M 912.013 1148.85 L 948.844 1203.13 M 815.922 1172.78 L 814.749 1107.19 M 842.549 1110.49 L 858.227 1174.19 M 752.534 1112.85 L 772.252 1050.28 M 793.245 1055.75 L 786.571 1121.01 M 717.005 1045.17 L 754.073 991.054 M 768.198 994.676 L 741.144 1054.43 M 754.073 991.054 L 766.374 936.674 M 756.205 871.87 L 736.233 927.93 M 766.374 936.674 L 785.085 884.154 M 782.735 818.599 L 756.205 871.87 M 785.085 884.154 L 809.94 834.246 M 840.58 787.667 L 815.441 768.881 M 880.872 673.573 L 851.277 663.129 M 834.867 720.333 L 865.498 727.165 M 883.049 538.979 L 851.666 539.054 M 855.371 598.45 L 886.52 594.625 M 807.915 415.429 L 778.821 427.197 M 804.073 483.607 L 832.23 469.746 M 723.492 312.732 L 700.401 333.986 M 743.889 377.9 L 765.367 355.018 M 438.602 242.929 L 435.256 274.134 M 496.907 278.475 L 497.966 247.109 M 322.981 262.247 L 329.412 292.964 M 389.401 278.1 L 380.746 247.934 M 218.936 316.246 L 234.518 343.489 M 287.01 310.866 L 269.481 284.833 M 136.589 399.674 L 159.805 420.791 M 199.693 373.583 L 174.997 354.217 M 83.9498 504.414 L 112.543 517.351 M 135.946 460.15 L 106.485 449.334 M 1079.13 1248.53 L 1140.92 1249.54 M 1140.29 1218.16 L 1080.79 1217.19 M 1140.92 1249.54 L 1140.29 1218.16 M 1054.05 1271.02 L 1004.6 1223.93 M 1021.51 1211.88 L 1079.13 1248.53 M 933.292 1274.4 L 903.289 1213.06 M 948.844 1203.13 L 994.72 1253.71 M 823.529 1240.64 L 815.922 1172.78 M 858.227 1174.19 L 883.672 1237.55 M 738.195 1179.61 L 752.534 1112.85 M 786.571 1121.01 L 789.204 1189.24 M 683.861 1104.88 L 717.005 1045.17 M 741.144 1054.43 L 721.971 1119.97 M 683.061 1041.29 L 723.103 985.974 M 723.103 985.974 L 685.69 1043.1 M 677.783 970.106 L 728.626 924.522 M 736.233 927.93 L 692.26 980.173 M 725.797 856.295 L 699.71 912.324 M 728.626 924.522 L 753.745 870.572 M 755.903 802.321 L 725.797 856.295 M 753.745 870.572 L 782.735 818.599 M 815.441 768.881 L 789.869 750.687 M 851.277 663.129 L 821.446 653.379 M 804.404 712.786 L 834.867 720.333 M 851.666 539.054 L 820.292 539.863 M 824.14 601.547 L 855.371 598.45 M 778.821 427.197 L 750.021 439.667 M 775.588 496.78 L 804.073 483.607 M 700.401 333.986 L 677.832 355.793 M 721.862 400.255 L 743.889 377.9 M 435.256 274.134 L 432.668 305.41 M 495.087 309.805 L 496.907 278.475 M 329.412 292.964 L 336.585 323.517 M 397.322 308.468 L 389.401 278.1 M 234.518 343.489 L 250.755 370.345 M 303.901 337.315 L 287.01 310.866 M 159.805 420.791 L 183.527 441.338 M 223.912 393.542 L 199.693 373.583 M 112.543 517.351 L 141.441 529.591 M 165.136 471.677 L 135.946 460.15 M 1045.63 1301.26 L 1106.11 1317.3 M 1113.79 1286.87 L 1054.05 1271.02 M 1106.11 1317.3 L 1113.79 1286.87 M 966.032 1335.88 L 933.292 1274.4 M 994.72 1253.71 L 1045.63 1301.26 M 833.666 1309.55 L 823.529 1240.64 M 883.672 1237.55 L 914.893 1299.82 M 725.919 1248.18 L 738.195 1179.61 M 789.204 1189.24 L 797.647 1258.39 M 652.166 1166.9 L 683.861 1104.88 M 721.971 1119.97 L 708.016 1188.22 M 644.18 1099.08 L 683.061 1041.29 M 685.69 1043.1 L 652.482 1104.33 M 627.549 1018.36 L 677.783 970.106 M 692.26 980.173 L 651.972 1037 M 634.147 947.068 L 691.824 908.01 M 699.71 912.324 L 648.307 959.333 M 696.379 838.501 L 664.597 892.403 M 691.824 908.01 L 723.215 854.772 M 729.474 785.396 L 696.379 838.501 M 723.215 854.772 L 755.903 802.321 M 789.869 750.687 L 763.863 733.119 M 821.446 653.379 L 791.388 644.356 M 774.134 704.504 L 804.404 712.786 M 820.292 539.863 L 788.948 541.433 M 792.844 603.885 L 824.14 601.547 M 746.788 509.25 L 775.588 496.78 M 750.021 439.667 L 721.536 452.841 M 699.293 422.063 L 721.862 400.255 M 677.832 355.793 L 655.805 378.148 M 492.498 341.082 L 495.087 309.805 M 432.668 305.41 L 430.848 336.741 M 404.496 339.021 L 397.322 308.468 M 336.585 323.517 L 344.506 353.885 M 320.139 364.172 L 303.901 337.315 M 250.755 370.345 L 267.647 396.795 M 247.634 414.089 L 223.912 393.542 M 183.527 441.338 L 207.746 461.298 M 194.035 483.916 L 165.136 471.677 M 141.441 529.591 L 170.631 541.117 M 1016.27 1373.19 L 966.032 1335.88 M 997.253 1398.15 L 1016.27 1373.19 M 947.633 1361.31 L 997.253 1398.15 M 914.893 1299.82 L 947.633 1361.31 M 842.109 1378.7 L 833.666 1309.55 M 797.647 1258.39 L 807.784 1327.3 M 711.964 1316.42 L 725.919 1248.18 M 708.016 1188.22 L 695.74 1256.79 M 618.958 1228.14 L 652.166 1166.9 M 652.482 1104.33 L 620.787 1166.36 M 603.892 1155.91 L 644.18 1099.08 M 651.972 1037 L 613.091 1094.79 M 576.145 1065.37 L 627.549 1018.36 M 648.307 959.333 L 598.072 1007.59 M 575.529 984.699 L 634.147 947.068 M 664.597 892.403 L 606.919 931.461 M 594.115 917.511 L 656.899 887.34 M 656.899 887.34 L 693.812 836.813 M 668.246 818.612 L 631.787 868.516 M 693.812 836.813 L 729.474 785.396 M 703.469 767.828 L 668.246 818.612 M 763.863 733.119 L 737.434 716.195 M 744.075 695.48 L 774.134 704.504 M 791.388 644.356 L 761.117 636.073 M 761.5 605.454 L 792.844 603.885 M 788.948 541.433 L 757.652 543.771 M 717.695 521.018 L 746.788 509.25 M 721.536 452.841 L 693.379 466.701 M 676.202 443.317 L 699.293 422.063 M 655.805 378.148 L 634.327 401.031 M 489.152 372.287 L 492.498 341.082 M 430.848 336.741 L 429.788 368.107 M 410.926 369.738 L 404.496 339.021 M 344.506 353.885 L 353.162 384.051 M 335.72 391.415 L 320.139 364.172 M 267.647 396.795 L 285.175 422.828 M 270.85 435.206 L 247.634 414.089 M 207.746 461.298 L 232.442 480.664 M 222.628 496.853 L 194.035 483.916 M 170.631 541.117 L 200.093 551.933 M 872.591 1432.46 L 842.109 1378.7 M 844.743 1446.93 L 872.591 1432.46 M 815.391 1395.16 L 844.743 1446.93 M 807.784 1327.3 L 815.391 1395.16 M 681.401 1323.55 L 692.791 1381.96 M 692.791 1381.96 L 711.964 1316.42 M 695.74 1256.79 L 681.401 1323.55 M 581.544 1285.26 L 618.958 1228.14 M 620.787 1166.36 L 587.643 1226.06 M 559.919 1208.15 L 603.892 1155.91 M 613.091 1094.79 L 573.049 1150.11 M 522.11 1107.12 L 576.145 1065.37 M 598.072 1007.59 L 547.229 1053.17 M 515.207 1016.7 L 575.529 984.699 M 606.919 931.461 L 549.095 967.782 M 530.329 941.889 L 594.115 917.511 M 631.787 868.516 L 569.951 897.485 M 559.32 882.678 L 624.704 862.983 M 624.704 862.983 L 665.825 816.844 M 641.649 796.833 L 602.053 841.26 M 665.825 816.844 L 703.469 767.828 M 677.897 749.634 L 641.649 796.833 M 737.434 716.195 L 710.602 699.916 M 714.244 685.731 L 744.075 695.48 M 761.117 636.073 L 730.654 628.526 M 730.126 606.263 L 761.5 605.454 M 757.652 543.771 L 726.421 546.867 M 688.334 532.104 L 717.695 521.018 M 693.379 466.701 L 665.554 481.216 M 652.62 464.025 L 676.202 443.317 M 634.327 401.031 L 613.389 424.409 M 485.078 403.405 L 489.152 372.287 M 429.788 368.107 L 429.462 399.489 M 416.637 400.598 L 410.926 369.738 M 353.162 384.051 L 362.52 414.007 M 350.661 419.014 L 335.72 391.415 M 285.175 422.828 L 303.307 448.443 M 293.567 456.86 L 270.85 435.206 M 232.442 480.664 L 257.584 499.447 M 250.911 510.455 L 222.628 496.853 M 200.093 551.933 L 229.799 562.057 M 548.442 1399.37 L 568.415 1343.31 M 519.562 1387.08 L 548.442 1399.37 M 538.274 1334.56 L 519.562 1387.08 M 568.415 1343.31 L 581.544 1285.26 M 550.574 1280.18 L 538.274 1334.56 M 587.643 1226.06 L 550.574 1280.18 M 511.066 1251.93 L 559.919 1208.15 M 573.049 1150.11 L 529.778 1199.41 M 465.098 1139.57 L 522.11 1107.12 M 547.229 1053.17 L 494.503 1092.2 M 453.526 1039.03 L 515.207 1016.7 M 549.095 967.782 L 490.524 997.319 M 466.379 956.495 L 530.329 941.889 M 569.951 897.485 L 508.205 919.63 M 494.481 892.616 L 559.32 882.678 M 602.053 841.26 L 538.866 858.875 M 530.884 844.235 L 595.913 835.624 M 595.913 835.624 L 639.483 795.087 M 639.483 795.087 L 677.897 749.634 M 652.757 730.848 L 616.769 773.431 M 710.602 699.916 L 683.398 684.269 M 684.65 675.286 L 714.244 685.731 M 730.654 628.526 L 700.023 621.694 M 698.743 606.338 L 730.126 606.263 M 726.421 546.867 L 695.271 550.693 M 658.737 542.542 L 688.334 532.104 M 665.554 481.216 L 638.053 496.337 M 628.59 484.212 L 652.62 464.025 M 613.389 424.409 L 592.969 448.241 M 480.322 434.426 L 485.078 403.405 M 429.462 399.489 L 429.823 430.87 M 421.67 431.576 L 416.637 400.598 M 362.52 414.007 L 372.532 443.751 M 364.992 446.934 L 350.661 419.014 M 303.307 448.443 L 321.996 473.655 M 315.804 479.007 L 293.567 456.86 M 257.584 499.447 L 283.131 517.675 M 278.889 524.674 L 250.911 510.455 M 229.799 562.057 L 259.719 571.527 M 449.444 1344.41 L 484.048 1300.7 M 426.511 1322.99 L 449.444 1344.41 M 457.931 1283.3 L 426.511 1322.99 M 484.048 1300.7 L 511.066 1251.93 M 482.463 1239.01 L 457.931 1283.3 M 529.778 1199.41 L 482.463 1239.01 M 406.527 1158.98 L 465.098 1139.57 M 494.503 1092.2 L 439.877 1120.89 M 392.515 1048.24 L 453.526 1039.03 M 490.524 997.319 L 431.829 1016.35 M 404.698 958.173 L 466.379 956.495 M 508.205 919.63 L 447.622 931.334 M 432.84 889.823 L 494.481 892.616 M 538.866 858.875 L 477.594 866.163 M 469.313 840.182 L 530.884 844.235 M 575.949 811.408 L 514.541 817.442 M 514.336 814.744 L 575.949 811.408 M 616.769 773.431 L 556.522 786.761 M 551.089 776.797 L 612.542 771.242 M 612.542 771.242 L 651.966 731.818 M 651.966 731.818 L 628.035 711.515 M 628.035 711.515 L 652.757 730.848 M 683.398 684.269 L 655.856 669.222 M 655.291 664.196 L 684.65 675.286 M 700.023 621.694 L 669.25 615.535 M 667.365 605.726 L 698.743 606.338 M 695.271 550.693 L 664.213 555.201 M 628.938 552.389 L 658.737 542.542 M 638.053 496.337 L 610.86 512.004 M 604.162 503.915 L 628.59 484.212 M 592.969 448.241 L 573.028 472.475 M 474.948 465.346 L 480.322 434.426 M 429.823 430.87 L 430.811 462.238 M 426.084 462.647 L 421.67 431.576 M 372.532 443.751 L 383.136 473.289 M 378.764 475.134 L 364.992 446.934 M 321.996 473.655 L 341.184 498.49 M 337.594 501.592 L 315.804 479.007 M 283.131 517.675 L 309.037 535.39 M 306.578 539.447 L 278.889 524.674 M 259.719 571.527 L 289.823 580.399 M 320.463 1211.3 L 366.167 1189.53 M 309.916 1181.74 L 320.463 1211.3 M 349.863 1162.72 L 309.916 1181.74 M 366.167 1189.53 L 406.527 1158.98 M 385.139 1136.01 L 349.863 1162.72 M 439.877 1120.89 L 385.139 1136.01 M 336.035 1042.34 L 392.515 1048.24 M 431.829 1016.35 L 375.322 1021.99 M 349.366 945.4 L 404.698 958.173 M 447.622 931.334 L 390.849 930.01 M 378.578 873.077 L 432.84 889.823 M 477.594 866.163 L 421.067 860.731 M 415.404 822.331 L 469.313 840.182 M 514.541 817.442 L 458.137 810.856 M 458.68 803.464 L 514.336 814.744 M 556.522 786.761 L 499.735 786.964 M 495.063 767.53 L 551.089 776.797 M 592.239 747.311 L 535.496 749.561 M 535.451 747.296 L 592.239 747.311 M 628.02 654.727 L 603.704 691.693 M 655.856 669.222 L 628.02 654.727 M 626.159 652.522 L 655.291 664.196 M 669.25 615.535 L 638.36 609.991 M 636.006 604.487 L 667.365 605.726 M 664.213 555.201 L 633.251 560.327 M 598.971 561.713 L 628.938 552.389 M 610.86 512.004 L 583.944 528.143 M 579.394 523.188 L 604.162 503.915 M 573.028 472.475 L 553.514 497.054 M 469.035 496.168 L 474.948 465.346 M 430.811 462.238 L 432.346 493.584 M 429.954 493.791 L 426.084 462.647 M 383.136 473.289 L 394.254 502.637 M 392.042 503.571 L 378.764 475.134 M 341.184 498.49 L 360.803 522.985 M 358.987 524.555 L 337.594 501.592 M 309.037 535.39 L 335.249 552.649 M 334.004 554.703 L 306.578 539.447 M 289.823 580.399 L 320.077 588.743 M 248.805 1052.88 L 293.051 1052.84 M 252.506 1021.72 L 248.805 1052.88 M 289.286 1021.68 L 252.506 1021.72 M 293.051 1052.84 L 336.035 1042.34 M 325.016 1012.96 L 289.286 1021.68 M 375.322 1021.99 L 325.016 1012.96 M 342.028 914.886 L 305.498 919.171 M 305.498 919.171 L 349.366 945.4 M 390.849 930.01 L 342.028 914.886 M 336.724 843.741 L 378.578 873.077 M 421.067 860.731 L 373.468 842.112 M 374.159 792.146 L 415.404 822.331 M 458.137 810.856 L 410.928 791.268 M 414.122 778.424 L 458.68 803.464 M 499.735 786.964 L 450.524 773.158 M 449.632 744.113 L 495.063 767.53 M 535.496 749.561 L 519.43 722.601 M 521.445 719.211 L 535.451 747.296 M 572.417 722.98 L 552.173 698.998 M 553.023 698.306 L 572.417 722.98 M 603.704 691.693 L 626.715 653.901 M 626.715 653.901 L 579.03 672.299 M 579.03 672.299 L 626.159 652.522 M 638.36 609.991 L 597.236 640.341 M 597.236 640.341 L 637.46 608.807 M 637.46 608.807 L 606.345 604.707 M 604.673 602.701 L 636.006 604.487 M 633.251 560.327 L 602.383 565.993 M 568.873 570.601 L 598.971 561.713 M 583.944 528.143 L 557.266 544.672 M 554.348 542.1 L 579.394 523.188 M 553.514 497.054 L 534.359 521.914 M 462.675 526.9 L 469.035 496.168 M 432.346 493.584 L 434.337 524.905 M 433.372 524.988 L 429.954 493.791 M 394.254 502.637 L 405.797 531.821 M 404.904 532.198 L 392.042 503.571 M 360.803 522.985 L 380.776 547.193 M 380.043 547.827 L 358.987 524.555 M 335.249 552.649 L 361.709 569.526 M 361.206 570.355 L 334.004 554.703 M 320.077 588.743 L 350.449 596.647 M 241.719 792.966 L 268.419 818.261 M 266.149 773.266 L 241.719 792.966 M 286.772 792.803 L 266.149 773.266 M 268.419 818.261 L 300.857 835.598 M 311.826 806.193 L 286.772 792.803 M 300.857 835.598 L 336.724 843.741 M 339.529 812.483 L 311.826 806.193 M 373.468 842.112 L 339.529 812.483 M 350.033 754.097 L 374.159 792.146 M 410.928 791.268 L 377.601 760.952 M 385.622 743.532 L 414.122 778.424 M 450.524 773.158 L 413.812 747.042 M 419.892 710.27 L 449.632 744.113 M 485.819 737.538 L 476.141 707.684 M 477.013 707.416 L 485.819 737.538 M 519.43 722.601 L 502.973 695.879 M 507.849 690.926 L 521.445 719.211 M 552.173 698.998 L 531.582 675.314 M 533.989 673.353 L 553.023 698.306 M 568.139 628.582 L 554.077 653.265 M 606.345 604.707 L 568.139 628.582 M 567.579 628.272 L 604.673 602.701 M 602.383 565.993 L 573.37 600.46 M 599.708 563.286 L 569.295 571.028 M 572.568 599.247 L 599.708 563.286 M 557.266 544.672 L 538.676 579.149 M 538.019 578.421 L 555.263 543.252 M 555.263 543.252 L 529.442 561.091 M 529.091 560.728 L 554.348 542.1 M 534.359 521.914 L 515.485 546.988 M 455.969 557.559 L 462.675 526.9 M 434.337 524.905 L 436.681 556.201 M 436.438 556.222 L 433.372 524.988 M 405.797 531.821 L 417.669 560.873 M 417.444 560.967 L 404.904 532.198 M 380.776 547.193 L 401.021 571.174 M 400.836 571.334 L 380.043 547.827 M 361.709 569.526 L 388.357 586.104 M 388.23 586.312 L 361.206 570.355 M 350.449 596.647 L 380.908 604.208 M 293.743 693.306 L 306.276 718.8 M 323.613 683.676 L 293.743 693.306 M 332.143 701.029 L 323.613 683.676 M 306.276 718.8 L 325.577 739.644 M 345.281 715.217 L 332.143 701.029 M 325.577 739.644 L 350.033 754.097 M 361.928 725.055 L 345.281 715.217 M 377.601 760.952 L 361.928 725.055 M 393.961 713.276 L 376.257 705.498 M 376.257 705.498 L 385.622 743.532 M 413.812 747.042 L 393.961 713.276 M 409.162 672.599 L 419.892 710.27 M 448.19 712.763 L 446.396 681.43 M 447.102 681.398 L 448.19 712.763 M 476.141 707.684 L 466.127 677.941 M 468.546 677.195 L 477.013 707.416 M 502.973 695.879 L 486.216 669.343 M 494.572 662.489 L 507.849 690.926 M 531.582 675.314 L 510.726 651.862 M 515.238 648.187 L 533.989 673.353 M 554.077 653.265 L 567.579 628.272 M 538.102 617.502 L 528.911 634.514 M 573.37 600.46 L 538.102 617.502 M 537.84 617.363 L 572.568 599.247 M 569.295 571.028 L 541.198 598.32 M 541.198 598.32 L 568.873 570.601 M 529.442 561.091 L 508.101 587.901 M 508.101 587.901 L 529.233 560.926 M 529.233 560.926 L 503.692 579.162 M 503.692 579.162 L 529.091 560.728 M 515.485 546.988 L 496.804 572.206 M 449.028 588.166 L 455.969 557.559 M 436.681 556.201 L 439.264 587.478 M 439.264 587.478 L 436.438 556.222 M 417.669 560.873 L 429.762 589.832 M 429.762 589.832 L 417.444 560.967 M 401.021 571.174 L 421.449 594.999 M 421.449 594.999 L 400.836 571.334 M 388.357 586.104 L 415.131 602.476 M 415.131 602.476 L 388.23 586.312 M 380.908 604.208 L 411.424 611.536 M 378.811 606.309 L 378.255 625.638 M 409.68 611.973 L 378.811 606.309 M 409.398 621.758 L 409.68 611.973 M 378.255 625.638 L 383.537 644.239 M 412.072 631.174 L 409.398 621.758 M 383.537 644.239 L 394.167 660.391 M 417.453 639.351 L 412.072 631.174 M 394.167 660.391 L 409.162 672.599 M 425.044 645.531 L 417.453 639.351 M 427.134 679.734 L 425.044 645.531 M 425.569 645.503 L 427.134 679.734 M 446.396 681.43 L 444.362 650.113 M 446.254 650.026 L 447.102 681.398 M 466.127 677.941 L 455.885 648.276 M 460.312 646.911 L 468.546 677.195 M 486.216 669.343 L 469.257 642.936 M 481.513 633.951 L 494.572 662.489 M 510.726 651.862 L 489.691 628.572 M 496.68 622.878 L 515.238 648.187 M 528.911 634.514 L 537.84 617.363 M 508.122 607.274 L 503.602 615.956 M 509.822 597.634 L 508.122 607.274 M 538.676 579.149 L 509.822 597.634 M 509.604 597.573 L 538.019 578.421 M 1047.49 340.783 L 1017.2 348.982 M 1021.19 357.917 L 1047.49 340.783 M 902.89 183.842 L 921.473 158.552 M 891.592 168.148 L 896.002 176.887 M 890.089 158.475 L 891.592 168.148 M 891.64 148.81 L 890.089 158.475 M 896.092 140.092 L 891.64 148.81 M 903.014 133.171 L 896.092 140.092 M 921.473 158.552 L 939.808 133.081 M 1003.59 961.843 L 1007.25 930.674 M 986.011 953.779 L 994.163 959.199 M 979.926 946.112 L 986.011 953.779 M 976.499 936.943 L 979.926 946.112 M 976.063 927.164 L 976.499 936.943 M 978.662 917.726 L 976.063 927.164 M 1007.25 930.674 L 984.041 909.548 M 1082.58 760.436 L 1054.13 747.184 M 1051.43 756.593 L 1082.58 760.436 M 1071.56 560.055 L 1102.2 553.24 M 1102.2 553.24 L 1070.95 550.285 M 496.804 572.206 L 478.221 597.497 M 441.969 618.745 L 449.028 588.166 M 411.424 611.536 L 410.689 621.297 M 410.689 621.297 L 412.997 630.81 M 412.997 630.81 L 418.123 639.149 M 418.123 639.149 L 425.569 645.503 M 434.611 649.254 L 441.969 618.745 M 444.362 650.113 L 442.206 618.803 M 442.206 618.803 L 434.611 649.254 M 455.885 648.276 L 445.528 618.65 M 445.528 618.65 L 446.254 650.026 M 469.257 642.936 L 452.195 616.596 M 452.195 616.596 L 460.312 646.911 M 489.691 628.572 L 468.565 605.363 M 468.565 605.363 L 481.513 633.951 M 478.221 597.497 L 496.68 622.878 M 503.602 615.956 L 508.054 607.239 M 508.054 607.239 L 509.604 597.573" />
<path fill="none" class="c" d=" M 628.035 711.515 L 603.704 691.693 M 628.035 711.515 L 655.856 669.222 M 603.704 691.693 L 572.417 722.98 M 603.704 691.693 L 579.03 672.299 M 579.03 672.299 L 553.023 698.306 M 579.03 672.299 L 554.077 653.265 M 579.03 672.299 L 597.236 640.341 M 597.236 640.341 L 568.139 628.582 M 597.236 640.341 L 606.345 604.707 M 554.077 653.265 L 533.989 673.353 M 554.077 653.265 L 528.911 634.514 M 567.579 628.272 L 538.102 617.502 M 567.579 628.272 L 573.37 600.46 M 528.911 634.514 L 515.238 648.187 M 503.602 615.956 L 496.68 622.878 M 528.911 634.514 L 503.602 615.956 M 537.84 617.363 L 508.122 607.274 M 541.198 598.32 L 509.822 597.634 M 503.602 615.956 L 478.221 597.497 M 508.054 607.239 L 478.221 597.497 M 509.604 597.573 L 478.221 597.497 M 509.604 597.573 L 508.101 587.901 M 508.101 587.901 L 478.221 597.497 M 592.239 747.311 L 628.035 711.515 M 572.417 722.98 L 592.239 747.311 M 626.159 652.522 L 597.236 640.341 M 626.159 652.522 L 638.36 609.991 M 604.673 602.701 L 573.37 600.46 M 604.673 602.701 L 602.383 565.993 M 541.198 598.32 L 538.676 579.149 M 537.84 617.363 L 541.198 598.32 M 538.019 578.421 L 508.101 587.901 M 508.101 587.901 L 503.692 579.162 M 503.692 579.162 L 478.221 597.497 M 503.692 579.162 L 496.804 572.206 M 652.757 730.848 L 683.398 684.269 M 572.417 722.98 L 535.451 747.296 M 552.173 698.998 L 521.445 719.211 M 531.582 675.314 L 507.849 690.926 M 568.873 570.601 L 538.676 579.149 M 510.726 651.862 L 494.572 662.489 M 572.568 599.247 L 541.198 598.32 M 572.568 599.247 L 569.295 571.028 M 538.019 578.421 L 529.442 561.091 M 489.691 628.572 L 481.513 633.951 M 592.239 747.311 L 612.542 771.242 M 655.291 664.196 L 669.25 615.535 M 636.006 604.487 L 633.251 560.327 M 568.873 570.601 L 557.266 544.672 M 529.091 560.728 L 515.485 546.988 M 677.897 749.634 L 710.602 699.916 M 652.757 730.848 L 677.897 749.634 M 592.239 747.311 L 551.089 776.797 M 535.496 749.561 L 551.089 776.797 M 684.65 675.286 L 700.023 621.694 M 535.496 749.561 L 495.063 767.53 M 667.365 605.726 L 664.213 555.201 M 598.971 561.713 L 583.944 528.143 M 485.819 737.538 L 495.063 767.53 M 519.43 722.601 L 485.819 737.538 M 502.973 695.879 L 477.013 707.416 M 554.348 542.1 L 534.359 521.914 M 486.216 669.343 L 468.546 677.195 M 469.257 642.936 L 460.312 646.911 M 703.469 767.828 L 737.434 716.195 M 677.897 749.634 L 703.469 767.828 M 616.769 773.431 L 639.483 795.087 M 485.819 737.538 L 449.632 744.113 M 448.19 712.763 L 449.632 744.113 M 476.141 707.684 L 448.19 712.763 M 466.127 677.941 L 447.102 681.398 M 455.885 648.276 L 446.254 650.026 M 616.769 773.431 L 575.949 811.408 M 714.244 685.731 L 730.654 628.526 M 556.522 786.761 L 575.949 811.408 M 698.743 606.338 L 695.271 550.693 M 628.938 552.389 L 610.86 512.004 M 579.394 523.188 L 553.514 497.054 M 448.19 712.763 L 419.892 710.27 M 427.134 679.734 L 419.892 710.27 M 446.396 681.43 L 427.134 679.734 M 434.611 649.254 L 427.134 679.734 M 444.362 650.113 L 434.611 649.254 M 729.474 785.396 L 763.863 733.119 M 703.469 767.828 L 729.474 785.396 M 641.649 796.833 L 665.825 816.844 M 575.949 811.408 L 595.913 835.624 M 556.522 786.761 L 514.336 814.744 M 499.735 786.964 L 514.336 814.744 M 427.134 679.734 L 409.162 672.599 M 425.044 645.531 L 409.162 672.599 M 434.611 649.254 L 425.569 645.503 M 441.969 618.745 L 425.569 645.503 M 755.903 802.321 L 789.869 750.687 M 729.474 785.396 L 755.903 802.321 M 744.075 695.48 L 761.117 636.073 M 575.949 811.408 L 530.884 844.235 M 730.126 606.263 L 726.421 546.867 M 658.737 542.542 L 638.053 496.337 M 514.541 817.442 L 530.884 844.235 M 499.735 786.964 L 458.68 803.464 M 604.162 503.915 L 573.028 472.475 M 450.524 773.158 L 458.68 803.464 M 441.969 618.745 L 418.123 639.149 M 782.735 818.599 L 815.441 768.881 M 755.903 802.321 L 782.735 818.599 M 696.379 838.501 L 723.215 854.772 M 668.246 818.612 L 693.812 836.813 M 602.053 841.26 L 624.704 862.983 M 514.541 817.442 L 469.313 840.182 M 458.137 810.856 L 469.313 840.182 M 450.524 773.158 L 414.122 778.424 M 413.812 747.042 L 414.122 778.424 M 417.453 639.351 L 394.167 660.391 M 441.969 618.745 L 412.997 630.81 M 809.94 834.246 L 840.58 787.667 M 782.735 818.599 L 809.94 834.246 M 725.797 856.295 L 753.745 870.572 M 664.597 892.403 L 691.824 908.01 M 774.134 704.504 L 791.388 644.356 M 602.053 841.26 L 559.32 882.678 M 761.5 605.454 L 757.652 543.771 M 688.334 532.104 L 665.554 481.216 M 538.866 858.875 L 559.32 882.678 M 628.59 484.212 L 592.969 448.241 M 458.137 810.856 L 415.404 822.331 M 410.928 791.268 L 415.404 822.331 M 413.812 747.042 L 385.622 743.532 M 393.961 713.276 L 385.622 743.532 M 441.969 618.745 L 410.689 621.297 M 837.481 849.293 L 865.302 807 M 809.94 834.246 L 837.481 849.293 M 756.205 871.87 L 785.085 884.154 M 699.71 912.324 L 728.626 924.522 M 664.597 892.403 L 634.147 947.068 M 804.404 712.786 L 821.446 653.379 M 606.919 931.461 L 634.147 947.068 M 631.787 868.516 L 656.899 887.34 M 538.866 858.875 L 494.481 892.616 M 477.594 866.163 L 494.481 892.616 M 410.928 791.268 L 374.159 792.146 M 377.601 760.952 L 374.159 792.146 M 412.072 631.174 L 383.537 644.239 M 441.969 618.745 L 411.424 611.536 M 865.317 863.788 L 889.634 826.822 M 837.481 849.293 L 865.317 863.788 M 787.297 885.195 L 816.922 895.554 M 736.233 927.93 L 766.374 936.674 M 699.71 912.324 L 677.783 970.106 M 834.867 720.333 L 851.277 663.129 M 648.307 959.333 L 677.783 970.106 M 606.919 931.461 L 575.529 984.699 M 631.787 868.516 L 594.115 917.511 M 792.844 603.885 L 788.948 541.433 M 717.695 521.018 L 693.379 466.701 M 549.095 967.782 L 575.529 984.699 M 569.951 897.485 L 594.115 917.511 M 652.62 464.025 L 613.389 424.409 M 477.594 866.163 L 432.84 889.823 M 421.067 860.731 L 432.84 889.823 M 377.601 760.952 L 350.033 754.097 M 361.928 725.055 L 350.033 754.097 M 415.131 602.476 L 411.424 611.536 M 441.969 618.745 L 415.131 602.476 M 893.402 877.794 L 913.615 847.067 M 865.317 863.788 L 893.402 877.794 M 818.783 896.337 L 848.975 904.905 M 773.259 939.153 L 804.175 944.546 M 736.233 927.93 L 723.103 985.974 M 723.103 985.974 L 754.073 991.054 M 865.498 727.165 L 880.872 673.573 M 692.26 980.173 L 723.103 985.974 M 648.307 959.333 L 627.549 1018.36 M 824.14 601.547 L 820.292 539.863 M 598.072 1007.59 L 627.549 1018.36 M 549.095 967.782 L 515.207 1016.7 M 569.951 897.485 L 530.329 941.889 M 490.524 997.319 L 515.207 1016.7 M 508.205 919.63 L 530.329 941.889 M 421.067 860.731 L 378.578 873.077 M 373.468 842.112 L 378.578 873.077 M 409.398 621.758 L 378.255 625.638 M 421.449 594.999 L 415.131 602.476 M 441.969 618.745 L 421.449 594.999 M 921.687 891.391 L 937.299 867.657 M 893.402 877.794 L 921.687 891.391 M 850.42 905.451 L 881.019 912.427 M 809.981 946.189 L 841.281 948.478 M 768.198 994.676 L 799.581 994.96 M 896.272 733.324 L 910.231 684.664 M 723.103 985.974 L 717.005 1045.17 M 692.26 980.173 L 683.061 1041.29 M 685.69 1043.1 L 717.005 1045.17 M 855.371 598.45 L 851.666 539.054 M 651.972 1037 L 683.061 1041.29 M 746.788 509.25 L 721.536 452.841 M 598.072 1007.59 L 576.145 1065.37 M 547.229 1053.17 L 576.145 1065.37 M 676.202 443.317 L 634.327 401.031 M 490.524 997.319 L 453.526 1039.03 M 508.205 919.63 L 466.379 956.495 M 431.829 1016.35 L 453.526 1039.03 M 447.622 931.334 L 466.379 956.495 M 373.468 842.112 L 336.724 843.741 M 339.529 812.483 L 336.724 843.741 M 345.281 715.217 L 325.577 739.644 M 388.23 586.312 L 380.908 604.208 M 429.762 589.832 L 421.449 594.999 M 441.969 618.745 L 429.762 589.832 M 950.124 904.668 L 960.751 888.513 M 921.687 891.391 L 950.124 904.668 M 882.031 912.772 L 912.905 918.407 M 845.787 949.454 L 877.167 949.005 M 811.437 996.791 L 842.554 992.706 M 927.162 738.869 L 939.362 696.338 M 768.198 994.676 L 772.252 1050.28 M 741.144 1054.43 L 772.252 1050.28 M 886.52 594.625 L 883.049 538.979 M 685.69 1043.1 L 683.861 1104.88 M 651.972 1037 L 644.18 1099.08 M 652.482 1104.33 L 683.861 1104.88 M 613.091 1094.79 L 644.18 1099.08 M 547.229 1053.17 L 522.11 1107.12 M 494.503 1092.2 L 522.11 1107.12 M 431.829 1016.35 L 392.515 1048.24 M 447.622 931.334 L 404.698 958.173 M 375.322 1021.99 L 392.515 1048.24 M 390.849 930.01 L 404.698 958.173 M 400.836 571.334 L 388.357 586.104 M 439.264 587.478 L 429.762 589.832 M 441.969 618.745 L 439.264 587.478 M 950.124 904.668 L 978.662 917.726 M 978.662 917.726 L 984.041 909.548 M 913.515 918.598 L 944.562 923.187 M 880.313 949.512 L 911.578 946.784 M 851.679 993.307 L 882.065 985.457 M 958.144 743.873 L 968.286 708.519 M 811.437 996.791 L 823.092 1046.05 M 793.245 1055.75 L 823.092 1046.05 M 917.579 590.117 L 914.427 539.592 M 741.144 1054.43 L 752.534 1112.85 M 721.971 1119.97 L 752.534 1112.85 M 775.588 496.78 L 750.021 439.667 M 652.482 1104.33 L 652.166 1166.9 M 620.787 1166.36 L 652.166 1166.9 M 613.091 1094.79 L 603.892 1155.91 M 699.293 422.063 L 655.805 378.148 M 573.049 1150.11 L 603.892 1155.91 M 494.503 1092.2 L 465.098 1139.57 M 439.877 1120.89 L 465.098 1139.57 M 375.322 1021.99 L 336.035 1042.34 M 390.849 930.01 L 349.366 945.4 M 325.016 1012.96 L 336.035 1042.34 M 342.028 914.886 L 349.366 945.4 M 311.826 806.193 L 300.857 835.598 M 361.206 570.355 L 350.449 596.647 M 332.143 701.029 L 306.276 718.8 M 417.444 560.967 L 401.021 571.174 M 978.662 917.726 L 1007.25 930.674 M 449.028 588.166 L 439.264 587.478 M 944.846 923.27 L 975.99 927.143 M 913.466 947.006 L 944.528 942.523 M 888.369 985.399 L 917.8 974.502 M 989.195 748.425 L 997.029 721.119 M 851.679 993.307 L 867.763 1034.53 M 839.836 1048.85 L 867.763 1034.53 M 948.541 584.991 L 945.786 540.831 M 793.245 1055.75 L 814.749 1107.19 M 786.571 1121.01 L 814.749 1107.19 M 804.073 483.607 L 778.821 427.197 M 721.971 1119.97 L 738.195 1179.61 M 708.016 1188.22 L 738.195 1179.61 M 620.787 1166.36 L 618.958 1228.14 M 587.643 1226.06 L 618.958 1228.14 M 573.049 1150.11 L 559.919 1208.15 M 529.778 1199.41 L 559.919 1208.15 M 439.877 1120.89 L 406.527 1158.98 M 385.139 1136.01 L 406.527 1158.98 M 380.043 547.827 L 361.709 569.526 M 436.438 556.222 L 417.669 560.873 M 976.063 927.164 L 1007.25 930.674 M 945.406 942.598 L 976.274 936.928 M 921.545 974.241 L 950.027 961.061 M 1020.3 752.628 L 1025.63 734.042 M 888.369 985.399 L 905.627 1017.88 M 905.627 1017.88 L 931.13 999.589 M 879.861 1035.8 L 905.627 1017.88 M 979.409 579.325 L 977.119 542.616 M 839.836 1048.85 L 867.392 1091.31 M 842.549 1110.49 L 867.392 1091.31 M 832.23 469.746 L 807.915 415.429 M 786.571 1121.01 L 815.922 1172.78 M 789.204 1189.24 L 815.922 1172.78 M 708.016 1188.22 L 725.919 1248.18 M 721.862 400.255 L 677.832 355.793 M 695.74 1256.79 L 725.919 1248.18 M 587.643 1226.06 L 581.544 1285.26 M 550.574 1280.18 L 581.544 1285.26 M 529.778 1199.41 L 511.066 1251.93 M 482.463 1239.01 L 511.066 1251.93 M 289.286 1021.68 L 293.051 1052.84 M 334.004 554.703 L 320.077 588.743 M 286.772 792.803 L 268.419 818.261 M 404.904 532.198 L 380.776 547.193 M 455.969 557.559 L 436.681 556.201 M 976.499 936.943 L 1007.25 930.674 M 951.752 960.864 L 979.486 946.175 M 1051.43 756.593 L 1054.13 747.184 M 937.076 998.027 L 960.598 977.252 M 905.627 1017.88 L 930.857 1044.64 M 1010.19 573.211 L 1008.42 544.858 M 879.861 1035.8 L 909.264 1068.86 M 910.745 1068.73 L 930.857 1044.64 M 888.052 1091.99 L 909.264 1068.86 M 860.056 455.232 L 837.276 404.344 M 842.549 1110.49 L 880.112 1151.69 M 858.227 1174.19 L 880.112 1151.69 M 789.204 1189.24 L 823.529 1240.64 M 743.889 377.9 L 700.401 333.986 M 797.647 1258.39 L 823.529 1240.64 M 695.74 1256.79 L 711.964 1316.42 M 681.401 1323.55 L 711.964 1316.42 M 349.863 1162.72 L 366.167 1189.53 M 358.987 524.555 L 335.249 552.649 M 433.372 524.988 L 405.797 531.821 M 979.926 946.112 L 1007.25 930.674 M 963.296 976.376 L 985.33 954.027 M 937.076 998.027 L 958.761 1016.38 M 1040.9 566.75 L 1039.7 547.451 M 941.864 1042.83 L 958.761 1016.38 M 910.745 1068.73 L 947.843 1092.85 M 887.556 440.11 L 866.872 393.905 M 888.052 1091.99 L 928.645 1122.24 M 933.501 1120.76 L 947.843 1092.85 M 912.013 1148.85 L 928.645 1122.24 M 858.227 1174.19 L 903.289 1213.06 M 765.367 355.018 L 723.492 312.732 M 883.672 1237.55 L 903.289 1213.06 M 797.647 1258.39 L 833.666 1309.55 M 807.784 1327.3 L 833.666 1309.55 M 538.274 1334.56 L 568.415 1343.31 M 457.931 1283.3 L 484.048 1300.7 M 306.578 539.447 L 289.823 580.399 M 392.042 503.571 L 360.803 522.985 M 462.675 526.9 L 434.337 524.905 M 986.011 953.779 L 1007.25 930.674 M 963.296 976.376 L 978.971 987.699 M 978.971 987.699 L 993.265 959.759 M 1071.56 560.055 L 1070.95 550.285 M 964.463 1015.53 L 978.971 987.699 M 941.864 1042.83 L 975.223 1058.32 M 914.75 424.444 L 896.671 384.059 M 965.485 1088.15 L 975.223 1058.32 M 933.501 1120.76 L 980.647 1139.2 M 912.013 1148.85 L 961.55 1174.44 M 971.642 1169.27 L 980.647 1139.2 M 786.305 331.639 L 747.074 292.023 M 948.844 1203.13 L 961.55 1174.44 M 883.672 1237.55 L 933.292 1274.4 M 914.893 1299.82 L 933.292 1274.4 M 807.784 1327.3 L 842.109 1378.7 M 815.391 1395.16 L 842.109 1378.7 M 337.594 501.592 L 309.037 535.39 M 429.954 493.791 L 394.254 502.637 M 994.163 959.199 L 1007.25 930.674 M 978.971 987.699 L 997.324 993.785 M 964.463 1015.53 L 991.286 1024.88 M 991.855 1024.69 L 997.324 993.785 M 941.665 408.304 L 926.638 374.734 M 984.998 1055.63 L 991.286 1024.88 M 965.485 1088.15 L 1008.88 1096.78 M 1005.92 1128.02 L 1008.88 1096.78 M 806.725 307.808 L 771.104 271.837 M 971.642 1169.27 L 1026.18 1180.84 M 948.844 1203.13 L 1004.6 1223.93 M 1021.51 1211.88 L 1026.18 1180.84 M 994.72 1253.71 L 1004.6 1223.93 M 914.893 1299.82 L 966.032 1335.88 M 947.633 1361.31 L 966.032 1335.88 M 278.889 524.674 L 259.719 571.527 M 378.764 475.134 L 341.184 498.49 M 469.035 496.168 L 432.346 493.584 M 994.163 959.199 L 1003.59 961.843 M 999.804 992.998 L 1003.59 961.843 M 968.344 391.775 L 956.737 365.847 M 991.855 1024.69 L 1020.25 1025.54 M 984.998 1055.63 L 1021.69 1058.13 M 1023.5 1056.76 L 1020.25 1025.54 M 1023.3 1089.47 L 1021.69 1058.13 M 826.666 283.573 L 795.532 252.134 M 1005.92 1128.02 L 1056.54 1127.65 M 1059.33 1158.91 L 1056.54 1127.65 M 1021.51 1211.88 L 1080.79 1217.19 M 994.72 1253.71 L 1054.05 1271.02 M 1079.13 1248.53 L 1080.79 1217.19 M 1045.63 1301.26 L 1054.05 1271.02 M 315.804 479.007 L 283.131 517.675 M 426.084 462.647 L 383.136 473.289 M 994.834 374.947 L 986.934 357.299 M 999.804 992.998 L 1019.13 992.382 M 1023.5 1056.76 L 1059.25 1048.11 M 846.18 258.994 L 820.3 232.86 M 1023.3 1089.47 L 1066.91 1081.96 M 1070.2 1077.52 L 1059.25 1048.11 M 1075.35 1112.19 L 1066.91 1081.96 M 1059.33 1158.91 L 1114.28 1149.43 M 1121.46 1179.98 L 1114.28 1149.43 M 250.911 510.455 L 229.799 562.057 M 364.992 446.934 L 321.996 473.655 M 474.948 465.346 L 430.811 462.238 M 1021.19 357.917 L 1017.2 348.982 M 865.335 234.134 L 845.346 213.949 M 1070.2 1077.52 L 1109.53 1057.24 M 1075.35 1112.19 L 1122.47 1093.69 M 1126.67 1083.54 L 1109.53 1057.24 M 1136.28 1121.87 L 1122.47 1093.69 M 293.567 456.86 L 257.584 499.447 M 421.67 431.576 L 372.532 443.751 M 884.209 209.06 L 870.603 195.321 M 1126.67 1083.54 L 1166.05 1051.73 M 1136.28 1121.87 L 1184.17 1093.32 M 222.628 496.853 L 200.093 551.933 M 350.661 419.014 L 303.307 448.443 M 480.322 434.426 L 429.823 430.87 M 902.89 183.842 L 896.002 176.887 M 270.85 435.206 L 232.442 480.664 M 416.637 400.598 L 362.52 414.007 M 921.473 158.552 L 896.002 176.887 M 921.473 158.552 L 891.592 168.148 M 921.473 158.552 L 890.089 158.475 M 921.473 158.552 L 891.64 148.81 M 921.473 158.552 L 896.092 140.092 M 921.473 158.552 L 903.014 133.171 M 911.731 128.718 L 903.014 133.171 M 921.473 158.552 L 911.731 128.718 M 921.396 127.168 L 911.731 128.718 M 921.473 158.552 L 921.396 127.168 M 931.069 128.671 L 921.396 127.168 M 921.473 158.552 L 931.069 128.671 M 939.808 133.081 L 931.069 128.671 M 194.035 483.916 L 170.631 541.117 M 335.72 391.415 L 285.175 422.828 M 485.078 403.405 L 429.462 399.489 M 901.873 98.923 L 884.653 107.718 M 921.198 95.7852 L 902.105 98.8473 M 940.549 98.7534 L 921.442 95.7846 M 247.634 414.089 L 207.746 461.298 M 410.926 369.738 L 353.162 384.051 M 891.787 69.2042 L 866.488 82.126 M 920.758 64.4045 L 892.709 68.9034 M 949.799 68.7639 L 921.728 64.4022 M 165.136 471.677 L 141.441 529.591 M 320.139 364.172 L 267.647 396.795 M 489.152 372.287 L 429.788 368.107 M 881.368 39.6009 L 848.613 56.3307 M 919.966 33.031 L 883.65 38.8556 M 135.946 460.15 L 112.543 517.351 M 223.912 393.542 L 183.527 441.338 M 404.496 339.021 L 344.506 353.885 M 870.519 10.1521 L 831.114 30.278 M 106.485 449.334 L 83.9498 504.414 M 199.693 373.583 L 159.805 420.791 M 303.901 337.315 L 250.755 370.345 M 492.498 341.082 L 430.848 336.741 M 76.7792 439.21 L 55.6668 490.812 M 174.997 354.217 L 136.589 399.674 M 287.01 310.866 L 234.518 343.489 M 397.322 308.468 L 336.585 323.517 M 46.8586 429.74 L 27.6888 476.594 M 149.855 335.433 L 113.872 378.02 M 269.481 284.833 L 218.936 316.246 M 389.401 278.1 L 329.412 292.964 M 495.087 309.805 L 432.668 305.41 M 124.308 317.205 L 91.6354 355.874 M 251.349 259.217 L 203.996 288.647 M 380.746 247.934 L 322.981 262.247 M 496.907 278.475 L 435.256 274.134 M 98.4015 299.491 L 69.845 333.288 M 232.66 234.005 L 189.664 260.727 M 371.388 217.978 L 317.271 231.387 M 497.966 247.109 L 438.602 242.929 M 48.4522 310.325 L 69.845 333.288 M 213.472 209.171 L 175.892 232.526 M 361.375 188.234 L 312.238 200.409 M 498.293 215.727 L 442.677 211.811 M 162.614 204.089 L 175.892 232.526 M 193.853 184.675 L 162.614 204.089 M 350.771 158.696 L 307.824 169.338 M 497.931 184.345 L 447.433 180.79 M 149.752 175.463 L 162.614 204.089 M 339.654 129.348 L 303.953 138.194 M 496.943 152.977 L 452.806 149.869 M 300.536 106.997 L 303.953 138.194 M 328.11 100.164 L 300.536 106.997 M 300.536 106.997 L 272.137 106.296 M 122.518 183.545 L 127.355 214.554 M 495.408 121.631 L 458.719 119.048 M 297.47 75.763 L 300.536 106.997 M 277.437 75.3629 L 272.137 106.296 M 493.417 90.3107 L 465.08 88.3154 M 471.785 57.6565 L 465.08 88.3154 M 491.074 59.0147 L 471.785 57.6565 M 471.785 57.6565 L 453.691 50.8381 M 259.051 69.3768 L 245.124 97.5013 M 478.726 27.05 L 471.785 57.6565 M 469.096 23.4955 L 453.691 50.8381 M 461.398 17.4492 L 438.484 38.8946 M 455.874 9.36805 L 427.572 22.9312" />
</svg>
