<?xml version="1.0"?>
<svg width="1141" height="1185" version="1.1" xmlns="http://www.w3.org/2000/svg" >
<defs>
<style type="text/css"><![CDATA[
.m {stroke:rgb(255,0,0);stroke-width:1.481250;}
.v {stroke:rgb(0,0,255);stroke-width:1.481250;}
.b {stroke:rgb(0,0,0);stroke-width:2.962500;fill:white}
.n {stroke:rgb(128,128,128);stroke-width:1.481250}
.t {stroke:rgb(0,128,0);stroke-width:1.481250;}
.c {stroke:rgb(128,128,128);stroke-width:1.481250;stroke-dasharray:11.410000, 11.410000;}
]]></style>
</defs>
<path fill="none" style="stroke:black;stroke-width:2.962500;" d=" M 543.87 1130.05 L 547.233 1111.01 M 515.857 1110.31 L 514.154 1119.95 M 534.937 1147.2 L 543.87 1130.05 M 509.632 1128.64 L 534.937 1147.2 M 514.154 1119.95 L 509.632 1128.64 M 457.402 1151.24 L 475.004 1143.23 M 448.909 1121.02 L 457.402 1151.24 M 475.004 1143.23 L 457.82 1116.97 M 439.183 1122.13 L 437.955 1153.49 M 457.167 1151.3 L 448.909 1121.02 M 250.16 1095.56 L 271.55 1068.79 M 271.55 1068.79 L 250.369 1095.73 M 250.369 1095.73 L 275.944 1077.54 M 241.467 1077.99 L 270.064 1059.11 M 270.064 1059.11 L 241.615 1078.22 M 238.609 1058.6 L 271.632 1049.45 M 271.632 1049.45 L 238.682 1058.86 M 241.865 1039.27 L 276.1 1040.74 M 276.1 1040.74 L 241.854 1039.54 M 264.884 1008.14 L 250.976 1021.57 M 250.976 1021.57 L 283 1033.77 M 283.034 1033.83 L 250.825 1022.14 M 282.188 999.508 L 264.884 1008.14 M 283 1033.77 L 291.76 1029.4 M 301.428 1027.86 L 301.286 996.481 M 313.05 1028.9 L 321.211 998.593 M 301.992 996.464 L 303.321 1027.82 M 345.754 1035.11 L 357.477 1006 M 338.651 1001.59 L 336.223 1032.88 M 419.283 1018.12 L 419.146 1049.5 M 438.382 1021.14 L 438.1 1055.41 M 437.575 1055.4 L 438.382 1021.14 M 456.678 1029.31 L 447.347 1062.29 M 445.246 1062.1 L 455.817 1029.51 M 474.509 1041.55 L 457.654 1071.38 M 452.469 1070.63 L 471.282 1041.99 M 493.358 1056.74 L 470.82 1082.55 M 460.661 1080.7 L 485.707 1057.31 M 515.69 1073.88 L 489.248 1095.67 M 471.882 1092.28 L 501.138 1074.44 M 544.714 1091.84 L 515.857 1110.31 M 489.248 1095.67 L 488.71 1105.45 M 488.71 1105.45 L 520.482 1092.61 M 659.34 1089.71 L 637.471 1122.21 M 584.083 1108.91 L 585.195 1128.22 M 585.195 1128.22 L 614.824 1102.6 M 669.297 1145.04 L 668.359 1116.65 M 637.471 1122.21 L 638.11 1141.54 M 662.074 1172.52 L 669.297 1145.04 M 633.194 1160.24 L 662.074 1172.52 M 638.11 1141.54 L 633.194 1160.24 M 436.967 1184.86 L 465.192 1181.64 M 437.955 1153.49 L 436.967 1184.86 M 465.192 1181.64 L 457.167 1151.3 M 223.353 1112.72 L 241.467 1077.99 M 241.615 1078.22 L 224.308 1113.35 M 224.308 1113.35 L 250.16 1095.56 M 210.676 1086.06 L 238.609 1058.6 M 238.682 1058.86 L 211.391 1086.96 M 206.831 1056.79 L 241.865 1039.27 M 241.854 1039.54 L 207.235 1057.86 M 226.204 1000.93 L 211.516 1025.25 M 211.516 1025.25 L 250.44 1020.87 M 250.825 1022.14 L 212.244 1028.9 M 247.232 981.835 L 226.204 1000.93 M 250.44 1020.87 L 264.754 1007.87 M 272.845 969.547 L 247.232 981.835 M 264.754 1007.87 L 282.188 999.508 M 301.286 996.481 L 300.903 965.099 M 321.211 998.593 L 329.138 968.227 M 300.903 965.099 L 301.992 996.464 M 357.477 1006 L 368.977 976.801 M 341.318 970.321 L 338.651 1001.59 M 419.661 986.738 L 419.283 1018.12 M 447.72 991.182 L 456.678 1029.31 M 455.817 1029.51 L 447.72 991.182 M 474.812 1002.38 L 474.509 1041.55 M 471.282 1041.99 L 473.605 1002.89 M 501.572 1018.44 L 493.358 1056.74 M 485.707 1057.31 L 497.2 1019.86 M 530.034 1037.43 L 515.69 1073.88 M 501.138 1074.44 L 519.963 1040.09 M 563.312 1057.36 L 544.714 1091.84 M 520.482 1092.61 L 544.652 1061.79 M 605.147 1075.89 L 584.083 1108.91 M 547.233 1111.01 L 574.913 1083.29 M 735.566 1049.38 L 728.975 1093.95 M 668.359 1116.65 L 687.505 1075.87 M 769.322 1114 L 756.792 1079.42 M 728.975 1093.95 L 738.653 1120.66 M 772.263 1150.66 L 769.322 1114 M 738.653 1120.66 L 740.925 1148.97 M 765.408 1186.79 L 772.263 1150.66 M 735.63 1176.88 L 765.408 1186.79 M 740.925 1148.97 L 735.63 1176.88 M 180.31 1093.99 L 194.26 1128.02 M 194.26 1128.02 L 210.676 1086.06 M 211.391 1086.96 L 196.904 1129.62 M 196.904 1129.62 L 223.353 1112.72 M 175.5 1054.97 L 178.286 1091.65 M 178.286 1091.65 L 206.831 1056.79 M 207.235 1057.86 L 180.31 1093.99 M 180.922 1008.25 L 168.541 1042.88 M 168.541 1042.88 L 208.801 1022.66 M 212.244 1028.9 L 175.5 1054.97 M 202.018 978.12 L 180.922 1008.25 M 208.801 1022.66 L 225.095 999.389 M 230.33 954.641 L 202.018 978.12 M 225.095 999.389 L 246.962 981.255 M 263.841 939.483 L 230.33 954.641 M 246.962 981.255 L 272.845 969.547 M 300.167 933.724 L 263.841 939.483 M 329.138 968.227 L 336.723 937.774 M 368.977 976.801 L 380.148 947.473 M 344.338 939.083 L 341.318 970.321 M 420.392 955.363 L 419.661 986.738 M 456.72 961.117 L 474.812 1002.38 M 473.605 1002.89 L 456.72 961.117 M 492.194 974.376 L 501.572 1018.44 M 497.2 1019.86 L 490.66 975.289 M 527.961 992.425 L 530.034 1037.43 M 519.963 1040.09 L 522.568 995.116 M 566.632 1012.43 L 563.312 1057.36 M 544.652 1061.79 L 554.55 1017.84 M 611.737 1031.32 L 605.147 1075.89 M 574.913 1083.29 L 589.994 1040.84 M 667.022 1045.32 L 659.34 1089.71 M 614.824 1102.6 L 632.963 1061.36 M 804.94 987.566 L 818.626 1036.81 M 756.792 1079.42 L 758.859 1028.35 M 894.792 952.24 L 914.264 999.496 M 818.626 1036.81 L 841.987 1065.22 M 841.987 1065.22 L 840.322 1014.13 M 989.065 885.628 L 1015.98 929.079 M 914.264 999.496 L 940.854 1024.91 M 940.854 1024.91 L 933.095 974.39 M 1076.83 782.148 L 1111.97 819.263 M 1111.97 819.263 L 1120.53 789.07 M 1015.98 929.079 L 1046.35 949.819 M 1046.35 949.819 L 1030.47 901.24 M 117.157 1064.01 L 116.634 1108.25 M 147.837 1104.89 L 148.272 1068.11 M 116.634 1108.25 L 147.837 1104.89 M 128.117 1021.14 L 117.157 1064.01 M 148.272 1068.11 L 157.382 1032.48 M 148.892 982.078 L 128.117 1021.14 M 157.382 1032.48 L 174.651 1000 M 178.308 949.025 L 148.892 982.078 M 174.651 1000 L 199.103 972.53 M 214.698 923.856 L 178.308 949.025 M 199.103 972.53 L 229.353 951.608 M 256.004 907.996 L 214.698 923.856 M 229.353 951.608 L 263.689 938.424 M 299.888 902.342 L 256.004 907.996 M 263.689 938.424 L 300.167 933.724 M 336.723 937.774 L 343.865 907.214 M 380.148 947.473 L 390.891 917.985 M 347.811 907.892 L 344.338 939.083 M 421.58 924.002 L 420.392 955.363 M 465.281 930.924 L 492.194 974.376 M 490.66 975.289 L 465.281 930.924 M 508.488 945.169 L 527.961 992.425 M 522.568 995.116 L 506.682 946.536 M 552.946 963.188 L 566.632 1012.43 M 554.55 1017.84 L 546.791 967.319 M 601.682 981.21 L 611.737 1031.32 M 589.994 1040.84 L 588.328 989.756 M 658.201 994.976 L 667.022 1045.32 M 632.963 1061.36 L 635.03 1010.29 M 725.511 999.267 L 735.566 1049.38 M 687.505 1075.87 L 690.825 1024.87 M 859.619 907.657 L 894.792 952.24 M 840.322 1014.13 L 821.138 960.685 M 947.099 847.37 L 989.065 885.628 M 933.095 974.39 L 907.661 923.616 M 1027.99 753.164 L 1076.83 782.148 M 1030.47 901.24 L 997.099 855.29 M 1088.17 644.549 L 1141.86 663.064 M 1141.86 663.064 L 1137.22 632.025 M 1120.53 789.07 L 1078.56 750.813 M 399.762 9.11303 L 403.072 40.3216 M 443.06 0 L 399.762 9.11303 M 452.61 29.8952 L 443.06 0 M 87.1555 987.403 L 64.6871 1032.77 M 94.0798 1043.77 L 113.718 1004.12 M 64.6871 1032.77 L 94.0798 1043.77 M 118.33 947.518 L 87.1555 987.403 M 113.718 1004.12 L 140.966 969.256 M 156.923 914.757 L 118.33 947.518 M 140.966 969.256 L 174.697 940.622 M 201.342 890.474 L 156.923 914.757 M 174.697 940.622 L 213.521 919.398 M 249.753 875.671 L 201.342 890.474 M 213.521 919.398 L 255.834 906.46 M 300.157 870.959 L 249.753 875.671 M 255.834 906.46 L 299.888 902.342 M 343.865 907.214 L 350.472 876.534 M 390.891 917.985 L 401.117 888.314 M 351.829 876.767 L 347.811 907.892 M 423.315 892.666 L 421.58 924.002 M 473.315 900.586 L 508.488 945.169 M 506.682 946.536 L 473.315 900.586 M 523.354 914.72 L 552.946 963.188 M 546.791 967.319 L 521.356 916.545 M 575.706 930.711 L 601.682 981.21 M 588.328 989.756 L 569.144 936.307 M 633.472 943.855 L 658.201 994.976 M 635.03 1010.29 L 619.799 955.583 M 699.535 948.769 L 725.511 999.267 M 690.825 1024.87 L 676.94 969.802 M 775.348 939.098 L 804.94 987.566 M 758.859 1028.35 L 743.627 973.64 M 893.705 816.442 L 947.099 847.37 M 907.661 923.616 L 867.045 877.165 M 969.449 733.667 L 1027.99 753.164 M 997.099 855.29 L 949.458 816.076 M 1026.9 637.289 L 1088.17 644.549 M 1078.56 750.813 L 1023.98 722.038 M 1060.29 513.697 L 1121.54 506.278 M 1121.54 506.278 L 1104.6 479.862 M 1137.22 632.025 L 1077.95 614.878 M 403.072 40.3216 L 407.004 71.4579 M 461.563 59.9748 L 452.61 29.8952 M 49.1143 940.402 L 13.2315 983.074 M 38.822 1001.24 L 71.4028 962.496 M 13.2315 983.074 L 38.822 1001.24 M 91.4701 904.146 L 49.1143 940.402 M 71.4028 962.496 L 109.861 929.576 M 139.167 875.276 L 91.4701 904.146 M 109.861 929.576 L 153.169 903.363 M 190.93 854.563 L 139.167 875.276 M 153.169 903.363 L 200.169 884.556 M 245.377 842.56 L 190.93 854.563 M 200.169 884.556 L 249.605 873.657 M 301.051 839.589 L 245.377 842.56 M 249.605 873.657 L 300.157 870.959 M 350.472 876.534 L 356.466 845.728 M 401.117 888.314 L 410.75 858.446 M 356.466 845.728 L 351.829 876.767 M 425.674 861.372 L 423.315 892.666 M 480.741 870.093 L 523.354 914.72 M 521.356 916.545 L 480.741 870.093 M 536.465 883.093 L 575.706 930.711 M 569.144 936.307 L 534.372 885.334 M 595.411 895.288 L 633.472 943.855 M 619.799 955.583 L 588.84 902.208 M 660.293 901.151 L 699.535 948.769 M 676.94 969.802 L 647.301 915.683 M 732.736 894.472 L 775.348 939.098 M 743.627 973.64 L 712.668 920.265 M 811.978 868.443 L 859.619 907.657 M 821.138 960.685 L 786.366 909.712 M 904.776 722.7 L 969.449 733.667 M 949.458 816.076 L 891.621 785.128 M 961.342 639.622 L 1026.9 637.289 M 1023.98 722.038 L 961.078 703.421 M 997.137 531.449 L 1060.29 513.697 M 1077.95 614.878 L 1012.58 609.359 M 1001.21 404.779 L 1057.42 370.963 M 1057.42 370.963 L 1031.36 353.471 M 1104.6 479.862 L 1039.78 489.939 M 407.004 71.4579 L 411.618 102.501 M 469.853 90.2437 L 461.563 59.9748 M 291.771 124.669 L 305.725 152.78 M 340.138 96.9351 L 291.771 124.669 M 357.351 123.177 L 340.138 96.9351 M 70.9269 852.606 L 18.3809 880.544 M 34.7465 907.323 L 83.9747 881.149 M 18.3809 880.544 L 34.7465 907.323 M 126.435 831.149 L 70.9269 852.606 M 83.9747 881.149 L 135.978 861.047 M 184.11 816.479 L 126.435 831.149 M 135.978 861.047 L 190.011 847.303 M 243.125 808.808 L 184.11 816.479 M 190.011 847.303 L 245.3 840.116 M 302.633 808.245 L 243.125 808.808 M 245.3 840.116 L 301.051 839.589 M 361.783 814.798 L 302.633 808.245 M 410.75 858.446 L 419.725 828.373 M 428.719 830.136 L 425.674 861.372 M 487.498 839.446 L 536.465 883.093 M 534.372 885.334 L 487.498 839.446 M 547.53 850.452 L 595.411 895.288 M 588.84 902.208 L 545.44 853.02 M 611.326 857.503 L 660.293 901.151 M 647.301 915.683 L 605.122 865.445 M 680.714 854.514 L 732.736 894.472 M 712.668 920.265 L 669.268 871.078 M 755.553 834.989 L 811.978 868.443 M 786.366 909.712 L 739.492 863.824 M 832.584 792.629 L 893.705 816.442 M 867.045 877.165 L 815.023 837.207 M 893.627 648.428 L 961.342 639.622 M 961.078 703.421 L 893.531 693.4 M 933.418 556.002 L 997.137 531.449 M 1012.58 609.359 L 944.407 613.199 M 946.248 445.304 L 1001.21 404.779 M 1039.78 489.939 L 974.439 509.775 M 929.356 335.152 L 971.646 281.539 M 971.646 281.539 L 941.069 274.469 M 1031.36 353.471 L 973.588 389.877 M 411.618 102.501 L 416.956 133.427 M 477.434 120.698 L 469.853 90.2437 M 305.725 152.78 L 320.331 180.557 M 373.946 149.815 L 357.351 123.177 M 60.4688 780.628 L 0 793.402 M 7.60374 823.851 L 65.8299 811.551 M 0 793.402 L 7.60374 823.851 M 121.709 772.302 L 60.4688 780.628 M 65.8299 811.551 L 124.799 803.533 M 183.393 768.467 L 121.709 772.302 M 124.799 803.533 L 184.195 799.841 M 245.193 769.145 L 183.393 768.467 M 184.195 799.841 L 243.703 800.493 M 306.778 774.332 L 245.193 769.145 M 243.703 800.493 L 303.004 805.488 M 367.821 784 L 306.778 774.332 M 303.004 805.488 L 361.783 814.798 M 419.725 828.373 L 427.995 798.098 M 432.493 798.98 L 428.719 830.136 M 493.536 808.648 L 547.53 850.452 M 545.44 853.02 L 493.536 808.648 M 556.322 817.037 L 611.326 857.503 M 605.122 865.445 L 554.323 819.812 M 622.903 818.171 L 680.714 854.514 M 669.268 871.078 L 617.364 826.706 M 693.813 805.816 L 755.553 834.989 M 739.492 863.824 L 684.488 823.358 M 766.916 773.905 L 832.584 792.629 M 815.023 837.207 L 755.577 803.606 M 836.678 717.637 L 904.776 722.7 M 891.621 785.128 L 827.494 761.661 M 869.319 583.27 L 933.418 556.002 M 944.407 613.199 L 875.423 622.863 M 891.639 488.548 L 946.248 445.304 M 974.439 509.775 L 909.69 535.461 M 888.122 391.295 L 929.356 335.152 M 973.588 389.877 L 917.934 431.767 M 853.308 292.097 L 876.761 226.506 M 876.761 226.506 L 845.573 230.003 M 941.069 274.469 L 898.47 329.583 M 416.956 133.427 L 423.042 164.215 M 484.275 151.327 L 477.434 120.698 M 320.331 180.557 L 335.607 207.972 M 389.89 176.846 L 373.946 149.815 M 65.7446 704.626 L 3.38543 699.447 M 1.17233 730.753 L 62.7637 735.867 M 3.38543 699.447 L 1.17233 730.753 M 127.958 711.333 L 65.7446 704.626 M 62.7637 735.867 L 124.211 742.492 M 189.988 719.566 L 127.958 711.333 M 124.211 742.492 L 185.477 750.623 M 251.797 729.318 L 189.988 719.566 M 185.477 750.623 L 246.526 760.256 M 313.348 740.585 L 251.797 729.318 M 246.526 760.256 L 307.319 771.384 M 374.604 753.359 L 313.348 740.585 M 307.319 771.384 L 367.821 784 M 427.995 798.098 L 435.528 767.632 M 437.022 767.925 L 432.493 798.98 M 498.825 777.714 L 556.322 817.037 M 554.323 819.812 L 498.825 777.714 M 562.689 783.148 L 622.903 818.171 M 617.364 826.706 L 560.85 785.982 M 629.846 778.241 L 693.813 805.816 M 684.488 823.358 L 625.152 786.868 M 699.31 757.121 L 766.916 773.905 M 755.577 803.606 L 692.306 774.469 M 767.076 714.864 L 836.678 717.637 M 827.494 761.661 L 760.321 743.222 M 824.901 659.782 L 893.627 648.428 M 893.531 693.4 L 824.018 688.92 M 909.69 535.461 L 845.591 562.729 M 835.985 530.438 L 891.639 488.548 M 917.934 431.767 L 863.325 475.011 M 845.523 446.409 L 888.122 391.295 M 898.47 329.583 L 857.237 385.726 M 828.252 357.092 L 853.308 292.097 M 845.573 230.003 L 822.12 295.594 M 786.157 276.447 L 791.576 207 M 791.576 207 L 762.691 219.271 M 490.361 182.115 L 484.275 151.327 M 423.042 164.215 L 429.883 194.844 M 405.166 204.261 L 389.89 176.846 M 335.607 207.972 L 351.551 235.004 M 307.959 230.203 L 265.906 276.539 M 330.938 251.578 L 307.959 230.203 M 265.906 276.539 L 289.402 297.344 M 76.24 659.828 L 134.958 681.453 M 87.4465 630.514 L 76.24 659.828 M 145.442 651.872 L 87.4465 630.514 M 134.958 681.453 L 194.19 701.63 M 203.944 671.801 L 145.442 651.872 M 194.19 701.63 L 253.898 720.348 M 262.918 690.288 L 203.944 671.801 M 253.898 720.348 L 314.049 737.594 M 322.328 707.322 L 262.918 690.288 M 314.049 737.594 L 374.604 753.359 M 382.137 722.893 L 322.328 707.322 M 435.528 767.632 L 442.311 736.99 M 442.311 736.99 L 437.022 767.925 M 560.85 785.982 L 503.354 746.659 M 503.354 746.659 L 562.689 783.148 M 625.152 786.868 L 564.939 751.846 M 566.575 749.104 L 629.846 778.241 M 692.306 774.469 L 628.338 746.894 M 632.137 738.682 L 699.31 757.121 M 760.321 743.222 L 692.716 726.438 M 697.562 710.385 L 767.076 714.864 M 824.018 688.92 L 754.415 686.148 M 755.917 669.446 L 824.901 659.782 M 875.423 622.863 L 806.696 634.218 M 804.57 608.956 L 869.319 583.27 M 863.325 475.011 L 808.365 515.536 M 799.432 496.793 L 845.523 446.409 M 857.237 385.726 L 814.946 439.339 M 798.497 418.554 L 828.252 357.092 M 822.12 295.594 L 796.931 359.064 M 775.224 343.851 L 786.157 276.447 M 762.691 219.271 L 756.708 287.294 M 727.996 276.577 L 718.155 209.004 M 718.155 209.004 L 693.33 228.205 M 495.699 213.041 L 490.361 182.115 M 429.883 194.844 L 437.464 225.298 M 419.772 232.039 L 405.166 204.261 M 351.551 235.004 L 368.146 261.641 M 353.392 273.505 L 330.938 251.578 M 289.402 297.344 L 313.397 317.573 M 105.273 589.392 L 156.441 624.054 M 123.811 564.068 L 105.273 589.392 M 173.082 597.445 L 123.811 564.068 M 156.441 624.054 L 210.003 654.889 M 224.657 627.136 L 173.082 597.445 M 210.003 654.889 L 265.673 681.732 M 278.262 652.984 L 224.657 627.136 M 265.673 681.732 L 323.153 704.44 M 333.611 674.85 L 278.262 652.984 M 323.153 704.44 L 382.137 722.893 M 390.407 692.618 L 333.611 674.85 M 448.35 706.193 L 390.407 692.618 M 564.939 751.846 L 507.128 715.503 M 507.128 715.503 L 566.575 749.104 M 628.338 746.894 L 566.598 717.721 M 568.011 715.215 L 632.137 738.682 M 692.716 726.438 L 627.047 707.714 M 630.016 700.364 L 697.562 710.385 M 754.415 686.148 L 686.317 681.085 M 687.739 673.287 L 755.917 669.446 M 806.696 634.218 L 738.981 643.024 M 739.229 628.793 L 804.57 608.956 M 845.591 562.729 L 781.872 587.282 M 778.213 566.844 L 835.985 530.438 M 814.946 439.339 L 769.678 486.812 M 761.928 473.011 L 798.497 418.554 M 796.931 359.064 L 767.131 417.501 M 755.758 406.493 L 775.224 343.851 M 756.708 287.294 L 744.867 351.813 M 728.266 342.173 L 727.996 276.577 M 693.33 228.205 L 701.438 293.299 M 682.706 289.097 L 662.725 226.617 M 662.725 226.617 L 642.423 250.55 M 500.313 244.084 L 495.699 213.041 M 437.464 225.298 L 445.754 255.567 M 433.725 260.15 L 419.772 232.039 M 368.146 261.641 L 385.359 287.884 M 375.327 295.95 L 353.392 273.505 M 313.397 317.573 L 337.857 337.235 M 155.199 515.642 L 193.305 561.353 M 180.464 497.025 L 155.199 515.642 M 216.165 539.85 L 180.464 497.025 M 193.305 561.353 L 236.601 602.182 M 256.727 578.102 L 216.165 539.85 M 236.601 602.182 L 284.466 637.545 M 301.57 611.231 L 256.727 578.102 M 284.466 637.545 L 336.215 666.932 M 350.052 638.764 L 301.57 611.231 M 336.215 666.932 L 391.105 689.925 M 401.476 660.305 L 350.052 638.764 M 391.105 689.925 L 448.35 706.193 M 455.106 675.545 L 401.476 660.305 M 566.598 717.721 L 510.173 684.267 M 510.173 684.267 L 568.011 715.215 M 627.047 707.714 L 565.926 683.9 M 567.116 681.747 L 630.016 700.364 M 686.317 681.085 L 621.644 670.118 M 622.375 667.768 L 687.739 673.287 M 738.981 643.024 L 673.426 645.357 M 674.411 638.87 L 739.229 628.793 M 781.872 587.282 L 718.724 605.034 M 718.366 593.699 L 778.213 566.844 M 808.365 515.536 L 752.156 549.352 M 748.814 538.515 L 799.432 496.793 M 767.131 417.501 L 731.025 467.538 M 726.248 460.683 L 755.758 406.493 M 744.867 351.813 L 724.581 410.087 M 716.416 402.729 L 728.266 342.173 M 701.438 293.299 L 699.612 354.975 M 689.612 350.413 L 682.706 289.097 M 642.423 250.55 L 659.227 309.922 M 646.989 307.905 L 621.528 251.699 M 621.528 251.699 L 605.607 278.745 M 504.245 275.22 L 500.313 244.084 M 445.754 255.567 L 454.707 285.647 M 447.059 288.561 L 433.725 260.15 M 385.359 287.884 L 403.143 313.742 M 396.765 318.87 L 375.327 295.95 M 337.857 337.235 L 362.743 356.357 M 215.431 461.107 L 238.762 511.744 M 244.912 450.347 L 215.431 461.107 M 266.097 496.325 L 244.912 450.347 M 238.762 511.744 L 270.033 557.903 M 294.49 538.236 L 266.097 496.325 M 270.033 557.903 L 308.406 598.35 M 329.332 574.961 L 294.49 538.236 M 308.406 598.35 L 352.856 632.005 M 369.692 605.519 L 329.332 574.961 M 352.856 632.005 L 402.196 657.968 M 414.491 629.093 L 369.692 605.519 M 402.196 657.968 L 455.106 675.545 M 462.533 645.053 L 414.491 629.093 M 565.926 683.9 L 512.533 652.972 M 512.533 652.972 L 567.116 681.747 M 621.644 670.118 L 563.101 650.621 M 563.101 650.621 L 622.375 667.768 M 673.426 645.357 L 612.151 638.096 M 612.765 636.21 L 674.411 638.87 M 718.724 605.034 L 657.467 612.453 M 658.21 607.432 L 718.366 593.699 M 752.156 549.352 L 695.041 572.702 M 694.429 567.663 L 748.814 538.515 M 769.678 486.812 L 720.768 524.432 M 718.152 516.497 L 761.928 473.011 M 724.581 410.087 L 694.939 458.524 M 691.853 453.929 L 716.416 402.729 M 699.612 354.975 L 685.906 410.084 M 681.581 406.63 L 689.612 350.413 M 659.227 309.922 L 662.726 366.602 M 656.668 363.861 L 646.989 307.905 M 605.607 278.745 L 626.398 331.59 M 619.791 330.849 L 593.343 280.597 M 593.343 280.597 L 581.051 309.473 M 507.555 306.429 L 504.245 275.22 M 454.707 285.647 L 464.257 315.542 M 459.823 317.231 L 447.059 288.561 M 403.143 313.742 L 421.439 339.241 M 417.741 342.214 L 396.765 318.87 M 362.743 356.357 L 388.005 374.978 M 358.255 363.201 L 337.437 409.346 M 385.403 378.946 L 358.255 363.201 M 337.437 409.346 L 367.208 419.278 M 287.871 476.465 L 307.399 523.17 M 317.906 467.363 L 287.871 476.465 M 334.974 508.185 L 317.906 467.363 M 307.399 523.17 L 335.964 564.964 M 359.94 544.715 L 334.974 508.185 M 335.964 564.964 L 372.387 600.121 M 391.776 575.443 L 359.94 544.715 M 372.387 600.121 L 415.166 627.19 M 429.166 599.102 L 391.776 575.443 M 415.166 627.19 L 462.533 645.053 M 470.566 614.715 L 429.166 599.102 M 514.268 621.637 L 470.566 614.715 M 612.151 638.096 L 558.466 619.582 M 558.466 619.582 L 612.765 636.21 M 657.467 612.453 L 600.929 607.144 M 601.447 605.751 L 658.21 607.432 M 695.041 572.702 L 639.11 582.529 M 639.242 581.049 L 694.429 567.663 M 720.768 524.432 L 669.426 548.696 M 669.098 545.107 L 718.152 516.497 M 731.025 467.538 L 688.767 505.474 M 687.427 502.128 L 726.248 460.683 M 685.906 410.084 L 660.473 454.418 M 659.171 452.565 L 681.581 406.63 M 662.726 366.602 L 651.801 416.531 M 649.5 414.467 L 656.668 363.861 M 626.398 331.59 L 631.387 382.457 M 628.562 381.202 L 619.791 330.849 M 581.051 309.473 L 601.468 356.329 M 598.394 356.005 L 574.536 310.804 M 574.536 310.804 L 564.955 340.689 M 510.32 337.691 L 507.555 306.429 M 464.257 315.542 L 474.328 345.266 M 472.085 346.121 L 459.823 317.231 M 421.439 339.241 L 440.178 364.416 M 438.307 365.92 L 417.741 342.214 M 388.005 374.978 L 413.588 393.156 M 412.272 395.163 L 385.403 378.946 M 367.208 419.278 L 397.147 428.69 M 342.229 448.634 L 350.43 492.114 M 373.541 446.527 L 342.229 448.634 M 380.359 482.67 L 373.541 446.527 M 350.43 492.114 L 368.669 532.426 M 395.52 516.179 L 380.359 482.67 M 368.669 532.426 L 395.915 567.288 M 418.168 545.159 L 395.52 516.179 M 395.915 567.288 L 430.625 594.728 M 447.021 567.969 L 418.168 545.159 M 430.625 594.728 L 470.834 613.193 M 470.834 613.193 L 514.268 621.637 M 600.929 607.144 L 553.29 588.628 M 553.29 588.628 L 601.447 605.751 M 639.11 582.529 L 588.271 577.267 M 588.271 577.267 L 639.242 581.049 M 669.426 548.696 L 619.004 557.062 M 619.175 556.062 L 669.098 545.107 M 688.767 505.474 L 642.845 527.911 M 642.723 526.904 L 687.427 502.128 M 694.939 458.524 L 657.352 493.159 M 656.667 491 L 691.853 453.929 M 651.801 416.531 L 627.86 454.696 M 627.324 453.685 L 649.5 414.467 M 631.387 382.457 L 620.368 426.141 M 619.548 425.344 L 628.562 381.202 M 601.468 356.329 L 604.444 401.283 M 603.418 400.777 L 598.394 356.005 M 564.955 340.689 L 581.636 382.54 M 580.504 382.375 L 561.931 341.328 M 561.931 341.328 L 554.163 371.735 M 512.629 368.989 L 510.32 337.691 M 474.328 345.266 L 484.831 374.84 M 483.925 375.185 L 472.085 346.121 M 440.178 364.416 L 459.281 389.316 M 458.525 389.923 L 438.307 365.92 M 413.588 393.156 L 439.434 410.959 M 438.902 411.77 L 412.272 395.163 M 397.147 428.69 L 427.22 437.665 M 383.161 442.689 L 385.736 479.378 M 414.481 444.687 L 383.161 442.689 M 416.47 473.025 L 414.481 444.687 M 385.736 479.378 L 397.919 514.082 M 425.88 499.829 L 416.47 473.025 M 397.919 514.082 L 418.844 544.329 M 442.042 523.192 L 425.88 499.829 M 418.844 544.329 L 447.021 567.969 M 463.805 541.45 L 442.042 523.192 M 480.445 583.317 L 463.805 541.45 M 465.03 540.984 L 480.445 583.317 M 516.549 590.336 L 490.49 553.584 M 491.57 552.842 L 516.549 590.336 M 619.004 557.062 L 574.682 548.978 M 574.682 548.978 L 619.175 556.062 M 642.845 527.911 L 598.062 532.841 M 598.062 532.841 L 642.723 526.904 M 657.352 493.159 L 615.851 510.692 M 615.859 510.091 L 656.667 491 M 660.473 454.418 L 626.164 483.618 M 625.991 483.043 L 659.171 452.565 M 620.368 426.141 L 596.105 456.891 M 596.001 456.645 L 619.548 425.344 M 604.444 401.283 L 590.834 438.012 M 590.66 437.811 L 603.418 400.777 M 581.636 382.54 L 580.004 421.675 M 579.776 421.537 L 580.504 382.375 M 554.163 371.735 L 564.668 409.47 M 564.408 409.409 L 553.035 371.927 M 553.035 371.927 L 546.317 402.584 M 514.587 400.312 L 512.629 368.989 M 484.831 374.84 L 495.665 404.294 M 495.437 404.381 L 483.925 375.185 M 459.281 389.316 L 478.663 413.999 M 478.472 414.152 L 458.525 389.923 M 439.434 410.959 L 465.477 428.471 M 465.344 428.675 L 438.902 411.77 M 427.22 437.665 L 457.392 446.3 M 424.461 441.172 L 423.068 469.545 M 455.256 447.225 L 424.461 441.172 M 454.308 466.538 L 455.256 447.225 M 423.068 469.545 L 429.849 497.132 M 458.923 485.315 L 454.308 466.538 M 429.849 497.132 L 444.237 521.627 M 468.716 501.988 L 458.923 485.315 M 444.237 521.627 L 465.03 540.984 M 490.49 553.584 L 482.869 515.163 M 485.941 514.079 L 491.57 552.842 M 519.286 559.072 L 502.805 523.539 M 503.609 523.177 L 519.286 559.072 M 547.664 557.752 L 541.69 526.943 M 542.385 526.816 L 547.664 557.752 M 615.851 510.692 L 576.69 509.86 M 576.69 509.86 L 615.859 510.091 M 626.164 483.618 L 588.565 494.6 M 588.565 494.6 L 625.991 483.043 M 627.86 454.696 L 595.303 476.475 M 595.279 476.209 L 627.324 453.685 M 590.834 438.012 L 564.835 460.333 M 564.835 460.333 L 590.66 437.811 M 580.004 421.675 L 562.146 450.921 M 562.146 450.921 L 579.776 421.537 M 564.668 409.47 L 556.688 442.795 M 556.688 442.795 L 564.408 409.409 M 546.317 402.584 L 548.993 436.746 M 548.993 436.746 L 546.051 402.605 M 546.051 402.605 L 539.808 433.362 M 516.304 431.648 L 514.587 400.312 M 495.665 404.294 L 506.725 433.664 M 506.725 433.664 L 495.437 404.381 M 478.663 413.999 L 498.233 438.533 M 498.233 438.533 L 478.472 414.152 M 465.477 428.471 L 491.655 445.782 M 491.655 445.782 L 465.344 428.675 M 457.392 446.3 L 487.629 454.705 M 457.327 446.536 L 455.193 465.754 M 487.629 454.705 L 457.327 446.536 M 455.193 465.754 L 486.549 464.433 M 455.143 466.257 L 459.18 485.167 M 486.474 464.449 L 455.143 466.257 M 488.518 474.022 L 486.474 464.449 M 459.18 485.167 L 468.716 501.988 M 482.869 515.163 L 493.346 482.538 M 498.576 482.227 L 485.941 514.079 M 502.805 523.539 L 505.278 489.361 M 507.374 489.117 L 503.609 523.177 M 522.375 527.841 L 515.724 494.225 M 516.24 494.127 L 522.375 527.841 M 541.69 526.943 L 535.481 496.179 M 537.344 495.84 L 542.385 526.816 M 560.776 520.843 L 546.654 492.816 M 547.086 492.603 L 560.776 520.843 M 595.303 476.475 L 561.154 479.317 M 561.154 479.317 L 595.279 476.209 M 596.105 456.891 L 564.493 470.116 M 564.493 470.116 L 596.001 456.645 M 465.049 1110.37 L 469.894 1101.87 M 457.82 1116.97 L 465.049 1110.37 M 440.534 1090.78 L 439.183 1122.13 M 275.944 1077.54 L 301.448 1059.25 M 291.76 1029.4 L 283.034 1033.83 M 301.448 1059.25 L 301.428 1027.86 M 304.772 1059.17 L 313.05 1028.9 M 303.321 1027.82 L 304.772 1059.17 M 333.917 1064.18 L 345.754 1035.11 M 336.223 1032.88 L 333.917 1064.18 M 419.131 1080.89 L 428.814 1051.03 M 419.146 1049.5 L 419.131 1080.89 M 419.363 1080.96 L 437.575 1055.4 M 428.814 1051.03 L 419.363 1080.96 M 420.484 1081.38 L 445.246 1062.1 M 438.1 1055.41 L 420.484 1081.38 M 423.491 1082.68 L 452.469 1070.63 M 447.347 1062.29 L 423.491 1082.68 M 429.656 1085.56 L 460.661 1080.7 M 457.654 1071.38 L 429.656 1085.56 M 470.82 1082.55 L 440.534 1090.78 M 469.894 1101.87 L 471.882 1092.28 M 539.808 433.362 L 533.683 464.142 M 517.899 462.991 L 516.304 431.648 M 486.549 464.433 L 488.518 474.022 M 493.346 482.538 L 517.899 462.991 M 505.278 489.361 L 524.52 464.568 M 524.52 464.568 L 498.576 482.227 M 515.724 494.225 L 527.726 465.227 M 527.726 465.227 L 507.374 489.117 M 525.703 496.634 L 528.91 465.415 M 528.91 465.415 L 516.24 494.127 M 535.481 496.179 L 529.152 465.44 M 529.152 465.44 L 525.703 496.634 M 546.654 492.816 L 532.424 464.844 M 532.424 464.844 L 537.344 495.84 M 555.142 487.043 L 533.506 464.309 M 533.506 464.309 L 547.086 492.603 M 533.683 464.142 L 555.142 487.043" />
<path fill="none" class="c" d=" M 455.106 675.545 L 510.173 684.267 M 462.533 645.053 L 455.106 675.545 M 510.173 684.267 L 512.533 652.972 M 512.533 652.972 L 462.533 645.053 M 510.173 684.267 L 565.926 683.9 M 470.566 614.715 L 462.533 645.053 M 512.533 652.972 L 514.268 621.637 M 512.533 652.972 L 563.101 650.621 M 563.101 650.621 L 558.466 619.582 M 558.466 619.582 L 514.268 621.637 M 563.101 650.621 L 612.151 638.096 M 516.549 590.336 L 514.268 621.637 M 558.466 619.582 L 553.29 588.628 M 553.29 588.628 L 516.549 590.336 M 558.466 619.582 L 600.929 607.144 M 519.286 559.072 L 516.549 590.336 M 553.29 588.628 L 547.664 557.752 M 547.664 557.752 L 519.286 559.072 M 553.29 588.628 L 588.271 577.267 M 588.271 577.267 L 574.682 548.978 M 574.682 548.978 L 547.664 557.752 M 588.271 577.267 L 619.004 557.062 M 522.375 527.841 L 519.286 559.072 M 541.69 526.943 L 522.375 527.841 M 574.682 548.978 L 560.776 520.843 M 560.776 520.843 L 542.385 526.816 M 574.682 548.978 L 598.062 532.841 M 598.062 532.841 L 576.69 509.86 M 576.69 509.86 L 560.776 520.843 M 598.062 532.841 L 615.851 510.692 M 525.703 496.634 L 522.375 527.841 M 535.481 496.179 L 525.703 496.634 M 546.654 492.816 L 537.344 495.84 M 576.69 509.86 L 555.142 487.043 M 555.142 487.043 L 547.086 492.603 M 576.69 509.86 L 588.565 494.6 M 588.565 494.6 L 561.154 479.317 M 561.154 479.317 L 555.142 487.043 M 588.565 494.6 L 595.303 476.475 M 561.154 479.317 L 533.683 464.142 M 561.154 479.317 L 564.493 470.116 M 564.493 470.116 L 533.683 464.142 M 564.493 470.116 L 564.835 460.333 M 564.835 460.333 L 533.683 464.142 M 507.128 715.503 L 510.173 684.267 M 507.128 715.503 L 566.598 717.721 M 568.011 715.215 L 565.926 683.9 M 568.011 715.215 L 627.047 707.714 M 567.116 681.747 L 563.101 650.621 M 567.116 681.747 L 621.644 670.118 M 622.375 667.768 L 612.151 638.096 M 622.375 667.768 L 673.426 645.357 M 612.765 636.21 L 600.929 607.144 M 612.765 636.21 L 657.467 612.453 M 516.549 590.336 L 480.445 583.317 M 601.447 605.751 L 588.271 577.267 M 601.447 605.751 L 639.11 582.529 M 639.242 581.049 L 619.004 557.062 M 639.242 581.049 L 669.426 548.696 M 490.49 553.584 L 480.445 583.317 M 519.286 559.072 L 491.57 552.842 M 619.175 556.062 L 598.062 532.841 M 619.175 556.062 L 642.845 527.911 M 642.723 526.904 L 615.851 510.692 M 642.723 526.904 L 657.352 493.159 M 502.805 523.539 L 491.57 552.842 M 522.375 527.841 L 503.609 523.177 M 615.859 510.091 L 588.565 494.6 M 615.859 510.091 L 626.164 483.618 M 625.991 483.043 L 595.303 476.475 M 625.991 483.043 L 627.86 454.696 M 515.724 494.225 L 503.609 523.177 M 525.703 496.634 L 516.24 494.127 M 595.279 476.209 L 564.493 470.116 M 595.279 476.209 L 596.105 456.891 M 596.001 456.645 L 564.835 460.333 M 564.835 460.333 L 562.146 450.921 M 562.146 450.921 L 533.683 464.142 M 562.146 450.921 L 556.688 442.795 M 556.688 442.795 L 533.683 464.142 M 556.688 442.795 L 548.993 436.746 M 548.993 436.746 L 533.683 464.142 M 548.993 436.746 L 539.808 433.362 M 448.35 706.193 L 507.128 715.503 M 566.575 749.104 L 566.598 717.721 M 566.575 749.104 L 628.338 746.894 M 632.137 738.682 L 627.047 707.714 M 632.137 738.682 L 692.716 726.438 M 455.106 675.545 L 448.35 706.193 M 630.016 700.364 L 621.644 670.118 M 630.016 700.364 L 686.317 681.085 M 687.739 673.287 L 673.426 645.357 M 687.739 673.287 L 738.981 643.024 M 414.491 629.093 L 402.196 657.968 M 674.411 638.87 L 657.467 612.453 M 674.411 638.87 L 718.724 605.034 M 429.166 599.102 L 415.166 627.19 M 658.21 607.432 L 639.11 582.529 M 658.21 607.432 L 695.041 572.702 M 694.429 567.663 L 669.426 548.696 M 694.429 567.663 L 720.768 524.432 M 480.445 583.317 L 470.834 613.193 M 669.098 545.107 L 642.845 527.911 M 669.098 545.107 L 688.767 505.474 M 687.427 502.128 L 657.352 493.159 M 687.427 502.128 L 694.939 458.524 M 490.49 553.584 L 465.03 540.984 M 656.667 491 L 626.164 483.618 M 656.667 491 L 660.473 454.418 M 659.171 452.565 L 627.86 454.696 M 482.869 515.163 L 465.03 540.984 M 502.805 523.539 L 485.941 514.079 M 627.324 453.685 L 596.105 456.891 M 596.001 456.645 L 590.834 438.012 M 590.66 437.811 L 562.146 450.921 M 590.66 437.811 L 580.004 421.675 M 579.776 421.537 L 556.688 442.795 M 579.776 421.537 L 564.668 409.47 M 564.408 409.409 L 548.993 436.746 M 564.408 409.409 L 546.317 402.584 M 505.278 489.361 L 485.941 514.079 M 515.724 494.225 L 507.374 489.117 M 629.846 778.241 L 628.338 746.894 M 629.846 778.241 L 692.306 774.469 M 699.31 757.121 L 692.716 726.438 M 699.31 757.121 L 760.321 743.222 M 503.354 746.659 L 507.128 715.503 M 503.354 746.659 L 564.939 751.846 M 697.562 710.385 L 686.317 681.085 M 697.562 710.385 L 754.415 686.148 M 755.917 669.446 L 738.981 643.024 M 755.917 669.446 L 806.696 634.218 M 739.229 628.793 L 718.724 605.034 M 739.229 628.793 L 781.872 587.282 M 718.366 593.699 L 695.041 572.702 M 718.366 593.699 L 752.156 549.352 M 748.814 538.515 L 720.768 524.432 M 748.814 538.515 L 769.678 486.812 M 718.152 516.497 L 688.767 505.474 M 718.152 516.497 L 731.025 467.538 M 726.248 460.683 L 694.939 458.524 M 480.445 583.317 L 447.021 567.969 M 691.853 453.929 L 660.473 454.418 M 659.171 452.565 L 651.801 416.531 M 463.805 541.45 L 447.021 567.969 M 627.324 453.685 L 620.368 426.141 M 619.548 425.344 L 590.834 438.012 M 619.548 425.344 L 604.444 401.283 M 603.418 400.777 L 580.004 421.675 M 603.418 400.777 L 581.636 382.54 M 580.504 382.375 L 564.668 409.47 M 580.504 382.375 L 554.163 371.735 M 482.869 515.163 L 468.716 501.988 M 493.346 482.538 L 468.716 501.988 M 505.278 489.361 L 498.576 482.227 M 693.813 805.816 L 692.306 774.469 M 766.916 773.905 L 760.321 743.222 M 693.813 805.816 L 755.577 803.606 M 766.916 773.905 L 827.494 761.661 M 442.311 736.99 L 503.354 746.659 M 562.689 783.148 L 564.939 751.846 M 562.689 783.148 L 625.152 786.868 M 767.076 714.864 L 754.415 686.148 M 767.076 714.864 L 824.018 688.92 M 824.901 659.782 L 806.696 634.218 M 824.901 659.782 L 875.423 622.863 M 448.35 706.193 L 442.311 736.99 M 804.57 608.956 L 781.872 587.282 M 804.57 608.956 L 845.591 562.729 M 401.476 660.305 L 391.105 689.925 M 778.213 566.844 L 752.156 549.352 M 778.213 566.844 L 808.365 515.536 M 799.432 496.793 L 769.678 486.812 M 369.692 605.519 L 352.856 632.005 M 761.928 473.011 L 731.025 467.538 M 726.248 460.683 L 724.581 410.087 M 391.776 575.443 L 372.387 600.121 M 691.853 453.929 L 685.906 410.084 M 681.581 406.63 L 651.801 416.531 M 681.581 406.63 L 662.726 366.602 M 447.021 567.969 L 430.625 594.728 M 649.5 414.467 L 620.368 426.141 M 649.5 414.467 L 631.387 382.457 M 628.562 381.202 L 604.444 401.283 M 628.562 381.202 L 601.468 356.329 M 598.394 356.005 L 581.636 382.54 M 598.394 356.005 L 564.955 340.689 M 468.716 501.988 L 444.237 521.627 M 493.346 482.538 L 488.518 474.022 M 517.899 462.991 L 488.518 474.022 M 755.553 834.989 L 755.577 803.606 M 832.584 792.629 L 827.494 761.661 M 755.553 834.989 L 815.023 837.207 M 832.584 792.629 L 891.621 785.128 M 622.903 818.171 L 625.152 786.868 M 622.903 818.171 L 684.488 823.358 M 836.678 717.637 L 824.018 688.92 M 893.627 648.428 L 875.423 622.863 M 836.678 717.637 L 893.531 693.4 M 498.825 777.714 L 503.354 746.659 M 498.825 777.714 L 560.85 785.982 M 869.319 583.27 L 845.591 562.729 M 835.985 530.438 L 808.365 515.536 M 799.432 496.793 L 814.946 439.339 M 761.928 473.011 L 767.131 417.501 M 755.758 406.493 L 724.581 410.087 M 755.758 406.493 L 744.867 351.813 M 716.416 402.729 L 685.906 410.084 M 716.416 402.729 L 699.612 354.975 M 689.612 350.413 L 662.726 366.602 M 689.612 350.413 L 659.227 309.922 M 656.668 363.861 L 631.387 382.457 M 656.668 363.861 L 626.398 331.59 M 619.791 330.849 L 601.468 356.329 M 619.791 330.849 L 581.051 309.473 M 442.042 523.192 L 418.844 544.329 M 488.518 474.022 L 459.18 485.167 M 517.899 462.991 L 486.549 464.433 M 811.978 868.443 L 815.023 837.207 M 893.705 816.442 L 891.621 785.128 M 811.978 868.443 L 867.045 877.165 M 680.714 854.514 L 684.488 823.358 M 680.714 854.514 L 739.492 863.824 M 904.776 722.7 L 893.531 693.4 M 893.627 648.428 L 944.407 613.199 M 437.022 767.925 L 498.825 777.714 M 556.322 817.037 L 560.85 785.982 M 556.322 817.037 L 617.364 826.706 M 869.319 583.27 L 909.69 535.461 M 835.985 530.438 L 863.325 475.011 M 845.523 446.409 L 814.946 439.339 M 845.523 446.409 L 857.237 385.726 M 382.137 722.893 L 442.311 736.99 M 390.407 692.618 L 382.137 722.893 M 798.497 418.554 L 767.131 417.501 M 798.497 418.554 L 796.931 359.064 M 775.224 343.851 L 744.867 351.813 M 775.224 343.851 L 756.708 287.294 M 350.052 638.764 L 336.215 666.932 M 728.266 342.173 L 699.612 354.975 M 728.266 342.173 L 701.438 293.299 M 682.706 289.097 L 659.227 309.922 M 682.706 289.097 L 642.423 250.55 M 329.332 574.961 L 308.406 598.35 M 646.989 307.905 L 626.398 331.59 M 646.989 307.905 L 605.607 278.745 M 359.94 544.715 L 335.964 564.964 M 418.168 545.159 L 395.915 567.288 M 458.923 485.315 L 429.849 497.132 M 487.629 454.705 L 486.549 464.433 M 517.899 462.991 L 487.629 454.705 M 859.619 907.657 L 867.045 877.165 M 893.705 816.442 L 949.458 816.076 M 732.736 894.472 L 739.492 863.824 M 732.736 894.472 L 786.366 909.712 M 961.342 639.622 L 944.407 613.199 M 904.776 722.7 L 961.078 703.421 M 961.342 639.622 L 1012.58 609.359 M 432.493 798.98 L 493.536 808.648 M 611.326 857.503 L 617.364 826.706 M 611.326 857.503 L 669.268 871.078 M 933.418 556.002 L 909.69 535.461 M 933.418 556.002 L 974.439 509.775 M 493.536 808.648 L 498.825 777.714 M 493.536 808.648 L 554.323 819.812 M 891.639 488.548 L 863.325 475.011 M 891.639 488.548 L 917.934 431.767 M 888.122 391.295 L 857.237 385.726 M 888.122 391.295 L 898.47 329.583 M 828.252 357.092 L 796.931 359.064 M 828.252 357.092 L 822.12 295.594 M 786.157 276.447 L 756.708 287.294 M 786.157 276.447 L 762.691 219.271 M 727.996 276.577 L 701.438 293.299 M 727.996 276.577 L 693.33 228.205 M 425.88 499.829 L 397.919 514.082 M 491.655 445.782 L 487.629 454.705 M 517.899 462.991 L 491.655 445.782 M 947.099 847.37 L 949.458 816.076 M 859.619 907.657 L 907.661 923.616 M 947.099 847.37 L 997.099 855.29 M 775.348 939.098 L 786.366 909.712 M 775.348 939.098 L 821.138 960.685 M 969.449 733.667 L 961.078 703.421 M 1026.9 637.289 L 1012.58 609.359 M 969.449 733.667 L 1023.98 722.038 M 1026.9 637.289 L 1077.95 614.878 M 428.719 830.136 L 487.498 839.446 M 480.741 870.093 L 487.498 839.446 M 660.293 901.151 L 669.268 871.078 M 660.293 901.151 L 712.668 920.265 M 997.137 531.449 L 974.439 509.775 M 997.137 531.449 L 1039.78 489.939 M 487.498 839.446 L 493.536 808.648 M 547.53 850.452 L 554.323 819.812 M 487.498 839.446 L 545.44 853.02 M 547.53 850.452 L 605.122 865.445 M 946.248 445.304 L 917.934 431.767 M 929.356 335.152 L 898.47 329.583 M 946.248 445.304 L 973.588 389.877 M 929.356 335.152 L 941.069 274.469 M 853.308 292.097 L 822.12 295.594 M 853.308 292.097 L 845.573 230.003 M 374.604 753.359 L 435.528 767.632 M 382.137 722.893 L 374.604 753.359 M 333.611 674.85 L 323.153 704.44 M 301.57 611.231 L 284.466 637.545 M 294.49 538.236 L 270.033 557.903 M 334.974 508.185 L 307.399 523.17 M 395.52 516.179 L 368.669 532.426 M 454.308 466.538 L 423.068 469.545 M 498.233 438.533 L 491.655 445.782 M 517.899 462.991 L 498.233 438.533 M 894.792 952.24 L 907.661 923.616 M 989.065 885.628 L 997.099 855.29 M 894.792 952.24 L 933.095 974.39 M 989.065 885.628 L 1030.47 901.24 M 804.94 987.566 L 821.138 960.685 M 1027.99 753.164 L 1023.98 722.038 M 1088.17 644.549 L 1077.95 614.878 M 1027.99 753.164 L 1078.56 750.813 M 1088.17 644.549 L 1137.22 632.025 M 480.741 870.093 L 534.372 885.334 M 523.354 914.72 L 534.372 885.334 M 699.535 948.769 L 712.668 920.265 M 699.535 948.769 L 743.627 973.64 M 1060.29 513.697 L 1039.78 489.939 M 1060.29 513.697 L 1104.6 479.862 M 425.674 861.372 L 480.741 870.093 M 536.465 883.093 L 545.44 853.02 M 595.411 895.288 L 605.122 865.445 M 536.465 883.093 L 588.84 902.208 M 595.411 895.288 L 647.301 915.683 M 1001.21 404.779 L 973.588 389.877 M 1001.21 404.779 L 1031.36 353.471 M 367.821 784 L 427.995 798.098 M 374.604 753.359 L 367.821 784 M 416.47 473.025 L 385.736 479.378 M 465.344 428.675 L 457.392 446.3 M 506.725 433.664 L 498.233 438.533 M 517.899 462.991 L 506.725 433.664 M 914.264 999.496 L 933.095 974.39 M 1015.98 929.079 L 1030.47 901.24 M 804.94 987.566 L 840.322 1014.13 M 1076.83 782.148 L 1078.56 750.813 M 1076.83 782.148 L 1120.53 789.07 M 523.354 914.72 L 569.144 936.307 M 552.946 963.188 L 569.144 936.307 M 725.511 999.267 L 743.627 973.64 M 725.511 999.267 L 758.859 1028.35 M 473.315 900.586 L 480.741 870.093 M 423.315 892.666 L 473.315 900.586 M 473.315 900.586 L 521.356 916.545 M 575.706 930.711 L 588.84 902.208 M 633.472 943.855 L 647.301 915.683 M 575.706 930.711 L 619.799 955.583 M 633.472 943.855 L 676.94 969.802 M 361.783 814.798 L 419.725 828.373 M 367.821 784 L 361.783 814.798 M 313.348 740.585 L 307.319 771.384 M 322.328 707.322 L 314.049 737.594 M 278.262 652.984 L 265.673 681.732 M 256.727 578.102 L 236.601 602.182 M 266.097 496.325 L 238.762 511.744 M 380.359 482.67 L 350.43 492.114 M 478.472 414.152 L 465.477 428.471 M 516.304 431.648 L 506.725 433.664 M 818.626 1036.81 L 840.322 1014.13 M 552.946 963.188 L 588.328 989.756 M 566.632 1012.43 L 588.328 989.756 M 735.566 1049.38 L 758.859 1028.35 M 465.281 930.924 L 473.315 900.586 M 421.58 924.002 L 465.281 930.924 M 508.488 945.169 L 521.356 916.545 M 465.281 930.924 L 506.682 946.536 M 508.488 945.169 L 546.791 967.319 M 601.682 981.21 L 619.799 955.583 M 658.201 994.976 L 676.94 969.802 M 601.682 981.21 L 635.03 1010.29 M 658.201 994.976 L 690.825 1024.87 M 356.466 845.728 L 410.75 858.446 M 361.783 814.798 L 356.466 845.728 M 306.778 774.332 L 303.004 805.488 M 251.797 729.318 L 246.526 760.256 M 438.902 411.77 L 427.22 437.665 M 495.437 404.381 L 478.663 413.999 M 566.632 1012.43 L 589.994 1040.84 M 563.312 1057.36 L 589.994 1040.84 M 735.566 1049.38 L 756.792 1079.42 M 456.72 961.117 L 465.281 930.924 M 420.392 955.363 L 456.72 961.117 M 492.194 974.376 L 506.682 946.536 M 456.72 961.117 L 490.66 975.289 M 527.961 992.425 L 546.791 967.319 M 492.194 974.376 L 522.568 995.116 M 527.961 992.425 L 554.55 1017.84 M 611.737 1031.32 L 635.03 1010.29 M 667.022 1045.32 L 690.825 1024.87 M 611.737 1031.32 L 632.963 1061.36 M 667.022 1045.32 L 687.505 1075.87 M 351.829 876.767 L 401.117 888.314 M 301.051 839.589 L 356.466 845.728 M 302.633 808.245 L 301.051 839.589 M 245.193 769.145 L 243.703 800.493 M 189.988 719.566 L 185.477 750.623 M 262.918 690.288 L 253.898 720.348 M 224.657 627.136 L 210.003 654.889 M 216.165 539.85 L 193.305 561.353 M 458.525 389.923 L 439.434 410.959 M 514.587 400.312 L 495.665 404.294 M 563.312 1057.36 L 574.913 1083.29 M 544.714 1091.84 L 574.913 1083.29 M 728.975 1093.95 L 756.792 1079.42 M 447.72 991.182 L 456.72 961.117 M 419.661 986.738 L 447.72 991.182 M 474.812 1002.38 L 490.66 975.289 M 447.72 991.182 L 473.605 1002.89 M 501.572 1018.44 L 522.568 995.116 M 474.812 1002.38 L 497.2 1019.86 M 530.034 1037.43 L 554.55 1017.84 M 501.572 1018.44 L 519.963 1040.09 M 530.034 1037.43 L 544.652 1061.79 M 605.147 1075.89 L 632.963 1061.36 M 659.34 1089.71 L 687.505 1075.87 M 605.147 1075.89 L 614.824 1102.6 M 347.811 907.892 L 390.891 917.985 M 300.157 870.959 L 350.472 876.534 M 301.051 839.589 L 300.157 870.959 M 243.125 808.808 L 245.3 840.116 M 183.393 768.467 L 184.195 799.841 M 127.958 711.333 L 124.211 742.492 M 412.272 395.163 L 397.147 428.69 M 483.925 375.185 L 459.281 389.316 M 544.714 1091.84 L 547.233 1111.01 M 438.382 1021.14 L 447.72 991.182 M 419.283 1018.12 L 438.382 1021.14 M 456.678 1029.31 L 473.605 1002.89 M 438.382 1021.14 L 455.817 1029.51 M 474.509 1041.55 L 497.2 1019.86 M 456.678 1029.31 L 471.282 1041.99 M 493.358 1056.74 L 519.963 1040.09 M 474.509 1041.55 L 485.707 1057.31 M 515.69 1073.88 L 544.652 1061.79 M 493.358 1056.74 L 501.138 1074.44 M 515.69 1073.88 L 520.482 1092.61 M 584.083 1108.91 L 614.824 1102.6 M 659.34 1089.71 L 668.359 1116.65 M 738.653 1120.66 L 769.322 1114 M 344.338 939.083 L 380.148 947.473 M 299.888 902.342 L 343.865 907.214 M 300.157 870.959 L 299.888 902.342 M 245.377 842.56 L 249.605 873.657 M 184.11 816.479 L 190.011 847.303 M 121.709 772.302 L 124.799 803.533 M 65.7446 704.626 L 62.7637 735.867 M 203.944 671.801 L 194.19 701.63 M 173.082 597.445 L 156.441 624.054 M 438.307 365.92 L 413.588 393.156 M 512.629 368.989 L 484.831 374.84 M 515.857 1110.31 L 547.233 1111.01 M 428.814 1051.03 L 438.382 1021.14 M 419.146 1049.5 L 428.814 1051.03 M 438.1 1055.41 L 455.817 1029.51 M 428.814 1051.03 L 437.575 1055.4 M 447.347 1062.29 L 471.282 1041.99 M 438.1 1055.41 L 445.246 1062.1 M 457.654 1071.38 L 485.707 1057.31 M 447.347 1062.29 L 452.469 1070.63 M 470.82 1082.55 L 501.138 1074.44 M 457.654 1071.38 L 460.661 1080.7 M 489.248 1095.67 L 520.482 1092.61 M 470.82 1082.55 L 471.882 1092.28 M 637.471 1122.21 L 668.359 1116.65 M 740.925 1148.97 L 772.263 1150.66 M 341.318 970.321 L 368.977 976.801 M 300.167 933.724 L 336.723 937.774 M 299.888 902.342 L 300.167 933.724 M 249.753 875.671 L 255.834 906.46 M 190.93 854.563 L 200.169 884.556 M 126.435 831.149 L 135.978 861.047 M 60.4688 780.628 L 65.8299 811.551 M 385.403 378.946 L 367.208 419.278 M 472.085 346.121 L 440.178 364.416 M 440.534 1090.78 L 471.882 1092.28 M 440.534 1090.78 L 469.894 1101.87 M 514.154 1119.95 L 543.87 1130.05 M 638.11 1141.54 L 669.297 1145.04 M 338.651 1001.59 L 357.477 1006 M 300.903 965.099 L 329.138 968.227 M 300.167 933.724 L 300.903 965.099 M 256.004 907.996 L 263.689 938.424 M 201.342 890.474 L 213.521 919.398 M 139.167 875.276 L 153.169 903.363 M 70.9269 852.606 L 83.9747 881.149 M 145.442 651.872 L 134.958 681.453 M 417.741 342.214 L 388.005 374.978 M 510.32 337.691 L 474.328 345.266 M 440.534 1090.78 L 465.049 1110.37 M 440.534 1090.78 L 457.82 1116.97 M 448.909 1121.02 L 457.82 1116.97 M 440.534 1090.78 L 448.909 1121.02 M 439.183 1122.13 L 448.909 1121.02 M 336.223 1032.88 L 345.754 1035.11 M 301.992 996.464 L 321.211 998.593 M 272.845 969.547 L 300.903 965.099 M 263.841 939.483 L 272.845 969.547 M 214.698 923.856 L 229.353 951.608 M 156.923 914.757 L 174.697 940.622 M 91.4701 904.146 L 109.861 929.576 M 459.823 317.231 L 421.439 339.241 M 437.955 1153.49 L 457.167 1151.3 M 303.321 1027.82 L 313.05 1028.9 M 282.188 999.508 L 301.286 996.481 M 272.845 969.547 L 282.188 999.508 M 230.33 954.641 L 246.962 981.255 M 178.308 949.025 L 199.103 972.53 M 118.33 947.518 L 140.966 969.256 M 49.1143 940.402 L 71.4028 962.496 M 396.765 318.87 L 362.743 356.357 M 507.555 306.429 L 464.257 315.542 M 282.188 999.508 L 291.76 1029.4 M 291.76 1029.4 L 301.428 1027.86 M 247.232 981.835 L 264.754 1007.87 M 202.018 978.12 L 225.095 999.389 M 148.892 982.078 L 174.651 1000 M 87.1555 987.403 L 113.718 1004.12 M 447.059 288.561 L 403.143 313.742 M 291.76 1029.4 L 301.448 1059.25 M 264.884 1008.14 L 283 1033.77 M 226.204 1000.93 L 250.44 1020.87 M 180.922 1008.25 L 208.801 1022.66 M 128.117 1021.14 L 157.382 1032.48 M 375.327 295.95 L 337.857 337.235 M 504.245 275.22 L 454.707 285.647 M 283.034 1033.83 L 301.448 1059.25 M 117.157 1064.01 L 148.272 1068.11 M 433.725 260.15 L 385.359 287.884 M 283.034 1033.83 L 276.1 1040.74 M 276.1 1040.74 L 301.448 1059.25 M 250.825 1022.14 L 276.1 1040.74 M 353.392 273.505 L 313.397 317.573 M 500.313 244.084 L 445.754 255.567 M 276.1 1040.74 L 271.632 1049.45 M 271.632 1049.45 L 301.448 1059.25 M 250.825 1022.14 L 241.865 1039.27 M 241.854 1039.54 L 271.632 1049.45 M 212.244 1028.9 L 241.865 1039.27 M 419.772 232.039 L 368.146 261.641 M 271.632 1049.45 L 270.064 1059.11 M 270.064 1059.11 L 301.448 1059.25 M 241.854 1039.54 L 238.609 1058.6 M 238.682 1058.86 L 270.064 1059.11 M 212.244 1028.9 L 206.831 1056.79 M 207.235 1057.86 L 238.609 1058.6 M 175.5 1054.97 L 206.831 1056.79 M 330.938 251.578 L 289.402 297.344 M 495.699 213.041 L 437.464 225.298 M 270.064 1059.11 L 271.55 1068.79 M 271.55 1068.79 L 301.448 1059.25 M 238.682 1058.86 L 241.467 1077.99 M 241.615 1078.22 L 271.55 1068.79 M 207.235 1057.86 L 210.676 1086.06 M 211.391 1086.96 L 241.467 1077.99 M 180.31 1093.99 L 210.676 1086.06 M 405.166 204.261 L 351.551 235.004 M 271.55 1068.79 L 275.944 1077.54 M 241.615 1078.22 L 250.16 1095.56 M 211.391 1086.96 L 223.353 1112.72 M 490.361 182.115 L 429.883 194.844 M 389.89 176.846 L 335.607 207.972 M 373.946 149.815 L 320.331 180.557 M 484.275 151.327 L 423.042 164.215 M 357.351 123.177 L 305.725 152.78 M 477.434 120.698 L 416.956 133.427 M 469.853 90.2437 L 411.618 102.501 M 461.563 59.9748 L 407.004 71.4579 M 452.61 29.8952 L 403.072 40.3216" />
</svg>
