<?xml version="1.0"?>
<svg width="1288" height="1190" version="1.1" xmlns="http://www.w3.org/2000/svg" >
<defs>
<style type="text/css"><![CDATA[
.m {stroke:rgb(255,0,0);stroke-width:1.610000;}
.v {stroke:rgb(0,0,255);stroke-width:1.610000;}
.b {stroke:rgb(0,0,0);stroke-width:3.220000;fill:white}
.n {stroke:rgb(128,128,128);stroke-width:1.610000}
.t {stroke:rgb(0,128,0);stroke-width:1.610000;}
.c {stroke:rgb(128,128,128);stroke-width:1.610000;stroke-dasharray:12.880000, 12.880000;}
]]></style>
</defs>
<path fill="none" style="stroke:black;stroke-width:3.220000;" d=" M 622.971 874.348 L 642.262 873.033 M 635.391 842.411 L 625.625 843.077 M 604.177 869.801 L 622.971 874.348 M 625.625 843.077 L 616.11 840.775 M 587.619 859.814 L 604.177 869.801 M 601.255 828.377 L 574.831 845.31 M 574.831 845.31 L 600.992 827.973 M 566.726 827.754 L 595.362 808.935 M 595.648 809.376 L 566.726 827.754 M 563.342 808.005 L 595.935 797.427 M 596.95 799.276 L 563.98 808.614 M 573.824 771.248 L 565.755 788.82 M 595.935 797.427 L 600.02 788.531 M 586.804 756.915 L 573.824 771.248 M 600.02 788.531 L 606.591 781.275 M 603.493 747.149 L 586.804 756.915 M 606.591 781.275 L 615.04 776.331 M 622.346 742.853 L 603.493 747.149 M 615.04 776.331 L 624.584 774.156 M 641.618 744.424 L 622.346 742.853 M 634.34 774.952 L 641.618 744.424 M 624.584 774.156 L 634.34 774.952 M 645.18 783.735 L 663.515 758.265 M 646.287 749.486 L 636.458 779.291 M 769.48 830.804 L 782.289 802.153 M 763.641 797.039 L 760.04 828.215 M 902.385 820.115 L 916.035 851.546 M 916.035 851.546 L 921.714 820.68 M 777.663 836.176 L 782.511 802.254 M 782.511 802.254 L 769.48 830.804 M 689.128 797.42 L 659.22 814.145 M 659.22 814.145 L 688.997 797.188 M 688.997 797.188 L 658.45 804.386 M 690.552 816.969 L 656.946 823.665 M 656.946 823.665 L 690.499 816.708 M 685.883 836.005 L 651.849 832.023 M 651.849 832.023 L 685.913 835.741 M 675.315 853.837 L 644.505 838.84 M 644.425 838.403 L 675.687 852.435 M 644.505 838.84 L 635.391 842.411 M 641.999 874.75 L 622.667 875.175 M 591.423 898.798 L 618.816 906.322 M 622.667 875.175 L 604.021 870.054 M 567.326 883.753 L 591.423 898.798 M 604.021 870.054 L 587.619 859.814 M 548.538 862.445 L 567.326 883.753 M 536.63 836.653 L 563.342 808.005 M 563.98 808.614 L 536.63 836.653 M 530.871 807.91 L 563.594 786.383 M 565.755 788.82 L 531.965 808.631 M 543.059 753.028 L 532.957 779.579 M 563.594 786.383 L 570.47 768.31 M 560.333 730.475 L 543.059 753.028 M 570.47 768.31 L 582.228 752.96 M 583.336 713.806 L 560.333 730.475 M 582.228 752.96 L 597.885 741.613 M 610.145 704.412 L 583.336 713.806 M 597.885 741.613 L 616.134 735.219 M 635.449 734.311 L 638.522 703.079 M 616.134 735.219 L 635.449 734.311 M 663.515 758.265 L 681.655 732.655 M 656.344 719.758 L 646.287 749.486 M 782.289 802.153 L 794.877 773.405 M 767.481 765.891 L 763.641 797.039 M 921.714 820.68 L 927.155 789.772 M 898.759 788.942 L 902.385 820.115 M 1018.95 783.101 L 1047.85 809.544 M 1047.85 809.544 L 1046.93 778.174 M 690.499 816.708 L 719.783 790.695 M 719.783 790.695 L 689.128 797.42 M 722.111 821.113 L 685.883 836.005 M 685.913 835.741 L 721.787 820.015 M 721.787 820.015 L 690.552 816.969 M 714.428 851.742 L 675.315 853.837 M 675.687 852.435 L 714.661 848.527 M 698.199 875.741 L 660.266 865.979 M 660.266 865.979 L 698.345 875.158 M 674.253 896.974 L 641.999 874.75 M 642.262 873.033 L 675.819 893.238 M 647.465 942.886 L 617.06 909.639 M 618.816 906.322 L 652.087 936.7 M 617.06 909.639 L 590.237 900.284 M 590.237 900.284 L 566.841 884.171 M 566.841 884.171 L 548.538 862.445 M 506.637 845.89 L 530.871 807.91 M 531.965 808.631 L 506.637 845.89 M 502.245 773.12 L 499.544 809.801 M 514.547 738.459 L 502.245 773.12 M 532.957 779.579 L 542.458 752.807 M 535.575 708.283 L 514.547 738.459 M 542.458 752.807 L 558.7 729.5 M 563.833 684.741 L 535.575 708.283 M 558.7 729.5 L 580.526 711.317 M 597.31 669.507 L 563.833 684.741 M 606.383 699.55 L 597.31 669.507 M 580.526 711.317 L 606.383 699.55 M 638.522 703.079 L 641.243 671.813 M 604.504 673.539 L 610.145 704.412 M 681.655 732.655 L 699.506 706.842 M 666.734 690.144 L 656.344 719.758 M 794.877 773.405 L 807.141 744.517 M 771.671 734.788 L 767.481 765.891 M 927.155 789.772 L 932.248 758.804 M 895.484 757.73 L 898.759 788.942 M 1046.93 778.174 L 1045.65 746.816 M 1009.43 753.195 L 1018.95 783.101 M 1108.51 730.354 L 1149.58 748.89 M 1149.58 748.89 L 1143.21 718.158 M 714.661 848.527 L 753.223 825.231 M 753.223 825.231 L 722.111 821.113 M 742.61 868.16 L 698.199 875.741 M 698.345 875.158 L 742.436 865.902 M 742.436 865.902 L 714.428 851.742 M 718.559 905.144 L 674.253 896.974 M 675.819 893.238 L 720.653 897.667 M 687.336 926.197 L 647.217 905.696 M 647.217 905.696 L 687.787 925.289 M 648.072 975.328 L 610.77 940.386 M 610.77 940.386 L 649.072 974.228 M 602.778 971.835 L 576.042 928.274 M 576.042 928.274 L 604.034 971.039 M 560.02 956.491 L 545.751 907.412 M 545.751 907.412 L 561.441 956.055 M 522.839 930.388 L 522.054 879.283 M 522.054 879.283 L 524.325 930.344 M 470.212 767.944 L 468.248 812.147 M 499.544 809.801 L 501.177 773.057 M 482.562 725.457 L 470.212 767.944 M 501.177 773.057 L 511.443 737.739 M 504.599 687.089 L 482.562 725.457 M 511.443 737.739 L 529.761 705.846 M 535.076 655.012 L 504.599 687.089 M 529.761 705.846 L 555.095 679.182 M 586.01 659.257 L 572.267 631.042 M 555.095 679.182 L 586.01 659.257 M 641.243 671.813 L 643.51 640.511 M 599.312 642.588 L 604.504 673.539 M 699.506 706.842 L 716.979 680.772 M 677.555 660.685 L 666.734 690.144 M 807.141 744.517 L 818.984 715.453 M 776.313 703.75 L 771.671 734.788 M 932.248 758.804 L 936.89 727.766 M 892.663 726.473 L 895.484 757.73 M 1045.65 746.816 L 1043.93 715.48 M 1000.35 723.154 L 1009.43 753.195 M 1143.21 718.158 L 1136.4 687.522 M 1094.66 702.193 L 1108.51 730.354 M 768.997 896.876 L 718.559 905.144 M 720.653 897.667 L 769.838 883.767 M 769.838 883.767 L 742.61 868.16 M 738.031 932.701 L 687.336 926.197 M 687.787 925.289 L 738.75 929.17 M 692.677 966.723 L 647.465 942.886 M 652.087 936.7 L 699.811 954.995 M 644.59 1010.26 L 602.778 971.835 M 604.034 971.039 L 648.218 1006.71 M 590.184 1004.6 L 560.02 956.491 M 561.441 956.055 L 594.622 1002.14 M 539.211 984.765 L 522.839 930.388 M 524.325 930.344 L 544.142 983.561 M 498.391 952.439 L 495.328 895.735 M 495.328 895.735 L 500.37 952.298 M 476.781 855.563 L 447.099 865.755 M 446.761 864.713 L 476.781 855.563 M 468.248 812.147 L 468.667 767.903 M 468.667 767.903 L 478.022 724.657 M 468.663 668.645 L 448.18 714.94 M 478.022 724.657 L 495.924 684.194 M 521.637 648.185 L 498.081 627.447 M 495.924 684.194 L 521.637 648.185 M 572.267 631.042 L 558.034 603.072 M 515.482 630.496 L 535.076 655.012 M 643.51 640.511 L 645.23 609.175 M 594.662 611.551 L 599.312 642.588 M 716.979 680.772 L 733.994 654.402 M 688.888 631.419 L 677.555 660.685 M 818.984 715.453 L 830.317 686.187 M 781.497 672.797 L 776.313 703.75 M 936.89 727.766 L 940.99 696.651 M 890.388 695.172 L 892.663 726.473 M 1043.93 715.48 L 1041.65 684.179 M 991.796 692.959 L 1000.35 723.154 M 1136.4 687.522 L 1129.06 657.01 M 1081.3 673.796 L 1094.66 702.193 M 794.185 924.244 L 738.031 932.701 M 738.75 929.17 L 793.963 915.892 M 793.963 915.892 L 768.997 896.876 M 748.239 978.456 L 692.677 966.723 M 699.811 954.995 L 756.516 958.063 M 698.555 1001.33 L 648.072 975.328 M 649.072 974.228 L 701.116 996.951 M 633.323 1048.72 L 590.184 1004.6 M 594.622 1002.14 L 642.104 1041.55 M 569.15 1038.72 L 539.211 984.765 M 544.142 983.561 L 579.516 1034.12 M 514.739 1011.94 L 498.391 952.439 M 500.37 952.298 L 521.119 1010.41 M 472.302 973.292 L 468.319 911.717 M 468.319 911.717 L 474.754 973.084 M 447.099 865.755 L 417.625 876.538 M 436.998 815.04 L 405.812 818.555 M 416.564 873.262 L 446.761 864.713 M 437.478 764.419 L 406.225 761.557 M 405.697 817.308 L 436.998 815.04 M 418.151 705.82 L 406.364 760.313 M 406.364 760.313 L 437.478 764.419 M 466.801 667.865 L 438.659 653.975 M 448.18 714.94 L 466.801 667.865 M 498.081 627.447 L 474.117 607.183 M 441.717 652.556 L 468.663 668.645 M 558.034 603.072 L 543.245 575.391 M 496.382 605.595 L 515.482 630.496 M 645.23 609.175 L 646.324 577.81 M 590.631 580.427 L 594.662 611.551 M 733.994 654.402 L 750.48 627.697 M 700.803 602.385 L 688.888 631.419 M 830.317 686.187 L 841.064 656.701 M 787.296 641.954 L 781.497 672.797 M 940.99 696.651 L 944.468 665.461 M 888.738 663.832 L 890.388 695.172 M 1041.65 684.179 L 1038.75 652.929 M 983.845 662.599 L 991.796 692.959 M 1129.06 657.01 L 1121.11 626.65 M 1068.51 645.137 L 1081.3 673.796 M 1135.26 621.087 L 1196.52 628.509 M 1196.52 628.509 L 1186.37 598.81 M 756.516 958.063 L 816.99 945.805 M 816.99 945.805 L 794.185 924.244 M 758.161 1017.29 L 698.555 1001.33 M 701.116 996.951 L 762.055 1006.63 M 762.055 1006.63 L 748.239 978.456 M 697.858 1041.4 L 644.59 1010.26 M 648.218 1006.71 L 704.429 1032.16 M 609.375 1090.53 L 569.15 1038.72 M 579.516 1034.12 L 626.931 1079.45 M 541.585 1071.79 L 514.739 1011.94 M 521.119 1010.41 L 554.862 1066.66 M 486.495 1037.33 L 472.302 973.292 M 474.754 973.084 L 494.254 1035.71 M 440.996 927.157 L 414.018 943.192 M 417.625 876.538 L 388.395 887.964 M 413.341 941.994 L 440.996 927.157 M 405.812 818.555 L 374.71 822.753 M 386.187 881.147 L 416.564 873.262 M 406.225 761.557 L 374.917 759.382 M 374.353 818.89 L 405.697 817.308 M 580.407 45.3825 L 604.816 65.1096 M 612.794 0 L 580.407 45.3825 M 639.385 16.6686 L 612.794 0 M 438.659 653.975 L 410.219 640.705 M 388.329 696.044 L 418.151 705.82 M 474.117 607.183 L 449.714 587.449 M 415.131 635.88 L 441.717 652.556 M 543.245 575.391 L 527.853 548.041 M 477.831 580.28 L 496.382 605.595 M 646.73 546.429 L 587.284 549.223 M 646.324 577.81 L 646.73 546.429 M 587.284 549.223 L 590.631 580.427 M 750.48 627.697 L 766.376 600.637 M 713.351 573.619 L 700.803 602.385 M 841.064 656.701 L 851.162 626.987 M 793.771 611.245 L 787.296 641.954 M 944.468 665.461 L 947.261 634.202 M 887.775 632.463 L 888.738 663.832 M 1038.75 652.929 L 1035.17 621.751 M 976.561 632.072 L 983.845 662.599 M 1121.11 626.65 L 1112.49 596.472 M 1056.35 616.205 L 1068.51 645.137 M 1186.37 598.81 L 1175.58 569.342 M 1121.02 593.12 L 1135.26 621.087 M 758.882 1065.46 L 697.858 1041.4 M 704.429 1032.16 L 768.331 1046.98 M 768.331 1046.98 L 758.161 1017.29 M 685.815 1088.06 L 633.323 1048.72 M 642.104 1041.55 L 699.816 1072.73 M 575.242 1131.2 L 541.585 1071.79 M 554.862 1066.66 L 597.843 1119.72 M 507.447 1102.33 L 486.495 1037.33 M 494.254 1035.71 L 523.485 1097.43 M 447.434 992.437 L 423.02 1012.16 M 414.018 943.192 L 387.423 959.854 M 422.125 1011 L 447.434 992.437 M 388.395 887.964 L 359.441 900.07 M 385.347 956.181 L 413.341 941.994 M 374.71 822.753 L 343.715 827.676 M 355.634 888.32 L 386.187 881.147 M 374.917 759.382 L 343.566 757.938 M 342.98 819.739 L 374.353 818.89 M 604.816 65.1096 L 629.679 84.2608 M 665.58 33.954 L 639.385 16.6686 M 410.219 640.705 L 381.476 628.103 M 358.743 685.573 L 388.329 696.044 M 424.856 568.291 L 388.941 618.588 M 449.714 587.449 L 424.856 568.291 M 388.941 618.588 L 415.131 635.88 M 527.853 548.041 L 511.826 521.058 M 459.878 554.539 L 477.831 580.28 M 694.724 562.12 L 714.248 537.549 M 646.81 526.824 L 694.724 562.12 M 664.488 500.893 L 646.81 526.824 M 766.376 600.637 L 781.636 573.213 M 726.568 545.154 L 713.351 573.619 M 851.162 626.987 L 860.563 597.044 M 800.961 580.697 L 793.771 611.245 M 947.261 634.202 L 949.323 602.886 M 887.546 601.08 L 887.775 632.463 M 1035.17 621.751 L 1030.86 590.665 M 969.993 601.384 L 976.561 632.072 M 1112.49 596.472 L 1103.17 566.504 M 1044.87 586.996 L 1056.35 616.205 M 1175.58 569.342 L 1164.1 540.133 M 1107.44 564.827 L 1121.02 593.12 M 744.053 1123.72 L 685.815 1088.06 M 699.816 1072.73 L 763.847 1096.45 M 763.847 1096.45 L 758.882 1065.46 M 656.114 1140.32 L 609.375 1090.53 M 626.931 1079.45 L 682.411 1119.26 M 531.088 1167.85 L 507.447 1102.33 M 523.485 1097.43 L 558.414 1157.7 M 558.414 1157.7 L 575.242 1131.2 M 482.382 1125.86 L 463.586 1058.78 M 463.586 1058.78 L 485.612 1124.87 M 423.02 1012.16 L 399.092 1032.46 M 387.423 959.854 L 361.239 977.156 M 396.374 1028.93 L 422.125 1011 M 359.441 900.07 L 330.788 912.874 M 357.018 969.685 L 385.347 956.181 M 343.715 827.676 L 312.849 833.35 M 324.916 894.75 L 355.634 888.32 M 343.566 757.938 L 312.19 757.256 M 311.597 819.827 L 342.98 819.739 M 629.679 84.2608 L 654.999 102.803 M 691.347 51.8695 L 665.58 33.954 M 352.437 616.201 L 329.42 674.388 M 381.476 628.103 L 352.437 616.201 M 329.42 674.388 L 358.743 685.573 M 589.772 386.057 L 619.391 375.681 M 568.626 327.984 L 589.772 386.057 M 597.981 316.884 L 568.626 327.984 M 511.826 521.058 L 495.15 494.472 M 442.553 528.37 L 459.878 554.539 M 714.248 537.549 L 733.17 512.511 M 682.79 475.399 L 664.488 500.893 M 781.636 573.213 L 796.226 545.427 M 740.472 517.019 L 726.568 545.154 M 860.563 597.044 L 869.236 566.883 M 808.891 550.331 L 800.961 580.697 M 949.323 602.886 L 950.625 571.529 M 888.078 569.701 L 887.546 601.08 M 1030.86 590.665 L 1025.8 559.692 M 964.171 570.545 L 969.993 601.384 M 1103.17 566.504 L 1093.13 536.77 M 1034.1 557.518 L 1044.87 586.996 M 1164.1 540.133 L 1151.91 511.212 M 1094.55 536.213 L 1107.44 564.827 M 1151.91 511.212 L 1221.53 513.423 M 1221.53 513.423 L 1208.64 484.81 M 682.411 1119.26 L 742.175 1155.04 M 742.175 1155.04 L 744.053 1123.72 M 1278.06 468.864 L 1261.84 441.996 M 1208.67 474.989 L 1278.06 468.864 M 646.02 1170.03 L 656.114 1140.32 M 597.843 1119.72 L 646.02 1170.03 M 485.612 1124.87 L 509.253 1190.39 M 509.253 1190.39 L 531.088 1167.85 M 1229.51 346.854 L 1288.17 309.291 M 1288.17 309.291 L 1260.96 293.653 M 458.959 1146.75 L 482.382 1125.86 M 440.164 1079.67 L 417.261 1101.13 M 416.236 1099.98 L 440.164 1079.67 M 399.092 1032.46 L 375.67 1053.35 M 370.191 1046.24 L 396.374 1028.93 M 361.239 977.156 L 335.488 995.095 M 328.365 982.49 L 357.018 969.685 M 330.788 912.874 L 302.458 926.378 M 294.05 900.423 L 324.916 894.75 M 312.849 833.35 L 282.131 839.78 M 280.221 819.144 L 311.597 819.827 M 312.19 757.256 L 280.807 757.344 M 716.667 70.412 L 691.347 51.8695 M 654.999 102.803 L 680.766 120.719 M 620.712 168.059 L 609.735 229.662 M 651.539 173.943 L 620.712 168.059 M 609.735 229.662 L 640.698 234.788 M 627.6 306.509 L 597.981 316.884 M 619.391 375.681 L 648.747 364.582 M 425.877 501.784 L 442.553 528.37 M 495.15 494.472 L 477.826 468.303 M 701.712 450.361 L 682.79 475.399 M 733.17 512.511 L 751.472 487.017 M 755.062 489.233 L 740.472 517.019 M 796.226 545.427 L 810.129 517.291 M 817.563 520.17 L 808.891 550.331 M 869.236 566.883 L 877.165 536.517 M 889.38 538.344 L 888.078 569.701 M 950.625 571.529 L 951.157 540.15 M 959.108 539.572 L 964.171 570.545 M 1025.8 559.692 L 1019.97 528.853 M 1024.06 527.785 L 1034.1 557.518 M 1093.13 536.77 L 1082.36 507.292 M 1082.36 507.292 L 1094.55 536.213 M 1208.64 484.81 L 1139.02 482.598 M 1139.16 479.409 L 1208.67 474.989 M 1261.84 441.996 L 1192.45 448.122 M 1258.75 402.055 L 1236.64 379.778 M 1192.24 422.771 L 1258.75 402.055 M 1260.96 293.653 L 1203.09 329.906 M 1195.6 310.541 L 1245.37 263.786 M 1245.37 263.786 L 1215.42 254.425 M 417.261 1101.13 L 435.037 1167.06 M 435.037 1167.06 L 458.959 1146.75 M 1203.07 237.729 L 1238.71 179.48 M 1238.71 179.48 L 1207.35 178.371 M 391.822 1119.7 L 416.236 1099.98 M 375.67 1053.35 L 352.761 1074.8 M 343.595 1062.9 L 370.191 1046.24 M 335.488 995.095 L 310.18 1013.65 M 299.41 994.596 L 328.365 982.49 M 302.458 926.378 L 274.464 940.565 M 263.055 905.347 L 294.05 900.423 M 282.131 839.78 L 251.578 846.953 M 248.87 817.701 L 280.221 819.144 M 280.807 757.344 L 249.434 758.192 M 741.53 89.5633 L 716.667 70.412 M 680.766 120.719 L 706.961 138.004 M 682.215 180.573 L 651.539 173.943 M 640.698 234.788 L 671.775 239.161 M 657.462 296.855 L 627.6 306.509 M 648.747 364.582 L 677.824 352.775 M 409.85 474.801 L 425.877 501.784 M 477.826 468.303 L 459.872 442.562 M 721.236 425.79 L 701.712 450.361 M 751.472 487.017 L 769.151 461.086 M 770.322 461.809 L 755.062 489.233 M 810.129 517.291 L 823.346 488.826 M 826.964 490.227 L 817.563 520.17 M 877.165 536.517 L 884.355 505.968 M 891.442 507.028 L 889.38 538.344 M 951.157 540.15 L 950.928 508.767 M 954.797 508.486 L 959.108 539.572 M 1019.97 528.853 L 1013.41 498.165 M 1014.74 497.816 L 1024.06 527.785 M 1139.02 482.598 L 1070.88 478.083 M 1070.88 478.083 L 1139.16 479.409 M 1192.45 448.122 L 1124.27 451.782 M 1125.59 437.61 L 1192.24 422.771 M 1236.64 379.778 L 1171.25 399.443 M 1169.15 378.787 L 1229.51 346.854 M 1215.42 254.425 L 1166.69 298.339 M 1161.34 288.338 L 1203.07 237.729 M 1207.35 178.371 L 1171.96 233.605 M 1164.16 225.374 L 1191.03 165.532 M 1191.03 165.532 L 1159.93 169.781 M 366.955 1138.85 L 391.822 1119.7 M 352.761 1074.8 L 330.359 1096.78 M 316.618 1078.93 L 343.595 1062.9 M 310.18 1013.65 L 285.312 1032.8 M 270.18 1006.02 L 299.41 994.596 M 274.464 940.565 L 246.81 955.403 M 231.953 909.545 L 263.055 905.347 M 251.578 846.953 L 221.201 854.838 M 217.562 815.525 L 248.87 817.701 M 249.434 758.192 L 218.091 759.774 M 765.939 109.29 L 741.53 89.5633 M 706.961 138.004 L 733.552 154.673 M 712.727 187.918 L 682.215 180.573 M 671.775 239.161 L 702.946 242.807 M 687.542 287.902 L 657.462 296.855 M 677.824 352.775 L 706.618 340.29 M 394.458 447.451 L 409.85 474.801 M 441.322 417.248 L 394.458 447.451 M 459.872 442.562 L 441.322 417.248 M 741.329 401.682 L 721.236 425.79 M 769.151 461.086 L 786.218 434.749 M 786.218 434.749 L 770.322 461.809 M 823.346 488.826 L 835.895 460.06 M 837.062 460.512 L 826.964 490.227 M 884.355 505.968 L 890.83 475.26 M 894.236 475.769 L 891.442 507.028 M 950.928 508.767 L 949.965 477.398 M 951.214 477.308 L 954.797 508.486 M 1013.41 498.165 L 1006.12 467.638 M 1006.12 467.638 L 1014.74 497.816 M 1124.27 451.782 L 1058.72 449.151 M 1060.2 442.758 L 1125.59 437.61 M 1171.25 399.443 L 1106.94 412.369 M 1107.44 401.04 L 1169.15 378.787 M 1203.09 329.906 L 1144.49 359.375 M 1141.97 348.316 L 1195.6 310.541 M 1171.96 233.605 L 1131.12 279.861 M 1128.34 275.616 L 1164.16 225.374 M 1159.93 169.781 L 1132.78 225.188 M 1121.39 212.741 L 1138.7 153.514 M 1138.7 153.514 L 1109 163.658 M 341.673 1157.44 L 366.955 1138.85 M 330.359 1096.78 L 308.445 1119.25 M 289.295 1094.37 L 316.618 1078.93 M 285.312 1032.8 L 260.87 1052.48 M 240.707 1016.8 L 270.18 1006.02 M 246.81 955.403 L 219.487 970.843 M 200.767 913.06 L 231.953 909.545 M 221.201 854.838 L 191.004 863.387 M 186.309 812.664 L 217.562 815.525 M 218.091 759.774 L 186.789 762.043 M 789.909 129.548 L 765.939 109.29 M 733.552 154.673 L 760.502 170.754 M 743.07 195.93 L 712.727 187.918 M 702.946 242.807 L 734.19 245.769 M 717.81 279.61 L 687.542 287.902 M 706.618 340.29 L 735.131 327.178 M 705.143 355.45 L 740.739 398.362 M 730.855 337.455 L 705.143 355.45 M 740.739 398.362 L 763.175 376.418 M 761.945 378.019 L 741.329 401.682 M 802.704 408.044 L 761.945 378.019 M 835.895 460.06 L 847.809 431.026 M 847.809 431.026 L 837.062 460.512 M 890.83 475.26 L 896.63 444.417 M 897.714 444.579 L 894.236 475.769 M 949.965 477.398 L 948.315 446.058 M 948.315 446.058 L 951.214 477.308 M 1058.72 449.151 L 998.171 437.278 M 998.926 435.444 L 1060.2 442.758 M 1106.94 412.369 L 1045.3 415.136 M 1046.42 410.185 L 1107.44 401.04 M 1144.49 359.375 L 1085.77 378.339 M 1085.54 373.269 L 1141.97 348.316 M 1166.69 298.339 L 1115.07 332.152 M 1113.51 327.323 L 1161.34 288.338 M 1132.78 225.188 L 1097.52 269.704 M 1092.28 261.497 L 1121.39 212.741 M 1109 163.658 L 1090.34 217.293 M 1087.55 215.013 L 1101.51 159.966 M 1101.51 159.966 L 1073.05 173.209 M 308.445 1119.25 L 316.026 1175.53 M 316.026 1175.53 L 341.673 1157.44 M 1069.73 171.822 L 1067.35 115.084 M 1067.35 115.084 L 1043.88 135.912 M 261.67 1109.27 L 289.295 1094.37 M 260.87 1052.48 L 236.825 1072.65 M 211.025 1027 L 240.707 1016.8 M 219.487 970.843 L 192.478 986.825 M 169.517 915.953 L 200.767 913.06 M 191.004 863.387 L 160.984 872.537 M 155.12 809.18 L 186.309 812.664 M 186.789 762.043 L 155.539 764.935 M 813.47 150.279 L 789.909 129.548 M 760.502 170.754 L 787.768 186.295 M 773.248 204.546 L 743.07 195.93 M 734.19 245.769 L 765.486 248.107 M 748.238 271.923 L 717.81 279.61 M 735.131 327.178 L 763.377 313.499 M 756.921 319.976 L 730.855 337.455 M 785.169 354.031 L 756.921 319.976 M 763.175 376.418 L 802.704 408.044 M 819.719 381.673 L 785.169 354.031 M 859.143 401.761 L 819.719 381.673 M 896.63 444.417 L 901.813 413.464 M 901.813 413.464 L 897.714 444.579 M 998.171 437.278 L 946.041 414.757 M 946.041 414.757 L 998.926 435.444 M 1045.3 415.136 L 989.322 405.566 M 989.944 404.216 L 1046.42 410.185 M 1085.77 378.339 L 1029.26 383.909 M 1029.5 382.442 L 1085.54 373.269 M 1115.07 332.152 L 1062.04 352.465 M 1061.89 350.986 L 1113.51 327.323 M 1131.12 279.861 L 1085.35 313.472 M 1084.81 312.086 L 1128.34 275.616 M 1090.34 217.293 L 1060.98 259.131 M 1060.39 258.309 L 1087.55 215.013 M 1073.05 173.209 L 1056.89 221.696 M 1056.08 221.078 L 1069.73 171.822 M 1043.88 135.912 L 1042.26 186.997 M 1035.32 183.499 L 1031.18 132.557 M 1031.18 132.557 L 1010.61 156.261 M 233.789 1123.67 L 261.67 1109.27 M 236.825 1072.65 L 213.137 1093.24 M 181.169 1036.67 L 211.025 1027 M 192.478 986.825 L 165.751 1003.28 M 138.221 918.299 L 169.517 915.953 M 160.984 872.537 L 131.128 882.209 M 123.996 805.151 L 155.12 809.18 M 155.539 764.935 L 124.344 768.373 M 836.666 171.419 L 813.47 150.279 M 787.768 186.295 L 815.301 201.357 M 803.271 213.688 L 773.248 204.546 M 765.486 248.107 L 796.819 249.898 M 778.795 264.77 L 748.238 271.923 M 791.38 299.33 L 778.795 264.77 M 763.377 313.499 L 787.909 350.322 M 811.772 329.939 L 791.38 299.33 M 787.909 350.322 L 820.444 380.308 M 838.817 354.865 L 811.772 329.939 M 820.444 380.308 L 859.143 401.761 M 870.985 372.697 L 838.817 354.865 M 906.455 382.426 L 870.985 372.697 M 989.322 405.566 L 943.22 383.5 M 943.22 383.5 L 989.944 404.216 M 1029.26 383.909 L 978.96 374.817 M 978.96 374.817 L 1029.5 382.442 M 1062.04 352.465 L 1011.13 356.994 M 1011.13 356.994 L 1061.89 350.986 M 1085.35 313.472 L 1037.45 331.299 M 1037.45 331.299 L 1084.81 312.086 M 1097.52 269.704 L 1056.03 299.561 M 1053.87 295.216 L 1092.28 261.497 M 1056.89 221.696 L 1029.03 257.104 M 1029.03 257.104 L 1056.08 221.078 M 1042.26 186.997 L 1025.69 228.894 M 1022.33 226.636 L 1035.32 183.499 M 1010.61 156.261 L 1009.48 201.3 M 1008.93 201.045 L 1008.36 155.996 M 1008.36 155.996 L 989.062 180.744 M 213.137 1093.24 L 205.701 1137.67 M 205.701 1137.67 L 233.789 1123.67 M 985.154 179.641 L 969.41 137.429 M 969.41 137.429 L 959.597 167.239 M 151.175 1045.91 L 181.169 1036.67 M 165.751 1003.28 L 139.267 1020.11 M 106.894 920.19 L 138.221 918.299 M 131.128 882.209 L 101.416 892.315 M 92.9334 800.671 L 123.996 805.151 M 124.344 768.373 L 93.2026 772.264 M 859.552 192.894 L 836.666 171.419 M 815.301 201.357 L 843.05 216.018 M 833.157 223.265 L 803.271 213.688 M 796.819 249.898 L 828.174 251.233 M 791.293 256.02 L 798.736 292.039 M 822.6 253.826 L 791.293 256.02 M 828.349 281.646 L 822.6 253.826 M 798.736 292.039 L 815.437 324.809 M 841.248 306.956 L 828.349 281.646 M 815.437 324.809 L 840.206 351.997 M 860.379 327.956 L 841.248 306.956 M 840.206 351.997 L 871.283 371.67 M 884.382 343.15 L 860.379 327.956 M 871.283 371.67 L 906.455 382.426 M 992.398 331.815 L 967.549 345.581 M 1012.72 311.969 L 992.398 331.815 M 1056.03 299.561 L 1012.72 311.969 M 1011.49 310.519 L 1053.87 295.216 M 1060.98 259.131 L 1024.16 285.092 M 1024.16 285.092 L 1060.39 258.309 M 1025.69 228.894 L 997.659 256.252 M 996.026 255.663 L 1022.33 226.636 M 1009.48 201.3 L 992.578 236.636 M 992.578 236.636 L 1008.93 201.045 M 989.062 180.744 L 983.569 219.527 M 981.771 218.664 L 985.154 179.641 M 959.597 167.239 L 967.516 205.599 M 967.261 205.521 L 958.458 167.353 M 958.458 167.353 L 949.675 197.483 M 139.267 1020.11 L 121.08 1054.81 M 121.08 1054.81 L 151.175 1045.91 M 949.173 197.423 L 928.778 163.982 M 928.778 163.982 L 929.948 195.344 M 75.5484 921.728 L 106.894 920.19 M 101.416 892.315 L 71.8193 902.754 M 61.9237 795.841 L 92.9334 800.671 M 93.2026 772.264 L 62.1069 776.506 M 882.195 214.625 L 859.552 192.894 M 843.05 216.018 L 870.962 230.364 M 862.934 233.178 L 833.157 223.265 M 859.542 252.215 L 862.934 233.178 M 828.174 251.233 L 831.398 279.457 M 861.737 271.426 L 859.542 252.215 M 831.398 279.457 L 842.56 305.58 M 869.334 289.208 L 861.737 271.426 M 842.56 305.58 L 860.727 327.42 M 881.7 304.073 L 869.334 289.208 M 860.727 327.42 L 884.382 343.15 M 897.801 314.78 L 881.7 304.073 M 911.548 351.458 L 897.801 314.78 M 898.63 314.48 L 911.548 351.458 M 939.944 352.288 L 936.318 321.115 M 937.02 321.041 L 939.944 352.288 M 967.549 345.581 L 992.082 331.259 M 992.082 331.259 L 1011.49 310.519 M 985.722 292.61 L 972.509 306.727 M 994.346 275.303 L 985.722 292.61 M 997.659 256.252 L 994.346 275.303 M 962.908 246.864 L 964.653 256.496 M 983.569 219.527 L 962.908 246.864 M 962.187 246.783 L 981.771 218.664 M 967.516 205.599 L 957.294 238.306 M 957.294 238.306 L 967.261 205.521 M 949.675 197.483 L 950.026 231.748 M 950.026 231.748 L 949.408 197.487 M 949.408 197.487 L 941.092 227.748 M 941.092 227.748 L 949.173 197.423 M 929.948 195.344 L 931.36 226.696 M 71.8193 902.754 L 44.1915 923.025 M 44.1915 923.025 L 75.5484 921.728 M 27.848 800.057 L 61.8834 796.082 M 61.8834 796.082 L 30.9519 790.773 M 30.9519 790.773 L 61.9237 795.841 M 62.1069 776.506 L 31.0446 780.985 M 904.67 236.529 L 882.195 214.625 M 870.962 230.364 L 898.984 244.497 M 869.709 231.475 L 864.448 250.082 M 898.259 244.508 L 869.709 231.475 M 895.595 253.927 L 898.259 244.508 M 864.448 250.082 L 865.026 269.41 M 895.888 263.712 L 895.595 253.927 M 865.026 269.41 L 871.388 287.669 M 899.109 272.956 L 895.888 263.712 M 871.388 287.669 L 882.946 303.171 M 904.96 280.803 L 899.109 272.956 M 882.946 303.171 L 898.63 314.48 M 916.99 320.55 L 912.9 286.528 M 913.422 286.469 L 916.99 320.55 M 936.318 321.115 L 932.452 289.97 M 934.336 289.772 L 937.02 321.041 M 955.81 316.476 L 943.848 287.461 M 944.295 287.281 L 955.81 316.476 M 972.509 306.727 L 985.504 292.409 M 959.327 275.098 L 952.748 282.346 M 985.504 292.409 L 993.593 274.845 M 963.421 266.207 L 959.327 275.098 M 993.593 274.845 L 996.026 255.663 M 964.653 256.496 L 963.421 266.207 M 625.642 843.003 L 635.397 842.186 M 616.11 840.775 L 625.642 843.003 M 627.931 811.703 L 607.729 835.719 M 627.744 811.546 L 601.255 828.377 M 607.729 835.719 L 627.744 811.546 M 627.085 810.535 L 596.889 819.086 M 600.992 827.973 L 627.085 810.535 M 627.018 810.301 L 595.648 809.376 M 596.889 819.086 L 627.018 810.301 M 595.362 808.935 L 626.745 809.134 M 601.437 790.576 L 596.95 799.276 M 608.385 783.681 L 601.437 790.576 M 617.12 779.263 L 608.385 783.681 M 626.791 777.751 L 617.12 779.263 M 636.458 779.291 L 626.791 777.751 M 626.745 809.134 L 645.18 783.735 M 760.04 828.215 L 756.56 859.405 M 756.56 859.405 L 777.663 836.176 M 658.45 804.386 L 627.931 811.703 M 635.397 842.186 L 644.425 838.403 M 964.231 256.356 L 962.187 246.783 M 931.36 226.696 L 932.893 258.042 M 0 785.586 L 27.848 800.057 M 31.0446 780.985 L 0 785.586 M 927.06 258.521 L 904.67 236.529 M 898.984 244.497 L 896.029 253.829 M 896.029 253.829 L 896.093 263.618 M 896.093 263.618 L 899.17 272.91 M 899.17 272.91 L 904.96 280.803 M 912.9 286.528 L 927.06 258.521 M 922.668 289.684 L 928.226 258.797 M 928.226 258.797 L 913.422 286.469 M 932.452 289.97 L 928.466 258.841 M 928.466 258.841 L 922.668 289.684 M 943.848 287.461 L 931.773 258.494 M 931.773 258.494 L 934.336 289.772 M 932.893 258.042 L 944.295 287.281 M 952.748 282.346 L 959.27 275.047 M 959.27 275.047 L 963.226 266.093 M 963.226 266.093 L 964.231 256.356" />
<path fill="none" class="c" d=" M 810.129 517.291 L 755.062 489.233 M 823.346 488.826 L 770.322 461.809 M 835.895 460.06 L 786.218 434.749 M 802.704 408.044 L 786.218 434.749 M 847.809 431.026 L 802.704 408.044 M 819.719 381.673 L 802.704 408.044 M 847.809 431.026 L 859.143 401.761 M 847.809 431.026 L 896.63 444.417 M 901.813 413.464 L 859.143 401.761 M 870.985 372.697 L 859.143 401.761 M 901.813 413.464 L 906.455 382.426 M 901.813 413.464 L 946.041 414.757 M 946.041 414.757 L 943.22 383.5 M 943.22 383.5 L 906.455 382.426 M 946.041 414.757 L 989.322 405.566 M 911.548 351.458 L 906.455 382.426 M 943.22 383.5 L 939.944 352.288 M 939.944 352.288 L 911.548 351.458 M 943.22 383.5 L 978.96 374.817 M 978.96 374.817 L 967.549 345.581 M 967.549 345.581 L 939.944 352.288 M 978.96 374.817 L 1011.13 356.994 M 1011.13 356.994 L 992.398 331.815 M 1011.13 356.994 L 1037.45 331.299 M 1037.45 331.299 L 1012.72 311.969 M 1037.45 331.299 L 1056.03 299.561 M 916.99 320.55 L 911.548 351.458 M 936.318 321.115 L 916.99 320.55 M 967.549 345.581 L 955.81 316.476 M 955.81 316.476 L 937.02 321.041 M 992.082 331.259 L 972.509 306.727 M 972.509 306.727 L 955.81 316.476 M 1011.49 310.519 L 985.722 292.61 M 1011.49 310.519 L 1024.16 285.092 M 1024.16 285.092 L 994.346 275.303 M 1024.16 285.092 L 1029.03 257.104 M 1029.03 257.104 L 997.659 256.252 M 922.668 289.684 L 916.99 320.55 M 932.452 289.97 L 922.668 289.684 M 943.848 287.461 L 934.336 289.772 M 972.509 306.727 L 952.748 282.346 M 952.748 282.346 L 944.295 287.281 M 985.504 292.409 L 959.327 275.098 M 993.593 274.845 L 963.421 266.207 M 996.026 255.663 L 964.653 256.496 M 952.748 282.346 L 932.893 258.042 M 959.27 275.047 L 932.893 258.042 M 963.226 266.093 L 932.893 258.042 M 964.231 256.356 L 932.893 258.042 M 740.472 517.019 L 796.226 545.427 M 948.315 446.058 L 946.041 414.757 M 948.315 446.058 L 998.171 437.278 M 998.926 435.444 L 989.322 405.566 M 998.926 435.444 L 1045.3 415.136 M 989.944 404.216 L 978.96 374.817 M 989.944 404.216 L 1029.26 383.909 M 1029.5 382.442 L 1011.13 356.994 M 1029.5 382.442 L 1062.04 352.465 M 1061.89 350.986 L 1037.45 331.299 M 1061.89 350.986 L 1085.35 313.472 M 1084.81 312.086 L 1056.03 299.561 M 1084.81 312.086 L 1097.52 269.704 M 911.548 351.458 L 884.382 343.15 M 1053.87 295.216 L 1024.16 285.092 M 1053.87 295.216 L 1060.98 259.131 M 1060.39 258.309 L 1029.03 257.104 M 1029.03 257.104 L 1025.69 228.894 M 897.801 314.78 L 884.382 343.15 M 916.99 320.55 L 898.63 314.48 M 996.026 255.663 L 992.578 236.636 M 992.578 236.636 L 962.908 246.864 M 992.578 236.636 L 983.569 219.527 M 912.9 286.528 L 898.63 314.48 M 922.668 289.684 L 913.422 286.469 M 962.187 246.783 L 932.893 258.042 M 962.187 246.783 L 957.294 238.306 M 957.294 238.306 L 932.893 258.042 M 957.294 238.306 L 950.026 231.748 M 950.026 231.748 L 932.893 258.042 M 950.026 231.748 L 941.092 227.748 M 941.092 227.748 L 932.893 258.042 M 941.092 227.748 L 931.36 226.696 M 726.568 545.154 L 781.636 573.213 M 741.329 401.682 L 786.218 434.749 M 837.062 460.512 L 890.83 475.26 M 1006.12 467.638 L 998.171 437.278 M 1006.12 467.638 L 1058.72 449.151 M 1060.2 442.758 L 1045.3 415.136 M 1060.2 442.758 L 1106.94 412.369 M 785.169 354.031 L 763.175 376.418 M 897.714 444.579 L 948.315 446.058 M 1046.42 410.185 L 1029.26 383.909 M 1046.42 410.185 L 1085.77 378.339 M 1085.54 373.269 L 1062.04 352.465 M 1085.54 373.269 L 1115.07 332.152 M 1113.51 327.323 L 1085.35 313.472 M 1113.51 327.323 L 1131.12 279.861 M 1128.34 275.616 L 1097.52 269.704 M 838.817 354.865 L 820.444 380.308 M 1092.28 261.497 L 1060.98 259.131 M 1060.39 258.309 L 1056.89 221.696 M 1056.08 221.078 L 1025.69 228.894 M 1056.08 221.078 L 1042.26 186.997 M 884.382 343.15 L 871.283 371.67 M 1022.33 226.636 L 992.578 236.636 M 1022.33 226.636 L 1009.48 201.3 M 1008.93 201.045 L 983.569 219.527 M 1008.93 201.045 L 989.062 180.744 M 981.771 218.664 L 957.294 238.306 M 981.771 218.664 L 967.516 205.599 M 967.261 205.521 L 950.026 231.748 M 967.261 205.521 L 949.675 197.483 M 912.9 286.528 L 904.96 280.803 M 927.06 258.521 L 904.96 280.803 M 713.351 573.619 L 766.376 600.637 M 1070.88 478.083 L 1058.72 449.151 M 1070.88 478.083 L 1124.27 451.782 M 1125.59 437.61 L 1106.94 412.369 M 1125.59 437.61 L 1171.25 399.443 M 951.214 477.308 L 1006.12 467.638 M 1107.44 401.04 L 1085.77 378.339 M 1107.44 401.04 L 1144.49 359.375 M 1141.97 348.316 L 1115.07 332.152 M 1141.97 348.316 L 1166.69 298.339 M 1161.34 288.338 L 1131.12 279.861 M 1128.34 275.616 L 1132.78 225.188 M 1092.28 261.497 L 1090.34 217.293 M 1087.55 215.013 L 1056.89 221.696 M 1087.55 215.013 L 1073.05 173.209 M 1069.73 171.822 L 1042.26 186.997 M 1069.73 171.822 L 1043.88 135.912 M 1035.32 183.499 L 1009.48 201.3 M 1035.32 183.499 L 1010.61 156.261 M 985.154 179.641 L 967.516 205.599 M 985.154 179.641 L 959.597 167.239 M 881.7 304.073 L 860.727 327.42 M 949.173 197.423 L 929.948 195.344 M 904.96 280.803 L 882.946 303.171 M 927.06 258.521 L 899.17 272.91 M 700.803 602.385 L 750.48 627.697 M 1139.16 479.409 L 1124.27 451.782 M 1139.16 479.409 L 1192.45 448.122 M 1192.24 422.771 L 1171.25 399.443 M 1192.24 422.771 L 1236.64 379.778 M 721.236 425.79 L 769.151 461.086 M 826.964 490.227 L 884.355 505.968 M 1014.74 497.816 L 1070.88 478.083 M 1169.15 378.787 L 1144.49 359.375 M 1169.15 378.787 L 1203.09 329.906 M 1195.6 310.541 L 1166.69 298.339 M 1161.34 288.338 L 1171.96 233.605 M 1164.16 225.374 L 1132.78 225.188 M 1164.16 225.374 L 1159.93 169.781 M 894.236 475.769 L 949.965 477.398 M 1121.39 212.741 L 1090.34 217.293 M 1121.39 212.741 L 1109 163.658 M 730.855 337.455 L 763.175 376.418 M 811.772 329.939 L 787.909 350.322 M 860.379 327.956 L 840.206 351.997 M 927.06 258.521 L 896.093 263.618 M 688.888 631.419 L 733.994 654.402 M 1208.67 474.989 L 1192.45 448.122 M 1208.67 474.989 L 1261.84 441.996 M 1082.36 507.292 L 1070.88 478.083 M 1082.36 507.292 L 1139.02 482.598 M 1229.51 346.854 L 1203.09 329.906 M 1195.6 310.541 L 1215.42 254.425 M 1203.07 237.729 L 1171.96 233.605 M 1203.07 237.729 L 1207.35 178.371 M 954.797 508.486 L 1013.41 498.165 M 869.334 289.208 L 842.56 305.58 M 899.109 272.956 L 871.388 287.669 M 927.06 258.521 L 896.029 253.829 M 677.555 660.685 L 716.979 680.772 M 1151.91 511.212 L 1139.02 482.598 M 1151.91 511.212 L 1208.64 484.81 M 1229.51 346.854 L 1260.96 293.653 M 701.712 450.361 L 751.472 487.017 M 817.563 520.17 L 877.165 536.517 M 1024.06 527.785 L 1082.36 507.292 M 891.442 507.028 L 950.928 508.767 M 791.38 299.33 L 763.377 313.499 M 841.248 306.956 L 815.437 324.809 M 927.06 258.521 L 898.984 244.497 M 666.734 690.144 L 699.506 706.842 M 1094.55 536.213 L 1151.91 511.212 M 959.108 539.572 L 1019.97 528.853 M 861.737 271.426 L 831.398 279.457 M 895.888 263.712 L 865.026 269.41 M 904.67 236.529 L 898.984 244.497 M 656.344 719.758 L 681.655 732.655 M 1107.44 564.827 L 1164.1 540.133 M 682.79 475.399 L 733.17 512.511 M 808.891 550.331 L 869.236 566.883 M 1034.1 557.518 L 1093.13 536.77 M 889.38 538.344 L 951.157 540.15 M 748.238 271.923 L 763.377 313.499 M 828.349 281.646 L 798.736 292.039 M 646.287 749.486 L 663.515 758.265 M 1121.02 593.12 L 1175.58 569.342 M 664.488 500.893 L 714.248 537.549 M 800.961 580.697 L 860.563 597.044 M 1044.87 586.996 L 1103.17 566.504 M 964.171 570.545 L 1025.8 559.692 M 859.542 252.215 L 828.174 251.233 M 882.195 214.625 L 870.962 230.364 M 895.595 253.927 L 864.448 250.082 M 636.458 779.291 L 645.18 783.735 M 1135.26 621.087 L 1186.37 598.81 M 793.771 611.245 L 851.162 626.987 M 1056.35 616.205 L 1112.49 596.472 M 969.993 601.384 L 1030.86 590.665 M 888.078 569.701 L 950.625 571.529 M 717.81 279.61 L 735.131 327.178 M 636.458 779.291 L 626.745 809.134 M 787.296 641.954 L 841.064 656.701 M 1068.51 645.137 L 1121.11 626.65 M 976.561 632.072 L 1035.17 621.751 M 887.546 601.08 L 949.323 602.886 M 859.552 192.894 L 843.05 216.018 M 833.157 223.265 L 828.174 251.233 M 626.791 777.751 L 626.745 809.134 M 781.497 672.797 L 830.317 686.187 M 1081.3 673.796 L 1129.06 657.01 M 983.845 662.599 L 1038.75 652.929 M 887.775 632.463 L 947.261 634.202 M 687.542 287.902 L 706.618 340.29 M 617.12 779.263 L 626.745 809.134 M 776.313 703.75 L 818.984 715.453 M 1094.66 702.193 L 1136.4 687.522 M 991.796 692.959 L 1041.65 684.179 M 888.738 663.832 L 944.468 665.461 M 836.666 171.419 L 815.301 201.357 M 803.271 213.688 L 796.819 249.898 M 608.385 783.681 L 626.745 809.134 M 771.671 734.788 L 807.141 744.517 M 1108.51 730.354 L 1143.21 718.158 M 1000.35 723.154 L 1043.93 715.48 M 890.388 695.172 L 940.99 696.651 M 657.462 296.855 L 677.824 352.775 M 601.437 790.576 L 626.745 809.134 M 767.481 765.891 L 794.877 773.405 M 1009.43 753.195 L 1045.65 746.816 M 892.663 726.473 L 936.89 727.766 M 813.47 150.279 L 787.768 186.295 M 773.248 204.546 L 765.486 248.107 M 596.95 799.276 L 626.745 809.134 M 596.95 799.276 L 595.362 808.935 M 763.641 797.039 L 782.289 802.153 M 1018.95 783.101 L 1046.93 778.174 M 895.484 757.73 L 932.248 758.804 M 627.6 306.509 L 648.747 364.582 M 563.98 808.614 L 595.362 808.935 M 760.04 828.215 L 769.48 830.804 M 563.98 808.614 L 566.726 827.754 M 898.759 788.942 L 927.155 789.772 M 789.909 129.548 L 760.502 170.754 M 743.07 195.93 L 734.19 245.769 M 756.56 859.405 L 769.48 830.804 M 777.663 836.176 L 769.48 830.804 M 536.63 836.653 L 566.726 827.754 M 536.63 836.653 L 548.538 862.445 M 902.385 820.115 L 921.714 820.68 M 522.054 879.283 L 548.538 862.445 M 597.981 316.884 L 619.391 375.681 M 548.538 862.445 L 574.831 845.31 M 574.831 845.31 L 566.726 827.754 M 522.054 879.283 L 545.751 907.412 M 545.751 907.412 L 566.841 884.171 M 536.63 836.653 L 506.637 845.89 M 506.637 845.89 L 522.054 879.283 M 536.63 836.653 L 531.965 808.631 M 524.325 930.344 L 545.751 907.412 M 495.328 895.735 L 522.054 879.283 M 765.939 109.29 L 733.552 154.673 M 712.727 187.918 L 702.946 242.807 M 587.619 859.814 L 574.831 845.31 M 607.729 835.719 L 601.255 828.377 M 596.889 819.086 L 566.726 827.754 M 600.992 827.973 L 596.889 819.086 M 596.889 819.086 L 595.648 809.376 M 567.326 883.753 L 587.619 859.814 M 563.342 808.005 L 531.965 808.631 M 563.342 808.005 L 565.755 788.82 M 545.751 907.412 L 576.042 928.274 M 576.042 928.274 L 590.237 900.284 M 524.325 930.344 L 560.02 956.491 M 561.441 956.055 L 576.042 928.274 M 495.328 895.735 L 522.839 930.388 M 506.637 845.89 L 476.781 855.563 M 476.781 855.563 L 495.328 895.735 M 506.637 845.89 L 499.544 809.801 M 544.142 983.561 L 560.02 956.491 M 500.37 952.298 L 522.839 930.388 M 468.319 911.717 L 495.328 895.735 M 587.619 859.814 L 607.729 835.719 M 616.11 840.775 L 607.729 835.719 M 595.935 797.427 L 565.755 788.82 M 591.423 898.798 L 604.021 870.054 M 576.042 928.274 L 610.77 940.386 M 610.77 940.386 L 617.06 909.639 M 530.871 807.91 L 499.544 809.801 M 530.871 807.91 L 532.957 779.579 M 561.441 956.055 L 602.778 971.835 M 604.034 971.039 L 610.77 940.386 M 499.544 809.801 L 468.248 812.147 M 468.248 812.147 L 476.781 855.563 M 544.142 983.561 L 590.184 1004.6 M 594.622 1002.14 L 602.778 971.835 M 500.37 952.298 L 539.211 984.765 M 468.319 911.717 L 498.391 952.439 M 447.099 865.755 L 468.319 911.717 M 579.516 1034.12 L 590.184 1004.6 M 521.119 1010.41 L 539.211 984.765 M 474.754 973.084 L 498.391 952.439 M 440.996 927.157 L 468.319 911.717 M 741.53 89.5633 L 706.961 138.004 M 682.215 180.573 L 671.775 239.161 M 616.11 840.775 L 627.931 811.703 M 604.177 869.801 L 616.11 840.775 M 600.02 788.531 L 573.824 771.248 M 618.816 906.322 L 622.667 875.175 M 563.594 786.383 L 532.957 779.579 M 610.77 940.386 L 647.465 942.886 M 532.957 779.579 L 502.245 773.12 M 604.034 971.039 L 648.072 975.328 M 649.072 974.228 L 647.465 942.886 M 501.177 773.057 L 470.212 767.944 M 649.072 974.228 L 692.677 966.723 M 594.622 1002.14 L 644.59 1010.26 M 648.218 1006.71 L 648.072 975.328 M 468.248 812.147 L 436.998 815.04 M 436.998 815.04 L 446.761 864.713 M 648.218 1006.71 L 698.555 1001.33 M 701.116 996.951 L 692.677 966.723 M 579.516 1034.12 L 633.323 1048.72 M 642.104 1041.55 L 644.59 1010.26 M 521.119 1010.41 L 569.15 1038.72 M 474.754 973.084 L 514.739 1011.94 M 440.996 927.157 L 472.302 973.292 M 417.625 876.538 L 440.996 927.157 M 642.104 1041.55 L 697.858 1041.4 M 704.429 1032.16 L 698.555 1001.33 M 626.931 1079.45 L 633.323 1048.72 M 554.862 1066.66 L 569.15 1038.72 M 494.254 1035.71 L 514.739 1011.94 M 447.434 992.437 L 472.302 973.292 M 626.931 1079.45 L 685.815 1088.06 M 699.816 1072.73 L 697.858 1041.4 M 682.411 1119.26 L 685.815 1088.06 M 625.642 843.003 L 627.931 811.703 M 622.971 874.348 L 625.625 843.077 M 606.591 781.275 L 586.804 756.915 M 618.816 906.322 L 647.217 905.696 M 647.217 905.696 L 641.999 874.75 M 570.47 768.31 L 543.059 753.028 M 647.217 905.696 L 674.253 896.974 M 652.087 936.7 L 647.217 905.696 M 542.458 752.807 L 514.547 738.459 M 652.087 936.7 L 687.336 926.197 M 687.787 925.289 L 674.253 896.974 M 511.443 737.739 L 482.562 725.457 M 699.811 954.995 L 687.336 926.197 M 468.667 767.903 L 437.478 764.419 M 437.478 764.419 L 436.998 815.04 M 701.116 996.951 L 748.239 978.456 M 405.812 818.555 L 416.564 873.262 M 704.429 1032.16 L 758.161 1017.29 M 554.862 1066.66 L 609.375 1090.53 M 494.254 1035.71 L 541.585 1071.79 M 447.434 992.437 L 486.495 1037.33 M 414.018 943.192 L 447.434 992.437 M 388.395 887.964 L 413.341 941.994 M 699.816 1072.73 L 758.882 1065.46 M 597.843 1119.72 L 609.375 1090.53 M 523.485 1097.43 L 541.585 1071.79 M 463.586 1058.78 L 486.495 1037.33 M 682.411 1119.26 L 744.053 1123.72 M 597.843 1119.72 L 656.114 1140.32 M 716.667 70.412 L 680.766 120.719 M 651.539 173.943 L 640.698 234.788 M 635.397 842.186 L 627.931 811.703 M 644.425 838.403 L 627.931 811.703 M 642.262 873.033 L 635.391 842.411 M 615.04 776.331 L 603.493 747.149 M 642.262 873.033 L 660.266 865.979 M 660.266 865.979 L 644.505 838.84 M 582.228 752.96 L 560.333 730.475 M 675.819 893.238 L 660.266 865.979 M 558.7 729.5 L 535.575 708.283 M 687.787 925.289 L 718.559 905.144 M 529.761 705.846 L 504.599 687.089 M 699.811 954.995 L 738.031 932.701 M 738.75 929.17 L 718.559 905.144 M 478.022 724.657 L 448.18 714.94 M 448.18 714.94 L 437.478 764.419 M 756.516 958.063 L 738.031 932.701 M 406.225 761.557 L 405.697 817.308 M 374.71 822.753 L 386.187 881.147 M 523.485 1097.43 L 575.242 1131.2 M 463.586 1058.78 L 507.447 1102.33 M 423.02 1012.16 L 463.586 1058.78 M 387.423 959.854 L 422.125 1011 M 359.441 900.07 L 385.347 956.181 M 485.612 1124.87 L 507.447 1102.33 M 440.164 1079.67 L 463.586 1058.78 M 644.425 838.403 L 651.849 832.023 M 651.849 832.023 L 627.931 811.703 M 624.584 774.156 L 622.346 742.853 M 660.266 865.979 L 675.315 853.837 M 675.687 852.435 L 651.849 832.023 M 597.885 741.613 L 583.336 713.806 M 675.819 893.238 L 698.199 875.741 M 698.345 875.158 L 675.315 853.837 M 580.526 711.317 L 563.833 684.741 M 720.653 897.667 L 698.199 875.741 M 555.095 679.182 L 535.076 655.012 M 738.75 929.17 L 768.997 896.876 M 495.924 684.194 L 468.663 668.645 M 756.516 958.063 L 794.185 924.244 M 448.18 714.94 L 418.151 705.82 M 374.917 759.382 L 374.353 818.89 M 343.715 827.676 L 355.634 888.32 M 485.612 1124.87 L 531.088 1167.85 M 440.164 1079.67 L 482.382 1125.86 M 399.092 1032.46 L 440.164 1079.67 M 361.239 977.156 L 396.374 1028.93 M 330.788 912.874 L 357.018 969.685 M 417.261 1101.13 L 458.959 1146.75 M 375.67 1053.35 L 416.236 1099.98 M 335.488 995.095 L 370.191 1046.24 M 302.458 926.378 L 328.365 982.49 M 691.347 51.8695 L 654.999 102.803 M 352.761 1074.8 L 391.822 1119.7 M 310.18 1013.65 L 343.595 1062.9 M 274.464 940.565 L 299.41 994.596 M 330.359 1096.78 L 366.955 1138.85 M 285.312 1032.8 L 316.618 1078.93 M 246.81 955.403 L 270.18 1006.02 M 308.445 1119.25 L 341.673 1157.44 M 260.87 1052.48 L 289.295 1094.37 M 219.487 970.843 L 240.707 1016.8 M 236.825 1072.65 L 261.67 1109.27 M 192.478 986.825 L 211.025 1027 M 213.137 1093.24 L 233.789 1123.67 M 165.751 1003.28 L 181.169 1036.67 M 139.267 1020.11 L 151.175 1045.91 M 651.849 832.023 L 656.946 823.665 M 656.946 823.665 L 627.931 811.703 M 675.687 852.435 L 685.883 836.005 M 685.913 835.741 L 656.946 823.665 M 616.134 735.219 L 610.145 704.412 M 698.345 875.158 L 714.428 851.742 M 714.661 848.527 L 685.883 836.005 M 720.653 897.667 L 742.61 868.16 M 572.267 631.042 L 535.076 655.012 M 498.081 627.447 L 468.663 668.645 M 438.659 653.975 L 418.151 705.82 M 343.566 757.938 L 342.98 819.739 M 312.849 833.35 L 324.916 894.75 M 665.58 33.954 L 629.679 84.2608 M 282.131 839.78 L 294.05 900.423 M 251.578 846.953 L 263.055 905.347 M 221.201 854.838 L 231.953 909.545 M 191.004 863.387 L 200.767 913.06 M 160.984 872.537 L 169.517 915.953 M 131.128 882.209 L 138.221 918.299 M 101.416 892.315 L 106.894 920.19 M 71.8193 902.754 L 75.5484 921.728 M 656.946 823.665 L 659.22 814.145 M 659.22 814.145 L 627.931 811.703 M 685.913 835.741 L 690.552 816.969 M 690.499 816.708 L 659.22 814.145 M 638.522 703.079 L 610.145 704.412 M 714.661 848.527 L 722.111 821.113 M 558.034 603.072 L 515.482 630.496 M 474.117 607.183 L 441.717 652.556 M 410.219 640.705 L 388.329 696.044 M 639.385 16.6686 L 604.816 65.1096 M 312.19 757.256 L 311.597 819.827 M 280.807 757.344 L 280.221 819.144 M 249.434 758.192 L 248.87 817.701 M 218.091 759.774 L 217.562 815.525 M 186.789 762.043 L 186.309 812.664 M 155.539 764.935 L 155.12 809.18 M 124.344 768.373 L 123.996 805.151 M 93.2026 772.264 L 92.9334 800.671 M 62.1069 776.506 L 61.9237 795.841 M 31.0446 780.985 L 30.9519 790.773 M 659.22 814.145 L 658.45 804.386 M 0 785.586 L 30.9519 790.773 M 690.499 816.708 L 689.128 797.42 M 641.243 671.813 L 604.504 673.539 M 543.245 575.391 L 496.382 605.595 M 449.714 587.449 L 415.131 635.88 M 381.476 628.103 L 358.743 685.573 M 27.848 800.057 L 30.9519 790.773 M 643.51 640.511 L 599.312 642.588 M 527.853 548.041 L 477.831 580.28 M 645.23 609.175 L 594.662 611.551 M 511.826 521.058 L 459.878 554.539 M 646.324 577.81 L 590.631 580.427 M 495.15 494.472 L 442.553 528.37 M 477.826 468.303 L 425.877 501.784 M 459.872 442.562 L 409.85 474.801" />
</svg>
