<?xml version="1.0"?>
<svg width="827" height="966" version="1.1" xmlns="http://www.w3.org/2000/svg" >
<defs>
<style type="text/css"><![CDATA[
.m {stroke:rgb(255,0,0);stroke-width:1.207500;}
.v {stroke:rgb(0,0,255);stroke-width:1.207500;}
.b {stroke:rgb(0,0,0);stroke-width:2.415000;fill:white}
.n {stroke:rgb(128,128,128);stroke-width:1.207500}
.t {stroke:rgb(0,128,0);stroke-width:1.207500;}
.c {stroke:rgb(128,128,128);stroke-width:1.207500;stroke-dasharray:8.270000, 8.270000;}
]]></style>
</defs>
<path fill="none" style="stroke:black;stroke-width:2.415000;" d=" M 446.792 449.143 L 452.222 386.806 M 452.222 386.806 L 447.054 417.761 M 444.329 480.43 L 466.128 389.632 M 466.128 389.632 L 446.792 449.143 M 439.679 511.467 L 486.025 396.878 M 486.025 396.878 L 444.329 480.43 M 432.863 542.102 L 510.653 410.268 M 510.653 410.268 L 439.679 511.467 M 423.915 572.183 L 538.358 431.187 M 538.358 431.187 L 432.863 542.102 M 412.88 601.563 L 567.183 460.597 M 567.183 460.597 L 423.915 572.183 M 399.812 630.096 L 594.978 498.991 M 594.978 498.991 L 412.88 601.563 M 384.774 657.643 L 619.5 546.335 M 619.5 546.335 L 399.812 630.096 M 638.543 602.086 L 384.774 657.643 M 367.842 684.067 L 355.252 712.814 M 355.252 712.814 L 347.314 743.177 M 347.314 743.177 L 344.224 774.408 M 344.224 774.408 L 346.057 805.738 M 346.057 805.738 L 352.768 836.396 M 352.768 836.396 L 364.194 865.626 M 364.194 865.626 L 380.05 892.709 M 380.05 892.709 L 399.949 916.978 M 399.949 916.978 L 423.399 937.836 M 423.399 937.836 L 449.823 954.768 M 449.823 954.768 L 478.571 967.358 M 478.571 967.358 L 638.543 602.086 M 827.332 272.75 L 813.789 244.439 M 445.114 386.437 L 827.332 272.75 M 813.789 244.439 L 795.984 218.594 M 795.984 218.594 L 774.355 195.854 M 774.355 195.854 L 749.435 176.777 M 749.435 176.777 L 721.838 161.833 M 721.838 161.833 L 692.243 151.39 M 692.243 151.39 L 661.378 145.706 M 661.378 145.706 L 630.004 144.92 M 630.004 144.92 L 598.894 149.051 M 598.894 149.051 L 568.812 157.999 M 568.812 157.999 L 540.501 171.542 M 540.501 171.542 L 514.657 189.347 M 514.657 189.347 L 491.917 210.976 M 491.917 210.976 L 472.84 235.895 M 472.84 235.895 L 457.896 263.493 M 457.896 263.493 L 447.453 293.088 M 447.453 293.088 L 441.769 323.953 M 441.769 323.953 L 440.983 355.327 M 447.054 417.761 L 445.114 386.437 M 440.983 355.327 L 434.679 324.583 M 434.679 324.583 L 426.235 294.356 M 426.235 294.356 L 415.693 264.796 M 415.693 264.796 L 403.102 236.049 M 403.102 236.049 L 388.527 208.255 M 388.527 208.255 L 372.039 181.552 M 372.039 181.552 L 353.718 156.071 M 353.718 156.071 L 333.655 131.937 M 333.655 131.937 L 311.949 109.27 M 311.949 109.27 L 288.707 88.1816 M 288.707 88.1816 L 264.043 68.7748 M 264.043 68.7748 L 238.079 51.1455 M 238.079 51.1455 L 210.942 35.3806 M 210.942 35.3806 L 182.767 21.5576 M 182.767 21.5576 L 153.691 9.74465 M 153.691 9.74465 L 123.859 0 M 123.859 0 L 0 429.72 M 23.8486 876.297 L 55.1097 873.525 M 0 429.72 L 23.8486 876.297 M 55.1097 873.525 L 86.0992 868.567 M 86.0992 868.567 L 116.665 861.448 M 116.665 861.448 L 146.656 852.203 M 146.656 852.203 L 175.925 840.877 M 175.925 840.877 L 204.327 827.527 M 204.327 827.527 L 231.723 812.217 M 231.723 812.217 L 257.978 795.024 M 257.978 795.024 L 282.963 776.032 M 282.963 776.032 L 306.554 755.334 M 306.554 755.334 L 328.635 733.033 M 328.635 733.033 L 349.098 709.238 M 349.098 709.238 L 367.842 684.067" />
<path fill="none" class="c" d=" M 444.329 480.43 L 446.792 449.143 M 0 429.72 L 444.329 480.43 M 446.792 449.143 L 0 429.72 M 446.792 449.143 L 447.054 417.761 M 439.679 511.467 L 444.329 480.43 M 0 429.72 L 439.679 511.467 M 447.054 417.761 L 0 429.72 M 445.114 386.437 L 0 429.72 M 445.114 386.437 L 440.983 355.327 M 440.983 355.327 L 0 429.72 M 434.679 324.583 L 0 429.72 M 426.235 294.356 L 0 429.72 M 415.693 264.796 L 0 429.72 M 403.102 236.049 L 0 429.72 M 388.527 208.255 L 0 429.72 M 372.039 181.552 L 0 429.72 M 353.718 156.071 L 0 429.72 M 333.655 131.937 L 0 429.72 M 311.949 109.27 L 0 429.72 M 288.707 88.1816 L 0 429.72 M 264.043 68.7748 L 0 429.72 M 238.079 51.1455 L 0 429.72 M 210.942 35.3806 L 0 429.72 M 182.767 21.5576 L 0 429.72 M 153.691 9.74465 L 0 429.72 M 432.863 542.102 L 439.679 511.467 M 0 429.72 L 432.863 542.102 M 423.915 572.183 L 432.863 542.102 M 0 429.72 L 423.915 572.183 M 412.88 601.563 L 423.915 572.183 M 0 429.72 L 412.88 601.563 M 399.812 630.096 L 412.88 601.563 M 0 429.72 L 399.812 630.096 M 384.774 657.643 L 399.812 630.096 M 0 429.72 L 384.774 657.643 M 367.842 684.067 L 384.774 657.643 M 0 429.72 L 367.842 684.067 M 0 429.72 L 349.098 709.238 M 0 429.72 L 328.635 733.033 M 0 429.72 L 306.554 755.334 M 0 429.72 L 282.963 776.032 M 0 429.72 L 257.978 795.024 M 0 429.72 L 231.723 812.217 M 0 429.72 L 204.327 827.527 M 0 429.72 L 175.925 840.877 M 0 429.72 L 146.656 852.203 M 0 429.72 L 116.665 861.448 M 0 429.72 L 86.0992 868.567 M 0 429.72 L 55.1097 873.525" />
</svg>
