<?xml version="1.0"?>
<svg width="827" height="966" version="1.1" xmlns="http://www.w3.org/2000/svg" >
<defs>
<style type="text/css"><![CDATA[
.m {stroke:rgb(255,0,0);stroke-width:1.207500;}
.v {stroke:rgb(0,0,255);stroke-width:1.207500;}
.b {stroke:rgb(0,0,0);stroke-width:2.415000;fill:white}
.n {stroke:rgb(128,128,128);stroke-width:1.207500}
.t {stroke:rgb(0,128,0);stroke-width:1.207500;}
.c {stroke:rgb(128,128,128);stroke-width:1.207500;stroke-dasharray:8.270000, 8.270000;}
]]></style>
</defs>
<path fill="none" style="stroke:black;stroke-width:2.415000;" d=" M 446.792 449.143 L 452.222 386.806 M 452.222 386.806 L 447.054 417.761 M 444.329 480.43 L 466.128 389.632 M 466.128 389.632 L 446.792 449.143 M 439.679 511.467 L 486.025 396.878 M 486.025 396.878 L 444.329 480.43 M 432.863 542.102 L 510.653 410.268 M 510.653 410.268 L 439.679 511.467 M 423.915 572.183 L 538.358 431.187 M 538.358 431.187 L 432.863 542.102 M 412.88 601.563 L 567.183 460.597 M 567.183 460.597 L 423.915 572.183 M 399.812 630.096 L 594.978 498.991 M 594.978 498.991 L 412.88 601.563 M 384.774 657.643 L 619.5 546.335 M 619.5 546.335 L 399.812 630.096 M 638.543 602.086 L 384.774 657.643 M 367.842 684.067 L 355.252 712.814 M 355.252 712.814 L 347.314 743.177 M 347.314 743.177 L 344.224 774.408 M 344.224 774.408 L 346.057 805.738 M 346.057 805.738 L 352.768 836.396 M 352.768 836.396 L 364.194 865.626 M 364.194 865.626 L 380.05 892.709 M 380.05 892.709 L 399.949 916.978 M 399.949 916.978 L 423.399 937.836 M 423.399 937.836 L 449.823 954.768 M 449.823 954.768 L 478.571 967.358 M 478.571 967.358 L 638.543 602.086 M 827.332 272.75 L 813.789 244.439 M 445.114 386.437 L 827.332 272.75 M 813.789 244.439 L 795.984 218.594 M 795.984 218.594 L 774.355 195.854 M 774.355 195.854 L 749.435 176.777 M 749.435 176.777 L 721.838 161.833 M 721.838 161.833 L 692.243 151.39 M 692.243 151.39 L 661.378 145.706 M 661.378 145.706 L 630.004 144.92 M 630.004 144.92 L 598.894 149.051 M 598.894 149.051 L 568.812 157.999 M 568.812 157.999 L 540.501 171.542 M 540.501 171.542 L 514.657 189.347 M 514.657 189.347 L 491.917 210.976 M 491.917 210.976 L 472.84 235.895 M 472.84 235.895 L 457.896 263.493 M 457.896 263.493 L 447.453 293.088 M 447.453 293.088 L 441.769 323.953 M 441.769 323.953 L 440.983 355.327 M 447.054 417.761 L 445.114 386.437 M 440.983 355.327 L 434.679 324.583 M 434.679 324.583 L 426.235 294.356 M 426.235 294.356 L 415.693 264.796 M 415.693 264.796 L 403.102 236.049 M 403.102 236.049 L 388.527 208.255 M 388.527 208.255 L 372.039 181.552 M 372.039 181.552 L 353.718 156.071 M 353.718 156.071 L 333.655 131.937 M 333.655 131.937 L 311.949 109.27 M 311.949 109.27 L 288.707 88.1816 M 288.707 88.1816 L 264.043 68.7748 M 264.043 68.7748 L 238.079 51.1455 M 238.079 51.1455 L 210.942 35.3806 M 210.942 35.3806 L 182.767 21.5576 M 182.767 21.5576 L 153.691 9.74465 M 153.691 9.74465 L 123.859 0 M 123.859 0 L 0 429.72 M 23.8486 876.297 L 55.1097 873.525 M 0 429.72 L 23.8486 876.297 M 55.1097 873.525 L 86.0992 868.567 M 86.0992 868.567 L 116.665 861.448 M 116.665 861.448 L 146.656 852.203 M 146.656 852.203 L 175.925 840.877 M 175.925 840.877 L 204.327 827.527 M 204.327 827.527 L 231.723 812.217 M 231.723 812.217 L 257.978 795.024 M 257.978 795.024 L 282.963 776.032 M 282.963 776.032 L 306.554 755.334 M 306.554 755.334 L 328.635 733.033 M 328.635 733.033 L 349.098 709.238 M 349.098 709.238 L 367.842 684.067" />
<path fill="none" class="c" d=" M 444.329 480.43 L 446.792 449.143 M 0 429.72 L 444.329 480.43 M 446.792 449.143 L 0 429.72 M 446.792 449.143 L 447.054 417.761 M 439.679 511.467 L 444.329 480.43 M 0 429.72 L 439.679 511.467 M 447.054 417.761 L 0 429.72 M 445.114 386.437 L 0 429.72 M 445.114 386.437 L 440.983 355.327 M 440.983 355.327 L 0 429.72 M 434.679 324.583 L 0 429.72 M 426.235 294.356 L 0 429.72 M 415.693 264.796 L 0 429.72 M 403.102 236.049 L 0 429.72 M 388.527 208.255 L 0 429.72 M 372.039 181.552 L 0 429.72 M 353.718 156.071 L 0 429.72 M 333.655 131.937 L 0 429.72 M 311.949 109.27 L 0 429.72 M 288.707 88.1816 L 0 429.72 M 264.043 68.7748 L 0 429.72 M 238.079 51.1455 L 0 429.72 M 210.942 35.3806 L 0 429.72 M 182.767 21.5576 L 0 429.72 M 153.691 9.74465 L 0 429.72 M 432.863 542.102 L 439.679 511.467 M 0 429.72 L 432.863 542.102 M 423.915 572.183 L 432.863 542.102 M 0 429.72 L 423.915 572.183 M 412.88 601.563 L 423.915 572.183 M 0 429.72 L 412.88 601.563 M 399.812 630.096 L 412.88 601.563 M 0 429.72 L 399.812 630.096 M 384.774 657.643 L 399.812 630.096 M 0 429.72 L 384.774 657.643 M 367.842 684.067 L 384.774 657.643 M 0 429.72 L 367.842 684.067 M 0 429.72 L 349.098 709.238 M 0 429.72 L 328.635 733.033 M 0 429.72 L 306.554 755.334 M 0 429.72 L 282.963 776.032 M 0 429.72 L 257.978 795.024 M 0 429.72 L 231.723 812.217 M 0 429.72 L 204.327 827.527 M 0 429.72 L 175.925 840.877 M 0 429.72 L 146.656 852.203 M 0 429.72 L 116.665 861.448 M 0 429.72 L 86.0992 868.567 M 0 429.72 L 55.1097 873.525" />
<line x1="452.416310" y1="439.735183" x2="297.040262" y2="453.097722" class="t" />
<line x1="294.669304" y1="473.872396" x2="297.040262" y2="453.097722" class="t" />
<line x1="297.948438" y1="432.207975" x2="297.040262" y2="453.097722" class="t" />
<line x1="448.689134" y1="417.903252" x2="297.948438" y2="432.207975" class="t" />
<line x1="456.677656" y1="462.925213" x2="294.669304" y2="473.872396" class="t" />
<line x1="290.847207" y1="494.429694" x2="294.669304" y2="473.872396" class="t" />
<line x1="297.389306" y1="411.305912" x2="297.948438" y2="432.207975" class="t" />
<line x1="295.365614" y1="390.494465" x2="297.389306" y2="411.305912" class="t" />
<line x1="442.621864" y1="355.238841" x2="295.365614" y2="390.494465" class="t" />
<line x1="291.887363" y1="369.876283" x2="295.365614" y2="390.494465" class="t" />
<line x1="286.971639" y1="349.552788" x2="291.887363" y2="369.876283" class="t" />
<line x1="280.642679" y1="329.624061" x2="286.971639" y2="349.552788" class="t" />
<line x1="272.931667" y1="310.188295" x2="280.642679" y2="329.624061" class="t" />
<line x1="263.876522" y1="291.341124" x2="272.931667" y2="310.188295" class="t" />
<line x1="253.521903" y1="273.175476" x2="263.876522" y2="291.341124" class="t" />
<line x1="241.918777" y1="255.780745" x2="253.521903" y2="273.175476" class="t" />
<line x1="229.124268" y1="239.242613" x2="241.918777" y2="255.780745" class="t" />
<line x1="215.201389" y1="223.642531" x2="229.124268" y2="239.242613" class="t" />
<line x1="200.218686" y1="209.057256" x2="215.201389" y2="223.642531" class="t" />
<line x1="184.250046" y1="195.558729" x2="200.218686" y2="209.057256" class="t" />
<line x1="167.374003" y1="183.213367" x2="184.250046" y2="195.558729" class="t" />
<line x1="149.673685" y1="172.081943" x2="167.374003" y2="183.213367" class="t" />
<line x1="131.236302" y1="162.219304" x2="149.673685" y2="172.081943" class="t" />
<line x1="112.152561" y1="153.673996" x2="131.236302" y2="162.219304" class="t" />
<line x1="92.516562" y1="146.488143" x2="112.152561" y2="153.673996" class="t" />
<line x1="461.064872" y1="487.945782" x2="290.847207" y2="494.429694" class="t" />
<line x1="285.592745" y1="514.668264" x2="290.847207" y2="494.429694" class="t" />
<line x1="444.778722" y1="334.492735" x2="442.621864" y2="355.238841" class="t" />
<line x1="465.045502" y1="515.157217" x2="285.592745" y2="514.668264" class="t" />
<line x1="278.931845" y1="534.488479" x2="285.592745" y2="514.668264" class="t" />
<line x1="450.154416" y1="314.339419" x2="444.778722" y2="334.492735" class="t" />
<line x1="467.992909" y1="544.780815" x2="278.931845" y2="534.488479" class="t" />
<line x1="270.897295" y1="553.792783" x2="278.931845" y2="534.488479" class="t" />
<line x1="458.616564" y1="295.275185" x2="450.154416" y2="314.339419" class="t" />
<line x1="469.223435" y1="576.883058" x2="270.897295" y2="553.792783" class="t" />
<line x1="261.528651" y1="572.486081" x2="270.897295" y2="553.792783" class="t" />
<line x1="469.956883" y1="277.769392" x2="458.616564" y2="295.275185" class="t" />
<line x1="468.028528" y1="611.357870" x2="261.528651" y2="572.486081" class="t" />
<line x1="250.872107" y1="590.476272" x2="261.528651" y2="572.486081" class="t" />
<line x1="483.896051" y1="262.253179" x2="469.956883" y2="277.769392" class="t" />
<line x1="463.719892" y1="647.931529" x2="250.872107" y2="590.476272" class="t" />
<line x1="238.980077" y1="607.674760" x2="250.872107" y2="590.476272" class="t" />
<line x1="453.879160" y1="666.322080" x2="463.719892" y2="647.931529" class="t" />
<line x1="447.036476" y1="686.025650" x2="453.879160" y2="666.322080" class="t" />
<line x1="443.360322" y1="706.557072" x2="447.036476" y2="686.025650" class="t" />
<line x1="442.941217" y1="727.410785" x2="443.360322" y2="706.557072" class="t" />
<line x1="445.789491" y1="748.073305" x2="442.941217" y2="727.410785" class="t" />
<line x1="451.835117" y1="768.035859" x2="445.789491" y2="748.073305" class="t" />
<line x1="460.929131" y1="786.806897" x2="451.835117" y2="768.035859" class="t" />
<line x1="472.847616" y1="803.924255" x2="460.929131" y2="786.806897" class="t" />
<line x1="487.297070" y1="818.966403" x2="472.847616" y2="803.924255" class="t" />
<line x1="503.921736" y1="831.562976" x2="487.297070" y2="818.966403" class="t" />
<line x1="522.312341" y1="841.403786" x2="503.921736" y2="831.562976" class="t" />
<line x1="500.090864" y1="249.108543" x2="483.896051" y2="262.253179" class="t" />
<line x1="225.911156" y1="623.996887" x2="238.980077" y2="607.674760" class="t" />
<line x1="518.142582" y1="238.659196" x2="500.090864" y2="249.108543" class="t" />
<line x1="211.729699" y1="639.362287" x2="225.911156" y2="623.996887" class="t" />
<line x1="537.606705" y1="231.162441" x2="518.142582" y2="238.659196" class="t" />
<line x1="196.505565" y1="653.695268" x2="211.729699" y2="639.362287" class="t" />
<line x1="558.003993" y1="226.802788" x2="537.606705" y2="231.162441" class="t" />
<line x1="180.313718" y1="666.925247" x2="196.505565" y2="653.695268" class="t" />
<line x1="578.832059" y1="225.687640" x2="558.003993" y2="226.802788" class="t" />
<line x1="163.233847" y1="678.987050" x2="180.313718" y2="666.925247" class="t" />
<line x1="599.578165" y1="227.844498" x2="578.832059" y2="225.687640" class="t" />
<line x1="145.350120" y1="689.821292" x2="163.233847" y2="678.987050" class="t" />
<line x1="619.731480" y1="233.220192" x2="599.578165" y2="227.844498" class="t" />
<line x1="126.750563" y1="699.374649" x2="145.350120" y2="689.821292" class="t" />
<line x1="638.795715" y1="241.682340" x2="619.731480" y2="233.220192" class="t" />
<line x1="107.526842" y1="707.600040" x2="126.750563" y2="699.374649" class="t" />
<line x1="656.301508" y1="253.022659" x2="638.795715" y2="241.682340" class="t" />
<line x1="87.773576" y1="714.456974" x2="107.526842" y2="707.600040" class="t" />
<line x1="671.817721" y1="266.961827" x2="656.301508" y2="253.022659" class="t" />
<line x1="67.587988" y1="719.911670" x2="87.773576" y2="714.456974" class="t" />
<line x1="684.962299" y1="283.156673" x2="671.817721" y2="266.961827" class="t" />
<line x1="47.069615" y1="723.937240" x2="67.587988" y2="719.911670" class="t" />
<line x1="695.411646" y1="301.208392" x2="684.962299" y2="283.156673" class="t" />
<line x1="26.319441" y1="726.513902" x2="47.069615" y2="723.937240" class="t" />
</svg>
