<?xml version="1.0"?>
<svg width="873" height="903" version="1.1" xmlns="http://www.w3.org/2000/svg" >
<defs>
<style type="text/css"><![CDATA[
.m {stroke:rgb(255,0,0);stroke-width:1.128750;}
.v {stroke:rgb(0,0,255);stroke-width:1.128750;}
.b {stroke:rgb(0,0,0);stroke-width:2.257500;fill:white}
.n {stroke:rgb(128,128,128);stroke-width:1.128750}
.t {stroke:rgb(0,128,0);stroke-width:1.128750;}
.c {stroke:rgb(128,128,128);stroke-width:1.128750;stroke-dasharray:8.730000, 8.730000;}
]]></style>
</defs>
<path fill="none" style="stroke:black;stroke-width:2.257500;" d=" M 549.21 500.095 L 570.523 441.263 M 570.523 441.263 L 557.551 469.84 M 538.767 529.69 L 583.231 447.578 M 583.231 447.578 L 549.21 500.095 M 526.275 558.48 L 600.588 459.707 M 600.588 459.707 L 538.767 529.69 M 511.794 586.323 L 620.933 478.992 M 620.933 478.992 L 526.275 558.48 M 642.311 506.344 L 511.794 586.323 M 495.396 613.082 L 483.386 642.077 M 483.386 642.077 L 476.059 672.593 M 476.059 672.593 L 473.596 703.88 M 473.596 703.88 L 476.058 735.167 M 476.058 735.167 L 483.384 765.684 M 483.384 765.684 L 495.394 794.678 M 495.394 794.678 L 511.792 821.437 M 511.792 821.437 L 532.173 845.302 M 532.173 845.302 L 556.038 865.684 M 556.038 865.684 L 582.796 882.082 M 582.796 882.082 L 611.791 894.093 M 611.791 894.093 L 642.307 901.419 M 642.307 901.419 L 673.594 903.882 M 673.594 903.882 L 704.881 901.42 M 704.881 901.42 L 735.398 894.094 M 735.398 894.094 L 764.393 882.084 M 764.393 882.084 L 791.152 865.687 M 791.152 865.687 L 815.016 845.305 M 815.016 845.305 L 835.399 821.441 M 835.399 821.441 L 851.797 794.682 M 851.797 794.682 L 863.807 765.687 M 863.807 765.687 L 871.134 735.171 M 871.134 735.171 L 873.596 703.884 M 873.596 703.884 L 642.311 506.344 M 804.64 253.368 L 773.516 249.341 M 563.75 439.075 L 804.64 253.368 M 773.516 249.341 L 742.145 250.234 M 742.145 250.234 L 711.3 256.023 M 711.3 256.023 L 681.74 266.566 M 681.74 266.566 L 654.193 281.603 M 654.193 281.603 L 629.338 300.764 M 629.338 300.764 L 607.786 323.578 M 607.786 323.578 L 590.069 349.482 M 590.069 349.482 L 576.622 377.839 M 576.622 377.839 L 567.777 407.95 M 557.551 469.84 L 563.75 439.075 M 567.777 407.95 L 569.61 376.62 M 569.61 376.62 L 569.241 345.239 M 569.241 345.239 L 566.673 313.96 M 566.673 313.96 L 561.917 282.939 M 561.917 282.939 L 554.997 252.328 M 554.997 252.328 L 545.948 222.277 M 545.948 222.277 L 534.813 192.935 M 534.813 192.935 L 521.648 164.446 M 521.648 164.446 L 506.517 136.951 M 506.517 136.951 L 489.496 110.584 M 489.496 110.584 L 470.667 85.4768 M 470.667 85.4768 L 450.123 61.7512 M 450.123 61.7512 L 427.966 39.5251 M 427.966 39.5251 L 404.305 18.9074 M 404.305 18.9074 L 379.256 0 M 379.256 0 L 122.518 366.177 M 0 796.281 L 30.4659 803.814 M 122.518 366.177 L 0 796.281 M 30.4659 803.814 L 61.3854 809.193 M 61.3854 809.193 L 92.6057 812.389 M 92.6057 812.389 L 123.974 813.388 M 123.974 813.388 L 155.334 812.185 M 155.334 812.185 L 186.533 808.785 M 186.533 808.785 L 217.417 803.206 M 217.417 803.206 L 247.833 795.474 M 247.833 795.474 L 277.632 785.629 M 277.632 785.629 L 306.668 773.717 M 306.668 773.717 L 334.796 759.799 M 334.796 759.799 L 361.879 743.942 M 361.879 743.942 L 387.783 726.225 M 387.783 726.225 L 412.382 706.734 M 412.382 706.734 L 435.552 685.567 M 435.552 685.567 L 457.181 662.826 M 457.181 662.826 L 477.162 638.625 M 477.162 638.625 L 495.396 613.082" />
<path fill="none" class="c" d=" M 495.396 613.082 L 511.794 586.323 M 122.518 366.177 L 495.396 613.082 M 511.794 586.323 L 122.518 366.177 M 526.275 558.48 L 122.518 366.177 M 538.767 529.69 L 122.518 366.177 M 549.21 500.095 L 122.518 366.177 M 549.21 500.095 L 557.551 469.84 M 122.518 366.177 L 477.162 638.625 M 511.794 586.323 L 526.275 558.48 M 526.275 558.48 L 538.767 529.69 M 538.767 529.69 L 549.21 500.095 M 557.551 469.84 L 122.518 366.177 M 563.75 439.075 L 122.518 366.177 M 563.75 439.075 L 567.777 407.95 M 567.777 407.95 L 122.518 366.177 M 569.61 376.62 L 122.518 366.177 M 569.241 345.239 L 122.518 366.177 M 566.673 313.96 L 122.518 366.177 M 561.917 282.939 L 122.518 366.177 M 554.997 252.328 L 122.518 366.177 M 545.948 222.277 L 122.518 366.177 M 534.813 192.935 L 122.518 366.177 M 521.648 164.446 L 122.518 366.177 M 506.517 136.951 L 122.518 366.177 M 489.496 110.584 L 122.518 366.177 M 470.667 85.4768 L 122.518 366.177 M 450.123 61.7512 L 122.518 366.177 M 427.966 39.5251 L 122.518 366.177 M 404.305 18.9074 L 122.518 366.177 M 122.518 366.177 L 457.181 662.826 M 122.518 366.177 L 435.552 685.567 M 122.518 366.177 L 412.382 706.734 M 122.518 366.177 L 387.783 726.225 M 122.518 366.177 L 361.879 743.942 M 122.518 366.177 L 334.796 759.799 M 122.518 366.177 L 306.668 773.717 M 122.518 366.177 L 277.632 785.629 M 122.518 366.177 L 247.833 795.474 M 122.518 366.177 L 217.417 803.206 M 122.518 366.177 L 186.533 808.785 M 122.518 366.177 L 155.334 812.185 M 122.518 366.177 L 123.974 813.388 M 122.518 366.177 L 92.6057 812.389 M 122.518 366.177 L 61.3854 809.193 M 122.518 366.177 L 30.4659 803.814" />
<line x1="549.833760" y1="568.583113" x2="376.569345" y2="521.860810" class="t" />
<line x1="365.025255" y1="539.294757" x2="376.569345" y2="521.860810" class="t" />
<line x1="386.862330" y1="503.660163" x2="376.569345" y2="521.860810" class="t" />
<line x1="395.853484" y1="484.782396" x2="386.862330" y2="503.660163" class="t" />
<line x1="403.498545" y1="465.320599" x2="395.853484" y2="484.782396" class="t" />
<line x1="409.759899" y1="445.370617" x2="403.498545" y2="465.320599" class="t" />
<line x1="559.094945" y1="470.399128" x2="409.759899" y2="445.370617" class="t" />
<line x1="540.364295" y1="587.167574" x2="549.833760" y2="568.583113" class="t" />
<line x1="533.918632" y1="607.004601" x2="540.364295" y2="587.167574" class="t" />
<line x1="530.655531" y1="627.605751" x2="533.918632" y2="607.004601" class="t" />
<line x1="530.655284" y1="648.463679" x2="530.655531" y2="627.605751" class="t" />
<line x1="533.918022" y1="669.064818" x2="530.655284" y2="648.463679" class="t" />
<line x1="540.363304" y1="688.901938" x2="533.918022" y2="669.064818" class="t" />
<line x1="549.832420" y1="707.486589" x2="540.363304" y2="688.901938" class="t" />
<line x1="562.092203" y1="724.361147" x2="549.832420" y2="707.486589" class="t" />
<line x1="576.840787" y1="739.110101" x2="562.092203" y2="724.361147" class="t" />
<line x1="593.715102" y1="751.370225" x2="576.840787" y2="739.110101" class="t" />
<line x1="612.299564" y1="760.839690" x2="593.715102" y2="751.370225" class="t" />
<line x1="632.136591" y1="767.285353" x2="612.299564" y2="760.839690" class="t" />
<line x1="652.737682" y1="770.548484" x2="632.136591" y2="767.285353" class="t" />
<line x1="673.595610" y1="770.548732" x2="652.737682" y2="770.548484" class="t" />
<line x1="694.196838" y1="767.286023" x2="673.595610" y2="770.548732" class="t" />
<line x1="714.033958" y1="760.840740" x2="694.196838" y2="767.286023" class="t" />
<line x1="732.618609" y1="751.371625" x2="714.033958" y2="760.840740" class="t" />
<line x1="749.493167" y1="739.111841" x2="732.618609" y2="751.371625" class="t" />
<line x1="764.242091" y1="724.363198" x2="749.493167" y2="739.111841" class="t" />
<line x1="776.502274" y1="707.488852" x2="764.242091" y2="724.363198" class="t" />
<line x1="785.971739" y1="688.904391" x2="776.502274" y2="707.488852" class="t" />
<line x1="792.417402" y1="669.067364" x2="785.971739" y2="688.904391" class="t" />
<line x1="795.680533" y1="648.466273" x2="792.417402" y2="669.067364" class="t" />
<line x1="352.286885" y1="555.876194" x2="365.025255" y2="539.294757" class="t" />
<line x1="553.000733" y1="541.265025" x2="386.862330" y2="503.660163" class="t" />
<line x1="555.210209" y1="515.959004" x2="395.853484" y2="484.782396" class="t" />
<line x1="557.069525" y1="492.454121" x2="403.498545" y2="465.320599" class="t" />
<line x1="414.606687" y1="425.030570" x2="409.759899" y2="445.370617" class="t" />
<line x1="418.015037" y1="404.400621" x2="414.606687" y2="425.030570" class="t" />
<line x1="569.382969" y1="408.287963" x2="418.015037" y2="404.400621" class="t" />
<line x1="419.968157" y1="383.582528" x2="418.015037" y2="404.400621" class="t" />
<line x1="420.456416" y1="362.678692" x2="419.968157" y2="383.582528" class="t" />
<line x1="419.477440" y1="341.792057" x2="420.456416" y2="362.678692" class="t" />
<line x1="417.036050" y1="321.025538" x2="419.477440" y2="341.792057" class="t" />
<line x1="413.144239" y1="300.481310" x2="417.036050" y2="321.025538" class="t" />
<line x1="407.821205" y1="280.260671" x2="413.144239" y2="300.481310" class="t" />
<line x1="401.093155" y1="260.463132" x2="407.821205" y2="280.260671" class="t" />
<line x1="392.993202" y1="241.186203" x2="401.093155" y2="260.463132" class="t" />
<line x1="383.561236" y1="222.524821" x2="392.993202" y2="241.186203" class="t" />
<line x1="372.843706" y1="204.570819" x2="383.561236" y2="222.524821" class="t" />
<line x1="360.893462" y1="187.412750" x2="372.843706" y2="204.570819" class="t" />
<line x1="347.769267" y1="171.135026" x2="360.893462" y2="187.412750" class="t" />
<line x1="333.535777" y1="155.817793" x2="347.769267" y2="171.135026" class="t" />
<line x1="318.263123" y1="141.536520" x2="333.535777" y2="155.817793" class="t" />
<line x1="302.026433" y1="128.361491" x2="318.263123" y2="141.536520" class="t" />
<line x1="338.416963" y1="571.523434" x2="352.286885" y2="555.876194" class="t" />
<line x1="576.813801" y1="388.798589" x2="569.382969" y2="408.287963" class="t" />
<line x1="323.483859" y1="586.159394" x2="338.416963" y2="571.523434" class="t" />
<line x1="587.201950" y1="370.711562" x2="576.813801" y2="388.798589" class="t" />
<line x1="307.561050" y1="599.711977" x2="323.483859" y2="586.159394" class="t" />
<line x1="600.291600" y1="354.472288" x2="587.201950" y2="370.711562" class="t" />
<line x1="290.726970" y1="612.114488" x2="307.561050" y2="599.711977" class="t" />
<line x1="615.760538" y1="340.480590" x2="600.291600" y2="354.472288" class="t" />
<line x1="273.064512" y1="623.305862" x2="290.726970" y2="612.114488" class="t" />
<line x1="633.227759" y1="329.081054" x2="615.760538" y2="340.480590" class="t" />
<line x1="254.660684" y1="633.230967" x2="273.064512" y2="623.305862" class="t" />
<line x1="652.263206" y1="320.554319" x2="633.227759" y2="329.081054" class="t" />
<line x1="235.606109" y1="641.840926" x2="254.660684" y2="633.230967" class="t" />
<line x1="672.398177" y1="315.110395" x2="652.263206" y2="320.554319" class="t" />
<line x1="215.994580" y1="649.093306" x2="235.606109" y2="641.840926" class="t" />
<line x1="693.136876" y1="312.883332" x2="672.398177" y2="315.110395" class="t" />
<line x1="195.922726" y1="654.952418" x2="215.994580" y2="649.093306" class="t" />
<line x1="713.968697" y1="313.927896" x2="693.136876" y2="312.883332" class="t" />
<line x1="175.489344" y1="659.389428" x2="195.922726" y2="654.952418" class="t" />
<line x1="154.795137" y1="662.382469" x2="175.489344" y2="659.389428" class="t" />
<line x1="133.941962" y1="663.916805" x2="154.795137" y2="662.382469" class="t" />
<line x1="113.032467" y1="663.984852" x2="133.941962" y2="663.916805" class="t" />
<line x1="92.169752" y1="662.586285" x2="113.032467" y2="663.984852" class="t" />
<line x1="71.456490" y1="659.728016" x2="92.169752" y2="662.586285" class="t" />
<line x1="50.994686" y1="655.424120" x2="71.456490" y2="659.728016" class="t" />
</svg>
