<?xml version="1.0"?>
<svg width="1288" height="1287" version="1.1" xmlns="http://www.w3.org/2000/svg" >
<defs>
<style type="text/css"><![CDATA[
.m {stroke:rgb(255,0,0);stroke-width:1.610000;}
.v {stroke:rgb(0,0,255);stroke-width:1.610000;}
.b {stroke:rgb(0,0,0);stroke-width:3.220000;fill:white}
.n {stroke:rgb(128,128,128);stroke-width:1.610000}
.t {stroke:rgb(0,128,0);stroke-width:1.610000;}
.c {stroke:rgb(128,128,128);stroke-width:1.610000;stroke-dasharray:12.880000, 12.880000;}
]]></style>
</defs>
<path fill="none" style="stroke:black;stroke-width:3.220000;" d=" M 834.541 706.133 L 1272.79 795.21 M 1272.79 795.21 L 841.867 675.616 M 822.531 735.127 L 1241.45 891.665 M 1241.45 891.665 L 834.541 706.133 M 806.133 761.886 L 1195.41 982.031 M 1195.41 982.031 L 822.531 735.127 M 785.751 785.751 L 1135.8 1064.08 M 1135.8 1064.08 L 806.133 761.886 M 761.887 806.133 L 1064.08 1135.8 M 1064.08 1135.8 L 785.751 785.751 M 735.128 822.531 L 982.033 1195.41 M 982.033 1195.41 L 761.887 806.133 M 706.133 834.541 L 891.666 1241.45 M 891.666 1241.45 L 735.128 822.531 M 675.617 841.867 L 795.212 1272.79 M 795.212 1272.79 L 706.133 834.541 M 644.33 844.329 L 695.041 1288.66 M 695.041 1288.66 L 675.617 841.867 M 613.043 841.867 L 593.618 1288.66 M 593.618 1288.66 L 644.33 844.329 M 582.526 834.541 L 493.449 1272.79 M 493.449 1272.79 L 613.043 841.867 M 553.531 822.531 L 396.994 1241.45 M 396.994 1241.45 L 582.526 834.541 M 526.773 806.133 L 306.628 1195.41 M 306.628 1195.41 L 553.531 822.531 M 502.908 785.751 L 224.576 1135.8 M 224.576 1135.8 L 526.773 806.133 M 482.526 761.886 L 152.863 1064.08 M 152.863 1064.08 L 502.908 785.751 M 466.128 735.127 L 93.2502 982.032 M 93.2502 982.032 L 482.526 761.886 M 454.118 706.133 L 47.2058 891.665 M 47.2058 891.665 L 466.128 735.127 M 446.792 675.616 L 15.866 795.211 M 15.866 795.211 L 454.118 706.133 M 444.33 644.329 L 0 695.036 M 0 695.036 L 446.792 675.616 M 446.792 613.042 L 3.66621e-005 593.622 M 3.66621e-005 593.622 L 444.33 644.329 M 454.118 582.526 L 15.8658 493.448 M 15.8658 493.448 L 446.792 613.042 M 466.128 553.531 L 47.2058 396.993 M 47.2058 396.993 L 454.118 582.526 M 482.526 526.772 L 93.2514 306.624 M 93.2514 306.624 L 466.128 553.531 M 502.908 502.908 L 152.861 224.578 M 152.861 224.578 L 482.526 526.772 M 526.773 482.526 L 224.579 152.861 M 224.579 152.861 L 502.908 502.908 M 553.531 466.128 L 306.625 93.251 M 306.625 93.251 L 526.773 482.526 M 582.526 454.118 L 396.994 47.2053 M 396.994 47.2053 L 553.531 466.128 M 613.043 446.792 L 493.452 15.8647 M 493.452 15.8647 L 582.526 454.118 M 644.33 444.329 L 593.619 0 M 593.619 0 L 613.043 446.792 M 675.616 446.792 L 695.041 3.6668e-005 M 695.041 3.6668e-005 L 644.33 444.329 M 706.133 454.118 L 795.207 15.8645 M 795.207 15.8645 L 675.616 446.792 M 735.128 466.128 L 891.667 47.206 M 891.667 47.206 L 706.133 454.118 M 761.887 482.526 L 982.033 93.2499 M 982.033 93.2499 L 735.128 466.128 M 785.751 502.908 L 1064.08 152.861 M 1064.08 152.861 L 761.887 482.526 M 806.133 526.772 L 1135.8 224.578 M 1135.8 224.578 L 785.751 502.908 M 822.531 553.531 L 1195.41 306.624 M 1195.41 306.624 L 806.133 526.772 M 834.541 582.526 L 1241.45 396.993 M 1241.45 396.993 L 822.531 553.531 M 841.867 613.042 L 1272.79 493.452 M 1272.79 493.452 L 834.541 582.526 M 844.33 644.329 L 1288.66 593.618 M 1288.66 593.618 L 841.867 613.042 M 1288.66 695.036 L 844.33 644.329 M 841.867 675.616 L 1288.66 695.036" />
<path fill="none" class="c" d=" M 482.526 526.772 L 466.128 553.531 M 466.128 553.531 L 454.118 582.526 M 454.118 582.526 L 446.792 613.042 M 446.792 613.042 L 444.33 644.329 M 444.33 644.329 L 446.792 675.616 M 446.792 675.616 L 454.118 706.133 M 454.118 706.133 L 466.128 735.127 M 466.128 735.127 L 482.526 761.886 M 482.526 761.886 L 502.908 785.751 M 502.908 785.751 L 526.773 806.133 M 526.773 806.133 L 553.531 822.531 M 553.531 822.531 L 582.526 834.541 M 582.526 834.541 L 613.043 841.867 M 613.043 841.867 L 644.33 844.329 M 644.33 844.329 L 675.617 841.867 M 675.617 841.867 L 706.133 834.541 M 706.133 834.541 L 735.128 822.531 M 735.128 822.531 L 761.887 806.133 M 761.887 806.133 L 785.751 785.751 M 785.751 785.751 L 806.133 761.886 M 822.531 735.127 L 834.541 706.133 M 806.133 761.886 L 822.531 735.127 M 502.908 502.908 L 482.526 526.772 M 526.773 482.526 L 502.908 502.908 M 553.531 466.128 L 526.773 482.526 M 582.526 454.118 L 553.531 466.128 M 613.043 446.792 L 582.526 454.118 M 644.33 444.329 L 613.043 446.792 M 675.616 446.792 L 644.33 444.329 M 706.133 454.118 L 675.616 446.792 M 735.128 466.128 L 706.133 454.118 M 761.887 482.526 L 735.128 466.128 M 785.751 502.908 L 761.887 482.526 M 806.133 526.772 L 785.751 502.908 M 822.531 553.531 L 806.133 526.772 M 834.541 582.526 L 822.531 553.531 M 841.867 613.042 L 834.541 582.526 M 844.33 644.329 L 841.867 613.042 M 834.541 706.133 L 841.867 675.616 M 841.867 675.616 L 844.33 644.329" />
<line x1="594.398480" y1="595.478547" x2="584.929146" y2="614.063081" class="t" />
<line x1="347.301953" y1="462.309087" x2="594.398480" y2="595.478547" class="t" />
<line x1="578.483680" y1="633.900214" x2="584.929146" y2="614.063081" class="t" />
<line x1="322.484079" y1="511.016625" x2="584.929146" y2="614.063081" class="t" />
<line x1="575.220813" y1="654.501347" x2="578.483680" y2="633.900214" class="t" />
<line x1="305.591932" y1="563.005388" x2="578.483680" y2="633.900214" class="t" />
<line x1="575.220813" y1="675.359281" x2="575.220813" y2="654.501347" class="t" />
<line x1="297.040488" y1="616.997790" x2="575.220813" y2="654.501347" class="t" />
<line x1="578.483680" y1="695.960414" x2="575.220813" y2="675.359281" class="t" />
<line x1="297.040475" y1="671.660464" x2="575.220813" y2="675.359281" class="t" />
<line x1="584.929146" y1="715.797481" x2="578.483680" y2="695.960414" class="t" />
<line x1="305.591996" y1="725.653288" x2="578.483680" y2="695.960414" class="t" />
<line x1="594.398480" y1="734.382081" x2="584.929146" y2="715.797481" class="t" />
<line x1="322.484079" y1="777.641669" x2="584.929146" y2="715.797481" class="t" />
<line x1="606.658480" y1="751.256481" x2="594.398480" y2="734.382081" class="t" />
<line x1="347.301556" y1="826.348675" x2="594.398480" y2="734.382081" class="t" />
<line x1="621.407280" y1="766.005281" x2="606.658480" y2="751.256481" class="t" />
<line x1="379.432525" y1="870.573013" x2="606.658480" y2="751.256481" class="t" />
<line x1="638.281680" y1="778.265281" x2="621.407280" y2="766.005281" class="t" />
<line x1="418.085695" y1="909.226207" x2="621.407280" y2="766.005281" class="t" />
<line x1="656.866213" y1="787.734547" x2="638.281680" y2="778.265281" class="t" />
<line x1="462.310530" y1="941.357521" x2="638.281680" y2="778.265281" class="t" />
<line x1="676.703346" y1="794.180014" x2="656.866213" y2="787.734547" class="t" />
<line x1="511.017091" y1="966.174682" x2="656.866213" y2="787.734547" class="t" />
<line x1="697.304480" y1="797.442947" x2="676.703346" y2="794.180014" class="t" />
<line x1="563.005854" y1="983.066828" x2="676.703346" y2="794.180014" class="t" />
<line x1="718.162413" y1="797.442947" x2="697.304480" y2="797.442947" class="t" />
<line x1="616.996887" y1="991.618280" x2="697.304480" y2="797.442947" class="t" />
<line x1="738.763546" y1="794.180014" x2="718.162413" y2="797.442947" class="t" />
<line x1="671.662298" y1="991.618292" x2="718.162413" y2="797.442947" class="t" />
<line x1="758.600613" y1="787.734547" x2="738.763546" y2="794.180014" class="t" />
<line x1="725.653753" y1="983.066765" x2="738.763546" y2="794.180014" class="t" />
<line x1="777.185213" y1="778.265214" x2="758.600613" y2="787.734547" class="t" />
<line x1="777.642135" y1="966.174682" x2="758.600613" y2="787.734547" class="t" />
<line x1="794.059613" y1="766.005214" x2="777.185213" y2="778.265214" class="t" />
<line x1="826.349141" y1="941.357204" x2="777.185213" y2="778.265214" class="t" />
<line x1="808.808413" y1="751.256414" x2="794.059613" y2="766.005214" class="t" />
<line x1="870.573479" y1="909.226235" x2="794.059613" y2="766.005214" class="t" />
<line x1="821.068413" y1="734.382014" x2="808.808413" y2="751.256414" class="t" />
<line x1="909.226673" y1="870.573066" x2="808.808413" y2="751.256414" class="t" />
<line x1="966.175148" y1="777.641669" x2="821.068413" y2="734.382014" class="t" />
<line x1="941.357987" y1="826.348231" x2="821.068413" y2="734.382014" class="t" />
<line x1="606.658480" y1="578.604147" x2="594.398480" y2="595.478547" class="t" />
<line x1="379.431970" y1="418.086047" x2="606.658480" y2="578.604147" class="t" />
<line x1="621.407280" y1="563.855347" x2="606.658480" y2="578.604147" class="t" />
<line x1="418.086513" y1="379.431504" x2="621.407280" y2="563.855347" class="t" />
<line x1="638.281680" y1="551.595347" x2="621.407280" y2="563.855347" class="t" />
<line x1="462.309553" y1="347.301487" x2="638.281680" y2="551.595347" class="t" />
<line x1="656.866213" y1="542.126014" x2="638.281680" y2="551.595347" class="t" />
<line x1="511.017091" y1="322.483613" x2="656.866213" y2="542.126014" class="t" />
<line x1="676.703280" y1="535.680614" x2="656.866213" y2="542.126014" class="t" />
<line x1="563.006782" y1="305.591331" x2="676.703280" y2="535.680614" class="t" />
<line x1="697.304413" y1="532.417747" x2="676.703280" y2="535.680614" class="t" />
<line x1="616.996935" y1="297.040232" x2="697.304413" y2="532.417747" class="t" />
<line x1="718.162346" y1="532.417747" x2="697.304413" y2="532.417747" class="t" />
<line x1="671.662331" y1="297.040244" x2="718.162346" y2="532.417747" class="t" />
<line x1="738.763480" y1="535.680614" x2="718.162346" y2="532.417747" class="t" />
<line x1="725.652063" y1="305.591267" x2="738.763480" y2="535.680614" class="t" />
<line x1="758.600546" y1="542.126014" x2="738.763480" y2="535.680614" class="t" />
<line x1="777.642547" y1="322.483831" x2="758.600546" y2="542.126014" class="t" />
<line x1="777.185080" y1="551.595347" x2="758.600546" y2="542.126014" class="t" />
<line x1="826.348982" y1="347.301133" x2="777.185080" y2="551.595347" class="t" />
<line x1="794.059546" y1="563.855347" x2="777.185080" y2="551.595347" class="t" />
<line x1="870.572714" y1="379.431504" x2="794.059546" y2="563.855347" class="t" />
<line x1="808.808346" y1="578.604147" x2="794.059546" y2="563.855347" class="t" />
<line x1="909.227256" y1="418.086047" x2="808.808346" y2="578.604147" class="t" />
<line x1="821.068346" y1="595.478547" x2="808.808346" y2="578.604147" class="t" />
<line x1="941.357274" y1="462.309087" x2="821.068346" y2="595.478547" class="t" />
<line x1="830.537680" y1="614.063081" x2="821.068346" y2="595.478547" class="t" />
<line x1="966.175148" y1="511.016625" x2="830.537680" y2="614.063081" class="t" />
<line x1="836.983080" y1="633.900214" x2="830.537680" y2="614.063081" class="t" />
<line x1="983.067494" y1="563.006697" x2="836.983080" y2="633.900214" class="t" />
<line x1="840.245946" y1="654.501347" x2="836.983080" y2="633.900214" class="t" />
<line x1="991.618517" y1="616.996429" x2="840.245946" y2="654.501347" class="t" />
<line x1="840.246013" y1="675.359214" x2="840.245946" y2="654.501347" class="t" />
<line x1="983.067294" y1="725.652907" x2="840.246013" y2="675.359214" class="t" />
<line x1="991.618739" y1="671.660505" x2="840.246013" y2="675.359214" class="t" />
</svg>
