<?xml version="1.0"?>
<svg width="1288" height="1287" version="1.1" xmlns="http://www.w3.org/2000/svg" >
<defs>
<style type="text/css"><![CDATA[
.m {stroke:rgb(255,0,0);stroke-width:1.610000;}
.v {stroke:rgb(0,0,255);stroke-width:1.610000;}
.b {stroke:rgb(0,0,0);stroke-width:3.220000;fill:white}
.n {stroke:rgb(128,128,128);stroke-width:1.610000}
.t {stroke:rgb(0,128,0);stroke-width:1.610000;}
.c {stroke:rgb(128,128,128);stroke-width:1.610000;stroke-dasharray:12.880000, 12.880000;}
]]></style>
</defs>
<path fill="none" style="stroke:black;stroke-width:3.220000;" d=" M 834.541 706.133 L 1272.79 795.21 M 1272.79 795.21 L 841.867 675.616 M 822.531 735.127 L 1241.45 891.665 M 1241.45 891.665 L 834.541 706.133 M 806.133 761.886 L 1195.41 982.031 M 1195.41 982.031 L 822.531 735.127 M 785.751 785.751 L 1135.8 1064.08 M 1135.8 1064.08 L 806.133 761.886 M 761.887 806.133 L 1064.08 1135.8 M 1064.08 1135.8 L 785.751 785.751 M 735.128 822.531 L 982.033 1195.41 M 982.033 1195.41 L 761.887 806.133 M 706.133 834.541 L 891.666 1241.45 M 891.666 1241.45 L 735.128 822.531 M 675.617 841.867 L 795.212 1272.79 M 795.212 1272.79 L 706.133 834.541 M 644.33 844.329 L 695.041 1288.66 M 695.041 1288.66 L 675.617 841.867 M 613.043 841.867 L 593.618 1288.66 M 593.618 1288.66 L 644.33 844.329 M 582.526 834.541 L 493.449 1272.79 M 493.449 1272.79 L 613.043 841.867 M 553.531 822.531 L 396.994 1241.45 M 396.994 1241.45 L 582.526 834.541 M 526.773 806.133 L 306.628 1195.41 M 306.628 1195.41 L 553.531 822.531 M 502.908 785.751 L 224.576 1135.8 M 224.576 1135.8 L 526.773 806.133 M 482.526 761.886 L 152.863 1064.08 M 152.863 1064.08 L 502.908 785.751 M 466.128 735.127 L 93.2502 982.032 M 93.2502 982.032 L 482.526 761.886 M 454.118 706.133 L 47.2058 891.665 M 47.2058 891.665 L 466.128 735.127 M 446.792 675.616 L 15.866 795.211 M 15.866 795.211 L 454.118 706.133 M 444.33 644.329 L 0 695.036 M 0 695.036 L 446.792 675.616 M 446.792 613.042 L 3.66621e-005 593.622 M 3.66621e-005 593.622 L 444.33 644.329 M 454.118 582.526 L 15.8658 493.448 M 15.8658 493.448 L 446.792 613.042 M 466.128 553.531 L 47.2058 396.993 M 47.2058 396.993 L 454.118 582.526 M 482.526 526.772 L 93.2514 306.624 M 93.2514 306.624 L 466.128 553.531 M 502.908 502.908 L 152.861 224.578 M 152.861 224.578 L 482.526 526.772 M 526.773 482.526 L 224.579 152.861 M 224.579 152.861 L 502.908 502.908 M 553.531 466.128 L 306.625 93.251 M 306.625 93.251 L 526.773 482.526 M 582.526 454.118 L 396.994 47.2053 M 396.994 47.2053 L 553.531 466.128 M 613.043 446.792 L 493.452 15.8647 M 493.452 15.8647 L 582.526 454.118 M 644.33 444.329 L 593.619 0 M 593.619 0 L 613.043 446.792 M 675.616 446.792 L 695.041 3.6668e-005 M 695.041 3.6668e-005 L 644.33 444.329 M 706.133 454.118 L 795.207 15.8645 M 795.207 15.8645 L 675.616 446.792 M 735.128 466.128 L 891.667 47.206 M 891.667 47.206 L 706.133 454.118 M 761.887 482.526 L 982.033 93.2499 M 982.033 93.2499 L 735.128 466.128 M 785.751 502.908 L 1064.08 152.861 M 1064.08 152.861 L 761.887 482.526 M 806.133 526.772 L 1135.8 224.578 M 1135.8 224.578 L 785.751 502.908 M 822.531 553.531 L 1195.41 306.624 M 1195.41 306.624 L 806.133 526.772 M 834.541 582.526 L 1241.45 396.993 M 1241.45 396.993 L 822.531 553.531 M 841.867 613.042 L 1272.79 493.452 M 1272.79 493.452 L 834.541 582.526 M 844.33 644.329 L 1288.66 593.618 M 1288.66 593.618 L 841.867 613.042 M 1288.66 695.036 L 844.33 644.329 M 841.867 675.616 L 1288.66 695.036" />
<path fill="none" class="c" d=" M 482.526 526.772 L 466.128 553.531 M 466.128 553.531 L 454.118 582.526 M 454.118 582.526 L 446.792 613.042 M 446.792 613.042 L 444.33 644.329 M 444.33 644.329 L 446.792 675.616 M 446.792 675.616 L 454.118 706.133 M 454.118 706.133 L 466.128 735.127 M 466.128 735.127 L 482.526 761.886 M 482.526 761.886 L 502.908 785.751 M 502.908 785.751 L 526.773 806.133 M 526.773 806.133 L 553.531 822.531 M 553.531 822.531 L 582.526 834.541 M 582.526 834.541 L 613.043 841.867 M 613.043 841.867 L 644.33 844.329 M 644.33 844.329 L 675.617 841.867 M 675.617 841.867 L 706.133 834.541 M 706.133 834.541 L 735.128 822.531 M 735.128 822.531 L 761.887 806.133 M 761.887 806.133 L 785.751 785.751 M 785.751 785.751 L 806.133 761.886 M 822.531 735.127 L 834.541 706.133 M 806.133 761.886 L 822.531 735.127 M 502.908 502.908 L 482.526 526.772 M 526.773 482.526 L 502.908 502.908 M 553.531 466.128 L 526.773 482.526 M 582.526 454.118 L 553.531 466.128 M 613.043 446.792 L 582.526 454.118 M 644.33 444.329 L 613.043 446.792 M 675.616 446.792 L 644.33 444.329 M 706.133 454.118 L 675.616 446.792 M 735.128 466.128 L 706.133 454.118 M 761.887 482.526 L 735.128 466.128 M 785.751 502.908 L 761.887 482.526 M 806.133 526.772 L 785.751 502.908 M 822.531 553.531 L 806.133 526.772 M 834.541 582.526 L 822.531 553.531 M 841.867 613.042 L 834.541 582.526 M 844.33 644.329 L 841.867 613.042 M 834.541 706.133 L 841.867 675.616 M 841.867 675.616 L 844.33 644.329" />
</svg>
