<?xml version="1.0"?>
<svg width="1015" height="1159" version="1.1" xmlns="http://www.w3.org/2000/svg" >
<defs>
<style type="text/css"><![CDATA[
.m {stroke:rgb(255,0,0);stroke-width:1.448750;}
.v {stroke:rgb(0,0,255);stroke-width:1.448750;}
.b {stroke:rgb(0,0,0);stroke-width:2.897500;fill:white}
.n {stroke:rgb(128,128,128);stroke-width:1.448750}
.t {stroke:rgb(0,128,0);stroke-width:1.448750;}
.c {stroke:rgb(128,128,128);stroke-width:1.448750;stroke-dasharray:10.150000, 10.150000;}
]]></style>
</defs>
<path fill="none" style="stroke:black;stroke-width:2.897500;" d=" M 339.873 446.792 L 309.357 454.118 M 309.357 454.118 L 280.362 466.128 M 280.362 466.128 L 253.603 482.526 M 253.603 482.526 L 229.739 502.908 M 229.739 502.908 L 209.357 526.772 M 209.357 526.772 L 192.959 553.531 M 192.959 553.531 L 180.949 582.526 M 180.949 582.526 L 173.622 613.042 M 173.622 613.042 L 171.16 644.329 M 171.16 644.329 L 173.622 675.616 M 173.622 675.616 L 180.949 706.133 M 180.949 706.133 L 192.959 735.127 M 192.959 735.127 L 561.371 706.133 M 208.965 817.391 L 230.971 839.767 M 561.371 706.133 L 208.965 817.391 M 230.971 839.767 L 256.206 858.426 M 256.206 858.426 L 284.049 872.907 M 284.049 872.907 L 313.814 882.854 M 313.814 882.854 L 344.769 888.022 M 344.769 888.022 L 376.152 888.284 M 376.152 888.284 L 407.189 883.633 M 407.189 883.633 L 437.117 874.185 M 437.117 874.185 L 465.198 860.171 M 465.198 860.171 L 490.741 841.937 M 490.741 841.937 L 513.117 819.931 M 513.117 819.931 L 531.775 794.696 M 999.624 795.21 L 568.698 675.616 M 556.203 737.088 L 999.624 795.21 M 546.256 766.853 L 975.125 893.627 M 975.125 893.627 L 556.203 737.088 M 935.532 987 L 546.256 766.853 M 531.775 794.696 L 519.283 823.486 M 519.283 823.486 L 508.84 853.082 M 508.84 853.082 L 500.498 883.337 M 500.498 883.337 L 494.299 914.102 M 494.299 914.102 L 490.273 945.226 M 490.273 945.226 L 488.44 976.556 M 488.44 976.556 L 488.808 1007.94 M 488.808 1007.94 L 491.377 1039.22 M 491.377 1039.22 L 496.132 1070.24 M 496.132 1070.24 L 503.052 1100.85 M 503.052 1100.85 L 512.101 1130.9 M 512.101 1130.9 L 523.236 1160.24 M 523.236 1160.24 L 935.532 987 M 0 311.95 L 22.667 333.655 M 320.449 0 L 0 311.95 M 22.667 333.655 L 46.8003 353.718 M 46.8003 353.718 L 72.2815 372.039 M 72.2815 372.039 L 98.9845 388.527 M 98.9845 388.527 L 126.778 403.103 M 126.778 403.103 L 155.526 415.693 M 155.526 415.693 L 185.086 426.236 M 185.086 426.236 L 215.312 434.68 M 215.312 434.68 L 246.056 440.983 M 246.056 440.983 L 277.167 445.114 M 277.167 445.114 L 308.491 447.054 M 308.491 447.054 L 339.873 446.792 M 371.16 444.329 L 320.449 0 M 402.447 446.792 L 421.871 3.6668e-005 M 421.871 3.6668e-005 L 371.16 444.329 M 432.963 454.118 L 522.037 15.8645 M 522.037 15.8645 L 402.447 446.792 M 461.958 466.128 L 618.497 47.206 M 618.497 47.206 L 432.963 454.118 M 488.717 482.526 L 708.863 93.2499 M 708.863 93.2499 L 461.958 466.128 M 512.581 502.908 L 790.911 152.861 M 790.911 152.861 L 488.717 482.526 M 532.963 526.772 L 862.628 224.578 M 862.628 224.578 L 512.581 502.908 M 549.361 553.531 L 922.238 306.624 M 922.238 306.624 L 532.963 526.772 M 561.371 582.526 L 968.284 396.993 M 968.284 396.993 L 549.361 553.531 M 568.698 613.042 L 999.625 493.452 M 999.625 493.452 L 561.371 582.526 M 571.16 644.329 L 1015.49 593.618 M 1015.49 593.618 L 568.698 613.042 M 1015.49 695.036 L 571.16 644.329 M 568.698 675.616 L 1015.49 695.036" />
<path fill="none" class="c" d=" M 561.371 582.526 L 549.361 553.531 M 549.361 553.531 L 532.963 526.772 M 532.963 526.772 L 512.581 502.908 M 512.581 502.908 L 488.717 482.526 M 488.717 482.526 L 461.958 466.128 M 461.958 466.128 L 432.963 454.118 M 432.963 454.118 L 402.447 446.792 M 402.447 446.792 L 371.16 444.329 M 371.16 444.329 L 339.873 446.792 M 320.449 0 L 339.873 446.792 M 568.698 613.042 L 561.371 582.526 M 320.449 0 L 308.491 447.054 M 571.16 644.329 L 568.698 613.042 M 320.449 0 L 277.167 445.114 M 561.371 706.133 L 568.698 675.616 M 568.698 675.616 L 571.16 644.329 M 561.371 706.133 L 999.624 795.21 M 561.371 706.133 L 556.203 737.088 M 320.449 0 L 246.056 440.983 M 546.256 766.853 L 556.203 737.088 M 320.449 0 L 215.312 434.68 M 531.775 794.696 L 546.256 766.853 M 531.775 794.696 L 935.532 987 M 519.283 823.486 L 935.532 987 M 508.84 853.082 L 935.532 987 M 500.498 883.337 L 935.532 987 M 494.299 914.102 L 935.532 987 M 490.273 945.226 L 935.532 987 M 488.44 976.556 L 935.532 987 M 488.808 1007.94 L 935.532 987 M 491.377 1039.22 L 935.532 987 M 496.132 1070.24 L 935.532 987 M 503.052 1100.85 L 935.532 987 M 512.101 1130.9 L 935.532 987 M 320.449 0 L 185.086 426.236 M 320.449 0 L 155.526 415.693 M 320.449 0 L 126.778 403.103 M 320.449 0 L 98.9845 388.527 M 320.449 0 L 72.2815 372.039 M 320.449 0 L 46.8003 353.718 M 320.449 0 L 22.667 333.655" />
<line x1="557.368029" y1="614.063081" x2="547.898695" y2="595.478547" class="t" />
<line x1="693.005496" y1="511.016625" x2="557.368029" y2="614.063081" class="t" />
<line x1="535.638695" y1="578.604147" x2="547.898695" y2="595.478547" class="t" />
<line x1="668.187622" y1="462.309087" x2="547.898695" y2="595.478547" class="t" />
<line x1="520.889895" y1="563.855347" x2="535.638695" y2="578.604147" class="t" />
<line x1="636.057605" y1="418.086047" x2="535.638695" y2="578.604147" class="t" />
<line x1="504.015429" y1="551.595347" x2="520.889895" y2="563.855347" class="t" />
<line x1="597.403063" y1="379.431504" x2="520.889895" y2="563.855347" class="t" />
<line x1="485.430895" y1="542.126014" x2="504.015429" y2="551.595347" class="t" />
<line x1="553.179330" y1="347.301133" x2="504.015429" y2="551.595347" class="t" />
<line x1="465.593829" y1="535.680614" x2="485.430895" y2="542.126014" class="t" />
<line x1="504.472896" y1="322.483831" x2="485.430895" y2="542.126014" class="t" />
<line x1="444.992695" y1="532.417747" x2="465.593829" y2="535.680614" class="t" />
<line x1="452.482412" y1="305.591267" x2="465.593829" y2="535.680614" class="t" />
<line x1="424.134762" y1="532.417747" x2="444.992695" y2="532.417747" class="t" />
<line x1="398.492680" y1="297.040244" x2="444.992695" y2="532.417747" class="t" />
<line x1="403.533629" y1="535.680614" x2="424.134762" y2="532.417747" class="t" />
<line x1="343.827284" y1="297.040232" x2="424.134762" y2="532.417747" class="t" />
<line x1="383.696562" y1="542.126014" x2="403.533629" y2="535.680614" class="t" />
<line x1="365.112029" y1="551.595347" x2="383.696562" y2="542.126014" class="t" />
<line x1="348.237629" y1="563.855347" x2="365.112029" y2="551.595347" class="t" />
<line x1="333.488829" y1="578.604147" x2="348.237629" y2="563.855347" class="t" />
<line x1="321.228829" y1="595.478547" x2="333.488829" y2="578.604147" class="t" />
<line x1="311.759495" y1="614.063081" x2="321.228829" y2="595.478547" class="t" />
<line x1="305.314029" y1="633.900214" x2="311.759495" y2="614.063081" class="t" />
<line x1="302.051162" y1="654.501347" x2="305.314029" y2="633.900214" class="t" />
<line x1="302.051162" y1="675.359281" x2="302.051162" y2="654.501347" class="t" />
<line x1="305.314029" y1="695.960414" x2="302.051162" y2="675.359281" class="t" />
<line x1="311.759495" y1="715.797481" x2="305.314029" y2="695.960414" class="t" />
<line x1="322.937484" y1="297.948425" x2="343.827284" y2="297.040232" class="t" />
<line x1="563.813429" y1="633.900214" x2="557.368029" y2="614.063081" class="t" />
<line x1="709.897842" y1="563.006697" x2="563.813429" y2="633.900214" class="t" />
<line x1="302.035435" y1="297.389331" x2="322.937484" y2="297.948425" class="t" />
<line x1="567.076295" y1="654.501347" x2="563.813429" y2="633.900214" class="t" />
<line x1="718.448865" y1="616.996429" x2="567.076295" y2="654.501347" class="t" />
<line x1="281.224048" y1="295.365655" x2="302.035435" y2="297.389331" class="t" />
<line x1="567.076362" y1="675.359214" x2="567.076295" y2="654.501347" class="t" />
<line x1="709.897643" y1="725.652907" x2="567.076362" y2="675.359214" class="t" />
<line x1="718.449087" y1="671.660505" x2="567.076362" y2="675.359214" class="t" />
<line x1="705.732787" y1="746.143529" x2="709.897643" y2="725.652907" class="t" />
<line x1="554.610269" y1="736.691195" x2="705.732787" y2="746.143529" class="t" />
<line x1="260.605844" y1="291.887409" x2="281.224048" y2="295.365655" class="t" />
<line x1="546.467606" y1="755.894060" x2="554.610269" y2="736.691195" class="t" />
<line x1="692.528171" y1="799.189346" x2="554.610269" y2="736.691195" class="t" />
<line x1="240.282308" y1="286.971719" x2="260.605844" y2="291.887409" class="t" />
<line x1="535.421209" y1="773.586750" x2="546.467606" y2="755.894060" class="t" />
<line x1="671.187674" y1="849.516680" x2="546.467606" y2="755.894060" class="t" />
<line x1="662.196461" y1="868.394391" x2="671.187674" y2="849.516680" class="t" />
<line x1="654.551333" y1="887.856167" x2="662.196461" y2="868.394391" class="t" />
<line x1="648.289927" y1="907.806262" x2="654.551333" y2="887.856167" class="t" />
<line x1="643.443105" y1="928.146302" x2="648.289927" y2="907.806262" class="t" />
<line x1="640.034711" y1="948.776185" x2="643.443105" y2="928.146302" class="t" />
<line x1="638.081555" y1="969.594312" x2="640.034711" y2="948.776185" class="t" />
<line x1="637.593257" y1="990.498157" x2="638.081555" y2="969.594312" class="t" />
<line x1="638.572189" y1="1011.384835" x2="637.593257" y2="990.498157" class="t" />
<line x1="641.013534" y1="1032.151334" x2="638.572189" y2="1011.384835" class="t" />
<line x1="644.905306" y1="1052.695504" x2="641.013534" y2="1032.151334" class="t" />
<line x1="650.228310" y1="1072.916174" x2="644.905306" y2="1052.695504" class="t" />
<line x1="656.956319" y1="1092.713715" x2="650.228310" y2="1072.916174" class="t" />
<line x1="220.353600" y1="280.642810" x2="240.282308" y2="286.971719" class="t" />
<line x1="521.743102" y1="789.333571" x2="535.421209" y2="773.586750" class="t" />
<line x1="200.917812" y1="272.931829" x2="220.353600" y2="280.642810" class="t" />
<line x1="505.769989" y1="802.746822" x2="521.743102" y2="789.333571" class="t" />
<line x1="182.070627" y1="263.876705" x2="200.917812" y2="272.931829" class="t" />
<line x1="487.895289" y1="813.496164" x2="505.769989" y2="802.746822" class="t" />
<line x1="163.904974" y1="253.522096" x2="182.070627" y2="263.876705" class="t" />
<line x1="468.559093" y1="821.316967" x2="487.895289" y2="813.496164" class="t" />
<line x1="146.510239" y1="241.918988" x2="163.904974" y2="253.522096" class="t" />
<line x1="448.237508" y1="826.016601" x2="468.559093" y2="821.316967" class="t" />
<line x1="129.972085" y1="229.124521" x2="146.510239" y2="241.918988" class="t" />
<line x1="427.430927" y1="827.479345" x2="448.237508" y2="826.016601" class="t" />
<line x1="114.371978" y1="215.201676" x2="129.972085" y2="229.124521" class="t" />
<line x1="406.651624" y1="825.669251" x2="427.430927" y2="827.479345" class="t" />
<line x1="386.411398" y1="820.630881" x2="406.651624" y2="825.669251" class="t" />
<line x1="367.208534" y1="812.488218" x2="386.411398" y2="820.630881" class="t" />
<line x1="349.515843" y1="801.441820" x2="367.208534" y2="812.488218" class="t" />
<line x1="333.769022" y1="787.763713" x2="349.515843" y2="801.441820" class="t" />
</svg>
