<?xml version="1.0"?>
<svg width="873" height="903" version="1.1" xmlns="http://www.w3.org/2000/svg" >
<defs>
<style type="text/css"><![CDATA[
.m {stroke:rgb(255,0,0);stroke-width:1.128750;}
.v {stroke:rgb(0,0,255);stroke-width:1.128750;}
.b {stroke:rgb(0,0,0);stroke-width:2.257500;fill:white}
.n {stroke:rgb(128,128,128);stroke-width:1.128750}
.t {stroke:rgb(0,128,0);stroke-width:1.128750;}
.c {stroke:rgb(128,128,128);stroke-width:1.128750;stroke-dasharray:8.730000, 8.730000;}
]]></style>
</defs>
<path fill="none" style="stroke:black;stroke-width:2.257500;" d=" M 549.21 500.095 L 570.523 441.263 M 570.523 441.263 L 557.551 469.84 M 538.767 529.69 L 583.231 447.578 M 583.231 447.578 L 549.21 500.095 M 526.275 558.48 L 600.588 459.707 M 600.588 459.707 L 538.767 529.69 M 511.794 586.323 L 620.933 478.992 M 620.933 478.992 L 526.275 558.48 M 642.311 506.344 L 511.794 586.323 M 495.396 613.082 L 483.386 642.077 M 483.386 642.077 L 476.059 672.593 M 476.059 672.593 L 473.596 703.88 M 473.596 703.88 L 476.058 735.167 M 476.058 735.167 L 483.384 765.684 M 483.384 765.684 L 495.394 794.678 M 495.394 794.678 L 511.792 821.437 M 511.792 821.437 L 532.173 845.302 M 532.173 845.302 L 556.038 865.684 M 556.038 865.684 L 582.796 882.082 M 582.796 882.082 L 611.791 894.093 M 611.791 894.093 L 642.307 901.419 M 642.307 901.419 L 673.594 903.882 M 673.594 903.882 L 704.881 901.42 M 704.881 901.42 L 735.398 894.094 M 735.398 894.094 L 764.393 882.084 M 764.393 882.084 L 791.152 865.687 M 791.152 865.687 L 815.016 845.305 M 815.016 845.305 L 835.399 821.441 M 835.399 821.441 L 851.797 794.682 M 851.797 794.682 L 863.807 765.687 M 863.807 765.687 L 871.134 735.171 M 871.134 735.171 L 873.596 703.884 M 873.596 703.884 L 642.311 506.344 M 804.64 253.368 L 773.516 249.341 M 563.75 439.075 L 804.64 253.368 M 773.516 249.341 L 742.145 250.234 M 742.145 250.234 L 711.3 256.023 M 711.3 256.023 L 681.74 266.566 M 681.74 266.566 L 654.193 281.603 M 654.193 281.603 L 629.338 300.764 M 629.338 300.764 L 607.786 323.578 M 607.786 323.578 L 590.069 349.482 M 590.069 349.482 L 576.622 377.839 M 576.622 377.839 L 567.777 407.95 M 557.551 469.84 L 563.75 439.075 M 567.777 407.95 L 569.61 376.62 M 569.61 376.62 L 569.241 345.239 M 569.241 345.239 L 566.673 313.96 M 566.673 313.96 L 561.917 282.939 M 561.917 282.939 L 554.997 252.328 M 554.997 252.328 L 545.948 222.277 M 545.948 222.277 L 534.813 192.935 M 534.813 192.935 L 521.648 164.446 M 521.648 164.446 L 506.517 136.951 M 506.517 136.951 L 489.496 110.584 M 489.496 110.584 L 470.667 85.4768 M 470.667 85.4768 L 450.123 61.7512 M 450.123 61.7512 L 427.966 39.5251 M 427.966 39.5251 L 404.305 18.9074 M 404.305 18.9074 L 379.256 0 M 379.256 0 L 122.518 366.177 M 0 796.281 L 30.4659 803.814 M 122.518 366.177 L 0 796.281 M 30.4659 803.814 L 61.3854 809.193 M 61.3854 809.193 L 92.6057 812.389 M 92.6057 812.389 L 123.974 813.388 M 123.974 813.388 L 155.334 812.185 M 155.334 812.185 L 186.533 808.785 M 186.533 808.785 L 217.417 803.206 M 217.417 803.206 L 247.833 795.474 M 247.833 795.474 L 277.632 785.629 M 277.632 785.629 L 306.668 773.717 M 306.668 773.717 L 334.796 759.799 M 334.796 759.799 L 361.879 743.942 M 361.879 743.942 L 387.783 726.225 M 387.783 726.225 L 412.382 706.734 M 412.382 706.734 L 435.552 685.567 M 435.552 685.567 L 457.181 662.826 M 457.181 662.826 L 477.162 638.625 M 477.162 638.625 L 495.396 613.082" />
<path fill="none" class="c" d=" M 495.396 613.082 L 511.794 586.323 M 122.518 366.177 L 495.396 613.082 M 511.794 586.323 L 122.518 366.177 M 526.275 558.48 L 122.518 366.177 M 538.767 529.69 L 122.518 366.177 M 549.21 500.095 L 122.518 366.177 M 549.21 500.095 L 557.551 469.84 M 122.518 366.177 L 477.162 638.625 M 511.794 586.323 L 526.275 558.48 M 526.275 558.48 L 538.767 529.69 M 538.767 529.69 L 549.21 500.095 M 557.551 469.84 L 122.518 366.177 M 563.75 439.075 L 122.518 366.177 M 563.75 439.075 L 567.777 407.95 M 567.777 407.95 L 122.518 366.177 M 569.61 376.62 L 122.518 366.177 M 569.241 345.239 L 122.518 366.177 M 566.673 313.96 L 122.518 366.177 M 561.917 282.939 L 122.518 366.177 M 554.997 252.328 L 122.518 366.177 M 545.948 222.277 L 122.518 366.177 M 534.813 192.935 L 122.518 366.177 M 521.648 164.446 L 122.518 366.177 M 506.517 136.951 L 122.518 366.177 M 489.496 110.584 L 122.518 366.177 M 470.667 85.4768 L 122.518 366.177 M 450.123 61.7512 L 122.518 366.177 M 427.966 39.5251 L 122.518 366.177 M 404.305 18.9074 L 122.518 366.177 M 122.518 366.177 L 457.181 662.826 M 122.518 366.177 L 435.552 685.567 M 122.518 366.177 L 412.382 706.734 M 122.518 366.177 L 387.783 726.225 M 122.518 366.177 L 361.879 743.942 M 122.518 366.177 L 334.796 759.799 M 122.518 366.177 L 306.668 773.717 M 122.518 366.177 L 277.632 785.629 M 122.518 366.177 L 247.833 795.474 M 122.518 366.177 L 217.417 803.206 M 122.518 366.177 L 186.533 808.785 M 122.518 366.177 L 155.334 812.185 M 122.518 366.177 L 123.974 813.388 M 122.518 366.177 L 92.6057 812.389 M 122.518 366.177 L 61.3854 809.193 M 122.518 366.177 L 30.4659 803.814" />
</svg>
