<?xml version="1.0"?>
<svg width="1015" height="1159" version="1.1" xmlns="http://www.w3.org/2000/svg" >
<defs>
<style type="text/css"><![CDATA[
.m {stroke:rgb(255,0,0);stroke-width:1.448750;}
.v {stroke:rgb(0,0,255);stroke-width:1.448750;}
.b {stroke:rgb(0,0,0);stroke-width:2.897500;fill:white}
.n {stroke:rgb(128,128,128);stroke-width:1.448750}
.t {stroke:rgb(0,128,0);stroke-width:1.448750;}
.c {stroke:rgb(128,128,128);stroke-width:1.448750;stroke-dasharray:10.150000, 10.150000;}
]]></style>
</defs>
<path fill="none" style="stroke:black;stroke-width:2.897500;" d=" M 339.873 446.792 L 309.357 454.118 M 309.357 454.118 L 280.362 466.128 M 280.362 466.128 L 253.603 482.526 M 253.603 482.526 L 229.739 502.908 M 229.739 502.908 L 209.357 526.772 M 209.357 526.772 L 192.959 553.531 M 192.959 553.531 L 180.949 582.526 M 180.949 582.526 L 173.622 613.042 M 173.622 613.042 L 171.16 644.329 M 171.16 644.329 L 173.622 675.616 M 173.622 675.616 L 180.949 706.133 M 180.949 706.133 L 192.959 735.127 M 192.959 735.127 L 561.371 706.133 M 208.965 817.391 L 230.971 839.767 M 561.371 706.133 L 208.965 817.391 M 230.971 839.767 L 256.206 858.426 M 256.206 858.426 L 284.049 872.907 M 284.049 872.907 L 313.814 882.854 M 313.814 882.854 L 344.769 888.022 M 344.769 888.022 L 376.152 888.284 M 376.152 888.284 L 407.189 883.633 M 407.189 883.633 L 437.117 874.185 M 437.117 874.185 L 465.198 860.171 M 465.198 860.171 L 490.741 841.937 M 490.741 841.937 L 513.117 819.931 M 513.117 819.931 L 531.775 794.696 M 999.624 795.21 L 568.698 675.616 M 556.203 737.088 L 999.624 795.21 M 546.256 766.853 L 975.125 893.627 M 975.125 893.627 L 556.203 737.088 M 935.532 987 L 546.256 766.853 M 531.775 794.696 L 519.283 823.486 M 519.283 823.486 L 508.84 853.082 M 508.84 853.082 L 500.498 883.337 M 500.498 883.337 L 494.299 914.102 M 494.299 914.102 L 490.273 945.226 M 490.273 945.226 L 488.44 976.556 M 488.44 976.556 L 488.808 1007.94 M 488.808 1007.94 L 491.377 1039.22 M 491.377 1039.22 L 496.132 1070.24 M 496.132 1070.24 L 503.052 1100.85 M 503.052 1100.85 L 512.101 1130.9 M 512.101 1130.9 L 523.236 1160.24 M 523.236 1160.24 L 935.532 987 M 0 311.95 L 22.667 333.655 M 320.449 0 L 0 311.95 M 22.667 333.655 L 46.8003 353.718 M 46.8003 353.718 L 72.2815 372.039 M 72.2815 372.039 L 98.9845 388.527 M 98.9845 388.527 L 126.778 403.103 M 126.778 403.103 L 155.526 415.693 M 155.526 415.693 L 185.086 426.236 M 185.086 426.236 L 215.312 434.68 M 215.312 434.68 L 246.056 440.983 M 246.056 440.983 L 277.167 445.114 M 277.167 445.114 L 308.491 447.054 M 308.491 447.054 L 339.873 446.792 M 371.16 444.329 L 320.449 0 M 402.447 446.792 L 421.871 3.6668e-005 M 421.871 3.6668e-005 L 371.16 444.329 M 432.963 454.118 L 522.037 15.8645 M 522.037 15.8645 L 402.447 446.792 M 461.958 466.128 L 618.497 47.206 M 618.497 47.206 L 432.963 454.118 M 488.717 482.526 L 708.863 93.2499 M 708.863 93.2499 L 461.958 466.128 M 512.581 502.908 L 790.911 152.861 M 790.911 152.861 L 488.717 482.526 M 532.963 526.772 L 862.628 224.578 M 862.628 224.578 L 512.581 502.908 M 549.361 553.531 L 922.238 306.624 M 922.238 306.624 L 532.963 526.772 M 561.371 582.526 L 968.284 396.993 M 968.284 396.993 L 549.361 553.531 M 568.698 613.042 L 999.625 493.452 M 999.625 493.452 L 561.371 582.526 M 571.16 644.329 L 1015.49 593.618 M 1015.49 593.618 L 568.698 613.042 M 1015.49 695.036 L 571.16 644.329 M 568.698 675.616 L 1015.49 695.036" />
<path fill="none" class="c" d=" M 561.371 582.526 L 549.361 553.531 M 549.361 553.531 L 532.963 526.772 M 532.963 526.772 L 512.581 502.908 M 512.581 502.908 L 488.717 482.526 M 488.717 482.526 L 461.958 466.128 M 461.958 466.128 L 432.963 454.118 M 432.963 454.118 L 402.447 446.792 M 402.447 446.792 L 371.16 444.329 M 371.16 444.329 L 339.873 446.792 M 320.449 0 L 339.873 446.792 M 568.698 613.042 L 561.371 582.526 M 320.449 0 L 308.491 447.054 M 571.16 644.329 L 568.698 613.042 M 320.449 0 L 277.167 445.114 M 561.371 706.133 L 568.698 675.616 M 568.698 675.616 L 571.16 644.329 M 561.371 706.133 L 999.624 795.21 M 561.371 706.133 L 556.203 737.088 M 320.449 0 L 246.056 440.983 M 546.256 766.853 L 556.203 737.088 M 320.449 0 L 215.312 434.68 M 531.775 794.696 L 546.256 766.853 M 531.775 794.696 L 935.532 987 M 519.283 823.486 L 935.532 987 M 508.84 853.082 L 935.532 987 M 500.498 883.337 L 935.532 987 M 494.299 914.102 L 935.532 987 M 490.273 945.226 L 935.532 987 M 488.44 976.556 L 935.532 987 M 488.808 1007.94 L 935.532 987 M 491.377 1039.22 L 935.532 987 M 496.132 1070.24 L 935.532 987 M 503.052 1100.85 L 935.532 987 M 512.101 1130.9 L 935.532 987 M 320.449 0 L 185.086 426.236 M 320.449 0 L 155.526 415.693 M 320.449 0 L 126.778 403.103 M 320.449 0 L 98.9845 388.527 M 320.449 0 L 72.2815 372.039 M 320.449 0 L 46.8003 353.718 M 320.449 0 L 22.667 333.655" />
</svg>
