<?xml version="1.0"?>
<svg width="1542" height="1609" version="1.1" xmlns="http://www.w3.org/2000/svg" >
<defs>
<style type="text/css"><![CDATA[
.m {stroke:rgb(255,0,0);stroke-width:2.011250;}
.v {stroke:rgb(0,0,255);stroke-width:2.011250;}
.b {stroke:rgb(0,0,0);stroke-width:4.022500;fill:white}
.n {stroke:rgb(128,128,128);stroke-width:2.011250}
.t {stroke:rgb(0,128,0);stroke-width:2.011250;}
.c {stroke:rgb(128,128,128);stroke-width:2.011250;stroke-dasharray:15.420000, 15.420000;}
]]></style>
</defs>
<path fill="none" style="stroke:black;stroke-width:4.022500;" d=" M 1243.49 1038.85 L 1273.42 1019.1 M 1053.06 685.269 L 1023.13 705.022 M 1273.42 1019.1 L 1303.34 999.345 M 1082.98 665.516 L 1053.06 685.269 M 1303.34 999.345 L 1333.27 979.592 M 1112.91 645.763 L 1082.98 665.516 M 1333.27 979.592 L 1363.19 959.84 M 1142.83 626.01 L 1112.91 645.763 M 1363.19 959.84 L 1393.11 940.087 M 1172.76 606.258 L 1142.83 626.01 M 1393.11 940.087 L 1423.04 920.334 M 1202.68 586.505 L 1172.76 606.258 M 1423.04 920.334 L 1452.96 900.581 M 1232.6 566.752 L 1202.68 586.505 M 1452.96 900.581 L 1482.89 880.828 M 1262.53 546.999 L 1232.6 566.752 M 1482.89 880.828 L 1512.81 861.076 M 1292.45 527.246 L 1262.53 546.999 M 1512.81 861.076 L 1542.74 841.323 M 1542.74 841.323 L 1292.45 527.246 M 933.362 412.042 L 1057.6 30.1376 M 1057.6 30.1376 L 1024.63 16.0457 M 1024.63 16.0457 L 900.391 397.95 M 900.391 397.95 L 954.443 0 M 954.443 0 L 865.435 389.971 M 12.8305 621.553 L 6.42823 656.833 M 406.402 692.976 L 12.8305 621.553 M 6.42823 656.833 L 400 728.255 M 6.81741e-005 728.255 L 0 764.11 M 400 728.255 L 6.81741e-005 728.255 M 0 764.11 L 400 764.111 M 585.161 1473.41 L 615.085 1453.66 M 364.802 1139.58 L 585.161 1473.41 M 394.726 1119.83 L 364.802 1139.58 M 615.085 1453.66 L 645.009 1433.91 M 424.65 1100.08 L 394.726 1119.83 M 645.009 1433.91 L 674.934 1414.15 M 454.575 1080.33 L 424.65 1100.08 M 674.934 1414.15 L 704.858 1394.4 M 484.499 1060.57 L 454.575 1080.33 M 704.858 1394.4 L 734.782 1374.65 M 514.423 1040.82 L 484.499 1060.57 M 734.782 1374.65 L 764.706 1354.9 M 544.347 1021.07 L 514.423 1040.82 M 764.706 1354.9 L 794.63 1335.14 M 574.272 1001.31 L 544.347 1021.07 M 794.63 1335.14 L 824.555 1315.39 M 604.196 981.561 L 574.272 1001.31 M 824.555 1315.39 L 854.479 1295.64 M 634.12 961.808 L 604.196 981.561 M 854.479 1295.64 L 884.403 1275.88 M 664.044 942.055 L 634.12 961.808 M 884.403 1275.88 L 914.327 1256.13 M 693.968 922.303 L 664.044 942.055 M 1183.65 1078.36 L 1213.57 1058.6 M 993.211 724.774 L 963.286 744.527 M 1213.57 1058.6 L 1243.49 1038.85 M 1023.13 705.022 L 993.211 724.774 M 1287.39 1054.68 L 1251.57 1056.29 M 1322.92 1059.49 L 1287.39 1054.68 M 1357.02 1070.57 L 1322.92 1059.49 M 1388.6 1087.56 L 1357.02 1070.57 M 1416.63 1109.92 L 1388.6 1087.56 M 1440.22 1136.92 L 1416.63 1109.92 M 1458.61 1167.7 L 1440.22 1136.92 M 1471.21 1201.27 L 1458.61 1167.7 M 1477.61 1236.55 L 1471.21 1201.27 M 1477.61 1272.4 L 1477.61 1236.55 M 1278.42 1254.48 L 1471.21 1307.68 M 1471.21 1307.68 L 1477.61 1272.4 M 977.222 1602.71 L 1012.18 1610.69 M 1012.18 1610.69 L 1039.03 1412.5 M 944.252 1588.62 L 977.222 1602.71 M 914.328 1568.86 L 944.252 1588.62 M 888.411 1544.09 L 914.328 1568.86 M 867.336 1515.08 L 888.411 1544.09 M 851.779 1482.77 L 867.336 1515.08 M 842.24 1448.21 L 851.779 1482.77 M 839.025 1412.5 L 842.24 1448.21 M 842.24 1376.79 L 839.025 1412.5 M 851.779 1342.22 L 842.24 1376.79 M 867.336 1309.92 L 851.779 1342.22 M 888.411 1280.91 L 867.336 1309.92 M 914.327 1256.13 L 888.411 1280.91 M 1039.03 1412.5 L 944.252 1236.38 M 1068.95 1392.75 L 974.176 1216.63 M 944.252 1236.38 L 1068.95 1392.75 M 1098.87 1372.99 L 1004.1 1196.87 M 974.176 1216.63 L 1098.87 1372.99 M 1128.8 1353.24 L 1034.02 1177.12 M 1004.1 1196.87 L 1128.8 1353.24 M 1158.72 1333.49 L 1063.95 1157.37 M 1034.02 1177.12 L 1158.72 1333.49 M 1188.65 1313.73 L 1093.87 1137.61 M 1063.95 1157.37 L 1188.65 1313.73 M 1218.57 1293.98 L 1123.8 1117.86 M 1093.87 1137.61 L 1218.57 1293.98 M 1248.49 1274.23 L 1153.72 1098.11 M 1123.8 1117.86 L 1248.49 1274.23 M 1153.72 1098.11 L 1278.42 1254.48 M 1216.62 1064.26 L 1183.65 1078.36 M 1251.57 1056.29 L 1216.62 1064.26 M 1010.28 690.741 L 1025.84 658.436 M 1025.84 658.436 L 1035.37 623.872 M 1035.37 623.872 L 1038.59 588.161 M 1038.59 588.161 L 1035.37 552.449 M 1035.37 552.449 L 1025.83 517.886 M 1025.83 517.886 L 1010.28 485.581 M 1010.28 485.581 L 989.202 456.573 M 989.202 456.573 L 963.286 431.795 M 963.286 431.795 L 933.362 412.042 M 865.435 389.971 L 838.588 588.161 M 599.195 746.183 L 406.402 692.976 M 400 764.111 L 406.402 799.391 M 406.402 799.391 L 419.001 832.96 M 419.001 832.96 L 437.391 863.74 M 437.391 863.74 L 460.982 890.742 M 460.982 890.742 L 489.015 913.098 M 489.015 913.098 L 520.59 930.089 M 520.59 930.089 L 554.691 941.169 M 554.691 941.169 L 590.222 945.982 M 590.222 945.982 L 626.041 944.373 M 626.041 944.373 L 660.998 936.395 M 660.998 936.395 L 693.968 922.303 M 723.893 902.55 L 599.195 746.183 M 753.817 882.797 L 629.119 726.431 M 629.119 726.431 L 723.893 902.55 M 783.741 863.044 L 659.044 706.677 M 659.044 706.677 L 753.817 882.797 M 813.665 843.291 L 688.967 686.925 M 688.967 686.925 L 783.741 863.044 M 843.59 823.538 L 718.892 667.172 M 718.892 667.172 L 813.665 843.291 M 873.514 803.786 L 748.816 647.419 M 748.816 647.419 L 843.59 823.538 M 903.438 784.033 L 778.74 627.667 M 778.74 627.667 L 873.514 803.786 M 933.362 764.28 L 808.664 607.914 M 808.664 607.914 L 903.438 784.033 M 838.588 588.161 L 933.362 764.28 M 963.286 744.527 L 989.203 719.749 M 989.203 719.749 L 1010.28 690.741" />
<path fill="none" class="c" d=" M 813.665 843.291 L 1034.02 1177.12 M 1034.02 1177.12 L 1063.95 1157.37 M 843.59 823.538 L 813.665 843.291 M 1063.95 1157.37 L 843.59 823.538 M 1063.95 1157.37 L 1093.87 1137.61 M 873.514 803.786 L 843.59 823.538 M 1093.87 1137.61 L 873.514 803.786 M 1093.87 1137.61 L 1123.8 1117.86 M 903.438 784.033 L 873.514 803.786 M 1123.8 1117.86 L 903.438 784.033 M 1123.8 1117.86 L 1153.72 1098.11 M 933.362 764.28 L 903.438 784.033 M 1153.72 1098.11 L 933.362 764.28 M 1153.72 1098.11 L 1183.65 1078.36 M 963.286 744.527 L 933.362 764.28 M 1183.65 1078.36 L 963.286 744.527 M 1213.57 1058.6 L 993.211 724.774 M 1243.49 1038.85 L 1023.13 705.022 M 813.665 843.291 L 783.741 863.044 M 933.362 412.042 L 900.391 397.95 M 900.391 397.95 L 865.435 389.971 M 1273.42 1019.1 L 1053.06 685.269 M 1303.34 999.345 L 1082.98 665.516 M 1333.27 979.592 L 1112.91 645.763 M 1363.19 959.84 L 1142.83 626.01 M 1393.11 940.087 L 1172.76 606.258 M 1423.04 920.334 L 1202.68 586.505 M 1452.96 900.581 L 1232.6 566.752 M 1482.89 880.828 L 1262.53 546.999 M 1512.81 861.076 L 1292.45 527.246 M 1057.6 30.1376 L 900.391 397.95 M 783.741 863.044 L 1004.1 1196.87 M 1004.1 1196.87 L 1034.02 1177.12 M 783.741 863.044 L 753.817 882.797 M 753.817 882.797 L 974.176 1216.63 M 974.176 1216.63 L 1004.1 1196.87 M 753.817 882.797 L 723.893 902.55 M 723.893 902.55 L 944.252 1236.38 M 944.252 1236.38 L 974.176 1216.63 M 723.893 902.55 L 693.968 922.303 M 693.968 922.303 L 914.327 1256.13 M 914.327 1256.13 L 944.252 1236.38 M 664.044 942.055 L 884.403 1275.88 M 634.12 961.808 L 854.479 1295.64 M 604.196 981.561 L 824.555 1315.39 M 574.272 1001.31 L 794.63 1335.14 M 544.347 1021.07 L 764.706 1354.9 M 400 728.255 L 400 764.111 M 514.423 1040.82 L 734.782 1374.65 M 406.402 692.976 L 400 728.255 M 484.499 1060.57 L 704.858 1394.4 M 454.575 1080.33 L 674.934 1414.15 M 424.65 1100.08 L 645.009 1433.91 M 394.726 1119.83 L 615.085 1453.66" />
</svg>
