<?xml version="1.0"?>
<svg width="1622" height="1539" version="1.1" xmlns="http://www.w3.org/2000/svg" >
<defs>
<style type="text/css"><![CDATA[
.m {stroke:rgb(255,0,0);stroke-width:2.027500;}
.v {stroke:rgb(0,0,255);stroke-width:2.027500;}
.b {stroke:rgb(0,0,0);stroke-width:4.055000;fill:white}
.n {stroke:rgb(128,128,128);stroke-width:2.027500}
.t {stroke:rgb(0,128,0);stroke-width:2.027500;}
.c {stroke:rgb(128,128,128);stroke-width:2.027500;stroke-dasharray:16.220000, 16.220000;}
]]></style>
</defs>
<path fill="none" style="stroke:black;stroke-width:4.055000;" d=" M 1347.42 915.926 L 1097.13 601.849 M 1097.13 601.849 L 1399.48 866.189 M 1399.48 866.189 L 1425.39 841.41 M 1425.39 841.41 L 1123.05 577.071 M 1123.05 577.071 L 1467.73 783.178 M 1467.73 783.178 L 1488.81 754.17 M 1488.81 754.17 L 1144.13 548.063 M 1144.13 548.063 L 1520.07 689.312 M 1520.07 689.312 L 1535.63 657.007 M 1535.63 657.007 L 1159.68 515.758 M 1159.68 515.758 L 1554.81 587.61 M 1554.81 587.61 L 1564.35 553.046 M 1564.35 553.046 L 1169.22 481.195 M 1169.22 481.195 L 1570.83 481.34 M 1570.83 481.34 L 1574.04 445.629 M 1574.04 445.629 L 1172.44 445.483 M 1172.44 445.483 L 1567.61 373.916 M 1567.61 373.916 L 1564.4 338.205 M 1564.4 338.205 L 1169.22 409.772 M 1169.22 409.772 L 1545.27 268.795 M 1545.27 268.795 L 1535.73 234.232 M 1535.73 234.232 L 1159.68 375.208 M 1159.68 375.208 L 1504.51 169.351 M 1504.51 169.351 L 1488.96 137.046 M 1488.96 137.046 L 1144.13 342.903 M 1144.13 342.903 L 1446.66 78.7803 M 1446.66 78.7803 L 1425.58 49.7725 M 1425.58 49.7725 L 1123.05 313.895 M 1123.05 313.895 L 1373.56 0 M 1373.56 0 L 1097.13 289.117 M 0 1033.71 L 18.3903 1064.49 M 343.38 828.552 L 0 1033.71 M 18.3903 1064.49 L 361.77 859.332 M 60.5407 1122.51 L 84.1316 1149.51 M 361.77 859.332 L 60.5407 1122.51 M 84.1316 1149.51 L 385.361 886.334 M 135.964 1199.07 L 163.997 1221.42 M 385.361 886.334 L 135.964 1199.07 M 163.997 1221.42 L 413.394 908.69 M 223.846 1260.93 L 255.42 1277.92 M 413.394 908.69 L 223.846 1260.93 M 255.42 1277.92 L 444.968 925.681 M 689.085 1350.49 L 719.009 1330.73 M 468.726 1016.66 L 689.085 1350.49 M 498.65 996.906 L 468.726 1016.66 M 719.009 1330.73 L 748.933 1310.98 M 528.574 977.153 L 498.65 996.906 M 748.933 1310.98 L 778.857 1291.23 M 558.499 957.4 L 528.574 977.153 M 778.857 1291.23 L 808.782 1271.48 M 588.423 937.647 L 558.499 957.4 M 808.782 1271.48 L 838.706 1251.72 M 618.347 917.894 L 588.423 937.647 M 1412.27 1111.8 L 1317.49 935.679 M 1287.57 955.431 L 1412.27 1111.8 M 1317.49 935.679 L 1442.19 1092.04 M 1380.39 901.834 L 1347.42 915.926 M 1415.34 893.855 L 1380.39 901.834 M 1451.16 892.246 L 1415.34 893.855 M 1486.7 897.059 L 1451.16 892.246 M 1520.8 908.139 L 1486.7 897.059 M 1552.37 925.13 L 1520.8 908.139 M 1580.4 947.486 L 1552.37 925.13 M 1603.99 974.488 L 1580.4 947.486 M 1442.19 1092.04 L 1622.39 1005.27 M 1622.39 1005.27 L 1603.99 974.488 M 791.715 1510.67 L 812.79 1539.68 M 812.79 1539.68 L 963.404 1408.09 M 776.157 1478.36 L 791.715 1510.67 M 766.618 1443.8 L 776.157 1478.36 M 763.404 1408.09 L 766.618 1443.8 M 766.618 1372.38 L 763.404 1408.09 M 776.157 1337.82 L 766.618 1372.38 M 791.714 1305.51 L 776.157 1337.82 M 812.789 1276.5 L 791.714 1305.51 M 838.706 1251.72 L 812.789 1276.5 M 963.404 1408.09 L 868.63 1231.97 M 993.328 1388.34 L 898.554 1212.22 M 868.63 1231.97 L 993.328 1388.34 M 1023.25 1368.58 L 928.478 1192.47 M 898.554 1212.22 L 1023.25 1368.58 M 1053.18 1348.83 L 958.403 1172.71 M 928.478 1192.47 L 1053.18 1348.83 M 1083.1 1329.08 L 988.327 1152.96 M 958.403 1172.71 L 1083.1 1329.08 M 1113.02 1309.33 L 1018.25 1133.21 M 988.327 1152.96 L 1113.02 1309.33 M 1142.95 1289.57 L 1048.18 1113.45 M 1018.25 1133.21 L 1142.95 1289.57 M 1172.87 1269.82 L 1078.1 1093.7 M 1048.18 1113.45 L 1172.87 1269.82 M 1202.8 1250.07 L 1108.02 1073.95 M 1078.1 1093.7 L 1202.8 1250.07 M 1232.72 1230.31 L 1137.95 1054.2 M 1108.02 1073.95 L 1232.72 1230.31 M 1262.65 1210.56 L 1167.87 1034.44 M 1137.95 1054.2 L 1262.65 1210.56 M 1292.57 1190.81 L 1197.8 1014.69 M 1167.87 1034.44 L 1292.57 1190.81 M 1322.49 1171.06 L 1227.72 994.937 M 1197.8 1014.69 L 1322.49 1171.06 M 1352.42 1151.3 L 1257.64 975.184 M 1227.72 994.937 L 1352.42 1151.3 M 1257.64 975.184 L 1382.34 1131.55 M 1382.34 1131.55 L 1287.57 955.431 M 972.437 445.483 L 1067.21 621.602 M 1097.13 289.117 L 972.437 445.483 M 523.573 741.775 L 343.38 828.552 M 444.968 925.681 L 479.069 936.761 M 479.069 936.761 L 514.6 941.574 M 514.6 941.574 L 550.42 939.965 M 550.42 939.965 L 585.377 931.987 M 585.377 931.987 L 618.347 917.894 M 648.271 898.141 L 523.573 741.775 M 678.195 878.389 L 553.497 722.023 M 553.497 722.023 L 648.271 898.141 M 708.12 858.636 L 583.421 702.27 M 583.421 702.27 L 678.195 878.389 M 738.044 838.883 L 613.346 682.517 M 613.346 682.517 L 708.12 858.636 M 767.968 819.13 L 643.27 662.764 M 643.27 662.764 L 738.044 838.883 M 797.892 799.377 L 673.194 643.011 M 673.194 643.011 L 767.968 819.13 M 827.817 779.625 L 703.119 623.258 M 703.119 623.258 L 797.892 799.377 M 857.741 759.872 L 733.043 603.506 M 733.043 603.506 L 827.817 779.625 M 887.665 740.119 L 762.967 583.753 M 762.967 583.753 L 857.741 759.872 M 917.589 720.366 L 792.891 564 M 792.891 564 L 887.665 740.119 M 947.513 700.613 L 822.815 544.247 M 822.815 544.247 L 917.589 720.366 M 977.438 680.861 L 852.739 524.494 M 852.739 524.494 L 947.513 700.613 M 1007.36 661.108 L 882.664 504.742 M 882.664 504.742 L 977.438 680.861 M 1037.29 641.355 L 912.588 484.988 M 912.588 484.988 L 1007.36 661.108 M 942.513 465.236 L 1037.29 641.355 M 1067.21 621.602 L 942.513 465.236" />
<path fill="none" class="c" d=" M 857.741 759.872 L 1078.1 1093.7 M 1078.1 1093.7 L 1108.02 1073.95 M 887.665 740.119 L 857.741 759.872 M 1108.02 1073.95 L 887.665 740.119 M 1108.02 1073.95 L 1137.95 1054.2 M 917.589 720.366 L 887.665 740.119 M 1137.95 1054.2 L 917.589 720.366 M 1137.95 1054.2 L 1167.87 1034.44 M 947.513 700.613 L 917.589 720.366 M 1167.87 1034.44 L 947.513 700.613 M 1167.87 1034.44 L 1197.8 1014.69 M 977.438 680.861 L 947.513 700.613 M 1197.8 1014.69 L 977.438 680.861 M 1197.8 1014.69 L 1227.72 994.937 M 1007.36 661.108 L 977.438 680.861 M 1227.72 994.937 L 1007.36 661.108 M 1227.72 994.937 L 1257.64 975.184 M 1037.29 641.355 L 1007.36 661.108 M 1257.64 975.184 L 1037.29 641.355 M 1257.64 975.184 L 1287.57 955.431 M 1067.21 621.602 L 1037.29 641.355 M 1287.57 955.431 L 1067.21 621.602 M 1287.57 955.431 L 1317.49 935.679 M 857.741 759.872 L 827.817 779.625 M 1317.49 935.679 L 1097.13 601.849 M 1097.13 601.849 L 1067.21 621.602 M 1317.49 935.679 L 1347.42 915.926 M 827.817 779.625 L 1048.18 1113.45 M 1048.18 1113.45 L 1078.1 1093.7 M 1097.13 601.849 L 1123.05 577.071 M 1123.05 577.071 L 1144.13 548.063 M 1144.13 548.063 L 1159.68 515.758 M 1159.68 515.758 L 1169.22 481.195 M 1169.22 481.195 L 1172.44 445.483 M 1172.44 445.483 L 1169.22 409.772 M 1169.22 409.772 L 1159.68 375.208 M 1159.68 375.208 L 1144.13 342.903 M 1144.13 342.903 L 1123.05 313.895 M 1123.05 313.895 L 1097.13 289.117 M 1399.48 866.189 L 1123.05 577.071 M 1467.73 783.178 L 1144.13 548.063 M 1520.07 689.312 L 1159.68 515.758 M 1554.81 587.61 L 1169.22 481.195 M 1570.83 481.34 L 1172.44 445.483 M 1567.61 373.916 L 1169.22 409.772 M 1545.27 268.795 L 1159.68 375.208 M 1504.51 169.351 L 1144.13 342.903 M 1446.66 78.7803 L 1123.05 313.895 M 827.817 779.625 L 797.892 799.377 M 797.892 799.377 L 1018.25 1133.21 M 1018.25 1133.21 L 1048.18 1113.45 M 797.892 799.377 L 767.968 819.13 M 767.968 819.13 L 988.327 1152.96 M 988.327 1152.96 L 1018.25 1133.21 M 767.968 819.13 L 738.044 838.883 M 738.044 838.883 L 958.403 1172.71 M 958.403 1172.71 L 988.327 1152.96 M 738.044 838.883 L 708.12 858.636 M 708.12 858.636 L 928.478 1192.47 M 928.478 1192.47 L 958.403 1172.71 M 708.12 858.636 L 678.195 878.389 M 678.195 878.389 L 898.554 1212.22 M 898.554 1212.22 L 928.478 1192.47 M 678.195 878.389 L 648.271 898.141 M 648.271 898.141 L 868.63 1231.97 M 868.63 1231.97 L 898.554 1212.22 M 648.271 898.141 L 618.347 917.894 M 618.347 917.894 L 838.706 1251.72 M 838.706 1251.72 L 868.63 1231.97 M 588.423 937.647 L 808.782 1271.48 M 558.499 957.4 L 778.857 1291.23 M 413.394 908.69 L 444.968 925.681 M 528.574 977.153 L 748.933 1310.98 M 385.361 886.334 L 413.394 908.69 M 361.77 859.332 L 385.361 886.334 M 498.65 996.906 L 719.009 1330.73 M 343.38 828.552 L 361.77 859.332" />
</svg>
