<?xml version="1.0"?>
<svg width="1562" height="1695" version="1.1" xmlns="http://www.w3.org/2000/svg" >
<defs>
<style type="text/css"><![CDATA[
.m {stroke:rgb(255,0,0);stroke-width:2.118750;}
.v {stroke:rgb(0,0,255);stroke-width:2.118750;}
.b {stroke:rgb(0,0,0);stroke-width:4.237500;fill:white}
.n {stroke:rgb(128,128,128);stroke-width:2.118750}
.t {stroke:rgb(0,128,0);stroke-width:2.118750;}
.c {stroke:rgb(128,128,128);stroke-width:2.118750;stroke-dasharray:15.620000, 15.620000;}
]]></style>
</defs>
<path fill="none" style="stroke:black;stroke-width:4.237500;" d=" M 964.584 901.825 L 1362.97 937.68 M 1366.19 901.969 L 967.798 866.114 M 967.798 866.114 L 1366.19 830.258 M 1362.97 794.546 L 964.584 830.402 M 964.584 830.402 L 1350.17 723.988 M 1340.63 689.424 L 955.045 795.839 M 955.045 795.839 L 1315.43 622.285 M 1299.88 589.98 L 939.488 763.534 M 939.488 763.534 L 1263.09 528.42 M 1242.02 499.412 L 918.413 734.526 M 918.413 734.526 L 1194.84 445.409 M 1168.92 420.63 L 892.496 709.748 M 892.496 709.748 L 1112.85 375.918 M 1082.93 356.165 L 862.572 689.995 M 94.0135 775.457 L 75.6229 806.238 M 437.392 980.619 L 94.0135 775.457 M 75.6229 806.238 L 419.001 1011.4 M 44.5077 870.848 L 31.9088 904.418 M 419.001 1011.4 L 44.5077 870.848 M 31.9088 904.418 L 406.402 1044.97 M 12.8303 973.547 L 6.42814 1008.83 M 406.402 1044.97 L 12.8303 973.547 M 6.42814 1008.83 L 400 1080.25 M 0.000167913 1080.25 L 0 1116.1 M 400 1080.25 L 0.000167913 1080.25 M 0 1116.1 L 400 1116.1 M 6.42807 1187.53 L 12.8303 1222.81 M 400 1116.1 L 6.42807 1187.53 M 12.8303 1222.81 L 406.402 1151.38 M 31.9078 1291.93 L 44.5065 1325.5 M 406.402 1151.38 L 31.9078 1291.93 M 44.5065 1325.5 L 419.001 1184.95 M 75.6206 1390.11 L 94.0108 1420.89 M 419.001 1184.95 L 75.6206 1390.11 M 94.0108 1420.89 L 437.391 1215.73 M 136.162 1478.91 L 159.753 1505.91 M 437.391 1215.73 L 136.162 1478.91 M 159.753 1505.91 L 460.982 1242.74 M 211.586 1555.47 L 239.62 1577.82 M 460.982 1242.74 L 211.586 1555.47 M 239.62 1577.82 L 489.015 1265.09 M 904.811 1696.94 L 925.887 1667.93 M 581.205 1461.83 L 904.811 1696.94 M 602.28 1432.82 L 581.205 1461.83 M 925.887 1667.93 L 946.962 1638.93 M 623.356 1403.81 L 602.28 1432.82 M 946.962 1638.93 L 968.038 1609.92 M 644.431 1374.8 L 623.356 1403.81 M 968.038 1609.92 L 989.113 1580.91 M 665.507 1345.8 L 644.431 1374.8 M 989.113 1580.91 L 1010.19 1551.9 M 686.582 1316.79 L 665.507 1345.8 M 1010.19 1551.9 L 1031.26 1522.89 M 707.658 1287.78 L 686.582 1316.79 M 1031.26 1522.89 L 1052.34 1493.89 M 728.733 1258.77 L 707.658 1287.78 M 1052.34 1493.89 L 1073.42 1464.88 M 749.809 1229.76 L 728.733 1258.77 M 1073.42 1464.88 L 1094.49 1435.87 M 1094.49 1435.87 L 1115.57 1406.86 M 1115.57 1406.86 L 1136.64 1377.86 M 1136.64 1377.86 L 1157.72 1348.85 M 1157.72 1348.85 L 1178.79 1319.84 M 1178.79 1319.84 L 1199.87 1290.83 M 1199.87 1290.83 L 1220.94 1261.82 M 1220.94 1261.82 L 1242.02 1232.82 M 1242.02 1232.82 L 1263.09 1203.81 M 1284.17 1174.8 L 939.488 968.694 M 939.488 968.694 L 1315.43 1109.94 M 1330.99 1077.64 L 955.046 936.389 M 1350.17 1008.24 L 964.584 901.825 M 955.046 936.389 L 1350.17 1008.24 M 1562.97 937.68 L 1366.19 901.969 M 1362.97 937.68 L 1562.97 937.68 M 1562.97 794.546 L 1362.97 794.546 M 1366.19 830.258 L 1562.97 794.546 M 1537.42 653.713 L 1340.63 689.424 M 1350.17 723.988 L 1537.42 653.713 M 1487.12 519.705 L 1299.88 589.98 M 1315.43 622.285 L 1487.12 519.705 M 1413.71 396.832 L 1242.02 499.412 M 1263.09 528.42 L 1413.71 396.832 M 1319.54 289.043 L 1168.92 420.63 M 1194.84 445.409 L 1319.54 289.043 M 1112.85 375.918 L 1207.63 199.799 M 1057.01 331.387 L 1082.93 356.165 M 1035.94 302.379 L 1057.01 331.387 M 1020.38 270.074 L 1035.94 302.379 M 1010.84 235.511 L 1020.38 270.074 M 1007.63 199.799 L 1010.84 235.511 M 1010.84 164.088 L 1007.63 199.799 M 1020.38 129.524 L 1010.84 164.088 M 1035.94 97.2193 L 1020.38 129.524 M 1057.01 68.2114 L 1035.94 97.2193 M 1082.93 43.4328 L 1057.01 68.2114 M 1112.85 23.6798 L 1082.93 43.4328 M 1145.82 9.58743 L 1112.85 23.6798 M 1180.78 1.60875 L 1145.82 9.58743 M 1216.6 0 L 1180.78 1.60875 M 1252.13 4.81286 L 1216.6 0 M 1286.23 15.8927 L 1252.13 4.81286 M 1207.63 199.799 L 1317.81 32.8835 M 1317.81 32.8835 L 1286.23 15.8927 M 1310.09 1462.75 L 1340.01 1482.51 M 1340.01 1482.51 L 1434.78 1306.39 M 1284.17 1437.98 L 1310.09 1462.75 M 1263.1 1408.97 L 1284.17 1437.98 M 1247.54 1376.66 L 1263.1 1408.97 M 1238 1342.1 L 1247.54 1376.66 M 1234.78 1306.39 L 1238 1342.1 M 1238 1270.68 L 1234.78 1306.39 M 1247.54 1236.11 L 1238 1270.68 M 1263.09 1203.81 L 1247.54 1236.11 M 1434.78 1306.39 L 1284.17 1174.8 M 1315.43 1109.94 L 1502.68 1180.22 M 1502.68 1180.22 L 1330.99 1077.64 M 862.572 689.995 L 767.799 866.114 M 599.195 1098.18 L 437.392 980.619 M 489.015 1265.09 L 520.589 1282.08 M 520.589 1282.08 L 554.69 1293.16 M 554.69 1293.16 L 590.222 1297.98 M 590.222 1297.98 L 626.041 1296.37 M 626.041 1296.37 L 660.998 1288.39 M 660.998 1288.39 L 693.968 1274.3 M 693.968 1274.3 L 723.893 1254.54 M 723.893 1254.54 L 749.809 1229.76 M 770.884 1200.76 L 599.195 1098.18 M 791.96 1171.75 L 620.27 1069.17 M 620.27 1069.17 L 770.884 1200.76 M 813.035 1142.74 L 641.346 1040.16 M 641.346 1040.16 L 791.96 1171.75 M 834.111 1113.73 L 662.421 1011.15 M 662.421 1011.15 L 813.035 1142.74 M 855.186 1084.73 L 683.497 982.145 M 683.497 982.145 L 834.111 1113.73 M 876.262 1055.72 L 704.572 953.137 M 704.572 953.137 L 855.186 1084.73 M 897.337 1026.71 L 725.648 924.13 M 725.648 924.13 L 876.262 1055.72 M 918.413 997.702 L 746.723 895.122 M 746.723 895.122 L 897.337 1026.71 M 767.799 866.114 L 918.413 997.702" />
<path fill="none" class="c" d=" M 876.262 1055.72 L 1199.87 1290.83 M 897.337 1026.71 L 876.262 1055.72 M 1220.94 1261.82 L 897.337 1026.71 M 918.413 997.702 L 897.337 1026.71 M 1242.02 1232.82 L 918.413 997.702 M 1263.09 1203.81 L 939.488 968.694 M 1263.09 1203.81 L 1284.17 1174.8 M 939.488 968.694 L 918.413 997.702 M 876.262 1055.72 L 855.186 1084.73 M 939.488 968.694 L 955.046 936.389 M 955.046 936.389 L 964.584 901.825 M 964.584 901.825 L 967.798 866.114 M 855.186 1084.73 L 1178.79 1319.84 M 1315.43 1109.94 L 955.046 936.389 M 1315.43 1109.94 L 1330.99 1077.64 M 967.798 866.114 L 964.584 830.402 M 964.584 830.402 L 955.045 795.839 M 955.045 795.839 L 939.488 763.534 M 939.488 763.534 L 918.413 734.526 M 918.413 734.526 L 892.496 709.748 M 892.496 709.748 L 862.572 689.995 M 1362.97 937.68 L 1366.19 901.969 M 855.186 1084.73 L 834.111 1113.73 M 1366.19 830.258 L 1362.97 794.546 M 1350.17 723.988 L 1340.63 689.424 M 1315.43 622.285 L 1299.88 589.98 M 1263.09 528.42 L 1242.02 499.412 M 1194.84 445.409 L 1168.92 420.63 M 1112.85 375.918 L 1082.93 356.165 M 834.111 1113.73 L 1157.72 1348.85 M 834.111 1113.73 L 813.035 1142.74 M 813.035 1142.74 L 1136.64 1377.86 M 813.035 1142.74 L 791.96 1171.75 M 791.96 1171.75 L 1115.57 1406.86 M 791.96 1171.75 L 770.884 1200.76 M 770.884 1200.76 L 1094.49 1435.87 M 770.884 1200.76 L 749.809 1229.76 M 749.809 1229.76 L 1073.42 1464.88 M 728.733 1258.77 L 1052.34 1493.89 M 707.658 1287.78 L 1031.26 1522.89 M 686.582 1316.79 L 1010.19 1551.9 M 665.507 1345.8 L 989.113 1580.91 M 460.982 1242.74 L 489.015 1265.09 M 437.391 1215.73 L 460.982 1242.74 M 644.431 1374.8 L 968.038 1609.92 M 419.001 1184.95 L 437.391 1215.73 M 406.402 1151.38 L 419.001 1184.95 M 623.356 1403.81 L 946.962 1638.93 M 400 1116.1 L 406.402 1151.38 M 400 1080.25 L 400 1116.1 M 602.28 1432.82 L 925.887 1667.93 M 406.402 1044.97 L 400 1080.25 M 419.001 1011.4 L 406.402 1044.97 M 437.392 980.619 L 419.001 1011.4" />
<line x1="977.105531" y1="1143.758158" x2="1099.024696" y2="1202.791090" class="t" />
<line x1="998.181059" y1="1114.750258" x2="1099.024696" y2="1202.791090" class="t" />
<line x1="833.082289" y1="1002.185492" x2="998.181059" y2="1114.750258" class="t" />
<line x1="1120.100245" y1="1173.783160" x2="998.181059" y2="1114.750258" class="t" />
<line x1="1019.256558" y1="1085.742396" x2="1120.100245" y2="1173.783160" class="t" />
<line x1="854.157814" y1="973.177569" x2="1019.256558" y2="1085.742396" class="t" />
<line x1="1141.175717" y1="1144.775336" x2="1019.256558" y2="1085.742396" class="t" />
<line x1="1040.332053" y1="1056.734541" x2="1141.175717" y2="1144.775336" class="t" />
<line x1="1162.251232" y1="1115.767453" x2="1040.332053" y2="1056.734541" class="t" />
<line x1="1327.350052" y1="1228.332186" x2="1162.251232" y2="1115.767453" class="t" />
<line x1="1315.139166" y1="1248.769796" x2="1327.350052" y2="1228.332186" class="t" />
<line x1="875.233268" y1="944.169751" x2="1040.332053" y2="1056.734541" class="t" />
<line x1="887.444154" y1="923.732141" x2="875.233268" y2="944.169751" class="t" />
<line x1="895.809478" y1="901.442611" x2="887.444154" y2="923.732141" class="t" />
<line x1="1077.949240" y1="1231.798891" x2="977.105531" y2="1143.758158" class="t" />
<line x1="812.006828" y1="1031.193308" x2="977.105531" y2="1143.758158" class="t" />
<line x1="1306.773832" y1="1271.059288" x2="1315.139166" y2="1248.769796" class="t" />
<line x1="900.060433" y1="878.017590" x2="895.809478" y2="901.442611" class="t" />
<line x1="1069.989145" y1="1005.007980" x2="887.444154" y2="923.732141" class="t" />
<line x1="1089.933254" y1="948.817513" x2="895.809478" y2="901.442611" class="t" />
<line x1="1099.523641" y1="889.969242" x2="900.060433" y2="878.017590" class="t" />
<line x1="956.030114" y1="1172.765906" x2="1077.949240" y2="1231.798891" class="t" />
<line x1="1200.489902" y1="1041.322208" x2="1069.989145" y2="1005.007980" class="t" />
<line x1="1383.035023" y1="1122.597700" x2="1200.489902" y2="1041.322208" class="t" />
<line x1="1302.522875" y1="1294.484312" x2="1306.773832" y2="1271.059288" class="t" />
<line x1="900.060406" y1="854.210023" x2="900.060433" y2="878.017590" class="t" />
<line x1="1098.452216" y1="830.354190" x2="900.060406" y2="854.210023" class="t" />
<line x1="895.809398" y1="830.785102" x2="900.060406" y2="854.210023" class="t" />
<line x1="1086.753380" y1="771.888534" x2="895.809398" y2="830.785102" class="t" />
<line x1="887.444002" y1="808.495624" x2="895.809398" y2="830.785102" class="t" />
<line x1="1064.803007" y1="716.451114" x2="887.444002" y2="808.495624" class="t" />
<line x1="875.233097" y1="788.058016" x2="887.444002" y2="808.495624" class="t" />
<line x1="1033.306733" y1="665.824077" x2="875.233097" y2="788.058016" class="t" />
<line x1="859.569210" y1="770.129226" x2="875.233097" y2="788.058016" class="t" />
<line x1="993.276993" y1="621.634629" x2="859.569210" y2="770.129226" class="t" />
<line x1="840.955706" y1="755.285466" x2="859.569210" y2="770.129226" class="t" />
<line x1="945.999630" y1="585.302562" x2="840.955706" y2="755.285466" class="t" />
<line x1="1231.248890" y1="913.824742" x2="1099.523641" y2="889.969242" class="t" />
<line x1="1430.712111" y1="925.776251" x2="1231.248890" y2="913.824742" class="t" />
<line x1="1232.320146" y1="830.305926" x2="1098.452216" y2="830.354190" class="t" />
<line x1="1218.461395" y1="747.938091" x2="1086.753380" y2="771.888534" class="t" />
<line x1="1190.117916" y1="669.368208" x2="1064.803007" y2="716.451114" class="t" />
<line x1="1148.200816" y1="597.122000" x2="1033.306733" y2="665.824077" class="t" />
<line x1="1094.057548" y1="533.521606" x2="993.276993" y2="621.634629" class="t" />
<line x1="1029.427120" y1="480.610251" x2="945.999630" y2="585.302562" class="t" />
<line x1="1056.873790" y1="1260.806686" x2="956.030114" y2="1172.765906" class="t" />
<line x1="790.931406" y1="1060.201075" x2="956.030114" y2="1172.765906" class="t" />
<line x1="1302.522911" y1="1318.291888" x2="1302.522875" y2="1294.484312" class="t" />
<line x1="1430.711951" y1="806.450041" x2="1232.320146" y2="830.305926" class="t" />
<line x1="1409.405377" y1="689.041519" x2="1218.461395" y2="747.938091" class="t" />
<line x1="1367.476906" y1="577.323666" x2="1190.117916" y2="669.368208" class="t" />
<line x1="1306.274493" y1="474.888118" x2="1148.200816" y2="597.122000" class="t" />
<line x1="1227.765488" y1="385.027159" x2="1094.057548" y2="533.521606" class="t" />
<line x1="1134.470856" y1="310.627224" x2="1029.427120" y2="480.610251" class="t" />
<line x1="934.954612" y1="1201.773771" x2="1056.873790" y2="1260.806686" class="t" />
<line x1="1115.857254" y1="295.783515" x2="1134.470856" y2="310.627224" class="t" />
<line x1="1100.193226" y1="277.854806" x2="1115.857254" y2="295.783515" class="t" />
<line x1="1087.982304" y1="257.417232" x2="1100.193226" y2="277.854806" class="t" />
<line x1="1079.616857" y1="235.127756" x2="1087.982304" y2="257.417232" class="t" />
<line x1="1075.365751" y1="211.702855" x2="1079.616857" y2="235.127756" class="t" />
<line x1="1075.365667" y1="187.895269" x2="1075.365751" y2="211.702855" class="t" />
<line x1="1079.616551" y1="164.470234" x2="1075.365667" y2="187.895269" class="t" />
<line x1="1087.981833" y1="142.180725" x2="1079.616551" y2="164.470234" class="t" />
<line x1="1100.192702" y1="121.743083" x2="1087.981833" y2="142.180725" class="t" />
<line x1="1115.856584" y1="103.814242" x2="1100.192702" y2="121.743083" class="t" />
<line x1="1134.470024" y1="88.970375" x2="1115.856584" y2="103.814242" class="t" />
<line x1="1155.434846" y1="77.688585" x2="1134.470024" y2="88.970375" class="t" />
<line x1="1178.077166" y1="70.331582" x2="1155.434846" y2="77.688585" class="t" />
<line x1="1201.669307" y1="67.135772" x2="1178.077166" y2="70.331582" class="t" />
<line x1="1225.452923" y1="68.203811" x2="1201.669307" y2="67.135772" class="t" />
<line x1="1248.663598" y1="73.501381" x2="1225.452923" y2="68.203811" class="t" />
<line x1="1270.555382" y1="82.858263" x2="1248.663598" y2="73.501381" class="t" />
<line x1="1306.773941" y1="1341.716796" x2="1302.522911" y2="1318.291888" class="t" />
<line x1="1035.798270" y1="1289.814575" x2="934.954612" y2="1201.773771" class="t" />
<line x1="769.855875" y1="1089.208996" x2="934.954612" y2="1201.773771" class="t" />
<line x1="1315.139363" y1="1364.006285" x2="1306.773941" y2="1341.716796" class="t" />
<line x1="913.879070" y1="1230.781692" x2="1035.798270" y2="1289.814575" class="t" />
<line x1="1327.350276" y1="1384.443930" x2="1315.139363" y2="1364.006285" class="t" />
<line x1="1014.722722" y1="1318.822503" x2="913.879070" y2="1230.781692" class="t" />
<line x1="748.780507" y1="1118.216648" x2="913.879070" y2="1230.781692" class="t" />
<line x1="1343.014218" y1="1402.372757" x2="1327.350276" y2="1384.443930" class="t" />
<line x1="892.803539" y1="1259.789597" x2="1014.722722" y2="1318.822503" class="t" />
<line x1="1361.627751" y1="1417.216507" x2="1343.014218" y2="1402.372757" class="t" />
<line x1="993.647213" y1="1347.830378" x2="892.803539" y2="1259.789597" class="t" />
<line x1="727.704767" y1="1147.224814" x2="892.803539" y2="1259.789597" class="t" />
<line x1="871.728052" y1="1288.797442" x2="993.647213" y2="1347.830378" class="t" />
<line x1="972.571726" y1="1376.838223" x2="871.728052" y2="1288.797442" class="t" />
<line x1="706.629373" y1="1176.232535" x2="871.728052" y2="1288.797442" class="t" />
<line x1="690.965428" y1="1194.161315" x2="706.629373" y2="1176.232535" class="t" />
<line x1="850.652566" y1="1317.805285" x2="972.571726" y2="1376.838223" class="t" />
<line x1="672.351860" y1="1209.005051" x2="690.965428" y2="1194.161315" class="t" />
<line x1="951.496240" y1="1405.846065" x2="850.652566" y2="1317.805285" class="t" />
<line x1="651.386997" y1="1220.286639" x2="672.351860" y2="1209.005051" class="t" />
<line x1="829.577064" y1="1346.813149" x2="951.496240" y2="1405.846065" class="t" />
<line x1="628.744623" y1="1227.643542" x2="651.386997" y2="1220.286639" class="t" />
<line x1="930.420723" y1="1434.853951" x2="829.577064" y2="1346.813149" class="t" />
<line x1="605.152478" y1="1230.839314" x2="628.744623" y2="1227.643542" class="t" />
<line x1="808.501572" y1="1375.821001" x2="930.420723" y2="1434.853951" class="t" />
<line x1="581.368887" y1="1229.771164" x2="605.152478" y2="1230.839314" class="t" />
<line x1="909.345271" y1="1463.861747" x2="808.501572" y2="1375.821001" class="t" />
<line x1="558.158197" y1="1224.473388" x2="581.368887" y2="1229.771164" class="t" />
<line x1="787.426103" y1="1404.828822" x2="909.345271" y2="1463.861747" class="t" />
<line x1="536.266502" y1="1215.116347" x2="558.158197" y2="1224.473388" class="t" />
<line x1="888.269744" y1="1492.869648" x2="787.426103" y2="1404.828822" class="t" />
<line x1="516.397349" y1="1202.000810" x2="536.266502" y2="1215.116347" class="t" />
<line x1="766.350559" y1="1433.836743" x2="888.269744" y2="1492.869648" class="t" />
<line x1="396.538914" y1="1361.883213" x2="516.397349" y2="1202.000810" class="t" />
<line x1="499.189334" y1="1185.548249" x2="516.397349" y2="1202.000810" class="t" />
<line x1="304.062623" y1="1458.675580" x2="396.538914" y2="1361.883213" class="t" />
<line x1="867.194244" y1="1521.877510" x2="766.350559" y2="1433.836743" class="t" />
<line x1="352.708692" y1="1321.459464" x2="499.189334" y2="1185.548249" class="t" />
<line x1="485.195653" y1="1166.287485" x2="499.189334" y2="1185.548249" class="t" />
<line x1="244.435391" y1="1400.183783" x2="352.708692" y2="1321.459464" class="t" />
<line x1="745.275084" y1="1462.844572" x2="867.194244" y2="1521.877510" class="t" />
<line x1="316.800971" y1="1273.859163" x2="485.195653" y2="1166.287485" class="t" />
<line x1="474.866004" y1="1144.837528" x2="485.195653" y2="1166.287485" class="t" />
<line x1="196.210783" y1="1331.985163" x2="316.800971" y2="1273.859163" class="t" />
<line x1="846.118749" y1="1550.885365" x2="745.275084" y2="1462.844572" class="t" />
<line x1="289.969897" y1="1220.612560" x2="474.866004" y2="1144.837528" class="t" />
<line x1="468.532354" y1="1121.887888" x2="474.866004" y2="1144.837528" class="t" />
<line x1="160.938846" y1="1256.272270" x2="289.969897" y2="1220.612560" class="t" />
<line x1="724.199560" y1="1491.852467" x2="846.118749" y2="1550.885365" class="t" />
<line x1="273.077496" y1="1163.430911" x2="468.532354" y2="1121.887888" class="t" />
<line x1="466.398340" y1="1098.176205" x2="468.532354" y2="1121.887888" class="t" />
<line x1="139.752781" y1="1175.478527" x2="273.077496" y2="1163.430911" class="t" />
<line x1="825.043214" y1="1579.893275" x2="724.199560" y2="1491.852467" class="t" />
<line x1="266.666723" y1="1104.151410" x2="466.398340" y2="1098.176205" class="t" />
<line x1="468.532461" y1="1074.464457" x2="466.398340" y2="1098.176205" class="t" />
<line x1="133.333445" y1="1092.198892" x2="266.666723" y2="1104.151410" class="t" />
<line x1="703.124053" y1="1520.860339" x2="825.043214" y2="1579.893275" class="t" />
<line x1="270.943557" y1="1044.681165" x2="468.532461" y2="1074.464457" class="t" />
<line x1="474.866155" y1="1051.514831" x2="468.532461" y2="1074.464457" class="t" />
<line x1="141.886945" y1="1009.114085" x2="270.943557" y2="1044.681165" class="t" />
<line x1="803.967747" y1="1608.901093" x2="703.124053" y2="1520.860339" class="t" />
<line x1="285.770806" y1="986.928590" x2="474.866155" y2="1051.514831" class="t" />
<line x1="485.195965" y1="1030.064996" x2="474.866155" y2="1051.514831" class="t" />
<line x1="165.139248" y1="928.888493" x2="285.770806" y2="986.928590" class="t" />
<line x1="310.671995" y1="932.752060" x2="485.195965" y2="1030.064996" class="t" />
<line x1="202.342743" y1="854.104753" x2="310.671995" y2="932.752060" class="t" />
</svg>
