<?xml version="1.0"?>
<svg width="1269" height="1398" version="1.1" xmlns="http://www.w3.org/2000/svg" >
<defs>
<style type="text/css"><![CDATA[
.m {stroke:rgb(255,0,0);stroke-width:1.747500;}
.v {stroke:rgb(0,0,255);stroke-width:1.747500;}
.b {stroke:rgb(0,0,0);stroke-width:3.495000;fill:white}
.n {stroke:rgb(128,128,128);stroke-width:1.747500}
.t {stroke:rgb(0,128,0);stroke-width:1.747500;}
.c {stroke:rgb(128,128,128);stroke-width:1.747500;stroke-dasharray:12.690000, 12.690000;}
]]></style>
</defs>
<path fill="none" style="stroke:black;stroke-width:3.495000;" d=" M 88.2412 1194.09 L 69.8508 1224.87 M 69.8508 1224.87 L 431.62 1399.25 M 1056.9 352.722 L 1075.29 321.942 M 1075.29 321.942 L 713.516 147.562 M 713.516 147.562 L 695.126 178.342 M 1038.5 383.502 L 1056.9 352.722 M 695.126 178.342 L 676.735 209.122 M 1020.11 414.282 L 1038.5 383.502 M 676.735 209.122 L 658.345 239.902 M 1001.72 445.063 L 1020.11 414.282 M 658.345 239.902 L 639.954 270.683 M 983.333 475.843 L 1001.72 445.063 M 474.44 547.705 L 456.05 578.485 M 799.429 783.646 L 817.82 752.865 M 456.05 578.485 L 437.66 609.265 M 781.039 814.426 L 799.429 783.646 M 437.66 609.265 L 419.269 640.046 M 762.648 845.206 L 781.039 814.426 M 419.269 640.046 L 400.879 670.826 M 744.258 875.986 L 762.648 845.206 M 400.879 670.826 L 382.488 701.606 M 725.867 906.767 L 744.258 875.986 M 382.488 701.606 L 364.098 732.386 M 707.477 937.547 L 725.867 906.767 M 364.098 732.386 L 345.707 763.167 M 689.086 968.327 L 707.477 937.547 M 345.707 763.167 L 327.317 793.947 M 670.696 999.107 L 689.086 968.327 M 327.317 793.947 L 308.926 824.727 M 652.306 1029.89 L 670.696 999.107 M 161.803 1070.97 L 143.413 1101.75 M 486.792 1306.91 L 505.182 1276.13 M 143.413 1101.75 L 125.022 1132.53 M 468.401 1337.69 L 486.792 1306.91 M 125.022 1132.53 L 106.632 1163.31 M 450.011 1368.47 L 468.401 1337.69 M 106.632 1163.31 L 88.2412 1194.09 M 431.62 1399.25 L 450.011 1368.47 M 652.554 130.699 L 639.955 97.1292 M 658.956 165.978 L 652.554 130.699 M 658.956 201.834 L 658.956 165.978 M 652.553 237.113 L 658.956 201.834 M 639.954 270.683 L 652.553 237.113 M 459.761 183.905 L 621.564 301.463 M 441.37 214.686 L 603.173 332.243 M 621.564 301.463 L 441.37 214.686 M 422.98 245.465 L 584.783 363.023 M 603.173 332.243 L 422.98 245.465 M 404.59 276.246 L 566.393 393.804 M 584.783 363.023 L 404.59 276.246 M 386.199 307.027 L 548.002 424.584 M 566.393 393.804 L 386.199 307.027 M 367.809 337.806 L 529.612 455.364 M 548.002 424.584 L 367.809 337.806 M 349.418 368.587 L 511.221 486.144 M 529.612 455.364 L 349.418 368.587 M 331.028 399.367 L 492.831 516.925 M 511.221 486.144 L 331.028 399.367 M 492.831 516.925 L 312.637 430.147 M 450.849 574.707 L 474.44 547.705 M 422.816 597.062 L 450.849 574.707 M 391.242 614.053 L 422.816 597.062 M 357.141 625.133 L 391.242 614.053 M 321.61 629.946 L 357.141 625.133 M 285.79 628.337 L 321.61 629.946 M 250.833 620.358 L 285.79 628.337 M 217.863 606.266 L 250.833 620.358 M 312.637 430.147 L 187.939 586.513 M 187.939 586.513 L 217.863 606.266 M 128.733 737.95 L 290.536 855.507 M 308.926 824.727 L 128.733 737.95 M 110.342 768.731 L 272.146 886.288 M 290.536 855.507 L 110.342 768.731 M 91.9522 799.51 L 253.755 917.068 M 272.146 886.288 L 91.9522 799.51 M 73.5612 830.292 L 235.365 947.848 M 253.755 917.068 L 73.5612 830.292 M 55.1713 861.071 L 216.974 978.629 M 235.365 947.848 L 55.1713 861.071 M 36.7808 891.851 L 198.584 1009.41 M 216.974 978.629 L 36.7808 891.851 M 18.3904 922.632 L 180.194 1040.19 M 198.584 1009.41 L 18.3904 922.632 M 0 953.412 L 161.803 1070.97 M 180.194 1040.19 L 0 953.412 M 569.941 16.991 L 538.367 0 M 538.367 0 L 459.761 183.905 M 597.974 39.3467 L 569.941 16.991 M 621.565 66.3488 L 597.974 39.3467 M 639.955 97.1292 L 621.565 66.3488 M 1136.16 393.602 L 1100.63 398.415 M 1100.63 398.415 L 1066.53 409.495 M 1066.53 409.495 L 1034.96 426.485 M 1034.96 426.485 L 1006.92 448.841 M 1006.92 448.841 L 983.333 475.843 M 964.943 506.623 L 1145.14 593.4 M 946.553 537.404 L 1126.75 624.181 M 1126.75 624.181 L 964.943 506.623 M 928.162 568.184 L 1108.36 654.96 M 1108.36 654.96 L 946.553 537.404 M 909.772 598.964 L 1089.97 685.741 M 1089.97 685.741 L 928.162 568.184 M 891.381 629.744 L 1071.57 716.522 M 1071.57 716.522 L 909.772 598.964 M 872.991 660.525 L 1053.18 747.301 M 1053.18 747.301 L 891.381 629.744 M 854.6 691.305 L 1034.79 778.082 M 1034.79 778.082 L 872.991 660.525 M 836.21 722.085 L 1016.4 808.862 M 1016.4 808.862 L 854.6 691.305 M 998.013 839.642 L 836.21 722.085 M 817.82 752.865 L 805.221 786.435 M 805.221 786.435 L 798.819 821.714 M 798.819 821.714 L 798.819 857.57 M 798.819 857.57 L 805.221 892.849 M 805.221 892.849 L 817.82 926.419 M 817.82 926.419 L 836.21 957.199 M 836.21 957.199 L 859.801 984.201 M 859.801 984.201 L 887.834 1006.56 M 887.834 1006.56 L 919.408 1023.55 M 919.408 1023.55 L 998.013 839.642 M 633.915 1060.67 L 814.109 1147.45 M 814.109 1147.45 L 652.306 1029.89 M 615.525 1091.45 L 795.718 1178.23 M 795.718 1178.23 L 633.915 1060.67 M 597.134 1122.23 L 777.328 1209.01 M 777.328 1209.01 L 615.525 1091.45 M 578.744 1153.01 L 758.937 1239.79 M 758.937 1239.79 L 597.134 1122.23 M 560.353 1183.79 L 740.547 1270.57 M 740.547 1270.57 L 578.744 1153.01 M 541.963 1214.57 L 722.156 1301.35 M 722.156 1301.35 L 560.353 1183.79 M 523.573 1245.35 L 703.766 1332.13 M 703.766 1332.13 L 541.963 1214.57 M 505.182 1276.13 L 685.376 1362.91 M 685.376 1362.91 L 523.573 1245.35 M 1269.83 437.034 L 1239.91 417.281 M 1145.14 593.4 L 1269.83 437.034 M 1239.91 417.281 L 1206.94 403.189 M 1206.94 403.189 L 1171.98 395.21 M 1171.98 395.21 L 1136.16 393.602" />
<path fill="none" class="c" d=" M 836.21 722.085 L 492.831 516.925 M 492.831 516.925 L 474.44 547.705 M 817.82 752.865 L 836.21 722.085 M 474.44 547.705 L 817.82 752.865 M 456.05 578.485 L 799.429 783.646 M 437.66 609.265 L 781.039 814.426 M 419.269 640.046 L 762.648 845.206 M 400.879 670.826 L 744.258 875.986 M 382.488 701.606 L 725.867 906.767 M 364.098 732.386 L 707.477 937.547 M 345.707 763.167 L 689.086 968.327 M 327.317 793.947 L 670.696 999.107 M 308.926 824.727 L 652.306 1029.89 M 308.926 824.727 L 290.536 855.507 M 633.915 1060.67 L 652.306 1029.89 M 290.536 855.507 L 633.915 1060.67 M 290.536 855.507 L 272.146 886.288 M 615.525 1091.45 L 633.915 1060.67 M 272.146 886.288 L 615.525 1091.45 M 272.146 886.288 L 253.755 917.068 M 597.134 1122.23 L 615.525 1091.45 M 253.755 917.068 L 597.134 1122.23 M 253.755 917.068 L 235.365 947.848 M 578.744 1153.01 L 597.134 1122.23 M 235.365 947.848 L 578.744 1153.01 M 235.365 947.848 L 216.974 978.629 M 560.353 1183.79 L 578.744 1153.01 M 216.974 978.629 L 560.353 1183.79 M 216.974 978.629 L 198.584 1009.41 M 541.963 1214.57 L 560.353 1183.79 M 198.584 1009.41 L 541.963 1214.57 M 198.584 1009.41 L 180.194 1040.19 M 523.573 1245.35 L 541.963 1214.57 M 180.194 1040.19 L 523.573 1245.35 M 180.194 1040.19 L 161.803 1070.97 M 505.182 1276.13 L 523.573 1245.35 M 161.803 1070.97 L 505.182 1276.13 M 143.413 1101.75 L 486.792 1306.91 M 125.022 1132.53 L 468.401 1337.69 M 106.632 1163.31 L 450.011 1368.47 M 88.2412 1194.09 L 431.62 1399.25 M 836.21 722.085 L 854.6 691.305 M 854.6 691.305 L 511.221 486.144 M 511.221 486.144 L 492.831 516.925 M 854.6 691.305 L 872.991 660.525 M 872.991 660.525 L 529.612 455.364 M 529.612 455.364 L 511.221 486.144 M 872.991 660.525 L 891.381 629.744 M 891.381 629.744 L 548.002 424.584 M 548.002 424.584 L 529.612 455.364 M 891.381 629.744 L 909.772 598.964 M 909.772 598.964 L 566.393 393.804 M 566.393 393.804 L 548.002 424.584 M 909.772 598.964 L 928.162 568.184 M 928.162 568.184 L 584.783 363.023 M 584.783 363.023 L 566.393 393.804 M 928.162 568.184 L 946.553 537.404 M 946.553 537.404 L 603.173 332.243 M 603.173 332.243 L 584.783 363.023 M 946.553 537.404 L 964.943 506.623 M 964.943 506.623 L 621.564 301.463 M 621.564 301.463 L 603.173 332.243 M 964.943 506.623 L 983.333 475.843 M 983.333 475.843 L 639.954 270.683 M 639.954 270.683 L 621.564 301.463 M 1001.72 445.063 L 658.345 239.902 M 1020.11 414.282 L 676.735 209.122 M 1038.5 383.502 L 695.126 178.342 M 1056.9 352.722 L 713.516 147.562" />
</svg>
