<?xml version="1.0"?>
<svg width="1542" height="1609" version="1.1" xmlns="http://www.w3.org/2000/svg" >
<defs>
<style type="text/css"><![CDATA[
.m {stroke:rgb(255,0,0);stroke-width:2.011250;}
.v {stroke:rgb(0,0,255);stroke-width:2.011250;}
.b {stroke:rgb(0,0,0);stroke-width:4.022500;fill:white}
.n {stroke:rgb(128,128,128);stroke-width:2.011250}
.t {stroke:rgb(0,128,0);stroke-width:2.011250;}
.c {stroke:rgb(128,128,128);stroke-width:2.011250;stroke-dasharray:15.420000, 15.420000;}
]]></style>
</defs>
<path fill="none" style="stroke:black;stroke-width:4.022500;" d=" M 1243.49 1038.85 L 1273.42 1019.1 M 1053.06 685.269 L 1023.13 705.022 M 1273.42 1019.1 L 1303.34 999.345 M 1082.98 665.516 L 1053.06 685.269 M 1303.34 999.345 L 1333.27 979.592 M 1112.91 645.763 L 1082.98 665.516 M 1333.27 979.592 L 1363.19 959.84 M 1142.83 626.01 L 1112.91 645.763 M 1363.19 959.84 L 1393.11 940.087 M 1172.76 606.258 L 1142.83 626.01 M 1393.11 940.087 L 1423.04 920.334 M 1202.68 586.505 L 1172.76 606.258 M 1423.04 920.334 L 1452.96 900.581 M 1232.6 566.752 L 1202.68 586.505 M 1452.96 900.581 L 1482.89 880.828 M 1262.53 546.999 L 1232.6 566.752 M 1482.89 880.828 L 1512.81 861.076 M 1292.45 527.246 L 1262.53 546.999 M 1512.81 861.076 L 1542.74 841.323 M 1542.74 841.323 L 1292.45 527.246 M 933.362 412.042 L 1057.6 30.1376 M 1057.6 30.1376 L 1024.63 16.0457 M 1024.63 16.0457 L 900.391 397.95 M 900.391 397.95 L 954.443 0 M 954.443 0 L 865.435 389.971 M 12.8305 621.553 L 6.42823 656.833 M 406.402 692.976 L 12.8305 621.553 M 6.42823 656.833 L 400 728.255 M 6.81741e-005 728.255 L 0 764.11 M 400 728.255 L 6.81741e-005 728.255 M 0 764.11 L 400 764.111 M 585.161 1473.41 L 615.085 1453.66 M 364.802 1139.58 L 585.161 1473.41 M 394.726 1119.83 L 364.802 1139.58 M 615.085 1453.66 L 645.009 1433.91 M 424.65 1100.08 L 394.726 1119.83 M 645.009 1433.91 L 674.934 1414.15 M 454.575 1080.33 L 424.65 1100.08 M 674.934 1414.15 L 704.858 1394.4 M 484.499 1060.57 L 454.575 1080.33 M 704.858 1394.4 L 734.782 1374.65 M 514.423 1040.82 L 484.499 1060.57 M 734.782 1374.65 L 764.706 1354.9 M 544.347 1021.07 L 514.423 1040.82 M 764.706 1354.9 L 794.63 1335.14 M 574.272 1001.31 L 544.347 1021.07 M 794.63 1335.14 L 824.555 1315.39 M 604.196 981.561 L 574.272 1001.31 M 824.555 1315.39 L 854.479 1295.64 M 634.12 961.808 L 604.196 981.561 M 854.479 1295.64 L 884.403 1275.88 M 664.044 942.055 L 634.12 961.808 M 884.403 1275.88 L 914.327 1256.13 M 693.968 922.303 L 664.044 942.055 M 1183.65 1078.36 L 1213.57 1058.6 M 993.211 724.774 L 963.286 744.527 M 1213.57 1058.6 L 1243.49 1038.85 M 1023.13 705.022 L 993.211 724.774 M 1287.39 1054.68 L 1251.57 1056.29 M 1322.92 1059.49 L 1287.39 1054.68 M 1357.02 1070.57 L 1322.92 1059.49 M 1388.6 1087.56 L 1357.02 1070.57 M 1416.63 1109.92 L 1388.6 1087.56 M 1440.22 1136.92 L 1416.63 1109.92 M 1458.61 1167.7 L 1440.22 1136.92 M 1471.21 1201.27 L 1458.61 1167.7 M 1477.61 1236.55 L 1471.21 1201.27 M 1477.61 1272.4 L 1477.61 1236.55 M 1278.42 1254.48 L 1471.21 1307.68 M 1471.21 1307.68 L 1477.61 1272.4 M 977.222 1602.71 L 1012.18 1610.69 M 1012.18 1610.69 L 1039.03 1412.5 M 944.252 1588.62 L 977.222 1602.71 M 914.328 1568.86 L 944.252 1588.62 M 888.411 1544.09 L 914.328 1568.86 M 867.336 1515.08 L 888.411 1544.09 M 851.779 1482.77 L 867.336 1515.08 M 842.24 1448.21 L 851.779 1482.77 M 839.025 1412.5 L 842.24 1448.21 M 842.24 1376.79 L 839.025 1412.5 M 851.779 1342.22 L 842.24 1376.79 M 867.336 1309.92 L 851.779 1342.22 M 888.411 1280.91 L 867.336 1309.92 M 914.327 1256.13 L 888.411 1280.91 M 1039.03 1412.5 L 944.252 1236.38 M 1068.95 1392.75 L 974.176 1216.63 M 944.252 1236.38 L 1068.95 1392.75 M 1098.87 1372.99 L 1004.1 1196.87 M 974.176 1216.63 L 1098.87 1372.99 M 1128.8 1353.24 L 1034.02 1177.12 M 1004.1 1196.87 L 1128.8 1353.24 M 1158.72 1333.49 L 1063.95 1157.37 M 1034.02 1177.12 L 1158.72 1333.49 M 1188.65 1313.73 L 1093.87 1137.61 M 1063.95 1157.37 L 1188.65 1313.73 M 1218.57 1293.98 L 1123.8 1117.86 M 1093.87 1137.61 L 1218.57 1293.98 M 1248.49 1274.23 L 1153.72 1098.11 M 1123.8 1117.86 L 1248.49 1274.23 M 1153.72 1098.11 L 1278.42 1254.48 M 1216.62 1064.26 L 1183.65 1078.36 M 1251.57 1056.29 L 1216.62 1064.26 M 1010.28 690.741 L 1025.84 658.436 M 1025.84 658.436 L 1035.37 623.872 M 1035.37 623.872 L 1038.59 588.161 M 1038.59 588.161 L 1035.37 552.449 M 1035.37 552.449 L 1025.83 517.886 M 1025.83 517.886 L 1010.28 485.581 M 1010.28 485.581 L 989.202 456.573 M 989.202 456.573 L 963.286 431.795 M 963.286 431.795 L 933.362 412.042 M 865.435 389.971 L 838.588 588.161 M 599.195 746.183 L 406.402 692.976 M 400 764.111 L 406.402 799.391 M 406.402 799.391 L 419.001 832.96 M 419.001 832.96 L 437.391 863.74 M 437.391 863.74 L 460.982 890.742 M 460.982 890.742 L 489.015 913.098 M 489.015 913.098 L 520.59 930.089 M 520.59 930.089 L 554.691 941.169 M 554.691 941.169 L 590.222 945.982 M 590.222 945.982 L 626.041 944.373 M 626.041 944.373 L 660.998 936.395 M 660.998 936.395 L 693.968 922.303 M 723.893 902.55 L 599.195 746.183 M 753.817 882.797 L 629.119 726.431 M 629.119 726.431 L 723.893 902.55 M 783.741 863.044 L 659.044 706.677 M 659.044 706.677 L 753.817 882.797 M 813.665 843.291 L 688.967 686.925 M 688.967 686.925 L 783.741 863.044 M 843.59 823.538 L 718.892 667.172 M 718.892 667.172 L 813.665 843.291 M 873.514 803.786 L 748.816 647.419 M 748.816 647.419 L 843.59 823.538 M 903.438 784.033 L 778.74 627.667 M 778.74 627.667 L 873.514 803.786 M 933.362 764.28 L 808.664 607.914 M 808.664 607.914 L 903.438 784.033 M 838.588 588.161 L 933.362 764.28 M 963.286 744.527 L 989.203 719.749 M 989.203 719.749 L 1010.28 690.741" />
<path fill="none" class="c" d=" M 813.665 843.291 L 1034.02 1177.12 M 1034.02 1177.12 L 1063.95 1157.37 M 843.59 823.538 L 813.665 843.291 M 1063.95 1157.37 L 843.59 823.538 M 1063.95 1157.37 L 1093.87 1137.61 M 873.514 803.786 L 843.59 823.538 M 1093.87 1137.61 L 873.514 803.786 M 1093.87 1137.61 L 1123.8 1117.86 M 903.438 784.033 L 873.514 803.786 M 1123.8 1117.86 L 903.438 784.033 M 1123.8 1117.86 L 1153.72 1098.11 M 933.362 764.28 L 903.438 784.033 M 1153.72 1098.11 L 933.362 764.28 M 1153.72 1098.11 L 1183.65 1078.36 M 963.286 744.527 L 933.362 764.28 M 1183.65 1078.36 L 963.286 744.527 M 1213.57 1058.6 L 993.211 724.774 M 1243.49 1038.85 L 1023.13 705.022 M 813.665 843.291 L 783.741 863.044 M 933.362 412.042 L 900.391 397.95 M 900.391 397.95 L 865.435 389.971 M 1273.42 1019.1 L 1053.06 685.269 M 1303.34 999.345 L 1082.98 665.516 M 1333.27 979.592 L 1112.91 645.763 M 1363.19 959.84 L 1142.83 626.01 M 1393.11 940.087 L 1172.76 606.258 M 1423.04 920.334 L 1202.68 586.505 M 1452.96 900.581 L 1232.6 566.752 M 1482.89 880.828 L 1262.53 546.999 M 1512.81 861.076 L 1292.45 527.246 M 1057.6 30.1376 L 900.391 397.95 M 783.741 863.044 L 1004.1 1196.87 M 1004.1 1196.87 L 1034.02 1177.12 M 783.741 863.044 L 753.817 882.797 M 753.817 882.797 L 974.176 1216.63 M 974.176 1216.63 L 1004.1 1196.87 M 753.817 882.797 L 723.893 902.55 M 723.893 902.55 L 944.252 1236.38 M 944.252 1236.38 L 974.176 1216.63 M 723.893 902.55 L 693.968 922.303 M 693.968 922.303 L 914.327 1256.13 M 914.327 1256.13 L 944.252 1236.38 M 664.044 942.055 L 884.403 1275.88 M 634.12 961.808 L 854.479 1295.64 M 604.196 981.561 L 824.555 1315.39 M 574.272 1001.31 L 794.63 1335.14 M 544.347 1021.07 L 764.706 1354.9 M 400 728.255 L 400 764.111 M 514.423 1040.82 L 734.782 1374.65 M 406.402 692.976 L 400 728.255 M 484.499 1060.57 L 704.858 1394.4 M 454.575 1080.33 L 674.934 1414.15 M 424.65 1100.08 L 645.009 1433.91 M 394.726 1119.83 L 615.085 1453.66" />
<line x1="877.143645" y1="961.151910" x2="970.546090" y2="1059.259779" class="t" />
<line x1="1085.565008" y1="1222.658288" x2="970.546090" y2="1059.259779" class="t" />
<line x1="907.067870" y1="941.399094" x2="970.546090" y2="1059.259779" class="t" />
<line x1="792.048917" y1="778.000608" x2="907.067870" y2="941.399094" class="t" />
<line x1="1000.470242" y1="1039.507011" x2="907.067870" y2="941.399094" class="t" />
<line x1="1115.489132" y1="1202.905547" x2="1000.470242" y2="1039.507011" class="t" />
<line x1="936.991974" y1="921.646357" x2="1000.470242" y2="1039.507011" class="t" />
<line x1="821.973033" y1="758.247855" x2="936.991974" y2="921.646357" class="t" />
<line x1="1030.394401" y1="1019.754238" x2="936.991974" y2="921.646357" class="t" />
<line x1="1145.413307" y1="1183.152769" x2="1030.394401" y2="1019.754238" class="t" />
<line x1="966.916236" y1="901.893516" x2="1030.394401" y2="1019.754238" class="t" />
<line x1="851.897203" y1="738.495069" x2="966.916236" y2="901.893516" class="t" />
<line x1="1060.318694" y1="1000.001377" x2="966.916236" y2="901.893516" class="t" />
<line x1="1175.337590" y1="1163.399932" x2="1060.318694" y2="1000.001377" class="t" />
<line x1="996.840458" y1="882.140702" x2="1060.318694" y2="1000.001377" class="t" />
<line x1="881.821469" y1="718.742207" x2="996.840458" y2="882.140702" class="t" />
<line x1="1090.242877" y1="980.248588" x2="996.840458" y2="882.140702" class="t" />
<line x1="1205.261767" y1="1143.647161" x2="1090.242877" y2="980.248588" class="t" />
<line x1="1026.764673" y1="862.387892" x2="1090.242877" y2="980.248588" class="t" />
<line x1="911.745633" y1="698.989417" x2="1026.764673" y2="862.387892" class="t" />
<line x1="1120.167120" y1="960.495759" x2="1026.764673" y2="862.387892" class="t" />
<line x1="1056.688912" y1="842.635065" x2="1120.167120" y2="960.495759" class="t" />
<line x1="1150.091361" y1="940.742933" x2="1056.688912" y2="842.635065" class="t" />
<line x1="1086.613158" y1="822.882236" x2="1150.091361" y2="940.742933" class="t" />
<line x1="1226.226648" y1="1132.365522" x2="1205.261767" y2="1143.647161" class="t" />
<line x1="1248.869051" y1="1125.008660" x2="1226.226648" y2="1132.365522" class="t" />
<line x1="1272.461206" y1="1121.812970" x2="1248.869051" y2="1125.008660" class="t" />
<line x1="930.359131" y1="684.145585" x2="911.745633" y2="698.989417" class="t" />
<line x1="946.022994" y1="666.216692" x2="930.359131" y2="684.145585" class="t" />
<line x1="958.233819" y1="645.779032" x2="946.022994" y2="666.216692" class="t" />
<line x1="1180.015610" y1="920.990100" x2="1086.613158" y2="822.882236" class="t" />
<line x1="940.621839" y1="1079.012613" x2="877.143645" y2="961.151910" class="t" />
<line x1="762.124645" y1="797.753466" x2="877.143645" y2="961.151910" class="t" />
<line x1="1296.244798" y1="1122.881143" x2="1272.461206" y2="1121.812970" class="t" />
<line x1="1319.455406" y1="1128.178851" x2="1296.244798" y2="1122.881143" class="t" />
<line x1="1341.347118" y1="1137.535859" x2="1319.455406" y2="1128.178851" class="t" />
<line x1="1361.216293" y1="1150.651419" x2="1341.347118" y2="1137.535859" class="t" />
<line x1="1378.424255" y1="1167.103923" x2="1361.216293" y2="1150.651419" class="t" />
<line x1="1392.417957" y1="1186.364661" x2="1378.424255" y2="1167.103923" class="t" />
<line x1="1402.747687" y1="1207.814569" x2="1392.417957" y2="1186.364661" class="t" />
<line x1="1409.081404" y1="1230.764175" x2="1402.747687" y2="1207.814569" class="t" />
<line x1="1411.215422" y1="1254.475923" x2="1409.081404" y2="1230.764175" class="t" />
<line x1="1409.081275" y1="1278.187668" x2="1411.215422" y2="1254.475923" class="t" />
<line x1="966.599142" y1="623.489537" x2="958.233819" y2="645.779032" class="t" />
<line x1="970.850094" y1="600.064605" x2="966.599142" y2="623.489537" class="t" />
<line x1="970.850046" y1="576.257028" x2="970.850094" y2="600.064605" class="t" />
<line x1="966.598998" y1="552.832029" x2="970.850046" y2="576.257028" class="t" />
<line x1="958.233615" y1="530.542587" x2="966.598998" y2="552.832029" class="t" />
<line x1="946.022698" y1="510.105042" x2="958.233615" y2="530.542587" class="t" />
<line x1="930.358748" y1="492.176224" x2="946.022698" y2="510.105042" class="t" />
<line x1="911.745251" y1="477.332433" x2="930.358748" y2="492.176224" class="t" />
<line x1="890.780358" y1="466.050842" x2="911.745251" y2="477.332433" class="t" />
<line x1="963.783916" y1="280.043046" x2="890.780358" y2="466.050842" class="t" />
<line x1="868.137974" y1="458.693949" x2="890.780358" y2="466.050842" class="t" />
<line x1="906.756337" y1="262.640272" x2="868.137974" y2="458.693949" class="t" />
<line x1="1116.537406" y1="803.129403" x2="1180.015610" y2="920.990100" class="t" />
<line x1="1209.939825" y1="901.237290" x2="1116.537406" y2="803.129403" class="t" />
<line x1="1146.461589" y1="783.376615" x2="1209.939825" y2="901.237290" class="t" />
<line x1="1239.863969" y1="881.484527" x2="1146.461589" y2="783.376615" class="t" />
<line x1="1176.385727" y1="763.623856" x2="1239.863969" y2="881.484527" class="t" />
<line x1="1269.788154" y1="861.731737" x2="1176.385727" y2="763.623856" class="t" />
<line x1="1206.309966" y1="743.871030" x2="1269.788154" y2="861.731737" class="t" />
<line x1="1299.712416" y1="841.978896" x2="1206.309966" y2="743.871030" class="t" />
<line x1="1236.234196" y1="724.118210" x2="1299.712416" y2="841.978896" class="t" />
<line x1="1329.636590" y1="822.226113" x2="1236.234196" y2="724.118210" class="t" />
<line x1="1266.158345" y1="704.365444" x2="1329.636590" y2="822.226113" class="t" />
<line x1="1359.560758" y1="802.473334" x2="1266.158345" y2="704.365444" class="t" />
<line x1="1296.082558" y1="684.612635" x2="1359.560758" y2="802.473334" class="t" />
<line x1="1389.485002" y1="782.720505" x2="1296.082558" y2="684.612635" class="t" />
<line x1="1326.006787" y1="664.859817" x2="1389.485002" y2="782.720505" class="t" />
<line x1="1419.409212" y1="762.967699" x2="1326.006787" y2="664.859817" class="t" />
<line x1="1355.930993" y1="645.107012" x2="1419.409212" y2="762.967699" class="t" />
<line x1="1449.333432" y1="743.214886" x2="1355.930993" y2="645.107012" class="t" />
<line x1="994.206196" y1="148.044352" x2="963.783916" y2="280.043046" class="t" />
<line x1="847.219362" y1="980.904765" x2="940.621839" y2="1079.012613" class="t" />
<line x1="1055.640726" y1="1242.411131" x2="940.621839" y2="1079.012613" class="t" />
<line x1="910.697549" y1="1098.765472" x2="847.219362" y2="980.904765" class="t" />
<line x1="732.200620" y1="817.506131" x2="847.219362" y2="980.904765" class="t" />
<line x1="817.295096" y1="1000.657608" x2="910.697549" y2="1098.765472" class="t" />
<line x1="1025.716720" y1="1262.163823" x2="910.697549" y2="1098.765472" class="t" />
<line x1="880.773314" y1="1118.518296" x2="817.295096" y2="1000.657608" class="t" />
<line x1="702.276066" y1="837.259145" x2="817.295096" y2="1000.657608" class="t" />
<line x1="787.370891" y1="1020.410412" x2="880.773314" y2="1118.518296" class="t" />
<line x1="995.792183" y1="1281.916865" x2="880.773314" y2="1118.518296" class="t" />
<line x1="850.849110" y1="1138.271098" x2="787.370891" y2="1020.410412" class="t" />
<line x1="672.351993" y1="857.011865" x2="787.370891" y2="1020.410412" class="t" />
<line x1="651.387156" y1="868.293528" x2="672.351993" y2="857.011865" class="t" />
<line x1="757.446688" y1="1040.163213" x2="850.849110" y2="1138.271098" class="t" />
<line x1="965.868107" y1="1301.669579" x2="850.849110" y2="1138.271098" class="t" />
<line x1="947.254604" y1="1316.513361" x2="965.868107" y2="1301.669579" class="t" />
<line x1="628.744779" y1="875.650445" x2="651.387156" y2="868.293528" class="t" />
<line x1="820.924908" y1="1158.023900" x2="757.446688" y2="1040.163213" class="t" />
<line x1="931.590702" y1="1334.442209" x2="947.254604" y2="1316.513361" class="t" />
<line x1="605.152682" y1="878.846169" x2="628.744779" y2="875.650445" class="t" />
<line x1="727.522464" y1="1059.916029" x2="820.924908" y2="1158.023900" class="t" />
<line x1="919.379868" y1="1354.879802" x2="931.590702" y2="1334.442209" class="t" />
<line x1="581.369070" y1="877.778032" x2="605.152682" y2="878.846169" class="t" />
<line x1="791.000661" y1="1177.776730" x2="727.522464" y2="1059.916029" class="t" />
<line x1="911.014504" y1="1377.169302" x2="919.379868" y2="1354.879802" class="t" />
<line x1="558.158360" y1="872.480373" x2="581.369070" y2="877.778032" class="t" />
<line x1="697.598253" y1="1079.668837" x2="791.000661" y2="1177.776730" class="t" />
<line x1="906.763468" y1="1400.594309" x2="911.014504" y2="1377.169302" class="t" />
<line x1="536.266640" y1="863.123409" x2="558.158360" y2="872.480373" class="t" />
<line x1="761.076507" y1="1197.529500" x2="697.598253" y2="1079.668837" class="t" />
<line x1="906.763471" y1="1424.401875" x2="906.763468" y2="1400.594309" class="t" />
<line x1="516.397469" y1="850.007823" x2="536.266640" y2="863.123409" class="t" />
<line x1="667.674074" y1="1099.421623" x2="761.076507" y2="1197.529500" class="t" />
<line x1="911.014544" y1="1447.826881" x2="906.763471" y2="1424.401875" class="t" />
<line x1="499.189506" y1="833.555268" x2="516.397469" y2="850.007823" class="t" />
<line x1="731.152245" y1="1217.282341" x2="667.674074" y2="1099.421623" class="t" />
<line x1="919.379974" y1="1470.116343" x2="911.014544" y2="1447.826881" class="t" />
<line x1="485.195755" y1="814.294545" x2="499.189506" y2="833.555268" class="t" />
<line x1="637.749790" y1="1119.174478" x2="731.152245" y2="1217.282341" class="t" />
<line x1="931.590857" y1="1490.553928" x2="919.379974" y2="1470.116343" class="t" />
<line x1="474.865996" y1="792.844636" x2="485.195755" y2="814.294545" class="t" />
<line x1="701.228023" y1="1237.035156" x2="637.749790" y2="1119.174478" class="t" />
<line x1="947.254798" y1="1508.482773" x2="931.590857" y2="1490.553928" class="t" />
<line x1="468.532339" y1="769.895018" x2="474.865996" y2="792.844636" class="t" />
<line x1="607.825602" y1="1138.927270" x2="701.228023" y2="1237.035156" class="t" />
<line x1="965.868329" y1="1523.326513" x2="947.254798" y2="1508.482773" class="t" />
<line x1="466.398302" y1="746.183245" x2="468.532339" y2="769.895018" class="t" />
<line x1="671.303808" y1="1256.787965" x2="607.825602" y2="1138.927270" class="t" />
<line x1="986.833237" y1="1534.608132" x2="965.868329" y2="1523.326513" class="t" />
<line x1="266.666689" y1="752.158920" x2="466.398302" y2="746.183245" class="t" />
<line x1="468.532410" y1="722.471503" x2="466.398302" y2="746.183245" class="t" />
<line x1="133.333379" y1="740.206711" x2="266.666689" y2="752.158920" class="t" />
<line x1="577.901346" y1="1158.680107" x2="671.303808" y2="1256.787965" class="t" />
<line x1="1009.475603" y1="1541.965059" x2="986.833237" y2="1534.608132" class="t" />
<line x1="270.943541" y1="692.687896" x2="468.532410" y2="722.471503" class="t" />
<line x1="141.887014" y1="657.120530" x2="270.943541" y2="692.687896" class="t" />
<line x1="641.379536" y1="1276.540812" x2="577.901346" y2="1158.680107" class="t" />
<line x1="547.977114" y1="1178.432928" x2="641.379536" y2="1276.540812" class="t" />
<line x1="611.455360" y1="1296.293597" x2="547.977114" y2="1178.432928" class="t" />
<line x1="518.052938" y1="1198.185713" x2="611.455360" y2="1296.293597" class="t" />
<line x1="581.531129" y1="1316.046418" x2="518.052938" y2="1198.185713" class="t" />
<line x1="488.128666" y1="1217.938560" x2="581.531129" y2="1316.046418" class="t" />
<line x1="551.606872" y1="1335.799255" x2="488.128666" y2="1217.938560" class="t" />
<line x1="458.204452" y1="1237.691370" x2="551.606872" y2="1335.799255" class="t" />
<line x1="521.682684" y1="1355.552047" x2="458.204452" y2="1237.691370" class="t" />
</svg>
