<?xml version="1.0"?>
<svg width="1622" height="1539" version="1.1" xmlns="http://www.w3.org/2000/svg" >
<defs>
<style type="text/css"><![CDATA[
.m {stroke:rgb(255,0,0);stroke-width:2.027500;}
.v {stroke:rgb(0,0,255);stroke-width:2.027500;}
.b {stroke:rgb(0,0,0);stroke-width:4.055000;fill:white}
.n {stroke:rgb(128,128,128);stroke-width:2.027500}
.t {stroke:rgb(0,128,0);stroke-width:2.027500;}
.c {stroke:rgb(128,128,128);stroke-width:2.027500;stroke-dasharray:16.220000, 16.220000;}
]]></style>
</defs>
<path fill="none" style="stroke:black;stroke-width:4.055000;" d=" M 1347.42 915.926 L 1097.13 601.849 M 1097.13 601.849 L 1399.48 866.189 M 1399.48 866.189 L 1425.39 841.41 M 1425.39 841.41 L 1123.05 577.071 M 1123.05 577.071 L 1467.73 783.178 M 1467.73 783.178 L 1488.81 754.17 M 1488.81 754.17 L 1144.13 548.063 M 1144.13 548.063 L 1520.07 689.312 M 1520.07 689.312 L 1535.63 657.007 M 1535.63 657.007 L 1159.68 515.758 M 1159.68 515.758 L 1554.81 587.61 M 1554.81 587.61 L 1564.35 553.046 M 1564.35 553.046 L 1169.22 481.195 M 1169.22 481.195 L 1570.83 481.34 M 1570.83 481.34 L 1574.04 445.629 M 1574.04 445.629 L 1172.44 445.483 M 1172.44 445.483 L 1567.61 373.916 M 1567.61 373.916 L 1564.4 338.205 M 1564.4 338.205 L 1169.22 409.772 M 1169.22 409.772 L 1545.27 268.795 M 1545.27 268.795 L 1535.73 234.232 M 1535.73 234.232 L 1159.68 375.208 M 1159.68 375.208 L 1504.51 169.351 M 1504.51 169.351 L 1488.96 137.046 M 1488.96 137.046 L 1144.13 342.903 M 1144.13 342.903 L 1446.66 78.7803 M 1446.66 78.7803 L 1425.58 49.7725 M 1425.58 49.7725 L 1123.05 313.895 M 1123.05 313.895 L 1373.56 0 M 1373.56 0 L 1097.13 289.117 M 0 1033.71 L 18.3903 1064.49 M 343.38 828.552 L 0 1033.71 M 18.3903 1064.49 L 361.77 859.332 M 60.5407 1122.51 L 84.1316 1149.51 M 361.77 859.332 L 60.5407 1122.51 M 84.1316 1149.51 L 385.361 886.334 M 135.964 1199.07 L 163.997 1221.42 M 385.361 886.334 L 135.964 1199.07 M 163.997 1221.42 L 413.394 908.69 M 223.846 1260.93 L 255.42 1277.92 M 413.394 908.69 L 223.846 1260.93 M 255.42 1277.92 L 444.968 925.681 M 689.085 1350.49 L 719.009 1330.73 M 468.726 1016.66 L 689.085 1350.49 M 498.65 996.906 L 468.726 1016.66 M 719.009 1330.73 L 748.933 1310.98 M 528.574 977.153 L 498.65 996.906 M 748.933 1310.98 L 778.857 1291.23 M 558.499 957.4 L 528.574 977.153 M 778.857 1291.23 L 808.782 1271.48 M 588.423 937.647 L 558.499 957.4 M 808.782 1271.48 L 838.706 1251.72 M 618.347 917.894 L 588.423 937.647 M 1412.27 1111.8 L 1317.49 935.679 M 1287.57 955.431 L 1412.27 1111.8 M 1317.49 935.679 L 1442.19 1092.04 M 1380.39 901.834 L 1347.42 915.926 M 1415.34 893.855 L 1380.39 901.834 M 1451.16 892.246 L 1415.34 893.855 M 1486.7 897.059 L 1451.16 892.246 M 1520.8 908.139 L 1486.7 897.059 M 1552.37 925.13 L 1520.8 908.139 M 1580.4 947.486 L 1552.37 925.13 M 1603.99 974.488 L 1580.4 947.486 M 1442.19 1092.04 L 1622.39 1005.27 M 1622.39 1005.27 L 1603.99 974.488 M 791.715 1510.67 L 812.79 1539.68 M 812.79 1539.68 L 963.404 1408.09 M 776.157 1478.36 L 791.715 1510.67 M 766.618 1443.8 L 776.157 1478.36 M 763.404 1408.09 L 766.618 1443.8 M 766.618 1372.38 L 763.404 1408.09 M 776.157 1337.82 L 766.618 1372.38 M 791.714 1305.51 L 776.157 1337.82 M 812.789 1276.5 L 791.714 1305.51 M 838.706 1251.72 L 812.789 1276.5 M 963.404 1408.09 L 868.63 1231.97 M 993.328 1388.34 L 898.554 1212.22 M 868.63 1231.97 L 993.328 1388.34 M 1023.25 1368.58 L 928.478 1192.47 M 898.554 1212.22 L 1023.25 1368.58 M 1053.18 1348.83 L 958.403 1172.71 M 928.478 1192.47 L 1053.18 1348.83 M 1083.1 1329.08 L 988.327 1152.96 M 958.403 1172.71 L 1083.1 1329.08 M 1113.02 1309.33 L 1018.25 1133.21 M 988.327 1152.96 L 1113.02 1309.33 M 1142.95 1289.57 L 1048.18 1113.45 M 1018.25 1133.21 L 1142.95 1289.57 M 1172.87 1269.82 L 1078.1 1093.7 M 1048.18 1113.45 L 1172.87 1269.82 M 1202.8 1250.07 L 1108.02 1073.95 M 1078.1 1093.7 L 1202.8 1250.07 M 1232.72 1230.31 L 1137.95 1054.2 M 1108.02 1073.95 L 1232.72 1230.31 M 1262.65 1210.56 L 1167.87 1034.44 M 1137.95 1054.2 L 1262.65 1210.56 M 1292.57 1190.81 L 1197.8 1014.69 M 1167.87 1034.44 L 1292.57 1190.81 M 1322.49 1171.06 L 1227.72 994.937 M 1197.8 1014.69 L 1322.49 1171.06 M 1352.42 1151.3 L 1257.64 975.184 M 1227.72 994.937 L 1352.42 1151.3 M 1257.64 975.184 L 1382.34 1131.55 M 1382.34 1131.55 L 1287.57 955.431 M 972.437 445.483 L 1067.21 621.602 M 1097.13 289.117 L 972.437 445.483 M 523.573 741.775 L 343.38 828.552 M 444.968 925.681 L 479.069 936.761 M 479.069 936.761 L 514.6 941.574 M 514.6 941.574 L 550.42 939.965 M 550.42 939.965 L 585.377 931.987 M 585.377 931.987 L 618.347 917.894 M 648.271 898.141 L 523.573 741.775 M 678.195 878.389 L 553.497 722.023 M 553.497 722.023 L 648.271 898.141 M 708.12 858.636 L 583.421 702.27 M 583.421 702.27 L 678.195 878.389 M 738.044 838.883 L 613.346 682.517 M 613.346 682.517 L 708.12 858.636 M 767.968 819.13 L 643.27 662.764 M 643.27 662.764 L 738.044 838.883 M 797.892 799.377 L 673.194 643.011 M 673.194 643.011 L 767.968 819.13 M 827.817 779.625 L 703.119 623.258 M 703.119 623.258 L 797.892 799.377 M 857.741 759.872 L 733.043 603.506 M 733.043 603.506 L 827.817 779.625 M 887.665 740.119 L 762.967 583.753 M 762.967 583.753 L 857.741 759.872 M 917.589 720.366 L 792.891 564 M 792.891 564 L 887.665 740.119 M 947.513 700.613 L 822.815 544.247 M 822.815 544.247 L 917.589 720.366 M 977.438 680.861 L 852.739 524.494 M 852.739 524.494 L 947.513 700.613 M 1007.36 661.108 L 882.664 504.742 M 882.664 504.742 L 977.438 680.861 M 1037.29 641.355 L 912.588 484.988 M 912.588 484.988 L 1007.36 661.108 M 942.513 465.236 L 1037.29 641.355 M 1067.21 621.602 L 942.513 465.236" />
<path fill="none" class="c" d=" M 857.741 759.872 L 1078.1 1093.7 M 1078.1 1093.7 L 1108.02 1073.95 M 887.665 740.119 L 857.741 759.872 M 1108.02 1073.95 L 887.665 740.119 M 1108.02 1073.95 L 1137.95 1054.2 M 917.589 720.366 L 887.665 740.119 M 1137.95 1054.2 L 917.589 720.366 M 1137.95 1054.2 L 1167.87 1034.44 M 947.513 700.613 L 917.589 720.366 M 1167.87 1034.44 L 947.513 700.613 M 1167.87 1034.44 L 1197.8 1014.69 M 977.438 680.861 L 947.513 700.613 M 1197.8 1014.69 L 977.438 680.861 M 1197.8 1014.69 L 1227.72 994.937 M 1007.36 661.108 L 977.438 680.861 M 1227.72 994.937 L 1007.36 661.108 M 1227.72 994.937 L 1257.64 975.184 M 1037.29 641.355 L 1007.36 661.108 M 1257.64 975.184 L 1037.29 641.355 M 1257.64 975.184 L 1287.57 955.431 M 1067.21 621.602 L 1037.29 641.355 M 1287.57 955.431 L 1067.21 621.602 M 1287.57 955.431 L 1317.49 935.679 M 857.741 759.872 L 827.817 779.625 M 1317.49 935.679 L 1097.13 601.849 M 1097.13 601.849 L 1067.21 621.602 M 1317.49 935.679 L 1347.42 915.926 M 827.817 779.625 L 1048.18 1113.45 M 1048.18 1113.45 L 1078.1 1093.7 M 1097.13 601.849 L 1123.05 577.071 M 1123.05 577.071 L 1144.13 548.063 M 1144.13 548.063 L 1159.68 515.758 M 1159.68 515.758 L 1169.22 481.195 M 1169.22 481.195 L 1172.44 445.483 M 1172.44 445.483 L 1169.22 409.772 M 1169.22 409.772 L 1159.68 375.208 M 1159.68 375.208 L 1144.13 342.903 M 1144.13 342.903 L 1123.05 313.895 M 1123.05 313.895 L 1097.13 289.117 M 1399.48 866.189 L 1123.05 577.071 M 1467.73 783.178 L 1144.13 548.063 M 1520.07 689.312 L 1159.68 515.758 M 1554.81 587.61 L 1169.22 481.195 M 1570.83 481.34 L 1172.44 445.483 M 1567.61 373.916 L 1169.22 409.772 M 1545.27 268.795 L 1159.68 375.208 M 1504.51 169.351 L 1144.13 342.903 M 1446.66 78.7803 L 1123.05 313.895 M 827.817 779.625 L 797.892 799.377 M 797.892 799.377 L 1018.25 1133.21 M 1018.25 1133.21 L 1048.18 1113.45 M 797.892 799.377 L 767.968 819.13 M 767.968 819.13 L 988.327 1152.96 M 988.327 1152.96 L 1018.25 1133.21 M 767.968 819.13 L 738.044 838.883 M 738.044 838.883 L 958.403 1172.71 M 958.403 1172.71 L 988.327 1152.96 M 738.044 838.883 L 708.12 858.636 M 708.12 858.636 L 928.478 1192.47 M 928.478 1192.47 L 958.403 1172.71 M 708.12 858.636 L 678.195 878.389 M 678.195 878.389 L 898.554 1212.22 M 898.554 1212.22 L 928.478 1192.47 M 678.195 878.389 L 648.271 898.141 M 648.271 898.141 L 868.63 1231.97 M 868.63 1231.97 L 898.554 1212.22 M 648.271 898.141 L 618.347 917.894 M 618.347 917.894 L 838.706 1251.72 M 838.706 1251.72 L 868.63 1231.97 M 588.423 937.647 L 808.782 1271.48 M 558.499 957.4 L 778.857 1291.23 M 413.394 908.69 L 444.968 925.681 M 528.574 977.153 L 748.933 1310.98 M 385.361 886.334 L 413.394 908.69 M 361.77 859.332 L 385.361 886.334 M 498.65 996.906 L 719.009 1330.73 M 343.38 828.552 L 361.77 859.332" />
<line x1="921.219013" y1="877.732477" x2="1014.621458" y2="975.840346" class="t" />
<line x1="1129.640377" y1="1139.238854" x2="1014.621458" y2="975.840346" class="t" />
<line x1="951.143239" y1="857.979660" x2="1014.621458" y2="975.840346" class="t" />
<line x1="836.124286" y1="694.581174" x2="951.143239" y2="857.979660" class="t" />
<line x1="1044.545611" y1="956.087577" x2="951.143239" y2="857.979660" class="t" />
<line x1="1159.564501" y1="1119.486113" x2="1044.545611" y2="956.087577" class="t" />
<line x1="981.067343" y1="838.226923" x2="1044.545611" y2="956.087577" class="t" />
<line x1="866.048401" y1="674.828421" x2="981.067343" y2="838.226923" class="t" />
<line x1="1074.469770" y1="936.334804" x2="981.067343" y2="838.226923" class="t" />
<line x1="1189.488676" y1="1099.733335" x2="1074.469770" y2="936.334804" class="t" />
<line x1="1010.991605" y1="818.474082" x2="1074.469770" y2="936.334804" class="t" />
<line x1="895.972572" y1="655.075636" x2="1010.991605" y2="818.474082" class="t" />
<line x1="1104.394063" y1="916.581943" x2="1010.991605" y2="818.474082" class="t" />
<line x1="1219.412959" y1="1079.980498" x2="1104.394063" y2="916.581943" class="t" />
<line x1="1040.915827" y1="798.721268" x2="1104.394063" y2="916.581943" class="t" />
<line x1="925.896838" y1="635.322773" x2="1040.915827" y2="798.721268" class="t" />
<line x1="1134.318246" y1="896.829154" x2="1040.915827" y2="798.721268" class="t" />
<line x1="1249.337136" y1="1060.227727" x2="1134.318246" y2="896.829154" class="t" />
<line x1="1070.840042" y1="778.968458" x2="1134.318246" y2="896.829154" class="t" />
<line x1="955.821002" y1="615.569983" x2="1070.840042" y2="778.968458" class="t" />
<line x1="1164.242489" y1="877.076326" x2="1070.840042" y2="778.968458" class="t" />
<line x1="1279.261580" y1="1040.474759" x2="1164.242489" y2="877.076326" class="t" />
<line x1="1100.764281" y1="759.215632" x2="1164.242489" y2="877.076326" class="t" />
<line x1="985.745453" y1="595.817025" x2="1100.764281" y2="759.215632" class="t" />
<line x1="1194.166729" y1="857.323499" x2="1100.764281" y2="759.215632" class="t" />
<line x1="1309.185847" y1="1020.721875" x2="1194.166729" y2="857.323499" class="t" />
<line x1="1130.688527" y1="739.462802" x2="1194.166729" y2="857.323499" class="t" />
<line x1="1015.669757" y1="576.064196" x2="1130.688527" y2="739.462802" class="t" />
<line x1="1224.090979" y1="837.570666" x2="1130.688527" y2="739.462802" class="t" />
<line x1="1339.109968" y1="1000.969097" x2="1224.090979" y2="837.570666" class="t" />
<line x1="984.697208" y1="995.593179" x2="921.219013" y2="877.732477" class="t" />
<line x1="806.200014" y1="714.334033" x2="921.219013" y2="877.732477" class="t" />
<line x1="1160.612775" y1="719.709970" x2="1224.090979" y2="837.570666" class="t" />
<line x1="1254.015194" y1="817.817856" x2="1160.612775" y2="719.709970" class="t" />
<line x1="1045.593906" y1="556.311460" x2="1160.612775" y2="719.709970" class="t" />
<line x1="1369.034125" y1="981.216317" x2="1254.015194" y2="817.817856" class="t" />
<line x1="891.294731" y1="897.485331" x2="984.697208" y2="995.593179" class="t" />
<line x1="1099.716095" y1="1158.991697" x2="984.697208" y2="995.593179" class="t" />
<line x1="1389.998915" y1="969.934667" x2="1369.034125" y2="981.216317" class="t" />
<line x1="1412.641262" y1="962.577709" x2="1389.998915" y2="969.934667" class="t" />
<line x1="1436.233398" y1="959.381914" x2="1412.641262" y2="962.577709" class="t" />
<line x1="1460.016965" y1="960.449990" x2="1436.233398" y2="959.381914" class="t" />
<line x1="1483.227619" y1="965.747654" x2="1460.016965" y2="960.449990" class="t" />
<line x1="1505.119390" y1="975.104592" x2="1483.227619" y2="965.747654" class="t" />
<line x1="1524.988594" y1="988.220046" x2="1505.119390" y2="975.104592" class="t" />
<line x1="1542.196574" y1="1004.672597" x2="1524.988594" y2="988.220046" class="t" />
<line x1="1556.190325" y1="1023.933344" x2="1542.196574" y2="1004.672597" class="t" />
<line x1="1064.207415" y1="541.467691" x2="1045.593906" y2="556.311460" class="t" />
<line x1="1206.553731" y1="681.702983" x2="1064.207415" y2="541.467691" class="t" />
<line x1="1079.871321" y1="523.538940" x2="1064.207415" y2="541.467691" class="t" />
<line x1="1244.969980" y1="636.103779" x2="1079.871321" y2="523.538940" class="t" />
<line x1="1092.082226" y1="503.101365" x2="1079.871321" y2="523.538940" class="t" />
<line x1="1274.626939" y1="584.377662" x2="1092.082226" y2="503.101365" class="t" />
<line x1="1100.447648" y1="480.811867" x2="1092.082226" y2="503.101365" class="t" />
<line x1="1294.571223" y1="528.187469" x2="1100.447648" y2="480.811867" class="t" />
<line x1="1104.698699" y1="457.386935" x2="1100.447648" y2="480.811867" class="t" />
<line x1="1304.161873" y1="469.339301" x2="1104.698699" y2="457.386935" class="t" />
<line x1="1104.698722" y1="433.579379" x2="1104.698699" y2="457.386935" class="t" />
<line x1="1303.090556" y1="409.723696" x2="1104.698722" y2="433.579379" class="t" />
<line x1="1100.447767" y1="410.154366" x2="1104.698722" y2="433.579379" class="t" />
<line x1="1291.392008" y1="351.258521" x2="1100.447767" y2="410.154366" class="t" />
<line x1="1092.082465" y1="387.864858" x2="1100.447767" y2="410.154366" class="t" />
<line x1="1269.441728" y1="295.820710" x2="1092.082465" y2="387.864858" class="t" />
<line x1="1079.871556" y1="367.427277" x2="1092.082465" y2="387.864858" class="t" />
<line x1="1237.944982" y1="245.193028" x2="1079.871556" y2="367.427277" class="t" />
<line x1="1064.207624" y1="349.498455" x2="1079.871556" y2="367.427277" class="t" />
<line x1="1197.915720" y1="201.004121" x2="1064.207624" y2="349.498455" class="t" />
<line x1="1315.972884" y1="761.556699" x2="1206.553731" y2="681.702983" class="t" />
<line x1="1366.889146" y1="695.136709" x2="1244.969980" y2="636.103779" class="t" />
<line x1="1405.127573" y1="620.692334" x2="1274.626939" y2="584.377662" class="t" />
<line x1="1429.458870" y1="540.616897" x2="1294.571223" y2="528.187469" class="t" />
<line x1="1439.101197" y1="457.484022" x2="1304.161873" y2="469.339301" class="t" />
<line x1="1433.744389" y1="373.964133" x2="1303.090556" y2="409.723696" class="t" />
<line x1="1413.561396" y1="292.745188" x2="1291.392008" y2="351.258521" class="t" />
<line x1="1379.199590" y1="216.433167" x2="1269.441728" y2="295.820710" class="t" />
<line x1="1331.763261" y1="147.482739" x2="1237.944982" y2="245.193028" class="t" />
<line x1="954.772918" y1="1015.346038" x2="891.294731" y2="897.485331" class="t" />
<line x1="776.275989" y1="734.086697" x2="891.294731" y2="897.485331" class="t" />
<line x1="861.370465" y1="917.238175" x2="954.772918" y2="1015.346038" class="t" />
<line x1="1069.792088" y1="1178.744390" x2="954.772918" y2="1015.346038" class="t" />
<line x1="924.848683" y1="1035.098862" x2="861.370465" y2="917.238175" class="t" />
<line x1="746.351435" y1="753.839712" x2="861.370465" y2="917.238175" class="t" />
<line x1="831.446260" y1="936.990978" x2="924.848683" y2="1035.098862" class="t" />
<line x1="1039.867552" y1="1198.497431" x2="924.848683" y2="1035.098862" class="t" />
<line x1="894.924478" y1="1054.851665" x2="831.446260" y2="936.990978" class="t" />
<line x1="716.427362" y1="773.592432" x2="831.446260" y2="936.990978" class="t" />
<line x1="801.522057" y1="956.743780" x2="894.924478" y2="1054.851665" class="t" />
<line x1="1009.943475" y1="1218.250146" x2="894.924478" y2="1054.851665" class="t" />
<line x1="865.000276" y1="1074.604466" x2="801.522057" y2="956.743780" class="t" />
<line x1="686.503135" y1="793.345239" x2="801.522057" y2="956.743780" class="t" />
<line x1="771.597833" y1="976.496596" x2="865.000276" y2="1074.604466" class="t" />
<line x1="980.019258" y1="1238.002967" x2="865.000276" y2="1074.604466" class="t" />
<line x1="835.076030" y1="1094.357297" x2="771.597833" y2="976.496596" class="t" />
<line x1="656.578753" y1="813.098173" x2="771.597833" y2="976.496596" class="t" />
<line x1="741.673622" y1="996.249403" x2="835.076030" y2="1094.357297" class="t" />
<line x1="950.094863" y1="1257.755882" x2="835.076030" y2="1094.357297" class="t" />
<line x1="805.151876" y1="1114.110066" x2="741.673622" y2="996.249403" class="t" />
<line x1="626.654656" y1="832.850923" x2="741.673622" y2="996.249403" class="t" />
<line x1="711.749443" y1="1016.002189" x2="805.151876" y2="1114.110066" class="t" />
<line x1="920.170750" y1="1277.508607" x2="805.151876" y2="1114.110066" class="t" />
<line x1="775.227614" y1="1133.862907" x2="711.749443" y2="1016.002189" class="t" />
<line x1="596.730547" y1="852.603666" x2="711.749443" y2="1016.002189" class="t" />
<line x1="575.765681" y1="863.885364" x2="596.730547" y2="852.603666" class="t" />
<line x1="681.825159" y1="1035.755045" x2="775.227614" y2="1133.862907" class="t" />
<line x1="890.246638" y1="1297.261346" x2="775.227614" y2="1133.862907" class="t" />
<line x1="871.633092" y1="1312.105139" x2="890.246638" y2="1297.261346" class="t" />
<line x1="553.123339" y1="871.242300" x2="575.765681" y2="863.885364" class="t" />
<line x1="745.303392" y1="1153.615722" x2="681.825159" y2="1035.755045" class="t" />
<line x1="855.969185" y1="1330.033948" x2="871.633092" y2="1312.105139" class="t" />
<line x1="529.531180" y1="874.438010" x2="553.123339" y2="871.242300" class="t" />
<line x1="651.900971" y1="1055.507837" x2="745.303392" y2="1153.615722" class="t" />
<line x1="843.758340" y1="1350.471605" x2="855.969185" y2="1330.033948" class="t" />
<line x1="505.747582" y1="873.369833" x2="529.531180" y2="874.438010" class="t" />
<line x1="715.379177" y1="1173.368532" x2="651.900971" y2="1055.507837" class="t" />
<line x1="835.393018" y1="1372.761107" x2="843.758340" y2="1350.471605" class="t" />
<line x1="482.536914" y1="868.072150" x2="505.747582" y2="873.369833" class="t" />
<line x1="621.976715" y1="1075.260674" x2="715.379177" y2="1173.368532" class="t" />
<line x1="831.142020" y1="1396.186084" x2="835.393018" y2="1372.761107" class="t" />
<line x1="460.645147" y1="858.715172" x2="482.536914" y2="868.072150" class="t" />
<line x1="685.454905" y1="1193.121379" x2="621.976715" y2="1075.260674" class="t" />
<line x1="831.142019" y1="1419.993700" x2="831.142020" y2="1396.186084" class="t" />
<line x1="371.260797" y1="1037.429679" x2="460.645147" y2="858.715172" class="t" />
<line x1="440.776015" y1="845.599617" x2="460.645147" y2="858.715172" class="t" />
<line x1="297.553399" y1="1149.178708" x2="371.260797" y2="1037.429679" class="t" />
<line x1="592.052483" y1="1095.013495" x2="685.454905" y2="1193.121379" class="t" />
<line x1="835.393079" y1="1443.418658" x2="831.142019" y2="1419.993700" class="t" />
<line x1="320.917161" y1="1005.481730" x2="440.776015" y2="845.599617" class="t" />
<line x1="423.568048" y1="829.147014" x2="440.776015" y2="845.599617" class="t" />
<line x1="228.440520" y1="1102.273755" x2="320.917161" y2="1005.481730" class="t" />
<line x1="655.530729" y1="1212.874163" x2="592.052483" y2="1095.013495" class="t" />
<line x1="843.758552" y1="1465.708143" x2="835.393079" y2="1443.418658" class="t" />
<line x1="277.087423" y1="965.058206" x2="423.568048" y2="829.147014" class="t" />
<line x1="409.574322" y1="809.886257" x2="423.568048" y2="829.147014" class="t" />
<line x1="168.814047" y1="1043.782427" x2="277.087423" y2="965.058206" class="t" />
<line x1="562.128307" y1="1114.766279" x2="655.530729" y2="1212.874163" class="t" />
<line x1="855.969476" y1="1486.145717" x2="843.758552" y2="1465.708143" class="t" />
<line x1="241.179934" y1="917.458348" x2="409.574322" y2="809.886257" class="t" />
<line x1="120.589967" y1="975.584801" x2="241.179934" y2="917.458348" class="t" />
<line x1="625.606497" y1="1232.626984" x2="562.128307" y2="1114.766279" class="t" />
</svg>
