<?xml version="1.0"?>
<svg width="1562" height="1695" version="1.1" xmlns="http://www.w3.org/2000/svg" >
<defs>
<style type="text/css"><![CDATA[
.m {stroke:rgb(255,0,0);stroke-width:2.118750;}
.v {stroke:rgb(0,0,255);stroke-width:2.118750;}
.b {stroke:rgb(0,0,0);stroke-width:4.237500;fill:white}
.n {stroke:rgb(128,128,128);stroke-width:2.118750}
.t {stroke:rgb(0,128,0);stroke-width:2.118750;}
.c {stroke:rgb(128,128,128);stroke-width:2.118750;stroke-dasharray:15.620000, 15.620000;}
]]></style>
</defs>
<path fill="none" style="stroke:black;stroke-width:4.237500;" d=" M 964.584 901.825 L 1362.97 937.68 M 1366.19 901.969 L 967.798 866.114 M 967.798 866.114 L 1366.19 830.258 M 1362.97 794.546 L 964.584 830.402 M 964.584 830.402 L 1350.17 723.988 M 1340.63 689.424 L 955.045 795.839 M 955.045 795.839 L 1315.43 622.285 M 1299.88 589.98 L 939.488 763.534 M 939.488 763.534 L 1263.09 528.42 M 1242.02 499.412 L 918.413 734.526 M 918.413 734.526 L 1194.84 445.409 M 1168.92 420.63 L 892.496 709.748 M 892.496 709.748 L 1112.85 375.918 M 1082.93 356.165 L 862.572 689.995 M 94.0135 775.457 L 75.6229 806.238 M 437.392 980.619 L 94.0135 775.457 M 75.6229 806.238 L 419.001 1011.4 M 44.5077 870.848 L 31.9088 904.418 M 419.001 1011.4 L 44.5077 870.848 M 31.9088 904.418 L 406.402 1044.97 M 12.8303 973.547 L 6.42814 1008.83 M 406.402 1044.97 L 12.8303 973.547 M 6.42814 1008.83 L 400 1080.25 M 0.000167913 1080.25 L 0 1116.1 M 400 1080.25 L 0.000167913 1080.25 M 0 1116.1 L 400 1116.1 M 6.42807 1187.53 L 12.8303 1222.81 M 400 1116.1 L 6.42807 1187.53 M 12.8303 1222.81 L 406.402 1151.38 M 31.9078 1291.93 L 44.5065 1325.5 M 406.402 1151.38 L 31.9078 1291.93 M 44.5065 1325.5 L 419.001 1184.95 M 75.6206 1390.11 L 94.0108 1420.89 M 419.001 1184.95 L 75.6206 1390.11 M 94.0108 1420.89 L 437.391 1215.73 M 136.162 1478.91 L 159.753 1505.91 M 437.391 1215.73 L 136.162 1478.91 M 159.753 1505.91 L 460.982 1242.74 M 211.586 1555.47 L 239.62 1577.82 M 460.982 1242.74 L 211.586 1555.47 M 239.62 1577.82 L 489.015 1265.09 M 904.811 1696.94 L 925.887 1667.93 M 581.205 1461.83 L 904.811 1696.94 M 602.28 1432.82 L 581.205 1461.83 M 925.887 1667.93 L 946.962 1638.93 M 623.356 1403.81 L 602.28 1432.82 M 946.962 1638.93 L 968.038 1609.92 M 644.431 1374.8 L 623.356 1403.81 M 968.038 1609.92 L 989.113 1580.91 M 665.507 1345.8 L 644.431 1374.8 M 989.113 1580.91 L 1010.19 1551.9 M 686.582 1316.79 L 665.507 1345.8 M 1010.19 1551.9 L 1031.26 1522.89 M 707.658 1287.78 L 686.582 1316.79 M 1031.26 1522.89 L 1052.34 1493.89 M 728.733 1258.77 L 707.658 1287.78 M 1052.34 1493.89 L 1073.42 1464.88 M 749.809 1229.76 L 728.733 1258.77 M 1073.42 1464.88 L 1094.49 1435.87 M 1094.49 1435.87 L 1115.57 1406.86 M 1115.57 1406.86 L 1136.64 1377.86 M 1136.64 1377.86 L 1157.72 1348.85 M 1157.72 1348.85 L 1178.79 1319.84 M 1178.79 1319.84 L 1199.87 1290.83 M 1199.87 1290.83 L 1220.94 1261.82 M 1220.94 1261.82 L 1242.02 1232.82 M 1242.02 1232.82 L 1263.09 1203.81 M 1284.17 1174.8 L 939.488 968.694 M 939.488 968.694 L 1315.43 1109.94 M 1330.99 1077.64 L 955.046 936.389 M 1350.17 1008.24 L 964.584 901.825 M 955.046 936.389 L 1350.17 1008.24 M 1562.97 937.68 L 1366.19 901.969 M 1362.97 937.68 L 1562.97 937.68 M 1562.97 794.546 L 1362.97 794.546 M 1366.19 830.258 L 1562.97 794.546 M 1537.42 653.713 L 1340.63 689.424 M 1350.17 723.988 L 1537.42 653.713 M 1487.12 519.705 L 1299.88 589.98 M 1315.43 622.285 L 1487.12 519.705 M 1413.71 396.832 L 1242.02 499.412 M 1263.09 528.42 L 1413.71 396.832 M 1319.54 289.043 L 1168.92 420.63 M 1194.84 445.409 L 1319.54 289.043 M 1112.85 375.918 L 1207.63 199.799 M 1057.01 331.387 L 1082.93 356.165 M 1035.94 302.379 L 1057.01 331.387 M 1020.38 270.074 L 1035.94 302.379 M 1010.84 235.511 L 1020.38 270.074 M 1007.63 199.799 L 1010.84 235.511 M 1010.84 164.088 L 1007.63 199.799 M 1020.38 129.524 L 1010.84 164.088 M 1035.94 97.2193 L 1020.38 129.524 M 1057.01 68.2114 L 1035.94 97.2193 M 1082.93 43.4328 L 1057.01 68.2114 M 1112.85 23.6798 L 1082.93 43.4328 M 1145.82 9.58743 L 1112.85 23.6798 M 1180.78 1.60875 L 1145.82 9.58743 M 1216.6 0 L 1180.78 1.60875 M 1252.13 4.81286 L 1216.6 0 M 1286.23 15.8927 L 1252.13 4.81286 M 1207.63 199.799 L 1317.81 32.8835 M 1317.81 32.8835 L 1286.23 15.8927 M 1310.09 1462.75 L 1340.01 1482.51 M 1340.01 1482.51 L 1434.78 1306.39 M 1284.17 1437.98 L 1310.09 1462.75 M 1263.1 1408.97 L 1284.17 1437.98 M 1247.54 1376.66 L 1263.1 1408.97 M 1238 1342.1 L 1247.54 1376.66 M 1234.78 1306.39 L 1238 1342.1 M 1238 1270.68 L 1234.78 1306.39 M 1247.54 1236.11 L 1238 1270.68 M 1263.09 1203.81 L 1247.54 1236.11 M 1434.78 1306.39 L 1284.17 1174.8 M 1315.43 1109.94 L 1502.68 1180.22 M 1502.68 1180.22 L 1330.99 1077.64 M 862.572 689.995 L 767.799 866.114 M 599.195 1098.18 L 437.392 980.619 M 489.015 1265.09 L 520.589 1282.08 M 520.589 1282.08 L 554.69 1293.16 M 554.69 1293.16 L 590.222 1297.98 M 590.222 1297.98 L 626.041 1296.37 M 626.041 1296.37 L 660.998 1288.39 M 660.998 1288.39 L 693.968 1274.3 M 693.968 1274.3 L 723.893 1254.54 M 723.893 1254.54 L 749.809 1229.76 M 770.884 1200.76 L 599.195 1098.18 M 791.96 1171.75 L 620.27 1069.17 M 620.27 1069.17 L 770.884 1200.76 M 813.035 1142.74 L 641.346 1040.16 M 641.346 1040.16 L 791.96 1171.75 M 834.111 1113.73 L 662.421 1011.15 M 662.421 1011.15 L 813.035 1142.74 M 855.186 1084.73 L 683.497 982.145 M 683.497 982.145 L 834.111 1113.73 M 876.262 1055.72 L 704.572 953.137 M 704.572 953.137 L 855.186 1084.73 M 897.337 1026.71 L 725.648 924.13 M 725.648 924.13 L 876.262 1055.72 M 918.413 997.702 L 746.723 895.122 M 746.723 895.122 L 897.337 1026.71 M 767.799 866.114 L 918.413 997.702" />
<path fill="none" class="c" d=" M 876.262 1055.72 L 1199.87 1290.83 M 897.337 1026.71 L 876.262 1055.72 M 1220.94 1261.82 L 897.337 1026.71 M 918.413 997.702 L 897.337 1026.71 M 1242.02 1232.82 L 918.413 997.702 M 1263.09 1203.81 L 939.488 968.694 M 1263.09 1203.81 L 1284.17 1174.8 M 939.488 968.694 L 918.413 997.702 M 876.262 1055.72 L 855.186 1084.73 M 939.488 968.694 L 955.046 936.389 M 955.046 936.389 L 964.584 901.825 M 964.584 901.825 L 967.798 866.114 M 855.186 1084.73 L 1178.79 1319.84 M 1315.43 1109.94 L 955.046 936.389 M 1315.43 1109.94 L 1330.99 1077.64 M 967.798 866.114 L 964.584 830.402 M 964.584 830.402 L 955.045 795.839 M 955.045 795.839 L 939.488 763.534 M 939.488 763.534 L 918.413 734.526 M 918.413 734.526 L 892.496 709.748 M 892.496 709.748 L 862.572 689.995 M 1362.97 937.68 L 1366.19 901.969 M 855.186 1084.73 L 834.111 1113.73 M 1366.19 830.258 L 1362.97 794.546 M 1350.17 723.988 L 1340.63 689.424 M 1315.43 622.285 L 1299.88 589.98 M 1263.09 528.42 L 1242.02 499.412 M 1194.84 445.409 L 1168.92 420.63 M 1112.85 375.918 L 1082.93 356.165 M 834.111 1113.73 L 1157.72 1348.85 M 834.111 1113.73 L 813.035 1142.74 M 813.035 1142.74 L 1136.64 1377.86 M 813.035 1142.74 L 791.96 1171.75 M 791.96 1171.75 L 1115.57 1406.86 M 791.96 1171.75 L 770.884 1200.76 M 770.884 1200.76 L 1094.49 1435.87 M 770.884 1200.76 L 749.809 1229.76 M 749.809 1229.76 L 1073.42 1464.88 M 728.733 1258.77 L 1052.34 1493.89 M 707.658 1287.78 L 1031.26 1522.89 M 686.582 1316.79 L 1010.19 1551.9 M 665.507 1345.8 L 989.113 1580.91 M 460.982 1242.74 L 489.015 1265.09 M 437.391 1215.73 L 460.982 1242.74 M 644.431 1374.8 L 968.038 1609.92 M 419.001 1184.95 L 437.391 1215.73 M 406.402 1151.38 L 419.001 1184.95 M 623.356 1403.81 L 946.962 1638.93 M 400 1116.1 L 406.402 1151.38 M 400 1080.25 L 400 1116.1 M 602.28 1432.82 L 925.887 1667.93 M 406.402 1044.97 L 400 1080.25 M 419.001 1011.4 L 406.402 1044.97 M 437.392 980.619 L 419.001 1011.4" />
</svg>
