<?xml version="1.0"?>
<svg width="1269" height="1398" version="1.1" xmlns="http://www.w3.org/2000/svg" >
<defs>
<style type="text/css"><![CDATA[
.m {stroke:rgb(255,0,0);stroke-width:1.747500;}
.v {stroke:rgb(0,0,255);stroke-width:1.747500;}
.b {stroke:rgb(0,0,0);stroke-width:3.495000;fill:white}
.n {stroke:rgb(128,128,128);stroke-width:1.747500}
.t {stroke:rgb(0,128,0);stroke-width:1.747500;}
.c {stroke:rgb(128,128,128);stroke-width:1.747500;stroke-dasharray:12.690000, 12.690000;}
]]></style>
</defs>
<path fill="none" style="stroke:black;stroke-width:3.495000;" d=" M 88.2412 1194.09 L 69.8508 1224.87 M 69.8508 1224.87 L 431.62 1399.25 M 1056.9 352.722 L 1075.29 321.942 M 1075.29 321.942 L 713.516 147.562 M 713.516 147.562 L 695.126 178.342 M 1038.5 383.502 L 1056.9 352.722 M 695.126 178.342 L 676.735 209.122 M 1020.11 414.282 L 1038.5 383.502 M 676.735 209.122 L 658.345 239.902 M 1001.72 445.063 L 1020.11 414.282 M 658.345 239.902 L 639.954 270.683 M 983.333 475.843 L 1001.72 445.063 M 474.44 547.705 L 456.05 578.485 M 799.429 783.646 L 817.82 752.865 M 456.05 578.485 L 437.66 609.265 M 781.039 814.426 L 799.429 783.646 M 437.66 609.265 L 419.269 640.046 M 762.648 845.206 L 781.039 814.426 M 419.269 640.046 L 400.879 670.826 M 744.258 875.986 L 762.648 845.206 M 400.879 670.826 L 382.488 701.606 M 725.867 906.767 L 744.258 875.986 M 382.488 701.606 L 364.098 732.386 M 707.477 937.547 L 725.867 906.767 M 364.098 732.386 L 345.707 763.167 M 689.086 968.327 L 707.477 937.547 M 345.707 763.167 L 327.317 793.947 M 670.696 999.107 L 689.086 968.327 M 327.317 793.947 L 308.926 824.727 M 652.306 1029.89 L 670.696 999.107 M 161.803 1070.97 L 143.413 1101.75 M 486.792 1306.91 L 505.182 1276.13 M 143.413 1101.75 L 125.022 1132.53 M 468.401 1337.69 L 486.792 1306.91 M 125.022 1132.53 L 106.632 1163.31 M 450.011 1368.47 L 468.401 1337.69 M 106.632 1163.31 L 88.2412 1194.09 M 431.62 1399.25 L 450.011 1368.47 M 652.554 130.699 L 639.955 97.1292 M 658.956 165.978 L 652.554 130.699 M 658.956 201.834 L 658.956 165.978 M 652.553 237.113 L 658.956 201.834 M 639.954 270.683 L 652.553 237.113 M 459.761 183.905 L 621.564 301.463 M 441.37 214.686 L 603.173 332.243 M 621.564 301.463 L 441.37 214.686 M 422.98 245.465 L 584.783 363.023 M 603.173 332.243 L 422.98 245.465 M 404.59 276.246 L 566.393 393.804 M 584.783 363.023 L 404.59 276.246 M 386.199 307.027 L 548.002 424.584 M 566.393 393.804 L 386.199 307.027 M 367.809 337.806 L 529.612 455.364 M 548.002 424.584 L 367.809 337.806 M 349.418 368.587 L 511.221 486.144 M 529.612 455.364 L 349.418 368.587 M 331.028 399.367 L 492.831 516.925 M 511.221 486.144 L 331.028 399.367 M 492.831 516.925 L 312.637 430.147 M 450.849 574.707 L 474.44 547.705 M 422.816 597.062 L 450.849 574.707 M 391.242 614.053 L 422.816 597.062 M 357.141 625.133 L 391.242 614.053 M 321.61 629.946 L 357.141 625.133 M 285.79 628.337 L 321.61 629.946 M 250.833 620.358 L 285.79 628.337 M 217.863 606.266 L 250.833 620.358 M 312.637 430.147 L 187.939 586.513 M 187.939 586.513 L 217.863 606.266 M 128.733 737.95 L 290.536 855.507 M 308.926 824.727 L 128.733 737.95 M 110.342 768.731 L 272.146 886.288 M 290.536 855.507 L 110.342 768.731 M 91.9522 799.51 L 253.755 917.068 M 272.146 886.288 L 91.9522 799.51 M 73.5612 830.292 L 235.365 947.848 M 253.755 917.068 L 73.5612 830.292 M 55.1713 861.071 L 216.974 978.629 M 235.365 947.848 L 55.1713 861.071 M 36.7808 891.851 L 198.584 1009.41 M 216.974 978.629 L 36.7808 891.851 M 18.3904 922.632 L 180.194 1040.19 M 198.584 1009.41 L 18.3904 922.632 M 0 953.412 L 161.803 1070.97 M 180.194 1040.19 L 0 953.412 M 569.941 16.991 L 538.367 0 M 538.367 0 L 459.761 183.905 M 597.974 39.3467 L 569.941 16.991 M 621.565 66.3488 L 597.974 39.3467 M 639.955 97.1292 L 621.565 66.3488 M 1136.16 393.602 L 1100.63 398.415 M 1100.63 398.415 L 1066.53 409.495 M 1066.53 409.495 L 1034.96 426.485 M 1034.96 426.485 L 1006.92 448.841 M 1006.92 448.841 L 983.333 475.843 M 964.943 506.623 L 1145.14 593.4 M 946.553 537.404 L 1126.75 624.181 M 1126.75 624.181 L 964.943 506.623 M 928.162 568.184 L 1108.36 654.96 M 1108.36 654.96 L 946.553 537.404 M 909.772 598.964 L 1089.97 685.741 M 1089.97 685.741 L 928.162 568.184 M 891.381 629.744 L 1071.57 716.522 M 1071.57 716.522 L 909.772 598.964 M 872.991 660.525 L 1053.18 747.301 M 1053.18 747.301 L 891.381 629.744 M 854.6 691.305 L 1034.79 778.082 M 1034.79 778.082 L 872.991 660.525 M 836.21 722.085 L 1016.4 808.862 M 1016.4 808.862 L 854.6 691.305 M 998.013 839.642 L 836.21 722.085 M 817.82 752.865 L 805.221 786.435 M 805.221 786.435 L 798.819 821.714 M 798.819 821.714 L 798.819 857.57 M 798.819 857.57 L 805.221 892.849 M 805.221 892.849 L 817.82 926.419 M 817.82 926.419 L 836.21 957.199 M 836.21 957.199 L 859.801 984.201 M 859.801 984.201 L 887.834 1006.56 M 887.834 1006.56 L 919.408 1023.55 M 919.408 1023.55 L 998.013 839.642 M 633.915 1060.67 L 814.109 1147.45 M 814.109 1147.45 L 652.306 1029.89 M 615.525 1091.45 L 795.718 1178.23 M 795.718 1178.23 L 633.915 1060.67 M 597.134 1122.23 L 777.328 1209.01 M 777.328 1209.01 L 615.525 1091.45 M 578.744 1153.01 L 758.937 1239.79 M 758.937 1239.79 L 597.134 1122.23 M 560.353 1183.79 L 740.547 1270.57 M 740.547 1270.57 L 578.744 1153.01 M 541.963 1214.57 L 722.156 1301.35 M 722.156 1301.35 L 560.353 1183.79 M 523.573 1245.35 L 703.766 1332.13 M 703.766 1332.13 L 541.963 1214.57 M 505.182 1276.13 L 685.376 1362.91 M 685.376 1362.91 L 523.573 1245.35 M 1269.83 437.034 L 1239.91 417.281 M 1145.14 593.4 L 1269.83 437.034 M 1239.91 417.281 L 1206.94 403.189 M 1206.94 403.189 L 1171.98 395.21 M 1171.98 395.21 L 1136.16 393.602" />
<path fill="none" class="c" d=" M 836.21 722.085 L 492.831 516.925 M 492.831 516.925 L 474.44 547.705 M 817.82 752.865 L 836.21 722.085 M 474.44 547.705 L 817.82 752.865 M 456.05 578.485 L 799.429 783.646 M 437.66 609.265 L 781.039 814.426 M 419.269 640.046 L 762.648 845.206 M 400.879 670.826 L 744.258 875.986 M 382.488 701.606 L 725.867 906.767 M 364.098 732.386 L 707.477 937.547 M 345.707 763.167 L 689.086 968.327 M 327.317 793.947 L 670.696 999.107 M 308.926 824.727 L 652.306 1029.89 M 308.926 824.727 L 290.536 855.507 M 633.915 1060.67 L 652.306 1029.89 M 290.536 855.507 L 633.915 1060.67 M 290.536 855.507 L 272.146 886.288 M 615.525 1091.45 L 633.915 1060.67 M 272.146 886.288 L 615.525 1091.45 M 272.146 886.288 L 253.755 917.068 M 597.134 1122.23 L 615.525 1091.45 M 253.755 917.068 L 597.134 1122.23 M 253.755 917.068 L 235.365 947.848 M 578.744 1153.01 L 597.134 1122.23 M 235.365 947.848 L 578.744 1153.01 M 235.365 947.848 L 216.974 978.629 M 560.353 1183.79 L 578.744 1153.01 M 216.974 978.629 L 560.353 1183.79 M 216.974 978.629 L 198.584 1009.41 M 541.963 1214.57 L 560.353 1183.79 M 198.584 1009.41 L 541.963 1214.57 M 198.584 1009.41 L 180.194 1040.19 M 523.573 1245.35 L 541.963 1214.57 M 180.194 1040.19 L 523.573 1245.35 M 180.194 1040.19 L 161.803 1070.97 M 505.182 1276.13 L 523.573 1245.35 M 161.803 1070.97 L 505.182 1276.13 M 143.413 1101.75 L 486.792 1306.91 M 125.022 1132.53 L 468.401 1337.69 M 106.632 1163.31 L 450.011 1368.47 M 88.2412 1194.09 L 431.62 1399.25 M 836.21 722.085 L 854.6 691.305 M 854.6 691.305 L 511.221 486.144 M 511.221 486.144 L 492.831 516.925 M 854.6 691.305 L 872.991 660.525 M 872.991 660.525 L 529.612 455.364 M 529.612 455.364 L 511.221 486.144 M 872.991 660.525 L 891.381 629.744 M 891.381 629.744 L 548.002 424.584 M 548.002 424.584 L 529.612 455.364 M 891.381 629.744 L 909.772 598.964 M 909.772 598.964 L 566.393 393.804 M 566.393 393.804 L 548.002 424.584 M 909.772 598.964 L 928.162 568.184 M 928.162 568.184 L 584.783 363.023 M 584.783 363.023 L 566.393 393.804 M 928.162 568.184 L 946.553 537.404 M 946.553 537.404 L 603.173 332.243 M 603.173 332.243 L 584.783 363.023 M 946.553 537.404 L 964.943 506.623 M 964.943 506.623 L 621.564 301.463 M 621.564 301.463 L 603.173 332.243 M 964.943 506.623 L 983.333 475.843 M 983.333 475.843 L 639.954 270.683 M 639.954 270.683 L 621.564 301.463 M 1001.72 445.063 L 658.345 239.902 M 1020.11 414.282 L 676.735 209.122 M 1038.5 383.502 L 695.126 178.342 M 1056.9 352.722 L 713.516 147.562" />
<line x1="727.880424" y1="643.438130" x2="601.160423" y2="595.571519" class="t" />
<line x1="426.636269" y1="498.258871" x2="601.160423" y2="595.571519" class="t" />
<line x1="709.489987" y1="674.218393" x2="601.160423" y2="595.571519" class="t" />
<line x1="884.014284" y1="771.530801" x2="709.489987" y2="674.218393" class="t" />
<line x1="582.770006" y1="626.351746" x2="709.489987" y2="674.218393" class="t" />
<line x1="691.099554" y1="704.998648" x2="582.770006" y2="626.351746" class="t" />
<line x1="564.379548" y1="657.132044" x2="691.099554" y2="704.998648" class="t" />
<line x1="672.709086" y1="735.778961" x2="564.379548" y2="657.132044" class="t" />
<line x1="545.989105" y1="687.912316" x2="672.709086" y2="735.778961" class="t" />
<line x1="654.318677" y1="766.559177" x2="545.989105" y2="687.912316" class="t" />
<line x1="527.598695" y1="718.692532" x2="654.318677" y2="766.559177" class="t" />
<line x1="635.928234" y1="797.339449" x2="527.598695" y2="718.692532" class="t" />
<line x1="509.208228" y1="749.472845" x2="635.928234" y2="797.339449" class="t" />
<line x1="617.537775" y1="828.119747" x2="509.208228" y2="749.472845" class="t" />
<line x1="490.817795" y1="780.253100" x2="617.537775" y2="828.119747" class="t" />
<line x1="599.147359" y1="858.899974" x2="490.817795" y2="780.253100" class="t" />
<line x1="472.427357" y1="811.033363" x2="599.147359" y2="858.899974" class="t" />
<line x1="580.756884" y1="889.680300" x2="472.427357" y2="811.033363" class="t" />
<line x1="454.036895" y1="841.813667" x2="580.756884" y2="889.680300" class="t" />
<line x1="562.366473" y1="920.460519" x2="454.036895" y2="841.813667" class="t" />
<line x1="435.646500" y1="872.593859" x2="562.366473" y2="920.460519" class="t" />
<line x1="543.976042" y1="951.240770" x2="435.646500" y2="872.593859" class="t" />
<line x1="417.256047" y1="903.374147" x2="543.976042" y2="951.240770" class="t" />
<line x1="242.731794" y1="806.061654" x2="417.256047" y2="903.374147" class="t" />
<line x1="525.585603" y1="982.021035" x2="417.256047" y2="903.374147" class="t" />
<line x1="700.109820" y1="1079.333590" x2="525.585603" y2="982.021035" class="t" />
<line x1="398.865622" y1="934.154389" x2="525.585603" y2="982.021035" class="t" />
<line x1="224.341364" y1="836.841920" x2="398.865622" y2="934.154389" class="t" />
<line x1="507.195178" y1="1012.801278" x2="398.865622" y2="934.154389" class="t" />
<line x1="681.719375" y1="1110.113848" x2="507.195178" y2="1012.801278" class="t" />
<line x1="380.475196" y1="964.934633" x2="507.195178" y2="1012.801278" class="t" />
<line x1="205.951014" y1="867.622030" x2="380.475196" y2="964.934633" class="t" />
<line x1="488.804751" y1="1043.581522" x2="380.475196" y2="964.934633" class="t" />
<line x1="663.329031" y1="1140.893960" x2="488.804751" y2="1043.581522" class="t" />
<line x1="362.084750" y1="995.714910" x2="488.804751" y2="1043.581522" class="t" />
<line x1="187.560392" y1="898.402633" x2="362.084750" y2="995.714910" class="t" />
<line x1="470.414287" y1="1074.361830" x2="362.084750" y2="995.714910" class="t" />
<line x1="644.938382" y1="1171.674547" x2="470.414287" y2="1074.361830" class="t" />
<line x1="343.694271" y1="1026.495241" x2="470.414287" y2="1074.361830" class="t" />
<line x1="169.170096" y1="929.182692" x2="343.694271" y2="1026.495241" class="t" />
<line x1="452.023812" y1="1105.142155" x2="343.694271" y2="1026.495241" class="t" />
<line x1="626.548057" y1="1202.454589" x2="452.023812" y2="1105.142155" class="t" />
<line x1="325.303817" y1="1057.275533" x2="452.023812" y2="1105.142155" class="t" />
<line x1="150.779617" y1="959.963006" x2="325.303817" y2="1057.275533" class="t" />
<line x1="433.633373" y1="1135.922421" x2="325.303817" y2="1057.275533" class="t" />
<line x1="608.157593" y1="1233.234913" x2="433.633373" y2="1135.922421" class="t" />
<line x1="306.913422" y1="1088.055724" x2="433.633373" y2="1135.922421" class="t" />
<line x1="132.389236" y1="990.743160" x2="306.913422" y2="1088.055724" class="t" />
<line x1="415.243008" y1="1166.702562" x2="306.913422" y2="1088.055724" class="t" />
<line x1="589.767225" y1="1264.015074" x2="415.243008" y2="1166.702562" class="t" />
<line x1="288.523023" y1="1118.835922" x2="415.243008" y2="1166.702562" class="t" />
<line x1="113.998826" y1="1021.523369" x2="288.523023" y2="1118.835922" class="t" />
<line x1="396.852546" y1="1197.482866" x2="288.523023" y2="1118.835922" class="t" />
<line x1="571.376822" y1="1294.795287" x2="396.852546" y2="1197.482866" class="t" />
<line x1="270.132542" y1="1149.616257" x2="396.852546" y2="1197.482866" class="t" />
<line x1="378.462109" y1="1228.263128" x2="270.132542" y2="1149.616257" class="t" />
<line x1="251.742129" y1="1180.396479" x2="378.462109" y2="1228.263128" class="t" />
<line x1="360.071675" y1="1259.043384" x2="251.742129" y2="1180.396479" class="t" />
<line x1="233.351679" y1="1211.176764" x2="360.071675" y2="1259.043384" class="t" />
<line x1="341.681227" y1="1289.823664" x2="233.351679" y2="1211.176764" class="t" />
<line x1="214.961230" y1="1241.957046" x2="341.681227" y2="1289.823664" class="t" />
<line x1="323.290776" y1="1320.603950" x2="214.961230" y2="1241.957046" class="t" />
<line x1="412.642469" y1="517.519550" x2="426.636269" y2="498.258871" class="t" />
<line x1="395.434353" y1="533.972005" x2="412.642469" y2="517.519550" class="t" />
<line x1="375.565120" y1="547.087419" x2="395.434353" y2="533.972005" class="t" />
<line x1="353.673367" y1="556.444326" x2="375.565120" y2="547.087419" class="t" />
<line x1="330.462645" y1="561.741959" x2="353.673367" y2="556.444326" class="t" />
<line x1="306.679047" y1="562.809963" x2="330.462645" y2="561.741959" class="t" />
<line x1="283.086921" y1="559.614045" x2="306.679047" y2="562.809963" class="t" />
<line x1="260.444592" y1="552.257004" x2="283.086921" y2="559.614045" class="t" />
<line x1="239.479799" y1="540.975287" x2="260.444592" y2="552.257004" class="t" />
<line x1="873.684551" y1="792.980667" x2="884.014284" y2="771.530801" class="t" />
<line x1="867.350884" y1="815.930334" x2="873.684551" y2="792.980667" class="t" />
<line x1="865.216817" y1="839.642067" x2="867.350884" y2="815.930334" class="t" />
<line x1="867.350884" y1="863.353801" x2="865.216817" y2="839.642067" class="t" />
<line x1="873.684551" y1="886.303467" x2="867.350884" y2="863.353801" class="t" />
<line x1="884.014284" y1="907.753334" x2="873.684551" y2="886.303467" class="t" />
<line x1="898.008084" y1="927.014067" x2="884.014284" y2="907.753334" class="t" />
<line x1="915.216084" y1="943.466601" x2="898.008084" y2="927.014067" class="t" />
<line x1="935.085217" y1="956.582134" x2="915.216084" y2="943.466601" class="t" />
<line x1="196.570776" y1="1272.737336" x2="323.290776" y2="1320.603950" class="t" />
<line x1="619.550898" y1="564.791193" x2="727.880424" y2="643.438130" class="t" />
<line x1="902.404689" y1="740.750549" x2="727.880424" y2="643.438130" class="t" />
<line x1="746.270886" y1="612.657827" x2="619.550898" y2="564.791193" class="t" />
<line x1="445.026712" y1="467.478642" x2="619.550898" y2="564.791193" class="t" />
<line x1="637.941309" y1="534.010975" x2="746.270886" y2="612.657827" class="t" />
<line x1="920.795059" y1="709.970402" x2="746.270886" y2="612.657827" class="t" />
<line x1="764.661265" y1="581.877661" x2="637.941309" y2="534.010975" class="t" />
<line x1="463.417079" y1="436.698494" x2="637.941309" y2="534.010975" class="t" />
<line x1="656.331707" y1="503.230777" x2="764.661265" y2="581.877661" class="t" />
<line x1="939.185564" y1="679.190000" x2="764.661265" y2="581.877661" class="t" />
<line x1="783.051696" y1="551.097410" x2="656.331707" y2="503.230777" class="t" />
<line x1="481.807608" y1="405.918105" x2="656.331707" y2="503.230777" class="t" />
<line x1="674.722151" y1="472.450504" x2="783.051696" y2="551.097410" class="t" />
<line x1="957.575752" y1="648.410172" x2="783.051696" y2="551.097410" class="t" />
<line x1="801.442142" y1="520.317133" x2="674.722151" y2="472.450504" class="t" />
<line x1="500.197781" y1="375.138268" x2="674.722151" y2="472.450504" class="t" />
<line x1="693.112587" y1="441.670244" x2="801.442142" y2="520.317133" class="t" />
<line x1="975.966401" y1="617.629601" x2="801.442142" y2="520.317133" class="t" />
<line x1="819.832570" y1="489.536886" x2="693.112587" y2="441.670244" class="t" />
<line x1="518.588389" y1="344.357674" x2="693.112587" y2="441.670244" class="t" />
<line x1="711.503017" y1="410.889994" x2="819.832570" y2="489.536886" class="t" />
<line x1="994.356913" y1="586.849155" x2="819.832570" y2="489.536886" class="t" />
<line x1="838.223011" y1="458.756617" x2="711.503017" y2="410.889994" class="t" />
<line x1="536.978953" y1="313.577258" x2="711.503017" y2="410.889994" class="t" />
<line x1="729.893467" y1="380.109709" x2="838.223011" y2="458.756617" class="t" />
<line x1="1012.747149" y1="556.069200" x2="838.223011" y2="458.756617" class="t" />
<line x1="856.613444" y1="427.976363" x2="729.893467" y2="380.109709" class="t" />
<line x1="555.369215" y1="282.797319" x2="729.893467" y2="380.109709" class="t" />
<line x1="748.283872" y1="349.329502" x2="856.613444" y2="427.976363" class="t" />
<line x1="1031.137683" y1="525.288781" x2="856.613444" y2="427.976363" class="t" />
<line x1="1045.131431" y1="506.028100" x2="1031.137683" y2="525.288781" class="t" />
<line x1="875.003836" y1="397.196177" x2="748.283872" y2="349.329502" class="t" />
<line x1="573.759744" y1="252.016897" x2="748.283872" y2="349.329502" class="t" />
<line x1="584.089504" y1="230.567074" x2="573.759744" y2="252.016897" class="t" />
<line x1="1062.339455" y1="489.575564" x2="1045.131431" y2="506.028100" class="t" />
<line x1="766.674280" y1="318.549289" x2="875.003836" y2="397.196177" class="t" />
<line x1="590.423285" y1="207.617450" x2="584.089504" y2="230.567074" class="t" />
<line x1="1082.208623" y1="476.460045" x2="1062.339455" y2="489.575564" class="t" />
<line x1="893.394278" y1="366.415905" x2="766.674280" y2="318.549289" class="t" />
<line x1="592.557475" y1="183.905725" x2="590.423285" y2="207.617450" class="t" />
<line x1="1104.100302" y1="467.103098" x2="1082.208623" y2="476.460045" class="t" />
<line x1="785.064741" y1="287.768986" x2="893.394278" y2="366.415905" class="t" />
<line x1="590.423479" y1="160.194038" x2="592.557475" y2="183.905725" class="t" />
<line x1="1127.310961" y1="461.805407" x2="1104.100302" y2="467.103098" class="t" />
<line x1="911.784726" y1="335.635625" x2="785.064741" y2="287.768986" class="t" />
<line x1="584.089893" y1="137.244399" x2="590.423479" y2="160.194038" class="t" />
<line x1="1151.094594" y1="460.737241" x2="1127.310961" y2="461.805407" class="t" />
<line x1="1174.686737" y1="463.932959" x2="1151.094594" y2="460.737241" class="t" />
<line x1="803.455156" y1="256.988761" x2="911.784726" y2="335.635625" class="t" />
<line x1="573.760286" y1="115.794425" x2="584.089893" y2="137.244399" class="t" />
<line x1="559.766654" y1="96.533582" x2="573.760286" y2="115.794425" class="t" />
<line x1="1197.329106" y1="471.289913" x2="1174.686737" y2="463.932959" class="t" />
<line x1="930.175111" y1="304.855450" x2="803.455156" y2="256.988761" class="t" />
<line x1="542.558712" y1="80.080972" x2="559.766654" y2="96.533582" class="t" />
<line x1="1218.293927" y1="482.571603" x2="1197.329106" y2="471.289913" class="t" />
<line x1="821.845545" y1="226.208579" x2="930.175111" y2="304.855450" class="t" />
<line x1="522.689589" y1="66.965401" x2="542.558712" y2="80.080972" class="t" />
<line x1="948.565525" y1="274.075227" x2="821.845545" y2="226.208579" class="t" />
</svg>
