<?xml version="1.0"?>
<svg width="1185" height="1334" version="1.1" xmlns="http://www.w3.org/2000/svg" >
<defs>
<style type="text/css"><![CDATA[
.m {stroke:rgb(255,0,0);stroke-width:1.667500;}
.v {stroke:rgb(0,0,255);stroke-width:1.667500;}
.b {stroke:rgb(0,0,0);stroke-width:3.335000;fill:white}
.n {stroke:rgb(128,128,128);stroke-width:1.667500}
.t {stroke:rgb(0,128,0);stroke-width:1.667500;}
.c {stroke:rgb(128,128,128);stroke-width:1.667500;stroke-dasharray:11.850000, 11.850000;}
]]></style>
</defs>
<path fill="none" style="stroke:black;stroke-width:3.335000;" d=" M 673.967 620.785 L 521.739 604.718 M 746.31 755.685 L 673.967 620.785 M 666.866 556.04 L 818.256 578.681 M 708.254 408.667 L 600.429 418.135 M 600.429 418.135 L 525.824 496.555 M 521.739 604.718 L 666.866 556.04 M 369.578 621.405 L 408.369 769.482 M 408.369 769.482 L 549.168 709.424 M 573.122 907.984 L 638.997 769.811 M 549.168 709.424 L 446.085 822.584 M 788.297 902.887 L 746.31 755.685 M 638.997 769.811 L 636.533 922.864 M 795.384 472.886 L 994.892 486.917 M 970.997 568.595 L 795.384 472.886 M 818.256 578.681 L 970.997 568.595 M 624.458 306.479 L 636.592 106.847 M 903.269 364.293 L 708.254 408.667 M 514.845 199.632 L 425.202 323.711 M 561.071 394.216 L 624.458 306.479 M 425.202 323.711 L 375.354 468.44 M 525.824 496.555 L 561.071 394.216 M 375.354 468.44 L 369.578 621.405 M 446.085 822.584 L 299.754 777.654 M 276.738 928.988 L 380.21 960.758 M 470.038 1021.14 L 573.122 907.984 M 785.834 1055.94 L 788.297 902.887 M 636.533 922.864 L 678.52 1070.07 M 1037.99 291.615 L 903.269 364.293 M 994.892 486.917 L 1102.78 378.324 M 440.89 65.6084 L 514.845 199.632 M 636.592 106.847 L 526.979 0 M 526.979 0 L 440.89 65.6084 M 51.0592 1187.95 L 96.2224 1334.21 M 96.2224 1334.21 L 234.291 1268.12 M 234.291 1268.12 L 202.355 1164.7 M 146.682 777.049 L 0 820.82 M 0 820.82 L 168.5 928.56 M 201.755 1056.46 L 51.0592 1187.95 M 299.754 777.654 L 146.682 777.049 M 168.5 928.56 L 276.738 928.988 M 380.21 960.758 L 272.896 974.884 M 345.24 1109.78 L 470.038 1021.14 M 750.864 1204.97 L 785.834 1055.94 M 678.52 1070.07 L 750.864 1204.97 M 1102.78 378.324 L 1185.09 249.264 M 1046.75 183.731 L 1037.99 291.615 M 1185.09 249.264 L 1124.68 108.614 M 1124.68 108.614 L 1046.75 183.731 M 202.355 1164.7 L 345.24 1109.78 M 272.896 974.884 L 201.755 1056.46" />
<path fill="none" class="c" d=" M 549.168 709.424 L 673.967 620.785 M 521.739 604.718 L 549.168 709.424 M 638.997 769.811 L 673.967 620.785 M 549.168 709.424 L 638.997 769.811 M 638.997 769.811 L 746.31 755.685 M 521.739 604.718 L 369.578 621.405 M 521.739 604.718 L 525.824 496.555 M 525.824 496.555 L 375.354 468.44 M 666.866 556.04 L 525.824 496.555 M 446.085 822.584 L 573.122 907.984 M 636.533 922.864 L 788.297 902.887 M 561.071 394.216 L 425.202 323.711 M 446.085 822.584 L 380.21 960.758 M 380.21 960.758 L 470.038 1021.14 M 678.52 1070.07 L 785.834 1055.94 M 380.21 960.758 L 345.24 1109.78 M 666.866 556.04 L 600.429 418.135 M 624.458 306.479 L 514.845 199.632 M 299.754 777.654 L 276.738 928.988 M 146.682 777.049 L 168.5 928.56 M 272.896 974.884 L 345.24 1109.78 M 201.755 1056.46 L 345.24 1109.78 M 666.866 556.04 L 708.254 408.667 M 636.592 106.847 L 514.845 199.632 M 201.755 1056.46 L 202.355 1164.7 M 666.866 556.04 L 795.384 472.886 M 795.384 472.886 L 708.254 408.667 M 795.384 472.886 L 903.269 364.293 M 51.0592 1187.95 L 202.355 1164.7 M 818.256 578.681 L 795.384 472.886 M 994.892 486.917 L 903.269 364.293 M 1102.78 378.324 L 1037.99 291.615 M 1185.09 249.264 L 1037.99 291.615 M 1185.09 249.264 L 1046.75 183.731" />
</svg>
