<?xml version="1.0"?>
<svg width="1274" height="1030" version="1.1" xmlns="http://www.w3.org/2000/svg" >
<defs>
<style type="text/css"><![CDATA[
.m {stroke:rgb(255,0,0);stroke-width:1.592500;}
.v {stroke:rgb(0,0,255);stroke-width:1.592500;}
.b {stroke:rgb(0,0,0);stroke-width:3.185000;fill:white}
.n {stroke:rgb(128,128,128);stroke-width:1.592500}
.t {stroke:rgb(0,128,0);stroke-width:1.592500;}
.c {stroke:rgb(128,128,128);stroke-width:1.592500;stroke-dasharray:12.740000, 12.740000;}
]]></style>
</defs>
<path fill="none" style="stroke:black;stroke-width:3.185000;" d=" M 828.953 734.209 L 903.559 812.628 M 903.559 812.628 L 1011.38 822.096 M 1011.38 822.096 L 969.996 674.724 M 0 16.8999 L 41.3874 164.272 M 128.518 100.054 L 0 16.8999 M 969.996 674.724 L 1122.66 685.884 M 824.869 626.046 L 711.498 461.282 M 790.264 429.063 L 824.869 626.046 M 864.201 836.548 L 828.953 734.209 M 728.331 907.053 L 817.974 1031.13 M 817.974 1031.13 L 927.588 924.285 M 927.588 924.285 L 864.201 836.548 M 236.403 208.647 L 128.518 100.054 M 41.3874 164.272 L 113.181 299.465 M 308.858 22.2324 L 236.403 208.647 M 380.652 157.425 L 308.858 22.2324 M 1274.21 664.308 L 1091.88 582.115 M 1122.66 685.884 L 1274.21 664.308 M 504.01 0 L 380.652 157.425 M 533.554 150.195 L 504.01 0 M 1191.26 465.695 L 1000.15 524.651 M 1091.88 582.115 L 1191.26 465.695 M 917.301 343.663 L 790.264 429.063 M 893.348 542.223 L 917.301 343.663 M 1000.15 524.651 L 997.687 371.597 M 997.687 371.597 L 893.348 542.223 M 531.908 549.301 L 672.707 609.359 M 711.498 461.282 L 559.337 444.595 M 526.323 745.637 L 678.484 762.324 M 672.707 609.359 L 526.323 745.637 M 509.972 747.146 L 473.954 598.37 M 366.159 608.157 L 509.972 747.146 M 577.862 935.168 L 728.331 907.053 M 678.484 762.324 L 577.862 935.168 M 294.765 743.562 L 366.159 608.157 M 278.838 544.197 L 294.765 743.562 M 112.386 384.562 L 80.0407 534.179 M 80.0407 534.179 L 255.653 438.47 M 135.731 598.529 L 278.838 544.197 M 255.653 438.47 L 135.731 598.529 M 113.181 299.465 L 308.196 343.839 M 308.196 343.839 L 112.386 384.562 M 410.196 307.621 L 518.315 302.508 M 681.993 187.577 L 533.554 150.195 M 623.277 328.941 L 681.993 187.577 M 518.315 302.508 L 623.277 328.941 M 407.109 460.663 L 531.908 549.301 M 473.954 598.37 L 407.109 460.663 M 510.652 347.923 L 410.196 307.621 M 559.337 444.595 L 510.652 347.923" />
<path fill="none" class="c" d=" M 531.908 549.301 L 559.337 444.595 M 559.337 444.595 L 407.109 460.663 M 510.652 347.923 L 407.109 460.663 M 410.196 307.621 L 407.109 460.663 M 672.707 609.359 L 711.498 461.282 M 672.707 609.359 L 824.869 626.046 M 410.196 307.621 L 308.196 343.839 M 308.196 343.839 L 407.109 460.663 M 828.953 734.209 L 824.869 626.046 M 678.484 762.324 L 828.953 734.209 M 672.707 609.359 L 678.484 762.324 M 236.403 208.647 L 308.196 343.839 M 308.196 343.839 L 255.653 438.47 M 255.653 438.47 L 407.109 460.663 M 969.996 674.724 L 824.869 626.046 M 969.996 674.724 L 893.348 542.223 M 893.348 542.223 L 824.869 626.046 M 828.953 734.209 L 969.996 674.724 M 903.559 812.628 L 969.996 674.724 M 969.996 674.724 L 1000.15 524.651 M 1000.15 524.651 L 893.348 542.223 M 893.348 542.223 L 790.264 429.063 M 728.331 907.053 L 864.201 836.548 M 678.484 762.324 L 728.331 907.053 M 236.403 208.647 L 113.181 299.465 M 112.386 384.562 L 255.653 438.47 M 380.652 157.425 L 236.403 208.647 M 410.196 307.621 L 380.652 157.425 M 255.653 438.47 L 278.838 544.197 M 278.838 544.197 L 407.109 460.663 M 969.996 674.724 L 1091.88 582.115 M 1091.88 582.115 L 1000.15 524.651 M 128.518 100.054 L 41.3874 164.272 M 533.554 150.195 L 380.652 157.425 M 518.315 302.508 L 533.554 150.195 M 278.838 544.197 L 366.159 608.157 M 366.159 608.157 L 407.109 460.663 M 1122.66 685.884 L 1091.88 582.115 M 366.159 608.157 L 473.954 598.37" />
<line x1="600.914340" y1="485.059643" x2="499.451381" y2="484.853122" class="t" />
<line x1="492.366211" y1="417.726993" x2="499.451381" y2="484.853122" class="t" />
<line x1="442.652555" y1="372.068789" x2="492.366211" y2="417.726993" class="t" />
<line x1="638.704459" y1="539.980987" x2="600.914340" y2="485.059643" class="t" />
<line x1="375.167267" y1="370.707636" x2="442.652555" y2="372.068789" class="t" />
<line x1="736.358037" y1="565.562679" x2="638.704459" y2="539.980987" class="t" />
<line x1="775.509645" y1="656.538049" x2="736.358037" y2="565.562679" class="t" />
<line x1="726.714687" y1="701.963789" x2="775.509645" y2="656.538049" class="t" />
<line x1="318.265051" y1="286.702200" x2="375.167267" y2="370.707636" class="t" />
<line x1="323.652974" y1="414.324109" x2="375.167267" y2="370.707636" class="t" />
<line x1="874.605780" y1="678.326379" x2="775.509645" y2="656.538049" class="t" />
<line x1="790.545753" y1="777.693330" x2="726.714687" y2="701.963789" class="t" />
<line x1="625.837884" y1="705.773125" x2="726.714687" y2="701.963789" class="t" />
<line x1="757.005201" y1="835.308246" x2="790.545753" y2="777.693330" class="t" />
<line x1="219.260124" y1="283.983630" x2="318.265051" y2="286.702200" class="t" />
<line x1="342.416871" y1="224.564164" x2="318.265051" y2="286.702200" class="t" />
<line x1="225.411948" y1="388.957292" x2="323.652974" y2="414.324109" class="t" />
<line x1="313.866849" y1="481.109950" x2="323.652974" y2="414.324109" class="t" />
<line x1="896.070699" y1="614.331251" x2="874.605780" y2="678.326379" class="t" />
<line x1="954.498174" y1="580.532628" x2="896.070699" y2="614.331251" class="t" />
<line x1="836.160208" y1="532.444085" x2="896.070699" y2="614.331251" class="t" />
<line x1="900.835890" y1="740.520415" x2="874.605780" y2="678.326379" class="t" />
<line x1="961.645979" y1="769.816357" x2="900.835890" y2="740.520415" class="t" />
<line x1="1020.674484" y1="593.829813" x2="954.498174" y2="580.532628" class="t" />
<line x1="963.728616" y1="479.490189" x2="954.498174" y2="580.532628" class="t" />
<line x1="866.970995" y1="438.316174" x2="836.160208" y2="532.444085" class="t" />
<line x1="840.039861" y1="889.295388" x2="757.005201" y2="835.308246" class="t" />
<line x1="661.558992" y1="868.181724" x2="757.005201" y2="835.308246" class="t" />
<line x1="824.631059" y1="954.156892" x2="840.039861" y2="889.295388" class="t" />
<line x1="159.367325" y1="202.721726" x2="219.260124" y2="283.983630" class="t" />
<line x1="149.360038" y1="452.403925" x2="225.411948" y2="388.957292" class="t" />
<line x1="308.637568" y1="129.434783" x2="342.416871" y2="224.564164" class="t" />
<line x1="436.387500" y1="255.851368" x2="342.416871" y2="224.564164" class="t" />
<line x1="477.506959" y1="203.376257" x2="436.387500" y2="255.851368" class="t" />
<line x1="223.407522" y1="527.065206" x2="313.866849" y2="481.109950" class="t" />
<line x1="350.701952" y1="537.672255" x2="313.866849" y2="481.109950" class="t" />
<line x1="1061.511439" y1="647.574207" x2="1020.674484" y2="593.829813" class="t" />
<line x1="1094.430590" y1="524.153336" x2="1020.674484" y2="593.829813" class="t" />
<line x1="94.362259" y1="187.930221" x2="159.367325" y2="202.721726" class="t" />
<line x1="56.635160" y1="93.741895" x2="94.362259" y2="187.930221" class="t" />
<line x1="472.738854" y1="102.540204" x2="477.506959" y2="203.376257" class="t" />
<line x1="558.381874" y1="260.548054" x2="477.506959" y2="203.376257" class="t" />
<line x1="612.941478" y1="222.237541" x2="558.381874" y2="260.548054" class="t" />
<line x1="313.253983" y1="631.971907" x2="350.701952" y2="537.672255" class="t" />
<line x1="415.740712" y1="555.729842" x2="350.701952" y2="537.672255" class="t" />
<line x1="1162.915182" y1="644.101968" x2="1061.511439" y2="647.574207" class="t" />
<line x1="450.028132" y1="651.224074" x2="415.740712" y2="555.729842" class="t" />
</svg>
