<?xml version="1.0"?>
<svg width="1133" height="968" version="1.1" xmlns="http://www.w3.org/2000/svg" >
<defs>
<style type="text/css"><![CDATA[
.m {stroke:rgb(255,0,0);stroke-width:1.416250;}
.v {stroke:rgb(0,0,255);stroke-width:1.416250;}
.b {stroke:rgb(0,0,0);stroke-width:2.832500;fill:white}
.n {stroke:rgb(128,128,128);stroke-width:1.416250}
.t {stroke:rgb(0,128,0);stroke-width:1.416250;}
.c {stroke:rgb(128,128,128);stroke-width:1.416250;stroke-dasharray:11.330000, 11.330000;}
]]></style>
</defs>
<path fill="none" style="stroke:black;stroke-width:2.832500;" d=" M 749.318 381.517 L 894.948 334.363 M 901.369 399.18 L 749.318 381.517 M 775.648 486.505 L 901.369 399.18 M 926.295 459.356 L 775.648 486.505 M 831.268 579.361 L 934.401 612.214 M 934.401 612.214 L 1033.48 568.638 M 1033.48 568.638 L 926.295 459.356 M 894.948 334.363 L 1024.33 252.561 M 604.37 243.713 L 596.99 396.609 M 911.405 652.119 L 831.268 579.361 M 826.216 779.297 L 964.499 844.943 M 964.499 844.943 L 1009.19 698.538 M 1009.19 698.538 L 911.405 652.119 M 937.878 187.433 L 1098.05 67.6677 M 1098.05 67.6677 L 948.565 34.7334 M 1133.35 145.105 L 937.878 187.433 M 1024.33 252.561 L 1133.35 145.105 M 829.96 195.77 L 870.874 0 M 870.874 0 L 736.974 74.1764 M 948.565 34.7334 L 829.96 195.77 M 655.732 99.5139 L 604.37 243.713 M 754.536 273.404 L 655.732 99.5139 M 736.974 74.1764 L 754.536 273.404 M 596.99 396.609 L 518.333 265.291 M 634.227 545.084 L 571.463 734.98 M 476.681 668.288 L 634.227 545.084 M 712.885 676.402 L 707.833 876.338 M 571.463 734.98 L 597.793 839.968 M 597.793 839.968 L 712.885 676.402 M 763.452 969.194 L 904.874 910.615 M 904.874 910.615 L 826.216 779.297 M 707.833 876.338 L 763.452 969.194 M 116.255 243.47 L 0 343.051 M 0 343.051 L 197.737 373.055 M 5.42609 427.979 L 152.25 471.272 M 197.737 373.055 L 5.42609 427.979 M 405.001 162.395 L 266.719 96.7493 M 266.719 96.7493 L 319.812 289.573 M 296.817 329.478 L 116.255 243.47 M 518.333 265.291 L 405.001 162.395 M 319.812 289.573 L 399.95 362.331 M 304.923 482.337 L 455.569 455.187 M 329.848 542.513 L 481.899 560.175 M 455.569 455.187 L 329.848 542.513 M 481.899 560.175 L 336.27 607.329 M 401.258 745.922 L 476.681 668.288 M 336.27 607.329 L 293.34 754.259 M 293.34 754.259 L 401.258 745.922 M 152.25 471.272 L 304.923 482.337 M 399.95 362.331 L 296.817 329.478" />
<path fill="none" class="c" d=" M 634.227 545.084 L 775.648 486.505 M 596.99 396.609 L 634.227 545.084 M 831.268 579.361 L 775.648 486.505 M 481.899 560.175 L 634.227 545.084 M 596.99 396.609 L 455.569 455.187 M 455.569 455.187 L 481.899 560.175 M 481.899 560.175 L 476.681 668.288 M 336.27 607.329 L 476.681 668.288 M 336.27 607.329 L 401.258 745.922 M 831.268 579.361 L 926.295 459.356 M 934.401 612.214 L 926.295 459.356 M 749.318 381.517 L 596.99 396.609 M 754.536 273.404 L 604.37 243.713 M 775.648 486.505 L 749.318 381.517 M 712.885 676.402 L 831.268 579.361 M 634.227 545.084 L 712.885 676.402 M 518.333 265.291 L 399.95 362.331 M 399.95 362.331 L 455.569 455.187 M 571.463 734.98 L 712.885 676.402 M 405.001 162.395 L 319.812 289.573 M 399.95 362.331 L 304.923 482.337 M 296.817 329.478 L 304.923 482.337 M 749.318 381.517 L 754.536 273.404 M 826.216 779.297 L 911.405 652.119 M 712.885 676.402 L 826.216 779.297 M 707.833 876.338 L 826.216 779.297 M 296.817 329.478 L 197.737 373.055 M 197.737 373.055 L 304.923 482.337 M 894.948 334.363 L 754.536 273.404 M 894.948 334.363 L 829.96 195.77 M 829.96 195.77 L 754.536 273.404 M 829.96 195.77 L 736.974 74.1764 M 116.255 243.47 L 197.737 373.055 M 197.737 373.055 L 152.25 471.272 M 894.948 334.363 L 937.878 187.433 M 937.878 187.433 L 829.96 195.77 M 937.878 187.433 L 948.565 34.7334 M 1024.33 252.561 L 937.878 187.433" />
</svg>
