<?xml version="1.0"?>
<svg width="932" height="1063" version="1.1" xmlns="http://www.w3.org/2000/svg" >
<defs>
<style type="text/css"><![CDATA[
.m {stroke:rgb(255,0,0);stroke-width:1.328750;}
.v {stroke:rgb(0,0,255);stroke-width:1.328750;}
.b {stroke:rgb(0,0,0);stroke-width:2.657500;fill:white}
.n {stroke:rgb(128,128,128);stroke-width:1.328750}
.t {stroke:rgb(0,128,0);stroke-width:1.328750;}
.c {stroke:rgb(128,128,128);stroke-width:1.328750;stroke-dasharray:9.320000, 9.320000;}
]]></style>
</defs>
<path fill="none" style="stroke:black;stroke-width:2.657500;" d=" M 580.21 471.212 L 719.037 406.726 M 733.281 470.283 L 580.21 471.212 M 619.093 572.227 L 715.069 622.269 M 715.069 622.269 L 820.152 596.319 M 820.152 596.319 L 881.799 507.35 M 881.799 507.35 L 733.281 470.283 M 719.037 406.726 L 837.531 309.82 M 637.703 277.049 L 572.263 363.265 M 685.575 657.643 L 619.093 572.227 M 579.85 768.339 L 704.835 856.713 M 773.953 720.133 L 685.575 657.643 M 704.835 856.713 L 850.065 905.084 M 850.065 905.084 L 876.646 754.336 M 876.646 754.336 L 773.953 720.133 M 932.695 189.923 L 800.154 113.344 M 800.154 113.344 L 743.81 255.67 M 837.531 309.82 L 932.695 189.923 M 595.933 257.646 L 528.393 69.3952 M 528.393 69.3952 L 453.077 202.658 M 735.879 102.803 L 637.703 277.049 M 743.81 255.67 L 735.879 102.803 M 453.077 202.658 L 419.603 352.027 M 572.263 363.265 L 595.933 257.646 M 278.182 493.448 L 430.842 504.687 M 430.842 504.687 L 297.579 580.003 M 485.83 647.543 L 446.587 843.655 M 344.409 788.964 L 485.83 647.543 M 634.837 911.195 L 579.85 768.339 M 446.587 843.655 L 485.469 944.669 M 493.416 1052.62 L 646.076 1063.86 M 646.076 1063.86 L 634.837 911.195 M 485.469 944.669 L 493.416 1052.62 M 270.596 88.3743 L 145.61 0 M 145.61 0 L 76.492 136.58 M 76.492 136.58 L 164.87 199.07 M 364.615 209.171 L 270.596 88.3743 M 164.87 199.07 L 231.352 284.486 M 419.603 352.027 L 364.615 209.171 M 231.352 284.486 L 270.235 385.501 M 131.408 449.987 L 278.182 493.448 M 183.391 681.946 L 336.461 681.017 M 297.579 580.003 L 183.391 681.946 M 336.461 681.017 L 197.634 745.504 M 278.969 875.181 L 344.409 788.964 M 197.634 745.504 L 172.862 896.559 M 172.862 896.559 L 278.969 875.181 M 84.7801 304.188 L 0 371.479 M 0 371.479 L 131.408 449.987 M 192.874 309.797 L 84.7801 304.188 M 270.235 385.501 L 192.874 309.797" />
<path fill="none" class="c" d=" M 430.842 504.687 L 580.21 471.212 M 419.603 352.027 L 430.842 504.687 M 572.263 363.265 L 419.603 352.027 M 619.093 572.227 L 580.21 471.212 M 595.933 257.646 L 453.077 202.658 M 419.603 352.027 L 270.235 385.501 M 270.235 385.501 L 278.182 493.448 M 364.615 209.171 L 231.352 284.486 M 270.235 385.501 L 131.408 449.987 M 192.874 309.797 L 131.408 449.987 M 580.21 471.212 L 572.263 363.265 M 619.093 572.227 L 733.281 470.283 M 715.069 622.269 L 733.281 470.283 M 820.152 596.319 L 733.281 470.283 M 485.83 647.543 L 619.093 572.227 M 430.842 504.687 L 485.83 647.543 M 336.461 681.017 L 485.83 647.543 M 297.579 580.003 L 336.461 681.017 M 336.461 681.017 L 344.409 788.964 M 270.596 88.3743 L 164.87 199.07 M 197.634 745.504 L 344.409 788.964 M 197.634 745.504 L 278.969 875.181 M 84.7801 304.188 L 131.408 449.987 M 719.037 406.726 L 572.263 363.265 M 719.037 406.726 L 637.703 277.049 M 579.85 768.339 L 685.575 657.643 M 485.83 647.543 L 579.85 768.339 M 446.587 843.655 L 579.85 768.339 M 719.037 406.726 L 743.81 255.67 M 743.81 255.67 L 637.703 277.049 M 704.835 856.713 L 773.953 720.133 M 485.469 944.669 L 634.837 911.195 M 837.531 309.82 L 743.81 255.67" />
</svg>
