<?xml version="1.0"?>
<svg width="1133" height="968" version="1.1" xmlns="http://www.w3.org/2000/svg" >
<defs>
<style type="text/css"><![CDATA[
.m {stroke:rgb(255,0,0);stroke-width:1.416250;}
.v {stroke:rgb(0,0,255);stroke-width:1.416250;}
.b {stroke:rgb(0,0,0);stroke-width:2.832500;fill:white}
.n {stroke:rgb(128,128,128);stroke-width:1.416250}
.t {stroke:rgb(0,128,0);stroke-width:1.416250;}
.c {stroke:rgb(128,128,128);stroke-width:1.416250;stroke-dasharray:11.330000, 11.330000;}
]]></style>
</defs>
<path fill="none" style="stroke:black;stroke-width:2.832500;" d=" M 749.318 381.517 L 894.948 334.363 M 901.369 399.18 L 749.318 381.517 M 775.648 486.505 L 901.369 399.18 M 926.295 459.356 L 775.648 486.505 M 831.268 579.361 L 934.401 612.214 M 934.401 612.214 L 1033.48 568.638 M 1033.48 568.638 L 926.295 459.356 M 894.948 334.363 L 1024.33 252.561 M 604.37 243.713 L 596.99 396.609 M 911.405 652.119 L 831.268 579.361 M 826.216 779.297 L 964.499 844.943 M 964.499 844.943 L 1009.19 698.538 M 1009.19 698.538 L 911.405 652.119 M 937.878 187.433 L 1098.05 67.6677 M 1098.05 67.6677 L 948.565 34.7334 M 1133.35 145.105 L 937.878 187.433 M 1024.33 252.561 L 1133.35 145.105 M 829.96 195.77 L 870.874 0 M 870.874 0 L 736.974 74.1764 M 948.565 34.7334 L 829.96 195.77 M 655.732 99.5139 L 604.37 243.713 M 754.536 273.404 L 655.732 99.5139 M 736.974 74.1764 L 754.536 273.404 M 596.99 396.609 L 518.333 265.291 M 634.227 545.084 L 571.463 734.98 M 476.681 668.288 L 634.227 545.084 M 712.885 676.402 L 707.833 876.338 M 571.463 734.98 L 597.793 839.968 M 597.793 839.968 L 712.885 676.402 M 763.452 969.194 L 904.874 910.615 M 904.874 910.615 L 826.216 779.297 M 707.833 876.338 L 763.452 969.194 M 116.255 243.47 L 0 343.051 M 0 343.051 L 197.737 373.055 M 5.42609 427.979 L 152.25 471.272 M 197.737 373.055 L 5.42609 427.979 M 405.001 162.395 L 266.719 96.7493 M 266.719 96.7493 L 319.812 289.573 M 296.817 329.478 L 116.255 243.47 M 518.333 265.291 L 405.001 162.395 M 319.812 289.573 L 399.95 362.331 M 304.923 482.337 L 455.569 455.187 M 329.848 542.513 L 481.899 560.175 M 455.569 455.187 L 329.848 542.513 M 481.899 560.175 L 336.27 607.329 M 401.258 745.922 L 476.681 668.288 M 336.27 607.329 L 293.34 754.259 M 293.34 754.259 L 401.258 745.922 M 152.25 471.272 L 304.923 482.337 M 399.95 362.331 L 296.817 329.478" />
<path fill="none" class="c" d=" M 634.227 545.084 L 775.648 486.505 M 596.99 396.609 L 634.227 545.084 M 831.268 579.361 L 775.648 486.505 M 481.899 560.175 L 634.227 545.084 M 596.99 396.609 L 455.569 455.187 M 455.569 455.187 L 481.899 560.175 M 481.899 560.175 L 476.681 668.288 M 336.27 607.329 L 476.681 668.288 M 336.27 607.329 L 401.258 745.922 M 831.268 579.361 L 926.295 459.356 M 934.401 612.214 L 926.295 459.356 M 749.318 381.517 L 596.99 396.609 M 754.536 273.404 L 604.37 243.713 M 775.648 486.505 L 749.318 381.517 M 712.885 676.402 L 831.268 579.361 M 634.227 545.084 L 712.885 676.402 M 518.333 265.291 L 399.95 362.331 M 399.95 362.331 L 455.569 455.187 M 571.463 734.98 L 712.885 676.402 M 405.001 162.395 L 319.812 289.573 M 399.95 362.331 L 304.923 482.337 M 296.817 329.478 L 304.923 482.337 M 749.318 381.517 L 754.536 273.404 M 826.216 779.297 L 911.405 652.119 M 712.885 676.402 L 826.216 779.297 M 707.833 876.338 L 826.216 779.297 M 296.817 329.478 L 197.737 373.055 M 197.737 373.055 L 304.923 482.337 M 894.948 334.363 L 754.536 273.404 M 894.948 334.363 L 829.96 195.77 M 829.96 195.77 L 754.536 273.404 M 829.96 195.77 L 736.974 74.1764 M 116.255 243.47 L 197.737 373.055 M 197.737 373.055 L 152.25 471.272 M 894.948 334.363 L 937.878 187.433 M 937.878 187.433 L 829.96 195.77 M 937.878 187.433 L 948.565 34.7334 M 1024.33 252.561 L 937.878 187.433" />
<line x1="747.047604" y1="536.983378" x2="668.955203" y2="476.065852" class="t" />
<line x1="571.038847" y1="500.622475" x2="668.955203" y2="476.065852" class="t" />
<line x1="707.318977" y1="421.543685" x2="668.955203" y2="476.065852" class="t" />
<line x1="844.403569" y1="508.407323" x2="747.047604" y2="536.983378" class="t" />
<line x1="726.126367" y1="600.282265" x2="747.047604" y2="536.983378" class="t" />
<line x1="511.486246" y1="470.656936" x2="571.038847" y2="500.622475" class="t" />
<line x1="530.935770" y1="591.182463" x2="571.038847" y2="500.622475" class="t" />
<line x1="523.630731" y1="372.362085" x2="511.486246" y2="470.656936" class="t" />
<line x1="422.438828" y1="519.291623" x2="511.486246" y2="470.656936" class="t" />
<line x1="431.616703" y1="611.930900" x2="530.935770" y2="591.182463" class="t" />
<line x1="404.736148" y1="673.846609" x2="431.616703" y2="611.930900" class="t" />
<line x1="343.622353" y1="702.503560" x2="404.736148" y2="673.846609" class="t" />
<line x1="897.321014" y1="550.310344" x2="844.403569" y2="508.407323" class="t" />
<line x1="964.725323" y1="546.736004" x2="897.321014" y2="550.310344" class="t" />
<line x1="650.226184" y1="340.612978" x2="707.318977" y2="421.543685" class="t" />
<line x1="702.741425" y1="299.544783" x2="650.226184" y2="340.612978" class="t" />
<line x1="671.546003" y1="205.543645" x2="702.741425" y2="299.544783" class="t" />
<line x1="808.778529" y1="422.400779" x2="707.318977" y2="421.543685" class="t" />
<line x1="818.519085" y1="635.960717" x2="726.126367" y2="600.282265" class="t" />
<line x1="639.524838" y1="652.155375" x2="726.126367" y2="600.282265" class="t" />
<line x1="816.835160" y1="702.606124" x2="818.519085" y2="635.960717" class="t" />
<line x1="457.950444" y1="360.936363" x2="523.630731" y2="372.362085" class="t" />
<line x1="441.094525" y1="263.338995" x2="457.950444" y2="360.936363" class="t" />
<line x1="386.813774" y1="433.285163" x2="457.950444" y2="360.936363" class="t" />
<line x1="627.380256" y1="750.450214" x2="639.524838" y2="652.155375" class="t" />
<line x1="374.921050" y1="271.433255" x2="441.094525" y2="263.338995" class="t" />
<line x1="330.510722" y1="182.905920" x2="374.921050" y2="271.433255" class="t" />
<line x1="333.896294" y1="391.382214" x2="386.813774" y2="433.285163" class="t" />
<line x1="266.491971" y1="394.956633" x2="333.896294" y2="391.382214" class="t" />
<line x1="799.600708" y1="329.761568" x2="702.741425" y2="299.544783" class="t" />
<line x1="915.602178" y1="709.984765" x2="816.835160" y2="702.606124" class="t" />
<line x1="748.977773" y1="777.345776" x2="816.835160" y2="702.606124" class="t" />
<line x1="933.300011" y1="774.259441" x2="915.602178" y2="709.984765" class="t" />
<line x1="765.833692" y1="874.943143" x2="748.977773" y2="777.345776" class="t" />
<line x1="831.513979" y1="886.368865" x2="765.833692" y2="874.943143" class="t" />
<line x1="203.602690" y1="315.334319" x2="266.491971" y2="394.956633" class="t" />
<line x1="218.303003" y1="442.221209" x2="266.491971" y2="394.956633" class="t" />
<line x1="826.481327" y1="267.845908" x2="799.600708" y2="329.761568" class="t" />
<line x1="887.595171" y1="239.189019" x2="826.481327" y2="267.845908" class="t" />
<line x1="773.823424" y1="181.116901" x2="826.481327" y2="267.845908" class="t" />
<line x1="812.602839" y1="89.982257" x2="773.823424" y2="181.116901" class="t" />
<line x1="104.663815" y1="319.858381" x2="203.602690" y2="315.334319" class="t" />
<line x1="118.470820" y1="424.101862" x2="218.303003" y2="442.221209" class="t" />
<line x1="952.385285" y1="258.119363" x2="887.595171" y2="239.189019" class="t" />
<line x1="905.467569" y1="139.312335" x2="887.595171" y2="239.189019" class="t" />
<line x1="994.832012" y1="96.611462" x2="905.467569" y2="139.312335" class="t" />
<line x1="1031.851829" y1="195.033359" x2="952.385285" y2="258.119363" class="t" />
</svg>
