<?xml version="1.0"?>
<svg width="932" height="1063" version="1.1" xmlns="http://www.w3.org/2000/svg" >
<defs>
<style type="text/css"><![CDATA[
.m {stroke:rgb(255,0,0);stroke-width:1.328750;}
.v {stroke:rgb(0,0,255);stroke-width:1.328750;}
.b {stroke:rgb(0,0,0);stroke-width:2.657500;fill:white}
.n {stroke:rgb(128,128,128);stroke-width:1.328750}
.t {stroke:rgb(0,128,0);stroke-width:1.328750;}
.c {stroke:rgb(128,128,128);stroke-width:1.328750;stroke-dasharray:9.320000, 9.320000;}
]]></style>
</defs>
<path fill="none" style="stroke:black;stroke-width:2.657500;" d=" M 580.21 471.212 L 719.037 406.726 M 733.281 470.283 L 580.21 471.212 M 619.093 572.227 L 715.069 622.269 M 715.069 622.269 L 820.152 596.319 M 820.152 596.319 L 881.799 507.35 M 881.799 507.35 L 733.281 470.283 M 719.037 406.726 L 837.531 309.82 M 637.703 277.049 L 572.263 363.265 M 685.575 657.643 L 619.093 572.227 M 579.85 768.339 L 704.835 856.713 M 773.953 720.133 L 685.575 657.643 M 704.835 856.713 L 850.065 905.084 M 850.065 905.084 L 876.646 754.336 M 876.646 754.336 L 773.953 720.133 M 932.695 189.923 L 800.154 113.344 M 800.154 113.344 L 743.81 255.67 M 837.531 309.82 L 932.695 189.923 M 595.933 257.646 L 528.393 69.3952 M 528.393 69.3952 L 453.077 202.658 M 735.879 102.803 L 637.703 277.049 M 743.81 255.67 L 735.879 102.803 M 453.077 202.658 L 419.603 352.027 M 572.263 363.265 L 595.933 257.646 M 278.182 493.448 L 430.842 504.687 M 430.842 504.687 L 297.579 580.003 M 485.83 647.543 L 446.587 843.655 M 344.409 788.964 L 485.83 647.543 M 634.837 911.195 L 579.85 768.339 M 446.587 843.655 L 485.469 944.669 M 493.416 1052.62 L 646.076 1063.86 M 646.076 1063.86 L 634.837 911.195 M 485.469 944.669 L 493.416 1052.62 M 270.596 88.3743 L 145.61 0 M 145.61 0 L 76.492 136.58 M 76.492 136.58 L 164.87 199.07 M 364.615 209.171 L 270.596 88.3743 M 164.87 199.07 L 231.352 284.486 M 419.603 352.027 L 364.615 209.171 M 231.352 284.486 L 270.235 385.501 M 131.408 449.987 L 278.182 493.448 M 183.391 681.946 L 336.461 681.017 M 297.579 580.003 L 183.391 681.946 M 336.461 681.017 L 197.634 745.504 M 278.969 875.181 L 344.409 788.964 M 197.634 745.504 L 172.862 896.559 M 172.862 896.559 L 278.969 875.181 M 84.7801 304.188 L 0 371.479 M 0 371.479 L 131.408 449.987 M 192.874 309.797 L 84.7801 304.188 M 270.235 385.501 L 192.874 309.797" />
<path fill="none" class="c" d=" M 430.842 504.687 L 580.21 471.212 M 419.603 352.027 L 430.842 504.687 M 572.263 363.265 L 419.603 352.027 M 619.093 572.227 L 580.21 471.212 M 595.933 257.646 L 453.077 202.658 M 419.603 352.027 L 270.235 385.501 M 270.235 385.501 L 278.182 493.448 M 364.615 209.171 L 231.352 284.486 M 270.235 385.501 L 131.408 449.987 M 192.874 309.797 L 131.408 449.987 M 580.21 471.212 L 572.263 363.265 M 619.093 572.227 L 733.281 470.283 M 715.069 622.269 L 733.281 470.283 M 820.152 596.319 L 733.281 470.283 M 485.83 647.543 L 619.093 572.227 M 430.842 504.687 L 485.83 647.543 M 336.461 681.017 L 485.83 647.543 M 297.579 580.003 L 336.461 681.017 M 336.461 681.017 L 344.409 788.964 M 270.596 88.3743 L 164.87 199.07 M 197.634 745.504 L 344.409 788.964 M 197.634 745.504 L 278.969 875.181 M 84.7801 304.188 L 131.408 449.987 M 719.037 406.726 L 572.263 363.265 M 719.037 406.726 L 637.703 277.049 M 579.85 768.339 L 685.575 657.643 M 485.83 647.543 L 579.85 768.339 M 446.587 843.655 L 579.85 768.339 M 719.037 406.726 L 743.81 255.67 M 743.81 255.67 L 637.703 277.049 M 704.835 856.713 L 773.953 720.133 M 485.469 944.669 L 634.837 911.195 M 837.531 309.82 L 743.81 255.67" />
<line x1="543.381671" y1="516.042052" x2="476.885109" y2="442.641960" class="t" />
<line x1="376.208848" y1="450.053760" x2="476.885109" y2="442.641960" class="t" />
<line x1="524.025571" y1="395.501488" x2="476.885109" y2="442.641960" class="t" />
<line x1="481.647851" y1="305.983350" x2="524.025571" y2="395.501488" class="t" />
<line x1="644.194680" y1="504.574163" x2="543.381671" y2="516.042052" class="t" />
<line x1="511.921487" y1="574.818771" x2="543.381671" y2="516.042052" class="t" />
<line x1="540.424557" y1="274.523143" x2="481.647851" y2="305.983350" class="t" />
<line x1="525.801136" y1="176.566409" x2="540.424557" y2="274.523143" class="t" />
<line x1="322.673067" y1="410.325087" x2="376.208848" y2="450.053760" class="t" />
<line x1="351.484273" y1="315.566011" x2="322.673067" y2="410.325087" class="t" />
<line x1="226.607896" y1="442.978688" x2="322.673067" y2="410.325087" class="t" />
<line x1="288.734024" y1="293.052635" x2="351.484273" y2="315.566011" class="t" />
<line x1="288.854359" y1="194.010463" x2="288.734024" y2="293.052635" class="t" />
<line x1="198.171997" y1="381.761726" x2="226.607896" y2="442.978688" class="t" />
<line x1="136.353840" y1="354.657583" x2="198.171997" y2="381.761726" class="t" />
<line x1="623.837030" y1="413.734624" x2="524.025571" y2="395.501488" class="t" />
<line x1="689.147617" y1="554.926425" x2="644.194680" y2="504.574163" class="t" />
<line x1="756.167229" y1="562.957044" x2="689.147617" y2="554.926425" class="t" />
<line x1="811.743674" y1="524.650707" x2="756.167229" y2="562.957044" class="t" />
<line x1="596.832414" y1="625.804089" x2="511.921487" y2="574.818771" class="t" />
<line x1="417.711050" y1="611.082169" x2="511.921487" y2="574.818771" class="t" />
<line x1="583.751345" y1="691.174822" x2="596.832414" y2="625.804089" class="t" />
<line x1="354.960779" y1="588.568856" x2="417.711050" y2="611.082169" class="t" />
<line x1="388.899938" y1="705.841275" x2="417.711050" y2="611.082169" class="t" />
<line x1="272.477089" y1="647.655372" x2="354.960779" y2="588.568856" class="t" />
<line x1="292.834799" y1="738.494970" x2="388.899938" y2="705.841275" class="t" />
<line x1="222.272738" y1="190.643732" x2="288.854359" y2="194.010463" class="t" />
<line x1="193.691896" y1="95.814919" x2="222.272738" y2="190.643732" class="t" />
<line x1="273.670562" y1="803.216305" x2="292.834799" y2="738.494970" class="t" />
<line x1="216.488256" y1="839.081339" x2="273.670562" y2="803.216305" class="t" />
<line x1="72.062535" y1="375.218345" x2="136.353840" y2="354.657583" class="t" />
<line x1="643.001338" y1="349.013328" x2="623.837030" y2="413.734624" class="t" />
<line x1="700.183700" y1="313.148351" x2="643.001338" y2="349.013328" class="t" />
<line x1="679.792409" y1="715.371524" x2="583.751345" y2="691.174822" class="t" />
<line x1="504.088640" y1="753.178836" x2="583.751345" y2="691.174822" class="t" />
<line x1="686.212648" y1="781.728335" x2="679.792409" y2="715.371524" class="t" />
<line x1="503.968305" y1="852.221008" x2="504.088640" y2="753.178836" class="t" />
<line x1="566.718554" y1="874.734384" x2="503.968305" y2="852.221008" class="t" />
<line x1="128.990721" y1="111.883640" x2="193.691896" y2="95.814919" class="t" />
<line x1="766.792906" y1="324.072198" x2="700.183700" y2="313.148351" class="t" />
<line x1="705.797416" y1="211.840597" x2="700.183700" y2="313.148351" class="t" />
<line x1="785.144852" y1="777.060659" x2="686.212648" y2="781.728335" class="t" />
<line x1="810.515621" y1="838.711054" x2="785.144852" y2="777.060659" class="t" />
<line x1="537.907348" y1="969.493460" x2="566.718554" y2="874.734384" class="t" />
<line x1="591.443128" y1="1009.222133" x2="537.907348" y2="969.493460" class="t" />
<line x1="838.012005" y1="251.804534" x2="766.792906" y2="324.072198" class="t" />
<line x1="825.552959" y1="186.312412" x2="838.012005" y2="251.804534" class="t" />
</svg>
