<?xml version="1.0"?>
<svg width="1274" height="1030" version="1.1" xmlns="http://www.w3.org/2000/svg" >
<defs>
<style type="text/css"><![CDATA[
.m {stroke:rgb(255,0,0);stroke-width:1.592500;}
.v {stroke:rgb(0,0,255);stroke-width:1.592500;}
.b {stroke:rgb(0,0,0);stroke-width:3.185000;fill:white}
.n {stroke:rgb(128,128,128);stroke-width:1.592500}
.t {stroke:rgb(0,128,0);stroke-width:1.592500;}
.c {stroke:rgb(128,128,128);stroke-width:1.592500;stroke-dasharray:12.740000, 12.740000;}
]]></style>
</defs>
<path fill="none" style="stroke:black;stroke-width:3.185000;" d=" M 828.953 734.209 L 903.559 812.628 M 903.559 812.628 L 1011.38 822.096 M 1011.38 822.096 L 969.996 674.724 M 0 16.8999 L 41.3874 164.272 M 128.518 100.054 L 0 16.8999 M 969.996 674.724 L 1122.66 685.884 M 824.869 626.046 L 711.498 461.282 M 790.264 429.063 L 824.869 626.046 M 864.201 836.548 L 828.953 734.209 M 728.331 907.053 L 817.974 1031.13 M 817.974 1031.13 L 927.588 924.285 M 927.588 924.285 L 864.201 836.548 M 236.403 208.647 L 128.518 100.054 M 41.3874 164.272 L 113.181 299.465 M 308.858 22.2324 L 236.403 208.647 M 380.652 157.425 L 308.858 22.2324 M 1274.21 664.308 L 1091.88 582.115 M 1122.66 685.884 L 1274.21 664.308 M 504.01 0 L 380.652 157.425 M 533.554 150.195 L 504.01 0 M 1191.26 465.695 L 1000.15 524.651 M 1091.88 582.115 L 1191.26 465.695 M 917.301 343.663 L 790.264 429.063 M 893.348 542.223 L 917.301 343.663 M 1000.15 524.651 L 997.687 371.597 M 997.687 371.597 L 893.348 542.223 M 531.908 549.301 L 672.707 609.359 M 711.498 461.282 L 559.337 444.595 M 526.323 745.637 L 678.484 762.324 M 672.707 609.359 L 526.323 745.637 M 509.972 747.146 L 473.954 598.37 M 366.159 608.157 L 509.972 747.146 M 577.862 935.168 L 728.331 907.053 M 678.484 762.324 L 577.862 935.168 M 294.765 743.562 L 366.159 608.157 M 278.838 544.197 L 294.765 743.562 M 112.386 384.562 L 80.0407 534.179 M 80.0407 534.179 L 255.653 438.47 M 135.731 598.529 L 278.838 544.197 M 255.653 438.47 L 135.731 598.529 M 113.181 299.465 L 308.196 343.839 M 308.196 343.839 L 112.386 384.562 M 410.196 307.621 L 518.315 302.508 M 681.993 187.577 L 533.554 150.195 M 623.277 328.941 L 681.993 187.577 M 518.315 302.508 L 623.277 328.941 M 407.109 460.663 L 531.908 549.301 M 473.954 598.37 L 407.109 460.663 M 510.652 347.923 L 410.196 307.621 M 559.337 444.595 L 510.652 347.923" />
<path fill="none" class="c" d=" M 531.908 549.301 L 559.337 444.595 M 559.337 444.595 L 407.109 460.663 M 510.652 347.923 L 407.109 460.663 M 410.196 307.621 L 407.109 460.663 M 672.707 609.359 L 711.498 461.282 M 672.707 609.359 L 824.869 626.046 M 410.196 307.621 L 308.196 343.839 M 308.196 343.839 L 407.109 460.663 M 828.953 734.209 L 824.869 626.046 M 678.484 762.324 L 828.953 734.209 M 672.707 609.359 L 678.484 762.324 M 236.403 208.647 L 308.196 343.839 M 308.196 343.839 L 255.653 438.47 M 255.653 438.47 L 407.109 460.663 M 969.996 674.724 L 824.869 626.046 M 969.996 674.724 L 893.348 542.223 M 893.348 542.223 L 824.869 626.046 M 828.953 734.209 L 969.996 674.724 M 903.559 812.628 L 969.996 674.724 M 969.996 674.724 L 1000.15 524.651 M 1000.15 524.651 L 893.348 542.223 M 893.348 542.223 L 790.264 429.063 M 728.331 907.053 L 864.201 836.548 M 678.484 762.324 L 728.331 907.053 M 236.403 208.647 L 113.181 299.465 M 112.386 384.562 L 255.653 438.47 M 380.652 157.425 L 236.403 208.647 M 410.196 307.621 L 380.652 157.425 M 255.653 438.47 L 278.838 544.197 M 278.838 544.197 L 407.109 460.663 M 969.996 674.724 L 1091.88 582.115 M 1091.88 582.115 L 1000.15 524.651 M 128.518 100.054 L 41.3874 164.272 M 533.554 150.195 L 380.652 157.425 M 518.315 302.508 L 533.554 150.195 M 278.838 544.197 L 366.159 608.157 M 366.159 608.157 L 407.109 460.663 M 1122.66 685.884 L 1091.88 582.115 M 366.159 608.157 L 473.954 598.37" />
</svg>
