<?xml version="1.0"?>
<svg width="1185" height="1334" version="1.1" xmlns="http://www.w3.org/2000/svg" >
<defs>
<style type="text/css"><![CDATA[
.m {stroke:rgb(255,0,0);stroke-width:1.667500;}
.v {stroke:rgb(0,0,255);stroke-width:1.667500;}
.b {stroke:rgb(0,0,0);stroke-width:3.335000;fill:white}
.n {stroke:rgb(128,128,128);stroke-width:1.667500}
.t {stroke:rgb(0,128,0);stroke-width:1.667500;}
.c {stroke:rgb(128,128,128);stroke-width:1.667500;stroke-dasharray:11.850000, 11.850000;}
]]></style>
</defs>
<path fill="none" style="stroke:black;stroke-width:3.335000;" d=" M 673.967 620.785 L 521.739 604.718 M 746.31 755.685 L 673.967 620.785 M 666.866 556.04 L 818.256 578.681 M 708.254 408.667 L 600.429 418.135 M 600.429 418.135 L 525.824 496.555 M 521.739 604.718 L 666.866 556.04 M 369.578 621.405 L 408.369 769.482 M 408.369 769.482 L 549.168 709.424 M 573.122 907.984 L 638.997 769.811 M 549.168 709.424 L 446.085 822.584 M 788.297 902.887 L 746.31 755.685 M 638.997 769.811 L 636.533 922.864 M 795.384 472.886 L 994.892 486.917 M 970.997 568.595 L 795.384 472.886 M 818.256 578.681 L 970.997 568.595 M 624.458 306.479 L 636.592 106.847 M 903.269 364.293 L 708.254 408.667 M 514.845 199.632 L 425.202 323.711 M 561.071 394.216 L 624.458 306.479 M 425.202 323.711 L 375.354 468.44 M 525.824 496.555 L 561.071 394.216 M 375.354 468.44 L 369.578 621.405 M 446.085 822.584 L 299.754 777.654 M 276.738 928.988 L 380.21 960.758 M 470.038 1021.14 L 573.122 907.984 M 785.834 1055.94 L 788.297 902.887 M 636.533 922.864 L 678.52 1070.07 M 1037.99 291.615 L 903.269 364.293 M 994.892 486.917 L 1102.78 378.324 M 440.89 65.6084 L 514.845 199.632 M 636.592 106.847 L 526.979 0 M 526.979 0 L 440.89 65.6084 M 51.0592 1187.95 L 96.2224 1334.21 M 96.2224 1334.21 L 234.291 1268.12 M 234.291 1268.12 L 202.355 1164.7 M 146.682 777.049 L 0 820.82 M 0 820.82 L 168.5 928.56 M 201.755 1056.46 L 51.0592 1187.95 M 299.754 777.654 L 146.682 777.049 M 168.5 928.56 L 276.738 928.988 M 380.21 960.758 L 272.896 974.884 M 345.24 1109.78 L 470.038 1021.14 M 750.864 1204.97 L 785.834 1055.94 M 678.52 1070.07 L 750.864 1204.97 M 1102.78 378.324 L 1185.09 249.264 M 1046.75 183.731 L 1037.99 291.615 M 1185.09 249.264 L 1124.68 108.614 M 1124.68 108.614 L 1046.75 183.731 M 202.355 1164.7 L 345.24 1109.78 M 272.896 974.884 L 201.755 1056.46" />
<path fill="none" class="c" d=" M 549.168 709.424 L 673.967 620.785 M 521.739 604.718 L 549.168 709.424 M 638.997 769.811 L 673.967 620.785 M 549.168 709.424 L 638.997 769.811 M 638.997 769.811 L 746.31 755.685 M 521.739 604.718 L 369.578 621.405 M 521.739 604.718 L 525.824 496.555 M 525.824 496.555 L 375.354 468.44 M 666.866 556.04 L 525.824 496.555 M 446.085 822.584 L 573.122 907.984 M 636.533 922.864 L 788.297 902.887 M 561.071 394.216 L 425.202 323.711 M 446.085 822.584 L 380.21 960.758 M 380.21 960.758 L 470.038 1021.14 M 678.52 1070.07 L 785.834 1055.94 M 380.21 960.758 L 345.24 1109.78 M 666.866 556.04 L 600.429 418.135 M 624.458 306.479 L 514.845 199.632 M 299.754 777.654 L 276.738 928.988 M 146.682 777.049 L 168.5 928.56 M 272.896 974.884 L 345.24 1109.78 M 201.755 1056.46 L 345.24 1109.78 M 666.866 556.04 L 708.254 408.667 M 636.592 106.847 L 514.845 199.632 M 201.755 1056.46 L 202.355 1164.7 M 666.866 556.04 L 795.384 472.886 M 795.384 472.886 L 708.254 408.667 M 795.384 472.886 L 903.269 364.293 M 51.0592 1187.95 L 202.355 1164.7 M 818.256 578.681 L 795.384 472.886 M 994.892 486.917 L 903.269 364.293 M 1102.78 378.324 L 1037.99 291.615 M 1185.09 249.264 L 1037.99 291.615 M 1185.09 249.264 L 1046.75 183.731" />
<line x1="620.710780" y1="700.006548" x2="581.624882" y2="644.975541" class="t" />
<line x1="480.161922" y1="645.182062" x2="581.624882" y2="644.975541" class="t" />
<line x1="686.424778" y1="715.426900" x2="620.710780" y2="700.006548" class="t" />
<line x1="544.750146" y1="767.272865" x2="620.710780" y2="700.006548" class="t" />
<line x1="673.946830" y1="816.119876" x2="686.424778" y2="715.426900" class="t" />
<line x1="442.371804" y1="700.103407" x2="480.161922" y2="645.182062" class="t" />
<line x1="422.223854" y1="564.854306" x2="480.161922" y2="645.182062" class="t" />
<line x1="552.734580" y1="833.459681" x2="544.750146" y2="767.272865" class="t" />
<line x1="723.713656" y1="860.478756" x2="673.946830" y2="816.119876" class="t" />
<line x1="474.305678" y1="523.237849" x2="422.223854" y2="564.854306" class="t" />
<line x1="571.476416" y1="552.437561" x2="474.305678" y2="523.237849" class="t" />
<line x1="442.126564" y1="429.568906" x2="474.305678" y2="523.237849" class="t" />
<line x1="597.706460" y1="490.243478" x2="571.476416" y2="552.437561" class="t" />
<line x1="496.415099" y1="917.237701" x2="552.734580" y2="833.459681" class="t" />
<line x1="736.888026" y1="960.564121" x2="723.713656" y2="860.478756" class="t" />
<line x1="504.032203" y1="404.827462" x2="442.126564" y2="429.568906" class="t" />
<line x1="500.372551" y1="305.852843" x2="504.032203" y2="404.827462" class="t" />
<line x1="432.111174" y1="934.828920" x2="496.415099" y2="917.237701" class="t" />
<line x1="375.349692" y1="853.665502" x2="432.111174" y2="934.828920" class="t" />
<line x1="398.496105" y1="1030.561896" x2="432.111174" y2="934.828920" class="t" />
<line x1="700.295567" y1="1016.290588" x2="736.888026" y2="960.564121" class="t" />
<line x1="738.405687" y1="1110.324590" x2="700.295567" y2="1016.290588" class="t" />
<line x1="332.782092" y1="1015.141528" x2="398.496105" y2="1030.561896" class="t" />
<line x1="658.516500" y1="460.947474" x2="597.706460" y2="490.243478" class="t" />
<line x1="566.791320" y1="300.108887" x2="500.372551" y2="305.852843" class="t" />
<line x1="591.965097" y1="204.319288" x2="566.791320" y2="300.108887" class="t" />
<line x1="318.900762" y1="889.133310" x2="375.349692" y2="853.665502" class="t" />
<line x1="241.058047" y1="827.897047" x2="318.900762" y2="889.133310" class="t" />
<line x1="197.306673" y1="878.198768" x2="241.058047" y2="827.897047" class="t" />
<line x1="105.060575" y1="842.142925" x2="197.306673" y2="878.198768" class="t" />
<line x1="273.296987" y1="1047.041984" x2="332.782092" y2="1015.141528" class="t" />
<line x1="249.783327" y1="1110.313044" x2="273.296987" y2="1047.041984" class="t" />
<line x1="723.501530" y1="479.197542" x2="658.516500" y2="460.947474" class="t" />
<line x1="530.775792" y1="124.029106" x2="591.965097" y2="204.319288" class="t" />
<line x1="534.820589" y1="57.485235" x2="530.775792" y2="124.029106" class="t" />
<line x1="151.723090" y1="1136.369993" x2="249.783327" y2="1110.313044" class="t" />
<line x1="760.169002" y1="535.868639" x2="723.501530" y2="479.197542" class="t" />
<line x1="802.302310" y1="415.281880" x2="723.501530" y2="479.197542" class="t" />
<line x1="897.848310" y1="441.365015" x2="802.302310" y2="415.281880" class="t" />
<line x1="116.545684" y1="1228.954648" x2="151.723090" y2="1136.369993" class="t" />
<line x1="861.545826" y1="540.053750" x2="760.169002" y2="535.868639" class="t" />
<line x1="978.716438" y1="380.941623" x2="897.848310" y2="441.365015" class="t" />
<line x1="1045.218851" y1="385.618692" x2="978.716438" y2="380.941623" class="t" />
<line x1="1108.617251" y1="306.401154" x2="1045.218851" y2="385.618692" class="t" />
<line x1="177.622873" y1="1255.675852" x2="116.545684" y2="1228.954648" class="t" />
<line x1="1089.942154" y1="241.537007" x2="1108.617251" y2="306.401154" class="t" />
<line x1="1118.839445" y1="180.536468" x2="1089.942154" y2="241.537007" class="t" />
</svg>
