<?xml version="1.0"?>
<svg width="674" height="812" version="1.1" xmlns="http://www.w3.org/2000/svg" >
<defs>
<style type="text/css"><![CDATA[
.m {stroke:rgb(255,0,0);stroke-width:1.015000;}
.v {stroke:rgb(0,0,255);stroke-width:1.015000;}
.b {stroke:rgb(0,0,0);stroke-width:2.030000;fill:white}
.n {stroke:rgb(128,128,128);stroke-width:1.015000}
.t {stroke:rgb(0,128,0);stroke-width:1.015000;}
.c {stroke:rgb(128,128,128);stroke-width:1.015000;stroke-dasharray:6.740000, 6.740000;}
]]></style>
</defs>
<path fill="none" style="stroke:black;stroke-width:2.030000;" d=" M 132.29 379.124 L 11.4217 538.469 M 11.4217 538.469 L 26.1637 737.921 M 26.1637 737.921 L 282.647 618.688 M 487.734 813.468 L 565.294 629.124 M 282.647 618.688 L 487.734 813.468 M 565.294 629.124 L 501.533 439.56 M 259.796 0 L 63.7531 39.5643 M 63.7531 39.5643 L 0 229.126 M 0 229.126 L 132.29 379.124 M 328.333 339.56 L 259.796 0 M 674.741 339.564 L 328.333 339.56 M 501.533 439.56 L 674.741 339.564" />
<path fill="none" class="c" d=" M 282.647 618.688 L 328.333 339.56 M 282.647 618.688 L 501.533 439.56 M 501.533 439.56 L 328.333 339.56 M 132.29 379.124 L 282.647 618.688 M 328.333 339.56 L 132.29 379.124 M 11.4217 538.469 L 282.647 618.688 M 282.647 618.688 L 565.294 629.124" />
</svg>
