<?xml version="1.0"?>
<svg width="565" height="976" version="1.1" xmlns="http://www.w3.org/2000/svg" >
<defs>
<style type="text/css"><![CDATA[
.m {stroke:rgb(255,0,0);stroke-width:1.220000;}
.v {stroke:rgb(0,0,255);stroke-width:1.220000;}
.b {stroke:rgb(0,0,0);stroke-width:2.440000;fill:white}
.n {stroke:rgb(128,128,128);stroke-width:1.220000}
.t {stroke:rgb(0,128,0);stroke-width:1.220000;}
.c {stroke:rgb(128,128,128);stroke-width:1.220000;stroke-dasharray:5.650000, 5.650000;}
]]></style>
</defs>
<path fill="none" style="stroke:black;stroke-width:2.440000;" d=" M 236.961 579.124 L 63.7608 679.124 M 63.7608 679.124 L 0 868.688 M 0 868.688 L 282.647 858.253 M 501.541 279.129 L 455.855 0 M 455.855 0 L 305.498 239.564 M 539.13 977.485 L 553.872 778.034 M 282.647 858.253 L 539.13 977.485 M 553.872 778.034 L 433.004 618.688 M 565.294 468.691 L 501.541 279.129 M 305.498 239.564 L 173.208 389.562 M 173.208 389.562 L 236.961 579.124 M 433.004 618.688 L 565.294 468.691" />
<path fill="none" class="c" d=" M 236.961 579.124 L 282.647 858.253 M 282.647 858.253 L 433.004 618.688 M 433.004 618.688 L 236.961 579.124 M 63.7608 679.124 L 282.647 858.253 M 282.647 858.253 L 553.872 778.034 M 501.541 279.129 L 305.498 239.564" />
<line x1="194.456189" y1="705.500379" x2="317.537231" y2="685.355143" class="t" />
<line x1="423.174383" y1="751.658258" x2="317.537231" y2="685.355143" class="t" />
<line x1="411.752876" y1="555.501112" x2="317.537231" y2="685.355143" class="t" />
<line x1="115.469265" y1="802.021760" x2="194.456189" y2="705.500379" class="t" />
<line x1="458.549843" y1="871.257121" x2="423.174383" y2="751.658258" class="t" />
<line x1="325.154146" y1="479.125651" x2="411.752876" y2="555.501112" class="t" />
<line x1="347.999811" y1="365.939020" x2="325.154146" y2="479.125651" class="t" />
<line x1="457.444206" y1="329.127851" x2="347.999811" y2="365.939020" class="t" />
<line x1="420.964435" y1="172.897626" x2="457.444206" y2="329.127851" class="t" />
</svg>
