<?xml version="1.0"?>
<svg width="599" height="998" version="1.1" xmlns="http://www.w3.org/2000/svg" >
<defs>
<style type="text/css"><![CDATA[
.m {stroke:rgb(255,0,0);stroke-width:1.247500;}
.v {stroke:rgb(0,0,255);stroke-width:1.247500;}
.b {stroke:rgb(0,0,0);stroke-width:2.495000;fill:white}
.n {stroke:rgb(128,128,128);stroke-width:1.247500}
.t {stroke:rgb(0,128,0);stroke-width:1.247500;}
.c {stroke:rgb(128,128,128);stroke-width:1.247500;stroke-dasharray:5.990000, 5.990000;}
]]></style>
</defs>
<path fill="none" style="stroke:black;stroke-width:2.495000;" d=" M 200 800 L 400 800 M 200 400 L 200 600 M 200 200 L 200 400 M 400 400 L 400 200 M 200 0 L 200 200 M 400 200 L 200 0 M 400 800 L 400 1000 M 400 1000 L 600 800 M 600 800 L 400 600 M 600 400 L 400 400 M 400 600 L 600 400 M 0 600 L 0 800 M 0 800 L 200 800 M 200 600 L 0 600" />
<path fill="none" class="c" d=" M 200 600 L 200 800 M 400 600 L 200 600 M 400 800 L 400 600 M 400 400 L 200 400 M 400 600 L 400 400 M 400 200 L 200 200 M 400 800 L 600 800" />
</svg>
