<?xml version="1.0"?>
<svg width="1000" height="599" version="1.1" xmlns="http://www.w3.org/2000/svg" >
<defs>
<style type="text/css"><![CDATA[
.m {stroke:rgb(255,0,0);stroke-width:1.250000;}
.v {stroke:rgb(0,0,255);stroke-width:1.250000;}
.b {stroke:rgb(0,0,0);stroke-width:2.500000;fill:white}
.n {stroke:rgb(128,128,128);stroke-width:1.250000}
.t {stroke:rgb(0,128,0);stroke-width:1.250000;}
.c {stroke:rgb(128,128,128);stroke-width:1.250000;stroke-dasharray:10.000000, 10.000000;}
]]></style>
</defs>
<path fill="none" style="stroke:black;stroke-width:2.500000;" d=" M 400 200 L 400 0 M 200 8.88178e-014 L 200 200 M 400 0 L 200 8.88178e-014 M 200 200 L 0 200 M 0 200 L 200 400 M 800 400 L 1000 400 M 1000 400 L 800 200 M 200 400 L 200 600 M 200 600 L 400 400 M 600 400 L 600 600 M 600 600 L 800 400 M 400 400 L 600 400 M 600 200 L 400 200 M 800 200 L 600 200" />
<path fill="none" class="c" d=" M 600 400 L 600 200 M 800 400 L 800 200 M 600 400 L 800 400 M 400 200 L 400 400 M 400 200 L 200 200 M 200 400 L 400 400 M 200 200 L 200 400" />
</svg>
