<?xml version="1.0"?>
<svg width="600" height="799" version="1.1" xmlns="http://www.w3.org/2000/svg" >
<defs>
<style type="text/css"><![CDATA[
.m {stroke:rgb(255,0,0);stroke-width:0.998750;}
.v {stroke:rgb(0,0,255);stroke-width:0.998750;}
.b {stroke:rgb(0,0,0);stroke-width:1.997500;fill:white}
.n {stroke:rgb(128,128,128);stroke-width:0.998750}
.t {stroke:rgb(0,128,0);stroke-width:0.998750;}
.c {stroke:rgb(128,128,128);stroke-width:0.998750;stroke-dasharray:6.000000, 6.000000;}
]]></style>
</defs>
<path fill="none" style="stroke:black;stroke-width:1.997500;" d=" M 400 600 L 400 400 M 200 400 L 0 600 M 0 600 L 200 600 M 8.88178e-014 200 L 200 400 M 200 200 L 8.88178e-014 0 M 8.88178e-014 0 L 8.88178e-014 200 M 400 200 L 400 0 M 400 0 L 200 200 M 600 400 L 600 200 M 600 200 L 400 200 M 400 400 L 600 400 M 200 800 L 400 800 M 400 800 L 400 600 M 200 600 L 200 800" />
<path fill="none" class="c" d=" M 200 400 L 400 400 M 400 400 L 400 200 M 200 200 L 200 400 M 400 200 L 200 200 M 200 600 L 400 600 M 200 400 L 200 600 M 200 200 L 8.88178e-014 200" />
</svg>
