<?xml version="1.0"?>
<svg width="1000" height="599" version="1.1" xmlns="http://www.w3.org/2000/svg" >
<defs>
<style type="text/css"><![CDATA[
.m {stroke:rgb(255,0,0);stroke-width:1.250000;}
.v {stroke:rgb(0,0,255);stroke-width:1.250000;}
.b {stroke:rgb(0,0,0);stroke-width:2.500000;fill:white}
.n {stroke:rgb(128,128,128);stroke-width:1.250000}
.t {stroke:rgb(0,128,0);stroke-width:1.250000;}
.c {stroke:rgb(128,128,128);stroke-width:1.250000;stroke-dasharray:10.000000, 10.000000;}
]]></style>
</defs>
<line x1="400.000000" y1="200.000000" x2="400.000000" y2="0.000000" class="m" style="stroke-width:2.000000;" />
<line x1="400.000000" y1="0.000000" x2="200.000000" y2="200.000000" class="n" style="stroke-width:0.250000;" />
<line x1="200.000000" y1="200.000000" x2="400.000000" y2="200.000000" class="m" style="stroke-width:2.000000;" />
<line x1="200.000000" y1="0.000000" x2="200.000000" y2="200.000000" class="m" style="stroke-width:2.000000;" />
<line x1="400.000000" y1="0.000000" x2="200.000000" y2="0.000000" class="m" style="stroke-width:2.000000;" />
<line x1="200.000000" y1="200.000000" x2="0.000000" y2="200.000000" class="m" style="stroke-width:2.000000;" />
<line x1="0.000000" y1="200.000000" x2="200.000000" y2="400.000000" class="n" style="stroke-width:0.250000;" />
<line x1="200.000000" y1="400.000000" x2="200.000000" y2="200.000000" class="m" style="stroke-width:2.000000;" />
<line x1="800.000000" y1="400.000000" x2="1000.000000" y2="400.000000" class="m" style="stroke-width:2.000000;" />
<line x1="1000.000000" y1="400.000000" x2="800.000000" y2="200.000000" class="n" style="stroke-width:0.250000;" />
<line x1="800.000000" y1="200.000000" x2="800.000000" y2="400.000000" class="m" style="stroke-width:2.000000;" />
<line x1="200.000000" y1="400.000000" x2="200.000000" y2="600.000000" class="m" style="stroke-width:2.000000;" />
<line x1="200.000000" y1="600.000000" x2="400.000000" y2="400.000000" class="n" style="stroke-width:0.250000;" />
<line x1="400.000000" y1="400.000000" x2="200.000000" y2="400.000000" class="m" style="stroke-width:2.000000;" />
<line x1="600.000000" y1="400.000000" x2="600.000000" y2="600.000000" class="m" style="stroke-width:2.000000;" />
<line x1="600.000000" y1="600.000000" x2="800.000000" y2="400.000000" class="n" style="stroke-width:0.250000;" />
<line x1="800.000000" y1="400.000000" x2="600.000000" y2="400.000000" class="m" style="stroke-width:2.000000;" />
<line x1="400.000000" y1="200.000000" x2="400.000000" y2="400.000000" class="m" style="stroke-width:2.000000;" />
<line x1="400.000000" y1="400.000000" x2="600.000000" y2="400.000000" class="m" style="stroke-width:2.000000;" />
<line x1="600.000000" y1="400.000000" x2="400.000000" y2="200.000000" class="n" style="stroke-width:0.250000;" />
<line x1="600.000000" y1="400.000000" x2="600.000000" y2="200.000000" class="m" style="stroke-width:2.000000;" />
<line x1="600.000000" y1="200.000000" x2="400.000000" y2="200.000000" class="m" style="stroke-width:2.000000;" />
<line x1="600.000000" y1="400.000000" x2="800.000000" y2="200.000000" class="n" style="stroke-width:0.250000;" />
<line x1="800.000000" y1="200.000000" x2="600.000000" y2="200.000000" class="m" style="stroke-width:2.000000;" />
<line x1="400.000000" y1="200.000000" x2="200.000000" y2="400.000000" class="n" style="stroke-width:0.250000;" />
<text x="400.000000" y="102.396000" transform="rotate(-89.999995 400.000000 102.396000)" fill="darkgreen" font-weight="bold" font-size="11.980000">0</text>
<text x="502.396000" y="200.000000" transform="rotate(-179.999990 502.396000 200.000000)" fill="darkgreen" font-weight="bold" font-size="11.980000">0</text>
<text x="302.396000" y="0.000000" transform="rotate(179.999990 302.396000 0.000000)" fill="darkgreen" font-weight="bold" font-size="11.980000">3</text>
<text x="702.396000" y="200.000000" transform="rotate(179.999990 702.396000 200.000000)" fill="darkgreen" font-weight="bold" font-size="11.980000">3</text>
<text x="102.396000" y="200.000000" transform="rotate(-179.999990 102.396000 200.000000)" fill="darkgreen" font-weight="bold" font-size="11.980000">4</text>
<text x="200.000000" y="97.604000" transform="rotate(89.999995 200.000000 97.604000)" fill="darkgreen" font-weight="bold" font-size="11.980000">4</text>
<text x="98.305772" y="298.305772" transform="rotate(44.999998 98.305772 298.305772)" fill="darkgreen" font-weight="bold" font-size="11.980000">5</text>
<text x="901.694228" y="301.694228" transform="rotate(-134.999993 901.694228 301.694228)" fill="darkgreen" font-weight="bold" font-size="11.980000">5</text>
<text x="200.000000" y="497.604000" transform="rotate(89.999995 200.000000 497.604000)" fill="darkgreen" font-weight="bold" font-size="11.980000">8</text>
<text x="897.604000" y="400.000000" transform="rotate(0.000000 897.604000 400.000000)" fill="darkgreen" font-weight="bold" font-size="11.980000">8</text>
<text x="298.305772" y="501.694228" transform="rotate(-44.999998 298.305772 501.694228)" fill="darkgreen" font-weight="bold" font-size="11.980000">9</text>
<text x="698.305772" y="501.694228" transform="rotate(-44.999998 698.305772 501.694228)" fill="darkgreen" font-weight="bold" font-size="11.980000">9</text>
<text x="495.208000" y="400.000000" transform="rotate(0.000000 495.208000 400.000000)" fill="darkgreen" font-weight="bold" font-size="11.980000">12</text>
<text x="600.000000" y="495.208000" transform="rotate(89.999995 600.000000 495.208000)" fill="darkgreen" font-weight="bold" font-size="11.980000">12</text>
</svg>
