<?xml version="1.0"?>
<svg width="799" height="599" version="1.1" xmlns="http://www.w3.org/2000/svg" >
<defs>
<style type="text/css"><![CDATA[
.m {stroke:rgb(255,0,0);stroke-width:0.998750;}
.v {stroke:rgb(0,0,255);stroke-width:0.998750;}
.b {stroke:rgb(0,0,0);stroke-width:1.997500;fill:white}
.n {stroke:rgb(128,128,128);stroke-width:0.998750}
.t {stroke:rgb(0,128,0);stroke-width:0.998750;}
.c {stroke:rgb(128,128,128);stroke-width:0.998750;stroke-dasharray:7.990000, 7.990000;}
]]></style>
</defs>
<line x1="200.000000" y1="400.000000" x2="400.000000" y2="400.000000" class="m" style="stroke-width:1.598000;" />
<line x1="400.000000" y1="400.000000" x2="200.000000" y2="200.000000" class="n" style="stroke-width:0.199750;" />
<line x1="200.000000" y1="200.000000" x2="200.000000" y2="400.000000" class="m" style="stroke-width:1.598000;" />
<line x1="400.000000" y1="200.000000" x2="200.000000" y2="200.000000" class="m" style="stroke-width:1.598000;" />
<line x1="400.000000" y1="400.000000" x2="400.000000" y2="200.000000" class="m" style="stroke-width:1.598000;" />
<line x1="400.000000" y1="200.000000" x2="200.000000" y2="0.000000" class="n" style="stroke-width:0.199750;" />
<line x1="200.000000" y1="0.000000" x2="200.000000" y2="200.000000" class="m" style="stroke-width:1.598000;" />
<line x1="600.000000" y1="200.000000" x2="600.000000" y2="0.000000" class="m" style="stroke-width:1.598000;" />
<line x1="600.000000" y1="0.000000" x2="400.000000" y2="200.000000" class="n" style="stroke-width:0.199750;" />
<line x1="400.000000" y1="200.000000" x2="600.000000" y2="200.000000" class="m" style="stroke-width:1.598000;" />
<line x1="600.000000" y1="200.000000" x2="800.000000" y2="0.000000" class="n" style="stroke-width:0.199750;" />
<line x1="800.000000" y1="0.000000" x2="600.000000" y2="0.000000" class="m" style="stroke-width:1.598000;" />
<line x1="600.000000" y1="400.000000" x2="800.000000" y2="400.000000" class="m" style="stroke-width:1.598000;" />
<line x1="800.000000" y1="400.000000" x2="600.000000" y2="200.000000" class="n" style="stroke-width:0.199750;" />
<line x1="600.000000" y1="200.000000" x2="600.000000" y2="400.000000" class="m" style="stroke-width:1.598000;" />
<line x1="200.000000" y1="400.000000" x2="200.000000" y2="600.000000" class="m" style="stroke-width:1.598000;" />
<line x1="200.000000" y1="600.000000" x2="400.000000" y2="600.000000" class="m" style="stroke-width:1.598000;" />
<line x1="400.000000" y1="600.000000" x2="200.000000" y2="400.000000" class="n" style="stroke-width:0.199750;" />
<line x1="400.000000" y1="600.000000" x2="400.000000" y2="400.000000" class="m" style="stroke-width:1.598000;" />
<line x1="600.000000" y1="400.000000" x2="400.000000" y2="200.000000" class="n" style="stroke-width:0.199750;" />
<line x1="400.000000" y1="400.000000" x2="600.000000" y2="400.000000" class="m" style="stroke-width:1.598000;" />
<line x1="200.000000" y1="400.000000" x2="0.000000" y2="200.000000" class="n" style="stroke-width:0.199750;" />
<line x1="0.000000" y1="200.000000" x2="0.000000" y2="400.000000" class="m" style="stroke-width:1.598000;" />
<line x1="0.000000" y1="400.000000" x2="200.000000" y2="400.000000" class="m" style="stroke-width:1.598000;" />
<line x1="200.000000" y1="200.000000" x2="0.000000" y2="200.000000" class="m" style="stroke-width:1.598000;" />
<text x="301.694228" y="101.694228" transform="rotate(-134.999993 301.694228 101.694228)" fill="darkgreen" font-weight="bold" font-size="11.980000">5</text>
<text x="501.694228" y="98.305772" transform="rotate(134.999993 501.694228 98.305772)" fill="darkgreen" font-weight="bold" font-size="11.980000">5</text>
<text x="102.396000" y="200.000000" transform="rotate(179.999990 102.396000 200.000000)" fill="darkgreen" font-weight="bold" font-size="11.980000">6</text>
<text x="200.000000" y="97.604000" transform="rotate(89.999995 200.000000 97.604000)" fill="darkgreen" font-weight="bold" font-size="11.980000">6</text>
<text x="698.305772" y="101.694228" transform="rotate(-44.999998 698.305772 101.694228)" fill="darkgreen" font-weight="bold" font-size="11.980000">9</text>
<text x="701.694228" y="301.694228" transform="rotate(-134.999993 701.694228 301.694228)" fill="darkgreen" font-weight="bold" font-size="11.980000">9</text>
<text x="0.000000" y="295.208000" transform="rotate(89.999995 0.000000 295.208000)" fill="darkgreen" font-weight="bold" font-size="11.980000">10</text>
<text x="704.792000" y="0.000000" transform="rotate(179.999990 704.792000 0.000000)" fill="darkgreen" font-weight="bold" font-size="11.980000">10</text>
<text x="295.208000" y="600.000000" transform="rotate(0.000000 295.208000 600.000000)" fill="darkgreen" font-weight="bold" font-size="11.980000">12</text>
<text x="695.208000" y="400.000000" transform="rotate(-0.000000 695.208000 400.000000)" fill="darkgreen" font-weight="bold" font-size="11.980000">12</text>
<text x="200.000000" y="495.208000" transform="rotate(89.999995 200.000000 495.208000)" fill="darkgreen" font-weight="bold" font-size="11.980000">14</text>
<text x="95.208000" y="400.000000" transform="rotate(0.000000 95.208000 400.000000)" fill="darkgreen" font-weight="bold" font-size="11.980000">14</text>
<text x="495.208000" y="400.000000" transform="rotate(0.000000 495.208000 400.000000)" fill="darkgreen" font-weight="bold" font-size="11.980000">15</text>
<text x="400.000000" y="504.792000" transform="rotate(-89.999995 400.000000 504.792000)" fill="darkgreen" font-weight="bold" font-size="11.980000">15</text>
</svg>
