<?xml version="1.0"?>
<svg width="1195" height="1038" version="1.1" xmlns="http://www.w3.org/2000/svg" >
<defs>
<style type="text/css"><![CDATA[
.m {stroke:rgb(255,0,0);stroke-width:1.493750;}
.v {stroke:rgb(0,0,255);stroke-width:1.493750;}
.b {stroke:rgb(0,0,0);stroke-width:2.987500;fill:white}
.n {stroke:rgb(128,128,128);stroke-width:1.493750}
.t {stroke:rgb(0,128,0);stroke-width:1.493750;}
.c {stroke:rgb(128,128,128);stroke-width:1.493750;stroke-dasharray:11.950000, 11.950000;}
]]></style>
</defs>
<path fill="none" style="stroke:black;stroke-width:2.987500;" d=" M 200 691.662 L 597.98 688.186 M 597.98 688.186 L 791.94 1035.72 M 597.98 0 L 397.98 344.093 M 797.98 344.093 L 597.98 0 M 0 347.569 L 200 691.662 M 397.98 344.093 L 0 347.569 M 1189.92 1039.2 L 995.96 691.662 M 791.94 1035.72 L 1189.92 1039.2 M 995.96 691.662 L 1195.96 347.569 M 1195.96 347.569 L 797.98 344.093" />
<path fill="none" class="c" d=" M 397.98 344.093 L 597.98 688.186 M 597.98 688.186 L 797.98 344.093 M 797.98 344.093 L 397.98 344.093 M 397.98 344.093 L 200 691.662 M 597.98 688.186 L 995.96 691.662 M 995.96 691.662 L 797.98 344.093 M 791.94 1035.72 L 995.96 691.662" />
</svg>
