<?xml version="1.0"?>
<svg width="1195" height="1038" version="1.1" xmlns="http://www.w3.org/2000/svg" >
<defs>
<style type="text/css"><![CDATA[
.m {stroke:rgb(255,0,0);stroke-width:1.493750;}
.v {stroke:rgb(0,0,255);stroke-width:1.493750;}
.b {stroke:rgb(0,0,0);stroke-width:2.987500;fill:white}
.n {stroke:rgb(128,128,128);stroke-width:1.493750}
.t {stroke:rgb(0,128,0);stroke-width:1.493750;}
.c {stroke:rgb(128,128,128);stroke-width:1.493750;stroke-dasharray:11.950000, 11.950000;}
]]></style>
</defs>
<path fill="none" style="stroke:black;stroke-width:2.987500;" d=" M 197.98 347.569 L 0 695.137 M 0 695.137 L 397.98 691.662 M 591.94 1039.2 L 795.96 695.137 M 397.98 691.662 L 591.94 1039.2 M 597.98 347.569 L 397.98 3.47569 M 397.98 3.47569 L 0 0 M 0 0 L 197.98 347.569 M 795.96 695.137 L 1195.96 695.137 M 1195.96 695.137 L 995.96 351.044 M 995.96 351.044 L 597.98 347.569" />
<path fill="none" class="c" d=" M 197.98 347.569 L 397.98 691.662 M 397.98 691.662 L 597.98 347.569 M 597.98 347.569 L 197.98 347.569 M 397.98 691.662 L 795.96 695.137 M 795.96 695.137 L 597.98 347.569 M 397.98 3.47569 L 197.98 347.569 M 795.96 695.137 L 995.96 351.044" />
</svg>
