<?xml version="1.0"?>
<svg width="1702" height="689" version="1.1" xmlns="http://www.w3.org/2000/svg" >
<defs>
<style type="text/css"><![CDATA[
.m {stroke:rgb(255,0,0);stroke-width:2.127500;}
.v {stroke:rgb(0,0,255);stroke-width:2.127500;}
.b {stroke:rgb(0,0,0);stroke-width:4.255000;fill:white}
.n {stroke:rgb(128,128,128);stroke-width:2.127500}
.t {stroke:rgb(0,128,0);stroke-width:2.127500;}
.c {stroke:rgb(128,128,128);stroke-width:2.127500;stroke-dasharray:17.020000, 17.020000;}
]]></style>
</defs>
<path fill="none" style="stroke:black;stroke-width:4.255000;" d=" M 325.493 396.248 L 651.363 624.74 M 1702.73 525.728 L 1377.23 293.233 M 1339.98 689.481 L 1702.73 525.728 M 1014.11 460.988 L 1339.98 689.481 M 651.363 624.74 L 1014.11 460.988 M 688.616 228.493 L 362.747 0 M 362.747 0 L 0 163.752 M 0 163.752 L 325.493 396.248 M 1377.23 293.233 L 1051.36 64.7404 M 1051.36 64.7404 L 688.616 228.493" />
<path fill="none" class="c" d=" M 688.616 228.493 L 651.363 624.74 M 688.616 228.493 L 325.493 396.248 M 1014.11 460.988 L 688.616 228.493 M 362.747 0 L 325.493 396.248 M 1014.11 460.988 L 1051.36 64.7404 M 1014.11 460.988 L 1377.23 293.233 M 1339.98 689.481 L 1377.23 293.233" />
<line x1="555.157613" y1="416.493610" x2="784.696406" y2="438.073748" class="t" />
<line x1="458.952154" y1="208.246805" x2="555.157613" y2="416.493610" class="t" />
<line x1="918.029740" y1="251.407081" x2="784.696406" y2="438.073748" class="t" />
<line x1="229.413361" y1="186.666667" x2="458.952154" y2="208.246805" class="t" />
<line x1="1147.568533" y1="272.987220" x2="918.029740" y2="251.407081" class="t" />
<line x1="1243.773992" y1="481.234025" x2="1147.568533" y2="272.987220" class="t" />
<line x1="1473.312785" y1="502.814163" x2="1243.773992" y2="481.234025" class="t" />
</svg>
